<svg width="160" height="160" viewBox="0 0 160 160" fill="none" xmlns="http://www.w3.org/2000/svg">
<rect width="160" height="160" rx="80" fill="white"/>
<path d="M140.615 83.5903C140.505 82.4949 140.285 81.2533 139.956 79.9025C139.887 79.6056 139.71 79.3448 139.461 79.1697C139.211 78.9946 138.906 78.9174 138.603 78.9529C136.926 75.1691 135.28 71.3716 133.665 67.561C133.738 67.4883 133.848 67.3786 133.884 67.3055C134.067 67.0135 134.14 66.6118 134.031 66.2832C133.628 64.8958 133.262 63.5812 132.933 62.2669C132.787 61.719 132.311 61.3539 131.763 61.3173C130.08 61.2442 127.666 61.208 124.41 61.208C124.228 61.208 124.045 61.2442 123.862 61.3539C123.716 61.427 123.533 61.5366 123.423 61.6093C123.277 61.6824 122.838 62.011 122.765 62.0476C122.582 61.5366 122.106 61.1715 121.557 61.1715C120.314 61.208 118.631 61.2442 116.766 61.3539C116.147 60.883 115.512 60.4325 114.864 60.003C110.438 57.0455 105.536 54.8547 100.452 53.4673C97.379 52.6274 94.2332 52.1161 91.0512 51.8972C90.0267 51.8241 89.0391 51.7875 88.015 51.7875C84.0647 51.7875 80.2237 52.2988 76.5293 53.248C76.4927 53.248 76.4562 53.2846 76.3831 53.2846C75.4686 51.4224 74.2248 49.1585 72.9448 47.0043C75.6148 44.8136 77.8096 41.8195 78.6875 38.5334C79.4558 35.5758 78.7972 32.6183 76.822 31.1578C76.4927 30.1355 75.9806 29.186 75.2493 28.4192C73.2738 26.3381 70.5673 26.0826 68.0066 26.8494C67.9701 26.5935 67.9335 26.3381 67.8239 26.0826C66.8363 23.7091 64.4218 23.1616 62.0443 23.9284C61.1298 24.1473 60.2153 24.0377 59.3008 23.5633C59.0815 23.4536 58.8253 23.3805 58.606 23.3074C57.9843 23.0154 57.3622 22.9423 56.7771 23.0885C55.1309 23.2709 53.8144 24.5855 53.0461 27.0683C51.9123 30.7561 45.9865 31.5229 42.8041 32.9103C38.6707 34.4439 38.0856 37.6204 38.5976 39.7384C38.7073 40.2494 38.8904 40.7241 39.1462 41.1624C36.5494 40.8703 34.3546 41.9292 32.4891 44.3023C29.965 47.4791 30.1115 51.3127 32.306 55.0371C37.6101 63.2891 44.2672 64.5307 52.3144 61.208C52.4609 61.3173 52.5706 61.427 52.7168 61.5366C53.1192 62.011 53.5216 62.4492 53.8144 62.8509C54.3264 63.5081 55.1678 64.5669 55.753 65.3702C54.6188 66.5753 53.5581 67.8534 52.6071 69.2042C52.5706 69.2773 52.534 69.3139 52.4975 69.3866C47.6066 70.189 42.75 71.1879 37.9394 72.3807H37.9025C30.8794 70.2265 25.6854 79.647 20.2354 79.5374C17.5651 79.5374 12.3345 74.5349 15.1876 80.7789C17.0896 84.9777 20.1985 89.3957 25.2464 89.3957C29.7457 89.3957 34.1715 84.6491 35.8177 86.4016C35.8177 86.6209 35.8177 86.8399 35.8542 87.0592C35.8908 87.6067 36.147 88.0814 36.5494 88.3735C36.659 90.8562 33.4036 92.4629 29.5629 91.8785C25.5026 91.2579 24.1126 94.1424 22.9419 96.3331C22.4299 97.3192 23.3809 98.378 24.405 97.9764C26.8195 96.9906 29.4164 96.3697 32.0136 97.0634C34.6839 97.7936 36.0004 100.204 38.7804 100.569C38.8169 101.189 38.8535 101.774 38.8904 102.358C36.8783 102.504 37.7563 104.403 35.3422 104.366C34.6104 104.366 32.5622 103.599 31.9039 103.526C30.7698 103.453 30.7332 104.293 31.6112 105.315C33.5132 107.543 35.7811 107.178 38.0125 108.346C35.2325 110.025 31.3184 109.186 28.2826 110.537C25.4295 111.815 23.5275 114.188 22.9054 117.146C22.6861 118.168 23.8564 118.971 24.7343 118.387C25.6854 117.73 26.6364 116.452 27.9533 116.233C31.2087 115.685 33.5132 118.022 36.5494 118.496C36.7687 118.533 36.9514 118.533 37.1345 118.533C37.1711 119.19 37.2076 119.811 37.2442 120.468C37.2807 120.943 37.5004 121.381 37.9025 121.673C38.1952 121.892 38.5611 122.038 38.9269 122.038C39.0366 122.038 39.1462 122.038 39.2193 122.002C43.8283 121.162 48.0713 120.176 51.9854 119.044C52.022 119.044 52.0951 119.008 52.1316 119.008C52.2047 118.971 52.3144 118.971 52.3878 118.935C52.4244 118.935 52.4244 118.898 52.4609 118.898C53.8509 118.533 54.2164 117.73 54.2164 117.219C57.3622 121.417 61.5322 125.069 66.0315 128.063C73.6762 133.138 82.0161 135.767 91.0877 135.986H92.3311C106.633 135.986 119.619 130.144 127.483 119.19C133.774 110.427 136.408 99.7654 134.47 88.9941C134.397 88.5197 134.287 88.0083 134.177 87.5336C135.128 87.3512 136.189 87.1684 137.323 86.9495L137.615 86.913C137.689 86.913 137.762 86.8764 137.835 86.8399L140.359 84.4302C140.542 84.284 140.651 83.9554 140.615 83.5903V83.5903Z" fill="#0D0802"/>
<path fill-rule="evenodd" clip-rule="evenodd" d="M106.276 63.769C93.9873 57.7417 79.1969 59.6526 69.9618 68.3263C63.9647 74.0594 60.8743 82.2549 62.162 90.9651C63.2658 98.4625 68.0486 105.078 73.4941 109.708C74.193 110.223 74.8922 110.737 75.628 111.215C89.9033 120.366 109.072 117.61 118.454 105.041C121.986 100.3 123.641 94.8608 123.531 89.3846C123.568 89.3846 123.568 89.3846 123.604 89.3481C123.273 78.3962 116.319 68.7305 106.275 63.769H106.276Z" fill="url(#paint0_radial_10302:28797)"/>
<path d="M77.8838 94.4964C77.8838 94.9375 77.9573 95.5622 78.0307 96.3707C78.0307 96.4442 78.0676 96.518 78.0676 96.5915C78.1411 96.5915 78.2146 96.665 78.2884 96.665C78.3988 96.5546 78.4353 96.4442 78.5827 96.3707C78.5827 96.3342 78.6196 96.1872 78.6196 96.0034V95.7461C78.5457 94.7171 78.4354 93.7613 78.3619 92.8059C77.9573 93.5778 77.9203 93.8717 77.8838 94.4964V94.4964ZM104.373 85.5288C104.631 85.4554 104.962 85.345 105.366 85.2346V85.1981C104.925 82.6621 104.667 81.339 104.299 79.4646C104.336 81.4493 104.336 83.4706 104.373 85.5288V85.5288Z" fill="#F3CB0E"/>
<path d="M76.9925 66.8588C77.1029 66.8219 77.1763 66.8219 77.2867 66.8219C78.0594 66.7853 78.7952 66.7484 79.4941 66.7115C83.063 64.7271 89.5754 64.0655 91.3413 63.9551C93.6225 63.8451 94.579 64.3594 94.9102 65.2417C95.094 65.2417 95.2413 65.2783 95.4252 65.3887C95.6094 65.2048 95.8667 65.0579 96.1244 65.021C96.3817 64.9844 96.6764 64.9475 96.9337 64.874C96.8971 64.5067 96.8233 64.139 96.6394 63.8082C95.3148 61.5296 91.8197 61.64 89.5754 61.8604C87.0735 62.0808 77.9121 63.7716 75.3736 67.263C75.484 67.3365 75.5944 67.4465 75.6678 67.5938C75.7048 67.5938 75.7782 67.5569 75.8151 67.5569C75.8517 67.5204 75.8886 67.4834 75.9621 67.4834C76.2567 67.1526 76.5875 66.9688 76.9925 66.8588V66.8588ZM105.431 106.768C106.351 107.356 107.491 107.245 107.933 106.51C108.411 105.775 108.043 104.71 107.124 104.122C106.204 103.534 105.063 103.644 104.622 104.379C104.18 105.114 104.511 106.18 105.431 106.768ZM66.6885 94.0161C66.4681 92.289 66.2839 90.5247 66.0631 88.7238V88.6138C65.9896 87.7683 65.8792 86.9233 65.8058 86.0778C65.8058 86.0044 65.8058 85.9309 65.7689 85.8205C65.6585 84.9016 65.585 83.9831 65.5112 83.0276C64.4077 87.401 63.8188 92.7298 66.6885 94.0161ZM99.583 63.6247C99.0676 63.8455 98.7368 64.1763 98.4422 64.5805C99.9942 64.2956 101.54 63.9769 103.078 63.6247C101.827 63.2574 100.613 63.1839 99.583 63.6247V63.6247ZM83.612 105.889C83.5016 106.588 83.6489 107.212 84.0535 107.653C84.9732 108.572 86.8128 108.168 88.2109 106.771C89.5725 105.411 89.9771 103.574 89.094 102.655C88.6525 102.949 88.2109 103.206 87.2544 103.757C86.2978 104.346 84.9732 105.117 83.612 105.889V105.889Z" fill="#EC6D1D"/>
<path d="M91.2745 101.366C91.2375 101.366 91.2376 101.366 91.201 101.403C90.5018 105.151 89.251 110.444 87.5586 111.105C85.719 111.803 82.4443 110.444 79.4273 108.018C79.0596 108.459 78.5811 108.827 78.0661 109.01C77.5876 109.267 77.1095 109.525 76.5576 109.782C79.7585 111.987 83.0697 113.825 85.4613 113.935C88.3679 114.082 89.2875 113.347 90.0237 111.583C90.6121 110.186 91.5687 105.004 92.4518 100.815C92.0428 100.961 91.6486 101.146 91.2745 101.366V101.366ZM96.5354 108.093C97.6023 109.232 99.6258 109.122 101.061 107.799C102.238 106.733 102.717 105.226 102.275 104.087C102.201 104.197 102.091 104.344 102.017 104.454C101.539 105.189 100.877 105.447 100.141 105.263C99.0373 105.006 98.0069 104.417 97.2712 103.609C95.7996 104.932 95.4684 106.953 96.5354 108.093V108.093Z" fill="#EC6D1D"/>
<path d="M105.652 97.693C105.505 97.9869 105.358 98.3177 105.21 98.6119C107.896 101.552 110.435 105.448 110.214 106.477C109.994 107.469 106.903 109.821 104.364 110.74C101.826 111.695 94.8717 113.9 93.5474 111.916C92.8482 110.85 93.989 103.978 94.6513 99.5673C94.3201 99.7143 93.9889 99.8981 93.584 100.119C92.7378 103.904 91.5974 109.16 91.2662 110.813C90.8981 112.504 90.7143 113.79 91.5604 114.709C91.9654 115.15 92.7012 115.37 93.8047 115.37C94.467 115.37 95.1294 115.297 95.7182 115.223C95.9755 115.187 96.2332 115.15 96.454 115.15C98.6614 114.966 100.574 114.635 102.378 114.121C104.659 113.459 108.816 111.879 111.281 108.792C112.459 107.322 111.686 105.484 110.84 104.051C110.141 102.875 107.492 99.7512 105.652 97.693V97.693ZM121.73 94.1636L121.288 94.8252C121.068 95.1929 120.81 95.5602 120.589 95.9279L120.553 95.9645C120.479 96.1114 120.368 96.2218 120.295 96.3687C120.148 96.626 119.743 97.2507 119.265 97.7288C119.115 97.9142 118.927 98.0647 118.713 98.1696C118.455 98.3165 118.198 98.39 117.94 98.3535C117.278 100.522 114.776 104.087 114.114 104.197C113.415 104.307 109.846 99.3458 106.572 95.6337C106.424 96.0014 106.24 96.3687 106.093 96.7364C108.411 99.5293 111.023 102.837 111.539 103.572C112.054 104.27 112.679 105.814 113.672 106.034C114.85 106.329 115.696 105.667 116.321 104.895C117.241 103.719 118.051 102.47 118.786 101.183C120.038 99.0516 121.105 96.663 121.73 94.1636V94.1636Z" fill="#EC6D1D"/>
<path d="M111.043 98.1691C112.331 98.2795 113.508 96.7725 113.656 94.7881C113.729 93.8326 113.545 92.9503 113.177 92.2891C113.03 92.3256 112.92 92.3625 112.81 92.3991C111.927 92.6933 110.528 93.0607 109.167 93.5384C109.093 93.8326 109.02 94.1265 109.02 94.4573C108.836 96.4051 109.756 98.0587 111.043 98.1691V98.1691ZM67.0402 96.6997C66.3413 97.986 66.6355 99.5295 67.2609 100.926C67.3348 100.853 67.4452 100.816 67.5555 100.742V100.706C67.5555 100.595 67.5556 100.485 67.5186 100.265C67.3713 99.0887 67.2244 97.9125 67.0402 96.6997V96.6997Z" fill="#EC6D1D"/>
<path d="M133.537 88.5039C133.5 88.32 133.463 88.0996 133.426 87.9157C132.323 88.1365 131.366 88.32 130.52 88.5039L130.188 88.5773H130.078C129.931 88.5773 129.821 88.5408 129.71 88.4673C129.563 88.3569 129.49 88.21 129.453 88.0261L129.416 87.6953V87.585L128.091 88.8347L128.018 88.9081L127.981 88.945C127.908 89.0185 127.834 89.092 127.723 89.092L127.466 89.1285C126.62 89.3124 125.589 89.5328 124.375 89.827C124.375 89.827 124.375 89.8636 124.339 89.8636C124.449 95.6336 122.757 101.404 119.077 106.402C118.171 107.637 117.162 108.792 116.06 109.856C105.611 120.147 87.9879 121.727 74.5602 112.944C73.9345 112.539 73.3091 112.099 72.7206 111.621C71.8375 112.025 70.9175 112.466 69.9244 112.87C69.7036 112.981 69.4828 113.017 69.2251 113.017C68.9309 113.017 68.6732 112.944 68.4159 112.834C68.2686 112.76 68.1582 112.613 68.0112 112.503C67.7905 113.054 67.4224 113.642 66.9439 114.009C66.797 114.12 66.6497 114.267 66.4658 114.34C64.2215 115.296 61.3884 116.325 57.9668 117.501C60.7261 120.882 64.0008 123.859 67.7535 126.358C75.0383 131.209 83.4639 133.929 92.1468 134.149H93.3241C94.1703 134.149 95.0164 134.113 95.863 134.076C108.519 133.341 120.072 127.24 127.099 117.427C133.133 109.048 135.415 98.7942 133.538 88.5039H133.537ZM77.3169 123.602C77.1331 123.785 76.9489 123.932 76.7281 124.043C76.5077 124.153 76.3235 124.263 76.0661 124.337H76.0292L75.2934 124.594C75.2565 124.594 75.183 124.631 75.1461 124.631C75.0727 124.631 75.0357 124.667 74.9992 124.667C74.9623 124.667 74.8888 124.704 74.815 124.704C74.7784 124.704 74.7046 124.704 74.6311 124.741H74.3369C74.1161 124.741 73.8953 124.741 73.6376 124.704C73.4169 124.667 73.1595 124.631 72.9388 124.557C72.718 124.484 72.4603 124.41 72.2395 124.3C72.1291 124.263 72.0187 124.19 71.9084 124.116L71.6876 124.447L71.3564 124.557L70.9518 124.704L69.4068 123.712L69.9583 122.94C69.701 122.756 69.4802 122.573 69.2595 122.389C69.0387 122.205 68.8548 121.985 68.7075 121.801C68.5602 121.58 68.4133 121.396 68.3029 121.176C68.1925 120.956 68.1187 120.735 68.0452 120.514C67.9717 120.294 67.9717 120.037 67.9348 119.816C67.9348 119.596 67.9717 119.339 68.0087 119.118C68.0452 118.897 68.1556 118.677 68.266 118.42C68.3764 118.199 68.5237 117.979 68.6706 117.758C68.781 117.611 68.9283 117.464 69.0387 117.317C69.186 117.17 69.2964 117.06 69.4433 116.95C69.5906 116.839 69.7375 116.729 69.8849 116.656C70.0322 116.582 70.1791 116.508 70.3633 116.435L71.0622 116.178C71.0991 116.178 71.0991 116.178 71.1357 116.141C71.3564 116.068 71.6141 115.994 71.8349 115.994H72.1291C72.3499 115.994 72.5707 115.994 72.7915 116.031C73.0122 116.068 73.233 116.104 73.4907 116.178C73.7115 116.251 73.9688 116.325 74.1896 116.435C74.2999 116.472 74.4103 116.545 74.5207 116.619L74.7046 116.362L75.4404 116.104L76.9489 117.097L76.4338 117.832C76.6915 118.015 76.9123 118.199 77.1331 118.383C77.3539 118.567 77.5008 118.751 77.685 118.971C77.8319 119.191 77.9793 119.375 78.0896 119.596C78.2 119.816 78.2735 120.037 78.347 120.257C78.4208 120.478 78.4208 120.698 78.4573 120.956C78.4573 121.176 78.4573 121.396 78.3839 121.654C78.347 121.874 78.2735 122.095 78.1631 122.315C78.0527 122.536 77.9423 122.756 77.7585 122.977C77.6481 123.234 77.5008 123.418 77.3169 123.602V123.602ZM86.5517 130.107L86.2206 130.217L85.816 130.327L83.9394 129.813L83.9028 127.718C83.9028 127.718 82.247 127.24 81.4378 127.02L80.4443 128.416L80.1131 128.526L79.7085 128.637L77.9423 128.122L83.3878 120.919L84.1236 120.661L86.1471 121.25L86.5517 130.107V130.107ZM97.0743 128.563C97.0377 128.747 97.0008 128.894 96.9273 129.041C96.8535 129.188 96.78 129.335 96.6697 129.482C96.566 129.622 96.4419 129.746 96.3016 129.849C96.1916 129.96 96.0443 130.033 95.9339 130.107L95.4923 130.327C95.4189 130.364 95.3085 130.401 95.2715 130.401L94.5727 130.621C94.4988 130.658 94.4623 130.658 94.3885 130.658C94.315 130.658 94.2781 130.695 94.2046 130.695C94.1311 130.695 94.0573 130.731 94.0207 130.731H93.5423L90.1207 130.695V130.18C90.1576 128.379 90.3045 122.573 90.3045 122.573L91.0038 122.352L96.4858 122.462L96.4489 123.895L96.0812 124.006L95.7131 124.116L92.6961 124.043L92.6592 125.366L94.2781 125.403C94.4988 125.403 94.6831 125.439 94.9035 125.439C95.0877 125.476 95.2715 125.513 95.4554 125.586C95.6396 125.66 95.7866 125.733 95.9339 125.807C96.0812 125.88 96.2281 125.991 96.3754 126.101C96.5223 126.211 96.6327 126.358 96.7066 126.468C96.817 126.615 96.8904 126.762 96.9639 126.909C97.0377 127.056 97.0743 127.24 97.1112 127.387C97.1481 127.571 97.1481 127.718 97.1481 127.938C97.1112 128.195 97.1112 128.379 97.0743 128.563V128.563ZM106.236 124.521C106.199 124.704 106.162 124.851 106.125 125.035C106.052 125.219 105.978 125.366 105.904 125.513L105.573 125.954C105.466 126.094 105.327 126.207 105.169 126.284C105.021 126.395 104.838 126.468 104.691 126.542C104.506 126.615 104.323 126.689 104.102 126.726L102.556 127.13L103.182 129.555H103.108H103.145L102.777 129.665L102.409 129.776L101.6 129.996L100.827 130.18H100.754L98.767 122.389L99.5028 122.168L102.777 121.36C102.851 121.36 102.887 121.323 102.961 121.323C103.035 121.323 103.072 121.286 103.145 121.286C103.219 121.286 103.256 121.286 103.292 121.25C103.329 121.213 103.402 121.25 103.439 121.25H103.844C103.954 121.25 104.102 121.286 104.212 121.323C104.323 121.36 104.47 121.396 104.58 121.433C104.691 121.47 104.801 121.543 104.911 121.617C105.058 121.727 105.206 121.801 105.353 121.948C105.5 122.058 105.61 122.205 105.721 122.352C105.831 122.499 105.904 122.646 105.978 122.83C106.052 123.014 106.125 123.197 106.162 123.381C106.199 123.565 106.236 123.785 106.273 123.969C106.236 124.19 106.236 124.374 106.236 124.521V124.521ZM115.985 124.19L115.765 124.263L115.25 124.41C115.25 124.41 113.962 122.242 113.189 120.919L112.895 126.027L111.534 126.836L111.313 126.909L110.761 127.056L106.714 120.221L108.149 119.412L108.885 119.191L110.982 122.72L111.276 117.611L112.638 116.839L113.373 116.619L117.42 123.381L115.985 124.19V124.19ZM124.006 117.06L123.638 117.17L123.271 117.28L119.775 117.097L122.019 119.228L120.952 120.404L120.695 120.478L120.18 120.625L114.477 115.259L115.581 114.083L116.317 113.826L118.046 115.48C117.862 114.267 117.568 111.951 117.568 111.951L118.782 110.665L119.518 110.408L120.18 115.259L125.294 115.59L124.006 117.06V117.06ZM129.562 108.166L129.194 108.276L128.826 108.386L127.538 108.129L126.545 110.114L127.906 111.473L127.207 112.87L126.913 112.981L126.471 113.127L120.842 107.174L121.652 105.557L122.388 105.299L130.261 106.622L129.562 108.166V108.166Z" fill="#E42320"/>
<path d="M125.17 108.828L125.685 107.762L123.735 107.358L125.17 108.828ZM103.647 123.75C103.61 123.64 103.573 123.566 103.499 123.493C103.463 123.419 103.389 123.346 103.316 123.272C103.242 123.199 103.169 123.162 103.095 123.125C103.058 123.089 102.984 123.089 102.948 123.052C102.874 123.015 102.838 123.015 102.764 123.015C102.69 123.015 102.653 122.979 102.58 122.979H102.175C102.138 122.979 102.101 122.979 102.065 123.015C102.028 123.015 101.991 123.015 101.954 123.052C101.954 123.052 101.734 123.089 101.513 123.162L102.212 125.808L103.058 125.588C103.095 125.588 103.095 125.551 103.132 125.551C103.169 125.551 103.169 125.514 103.205 125.514C103.242 125.478 103.316 125.441 103.353 125.441C103.389 125.441 103.389 125.404 103.389 125.404C103.426 125.367 103.499 125.331 103.536 125.294C103.573 125.257 103.647 125.184 103.684 125.11L103.794 124.889C103.831 124.816 103.831 124.706 103.868 124.632V124.338C103.868 124.228 103.831 124.118 103.831 124.044C103.72 123.934 103.684 123.861 103.647 123.75V123.75ZM94.5944 127.937C94.5944 127.863 94.5578 127.789 94.5209 127.716L94.4105 127.496C94.3736 127.422 94.3001 127.385 94.2267 127.312C94.1528 127.275 94.0794 127.202 94.0059 127.165C93.932 127.128 93.8217 127.091 93.7482 127.054C93.6378 127.018 93.5643 127.018 93.4539 126.981C93.3436 126.981 93.2332 126.944 93.1228 126.944H92.6078L92.5709 129.076H93.932C94.0424 129.076 94.1163 129.039 94.0793 129.076C94.1163 129.076 94.1163 129.039 94.1528 129.039C94.2267 129.002 94.2632 128.929 94.337 128.855C94.3736 128.782 94.4474 128.745 94.4474 128.672C94.484 128.598 94.5209 128.524 94.5209 128.451C94.5209 128.378 94.5578 128.268 94.5578 128.194V128.157C94.6313 128.084 94.6313 128.01 94.5944 127.937ZM82.4888 125.437L83.9234 125.842C83.9234 125.217 83.9234 124.115 83.8869 123.453L82.4888 125.437ZM73.0708 118.124C72.9604 118.087 72.8135 118.014 72.7031 117.977C72.5927 117.94 72.4454 117.903 72.335 117.903C72.2247 117.903 72.0777 117.867 71.9673 117.903H71.7096C71.7096 117.903 71.6727 117.903 71.6727 117.94C71.5623 118.014 71.452 118.087 71.3416 118.198C71.2312 118.308 71.1577 118.418 71.0473 118.528C70.9369 118.675 70.8635 118.785 70.8265 118.932C70.7614 119.061 70.7121 119.197 70.6796 119.337C70.6427 119.484 70.6427 119.594 70.6427 119.741C70.6427 119.888 70.6427 119.998 70.6796 120.145C70.7162 120.292 70.7531 120.402 70.79 120.513C70.8635 120.623 70.9 120.77 71.0104 120.88C71.0842 120.99 71.1946 121.101 71.305 121.211L71.3416 121.248L73.4389 118.345C73.3114 118.279 73.1884 118.206 73.0708 118.124V118.124ZM75.7954 120.295C75.7498 120.157 75.6745 120.032 75.5747 119.927C75.5012 119.817 75.3908 119.706 75.2804 119.596C75.2804 119.596 75.2435 119.596 75.2435 119.56L73.1465 122.463C73.2569 122.536 73.4038 122.61 73.5142 122.647C73.6246 122.683 73.7719 122.757 73.8823 122.794C73.9927 122.831 74.1396 122.867 74.25 122.867C74.3604 122.867 74.5077 122.904 74.6181 122.867H74.8389C74.9123 122.83 74.9862 122.757 75.0596 122.72C75.1331 122.647 75.2435 122.573 75.317 122.5C75.3908 122.426 75.4643 122.316 75.5377 122.205C75.6116 122.095 75.722 121.948 75.7585 121.801C75.8323 121.654 75.8689 121.544 75.9058 121.397C75.9427 121.287 75.9427 121.14 75.9427 120.993C75.9427 120.846 75.9427 120.735 75.9058 120.588C75.8689 120.552 75.8323 120.405 75.7954 120.295V120.295ZM63.4314 68.915C64.3879 67.923 65.3445 67.7391 65.7861 67.7022C66.7795 67.5922 67.773 67.5187 68.6927 67.4449C78.2955 58.3308 93.6747 56.3461 106.405 62.7407C108.389 62.3066 110.39 61.9511 112.402 61.6749C112.697 61.6383 112.991 61.6749 113.249 61.8587C113.447 61.6585 113.705 61.5294 113.984 61.4914C114.573 61.4179 115.199 61.3445 115.787 61.3075C115.493 61.0871 115.162 60.8664 114.867 60.646C108.098 56.1257 100.261 53.4428 92.1666 52.9281C91.21 52.8547 90.2535 52.8547 89.2965 52.8181C88.8554 52.8181 88.4504 52.8547 88.0088 52.8547C87.6042 52.8547 87.1996 52.8547 86.7949 52.8916C86.0222 52.9281 85.2865 53.0016 84.5137 53.0751H84.3299C72.9243 54.3617 62.6591 60.0213 56.0366 68.768C58.097 68.4742 60.1205 68.2169 62.144 68.033C62.7325 68.033 63.211 68.4007 63.4318 68.915H63.4314ZM52.2118 84.166V83.8718C51.5165 84.092 50.8174 84.3002 50.1149 84.4965C50.0779 84.7172 50.0779 84.9007 50.041 85.1581V85.195C50.3722 89.7153 50.8506 96.2938 51.4391 104.931C51.476 105.445 51.6233 105.666 51.6968 105.702C51.7337 105.739 51.7703 105.776 52.0649 105.813H52.2487C52.5799 105.776 52.9111 105.886 53.1684 106.106C53.3657 105.875 53.6192 105.698 53.9045 105.592C54.0146 105.555 53.978 105.555 54.0146 105.555C54.0146 105.555 54.0884 105.371 54.0884 105.004C54.0884 104.894 54.0884 104.747 54.0515 104.6C53.4261 97.6904 52.8007 90.8915 52.2118 84.166V84.166Z" fill="#E42320"/>
<path d="M129.509 108.168L127.633 107.8L127.486 108.168L128.737 108.425L129.105 108.278L129.509 108.168ZM125.644 107.761L125.129 108.827L125.534 109.268L126.417 107.504L123.363 106.916L123.326 106.99L123.694 107.357L125.644 107.761Z" fill="#0D0802"/>
<path d="M121.57 106.953L122.011 106.071L122.416 105.336H122.379L121.644 105.593L120.834 107.21L126.426 113.164L126.905 113.017L127.199 112.907L121.57 106.953V106.953Z" fill="#0D0802"/>
<path d="M115.231 115.038L115.82 114.413L116.298 113.862L115.562 114.083L114.459 115.259H114.496H114.459L120.161 120.625L120.677 120.477L120.934 120.404L115.231 115.038V115.038ZM123.988 117.061L119.868 116.84L119.684 117.024L119.757 117.135L123.253 117.318L123.62 117.208L123.988 117.061V117.061ZM117.55 111.989C117.55 111.989 117.881 114.304 118.028 115.517L118.69 116.142L118.874 115.958L118.359 112.246V112.136L118.286 111.731L119.5 110.445L118.764 110.702L117.55 111.989Z" fill="#0D0802"/>
<path d="M107.444 119.999L108.142 119.595L108.842 119.191L108.106 119.412L106.671 120.22L110.718 127.056L111.27 126.909L111.491 126.835L107.444 119.999ZM113.332 116.581L112.596 116.802L111.272 117.61V117.573V117.61L110.977 122.682L111.566 123.674L111.64 123.637L112.007 117.353L113.332 116.581ZM115.979 124.19L113.293 119.706L113.22 119.743L113.146 120.919C113.919 122.242 115.207 124.41 115.207 124.41L115.722 124.263L115.979 124.19Z" fill="#0D0802"/>
<path d="M103.112 129.591L101.456 129.995L99.4692 122.204L98.7334 122.424L100.72 130.216H100.794L101.567 130.032L102.376 129.812L102.744 129.701L103.112 129.591H103.075H103.112V129.591ZM104.4 123.529C104.363 123.418 104.327 123.345 104.253 123.272C104.216 123.198 104.143 123.125 104.069 123.051C103.995 122.978 103.922 122.941 103.848 122.904C103.812 122.867 103.738 122.867 103.701 122.831C103.627 122.794 103.591 122.794 103.517 122.794C103.443 122.794 103.407 122.757 103.333 122.757H102.928C102.892 122.757 102.855 122.757 102.818 122.794C102.781 122.794 102.745 122.794 102.708 122.831L101.53 123.125V123.161C101.788 123.088 101.972 123.051 101.972 123.051C102.008 123.051 102.045 123.051 102.082 123.014C102.119 123.014 102.156 123.014 102.193 122.978H102.597C102.671 122.978 102.708 122.978 102.781 123.014C102.855 123.014 102.892 123.051 102.965 123.051C103.039 123.088 103.076 123.088 103.112 123.125C103.186 123.161 103.26 123.235 103.333 123.272C103.407 123.345 103.443 123.382 103.517 123.492C103.554 123.565 103.627 123.639 103.664 123.749C103.701 123.86 103.738 123.933 103.775 124.044C103.812 124.154 103.812 124.264 103.812 124.337V124.631C103.812 124.705 103.775 124.815 103.738 124.889C103.701 124.962 103.664 125.036 103.627 125.109C103.591 125.183 103.554 125.219 103.48 125.293C103.443 125.33 103.407 125.366 103.333 125.403L103.296 125.44C103.26 125.477 103.186 125.513 103.149 125.513C103.112 125.513 103.112 125.55 103.076 125.55C103.039 125.55 103.039 125.587 103.002 125.587L103.37 125.513L103.701 125.403H103.738L103.958 125.293C103.958 125.293 103.995 125.293 103.995 125.256C104.069 125.219 104.143 125.146 104.179 125.109L104.363 124.925L104.474 124.705C104.51 124.631 104.51 124.521 104.547 124.448V124.154C104.547 124.044 104.51 123.933 104.51 123.86C104.474 123.713 104.437 123.639 104.4 123.529V123.529Z" fill="#0D0802"/>
<path d="M95.264 130.4C95.1905 130.437 95.1536 130.437 95.0801 130.437C95.0063 130.437 94.9328 130.473 94.8959 130.473C94.8224 130.473 94.749 130.51 94.712 130.51H94.197L90.7754 130.473L90.9223 123.564L90.9593 122.315L90.2604 122.535C90.2604 122.535 90.1131 128.305 90.0762 130.143V130.657L93.4978 130.694H93.9762C94.0497 130.694 94.1236 130.694 94.1601 130.657C94.2339 130.657 94.3074 130.621 94.3443 130.621C94.4178 130.621 94.4547 130.584 94.5282 130.584L95.264 130.4V130.4Z" fill="#0D0802"/>
<path d="M95.2794 127.461L95.169 127.241C95.132 127.167 95.0586 127.131 94.9851 127.057C94.9113 127.021 94.8378 126.947 94.7643 126.91C94.6909 126.874 94.5805 126.837 94.5066 126.8C94.3963 126.763 94.3228 126.763 94.2124 126.727C94.102 126.727 93.9916 126.69 93.8812 126.69L92.667 126.653V126.874H93.1824C93.2928 126.874 93.4032 126.874 93.5132 126.91C93.6236 126.91 93.7339 126.947 93.8078 126.984C93.9182 127.021 93.9916 127.057 94.0651 127.094C94.1389 127.131 94.2124 127.167 94.2859 127.241C94.3597 127.278 94.3963 127.351 94.4701 127.425L94.5805 127.645C94.617 127.719 94.617 127.792 94.654 127.866V128.16C94.654 128.27 94.6539 128.344 94.617 128.417C94.617 128.491 94.5805 128.564 94.5436 128.638C94.5066 128.711 94.4701 128.784 94.4332 128.821C94.3963 128.895 94.3228 128.931 94.2493 129.005C94.2124 129.005 94.2124 129.042 94.1755 129.042H94.3228C94.3963 129.042 94.5066 129.005 94.5805 128.968C94.6539 128.931 94.7274 128.931 94.8013 128.895C94.8747 128.858 94.9482 128.821 94.9851 128.784C95.0586 128.748 95.0955 128.674 95.169 128.601C95.2059 128.527 95.2794 128.491 95.2794 128.417C95.3163 128.344 95.3528 128.27 95.3528 128.196C95.3528 128.123 95.3897 128.013 95.3897 127.939V127.682L95.2794 127.461V127.461ZM96.4571 123.895L92.7043 123.822V124.079L95.7213 124.152L96.0893 124.042L96.4571 123.895V123.895Z" fill="#0D0802"/>
<path d="M78.7065 127.863L81.6866 123.894L84.1516 120.66L83.4158 120.88L77.9707 128.12V128.084V128.12L79.7365 128.598L80.1046 128.488L80.4358 128.377L78.7065 127.863ZM86.5443 130.108L84.6681 129.593L84.6312 127.535V127.498L81.6877 126.653L81.4303 127.021C82.2396 127.241 83.8585 127.719 83.8954 127.719L83.9319 129.814L85.8085 130.328L86.2131 130.218L86.5443 130.108V130.108ZM83.9305 125.844L84.6666 126.065L84.6297 122.72V122.61L84.5193 122.573L83.8939 123.455C83.9305 124.117 83.9305 125.256 83.9305 125.844V125.844Z" fill="#0D0802"/>
<path d="M70.1827 123.528L70.4773 123.124L70.7347 122.756C70.4773 122.573 70.2566 122.389 70.0358 122.205C69.815 122.021 69.6308 121.801 69.4839 121.617C69.3365 121.397 69.1896 121.213 69.0792 120.992C68.9688 120.772 68.895 120.552 68.8215 120.331C68.7481 120.11 68.7481 119.853 68.7111 119.633C68.7111 119.412 68.7481 119.155 68.7846 118.934C68.8215 118.714 68.9319 118.493 69.0423 118.236C69.0423 118.236 69.0423 118.2 69.0792 118.2C69.1896 118.016 69.3 117.795 69.4469 117.611C69.4469 117.611 69.4469 117.574 69.4839 117.574C69.5942 117.428 69.7412 117.244 69.8516 117.134C69.9989 116.986 70.1093 116.876 70.2566 116.766C70.4035 116.656 70.5508 116.546 70.6981 116.472C70.845 116.399 70.9923 116.325 71.1762 116.252L70.4773 116.509C70.33 116.582 70.1462 116.656 69.9989 116.729C69.8516 116.803 69.7046 116.913 69.5573 117.023C69.4104 117.134 69.2631 117.244 69.1527 117.391C69.0054 117.538 68.895 117.685 68.7846 117.832C68.6377 118.052 68.4904 118.273 68.38 118.493C68.2696 118.714 68.1961 118.934 68.1223 119.192C68.0857 119.412 68.0488 119.633 68.0488 119.89C68.0488 120.11 68.0857 120.368 68.1592 120.588C68.2327 120.809 68.3065 121.029 68.4169 121.25C68.5273 121.47 68.6742 121.691 68.8215 121.874C68.9688 122.095 69.1527 122.279 69.3735 122.462C69.5573 122.646 69.815 122.83 70.0723 123.014L69.5204 123.786L71.0658 124.778L71.4704 124.631L71.8016 124.521L70.1827 123.528V123.528ZM75.5544 116.104L74.8186 116.361L74.6347 116.619C74.7451 116.692 74.8924 116.729 75.0028 116.839L75.5544 116.104V116.104ZM76.5106 120.036C76.4367 119.925 76.4002 119.779 76.2898 119.668C76.216 119.558 76.1056 119.448 75.9952 119.338C75.8848 119.227 75.7744 119.117 75.6275 119.043L75.2225 119.595C75.2225 119.595 75.2594 119.595 75.2594 119.632C75.3698 119.742 75.4802 119.852 75.5536 119.962C75.6275 120.072 75.7009 120.183 75.7744 120.33C75.8482 120.44 75.8848 120.587 75.8848 120.697C75.9217 120.844 75.9217 120.955 75.9217 121.102C75.9217 121.249 75.8848 121.359 75.8848 121.506C75.8482 121.616 75.8113 121.763 75.7379 121.91C75.664 122.057 75.5906 122.168 75.5171 122.314C75.4433 122.424 75.3698 122.498 75.2963 122.608C75.2225 122.682 75.1121 122.755 75.0386 122.829C74.9652 122.903 74.8917 122.939 74.8179 122.976H74.8917C75.0386 122.939 75.149 122.903 75.2594 122.866C75.2594 122.866 75.2963 122.866 75.2963 122.829C75.4067 122.792 75.4802 122.719 75.5906 122.682C75.6275 122.682 75.6275 122.645 75.664 122.645C75.7744 122.572 75.8482 122.498 75.9217 122.424L75.9586 122.388C76.069 122.278 76.1425 122.168 76.2529 122.057C76.3633 121.91 76.4367 121.8 76.4736 121.653C76.5388 121.525 76.5881 121.389 76.6206 121.249C76.6575 121.102 76.6575 120.991 76.6575 120.844C76.6575 120.697 76.6575 120.587 76.6206 120.44C76.6206 120.293 76.584 120.183 76.5106 120.036V120.036ZM76.0306 124.374C75.9937 124.374 75.9202 124.41 75.8833 124.41C75.8468 124.41 75.7729 124.447 75.7364 124.447C75.6625 124.447 75.626 124.484 75.5522 124.484C75.5156 124.484 75.4418 124.484 75.4052 124.521H75.1106C74.8902 124.521 74.6694 124.521 74.4117 124.484C74.191 124.447 73.9333 124.41 73.7129 124.337C73.4921 124.263 73.2344 124.19 73.0136 124.08C72.7929 123.969 72.5352 123.859 72.3148 123.712L71.9836 124.153C72.094 124.19 72.2044 124.263 72.3148 124.337C72.5352 124.447 72.7929 124.521 73.0136 124.594C73.2344 124.668 73.4921 124.704 73.7129 124.741C73.9333 124.778 74.1541 124.778 74.4117 124.778H74.706C74.7798 124.778 74.8164 124.778 74.8902 124.741C74.9637 124.741 75.0006 124.704 75.0741 124.704C75.1106 124.704 75.1845 124.668 75.221 124.668C75.2948 124.668 75.3314 124.631 75.3683 124.631L76.0306 124.374V124.374Z" fill="#0D0802"/>
<path d="M71.6554 121.506L74.157 118.051C74.0422 117.975 73.9188 117.914 73.7893 117.867C73.6789 117.83 73.5316 117.757 73.4212 117.72C73.3108 117.684 73.1639 117.647 73.0535 117.647C72.9431 117.647 72.7958 117.61 72.6854 117.647H72.3912C72.2439 117.684 72.1335 117.684 71.9865 117.757C71.8761 117.794 71.7658 117.867 71.6919 117.904H72.3177C72.4277 117.904 72.575 117.941 72.6854 117.977C72.7958 118.014 72.9431 118.051 73.0535 118.124C73.1639 118.161 73.3108 118.235 73.4212 118.308L71.3242 121.211C71.4346 121.322 71.545 121.432 71.6554 121.506V121.506Z" fill="#0D0802"/>
<path d="M129.526 108.167L130.262 106.66L122.389 105.337L121.579 106.991L127.209 112.945L127.908 111.548L126.546 110.188L127.687 107.836L129.526 108.167V108.167ZM125.553 109.269L123.309 106.991L123.346 106.917L126.399 107.505L125.553 109.269V109.269ZM119.481 110.482L118.304 111.731L118.892 115.958L118.708 116.141L116.28 113.863L115.213 115.002L120.916 120.404L121.983 119.229L119.665 117.023L119.849 116.84L123.969 117.06L125.294 115.664L120.18 115.333L119.481 110.482V110.482ZM111.975 117.352L111.608 123.637L111.534 123.674L108.848 119.153L107.413 119.962L111.497 126.834L112.858 126.026L113.19 119.741L113.263 119.668L115.949 124.188L117.347 123.343L113.3 116.58L111.975 117.352V117.352ZM105.906 122.868C105.832 122.684 105.722 122.537 105.648 122.39C105.538 122.243 105.427 122.096 105.281 121.986C105.133 121.876 105.023 121.766 104.839 121.655C104.729 121.582 104.618 121.545 104.508 121.471C104.397 121.435 104.287 121.398 104.14 121.361C104.029 121.324 103.882 121.324 103.772 121.288H103.22C103.183 121.288 103.11 121.288 103.073 121.324C102.999 121.324 102.962 121.324 102.889 121.361C102.815 121.361 102.779 121.398 102.705 121.398L99.4304 122.206L101.417 129.998L103.073 129.593L102.447 127.168L103.993 126.764C104.214 126.727 104.397 126.653 104.581 126.58C104.765 126.506 104.912 126.396 105.06 126.323C105.207 126.212 105.354 126.102 105.464 125.992C105.575 125.845 105.685 125.735 105.796 125.551C105.906 125.404 105.979 125.22 106.016 125.073C106.053 124.926 106.127 124.742 106.127 124.559C106.163 124.377 106.163 124.189 106.127 124.007C106.127 123.823 106.09 123.64 106.016 123.419C106.053 123.199 105.979 123.015 105.906 122.868V122.868ZM104.508 124.412C104.508 124.485 104.471 124.595 104.434 124.669L104.324 124.889C104.287 124.963 104.214 125.036 104.14 125.11C104.066 125.184 103.993 125.22 103.919 125.294C103.846 125.33 103.735 125.404 103.625 125.441L103.294 125.551L102.116 125.845L101.417 123.125L102.595 122.831C102.631 122.831 102.668 122.795 102.705 122.795C102.742 122.795 102.779 122.795 102.816 122.758H103.22C103.294 122.758 103.331 122.758 103.404 122.795C103.477 122.795 103.514 122.831 103.588 122.831C103.662 122.868 103.698 122.868 103.735 122.905C103.809 122.941 103.882 123.015 103.956 123.052C104.029 123.125 104.066 123.162 104.14 123.272C104.177 123.346 104.25 123.419 104.287 123.53C104.324 123.64 104.361 123.713 104.397 123.823C104.434 123.934 104.434 124.044 104.434 124.118C104.508 124.228 104.508 124.338 104.508 124.412ZM96.8904 126.984C96.8166 126.838 96.7431 126.691 96.6327 126.544C96.5224 126.397 96.412 126.286 96.3016 126.176C96.1546 126.066 96.0443 125.956 95.86 125.882C95.7131 125.809 95.5289 125.735 95.3819 125.662C95.1977 125.588 95.0139 125.551 94.83 125.514C94.6462 125.478 94.4254 125.478 94.2046 125.478L92.5857 125.441L92.6223 123.861L96.3751 123.934L96.412 122.501L90.9299 122.391L90.7461 130.513L94.1677 130.55H94.4619C94.6462 130.55 94.83 130.513 94.9769 130.476C95.1242 130.439 95.3081 130.402 95.4554 130.329C95.6027 130.255 95.7497 130.219 95.897 130.108C96.0443 130.035 96.1546 129.925 96.2647 129.851C96.412 129.741 96.5224 129.594 96.6327 129.484C96.7431 129.337 96.8166 129.19 96.8904 129.043C96.9639 128.896 97.0008 128.712 97.0374 128.565C97.0743 128.381 97.1112 128.197 97.1112 128.014C97.1112 127.83 97.1112 127.646 97.0743 127.462C97.0374 127.279 96.9639 127.132 96.8904 126.984V126.984ZM95.3081 128.234C95.3081 128.308 95.2716 128.381 95.2346 128.455C95.1977 128.528 95.1612 128.601 95.1242 128.638C95.0873 128.712 95.0139 128.749 94.9404 128.822C94.8666 128.859 94.83 128.896 94.7565 128.932C94.6827 128.969 94.6092 129.006 94.5358 129.006C94.4619 129.043 94.3885 129.043 94.2781 129.08C94.2046 129.08 94.0942 129.116 93.9838 129.116H92.6223L92.6592 126.764L93.8734 126.801C93.9838 126.801 94.0942 126.801 94.2046 126.838C94.315 126.838 94.4254 126.874 94.4988 126.911C94.6092 126.948 94.6827 126.984 94.7565 127.021C94.83 127.058 94.9035 127.095 94.9769 127.168C95.0508 127.205 95.0873 127.279 95.1612 127.352L95.2716 127.573C95.3081 127.646 95.345 127.719 95.345 127.793C95.345 127.867 95.3819 127.977 95.345 128.05C95.345 128.087 95.3081 128.161 95.3081 128.234V128.234ZM84.124 120.66L78.6789 127.9L80.4451 128.415L81.6959 126.651L84.6394 127.496L84.6759 129.591L86.5525 130.106L86.1844 121.248L84.124 120.66ZM82.4686 125.438L84.4921 122.572L84.6025 122.608L84.6394 126.063L82.4686 125.438ZM78.1247 119.597C78.0115 119.376 77.876 119.166 77.7201 118.972C77.5728 118.752 77.3889 118.568 77.1682 118.384C76.9474 118.201 76.7266 118.017 76.4693 117.833L76.9843 117.098L75.4758 116.106L74.9608 116.841C74.74 116.694 74.4823 116.583 74.2616 116.473C74.0408 116.363 73.7831 116.29 73.5627 116.216C73.3419 116.143 73.1211 116.106 72.8635 116.069C72.6427 116.032 72.4219 116.032 72.2011 116.032H71.9069C71.6492 116.069 71.4284 116.106 71.2077 116.179C70.9869 116.253 70.7665 116.363 70.5457 116.473C70.3249 116.583 70.1407 116.767 69.9569 116.914C69.773 117.098 69.5888 117.282 69.4418 117.502C69.2945 117.723 69.1476 117.943 69.0372 118.164C68.9268 118.384 68.853 118.605 68.7795 118.862C68.7426 119.083 68.7061 119.303 68.7061 119.56C68.7061 119.781 68.7426 120.038 68.8164 120.259C68.8899 120.479 68.9634 120.7 69.0738 120.92C69.1842 121.141 69.3315 121.361 69.4784 121.545C69.6257 121.766 69.8096 121.949 70.0303 122.133C70.2511 122.317 70.4719 122.501 70.7296 122.684L70.1776 123.456L71.723 124.449L72.275 123.677C72.5323 123.823 72.7531 123.934 72.9738 124.044C73.1946 124.154 73.4523 124.228 73.6731 124.301C73.8935 124.375 74.1512 124.412 74.3719 124.449C74.5927 124.485 74.8135 124.485 75.0708 124.485H75.3654C75.6227 124.449 75.8435 124.412 76.0643 124.338C76.2851 124.265 76.5058 124.154 76.7266 124.044C76.9474 123.934 77.1312 123.75 77.3155 123.603C77.4993 123.419 77.6832 123.236 77.8305 123.015C77.9774 122.795 78.1247 122.574 78.2351 122.353C78.3414 122.145 78.4158 121.922 78.4559 121.692C78.4928 121.471 78.5294 121.251 78.5294 120.994C78.5294 120.773 78.4928 120.553 78.419 120.296C78.3086 120.038 78.2351 119.818 78.1247 119.597V119.597ZM71.6127 121.508C71.4653 121.398 71.355 121.288 71.2446 121.214C71.1342 121.104 71.0238 120.994 70.9503 120.883C70.8685 120.766 70.7948 120.643 70.7296 120.516C70.6598 120.406 70.6216 120.279 70.6192 120.149C70.5823 120.001 70.5823 119.891 70.5823 119.744C70.5823 119.597 70.6192 119.487 70.6192 119.34C70.6561 119.193 70.6926 119.083 70.7665 118.935C70.8399 118.789 70.9134 118.679 70.9869 118.531C71.0973 118.421 71.1711 118.274 71.2815 118.201C71.3919 118.09 71.5023 118.017 71.6127 117.943C71.723 117.87 71.8334 117.797 71.9804 117.76C72.0908 117.723 72.2381 117.686 72.385 117.649H73.0473C73.1577 117.649 73.305 117.686 73.4154 117.723C73.5258 117.76 73.6731 117.797 73.7831 117.87C73.8935 117.907 74.0408 117.98 74.1512 118.053L71.6127 121.508V121.508ZM76.6162 121.214C76.5836 121.354 76.5343 121.49 76.4693 121.618C76.3955 121.766 76.322 121.876 76.2485 122.023C76.1381 122.133 76.0643 122.28 75.9539 122.353C75.8435 122.464 75.7331 122.537 75.6228 122.611C75.5124 122.684 75.402 122.758 75.255 122.795C75.1447 122.831 74.9974 122.868 74.8504 122.905H74.1881C74.0777 122.905 73.9304 122.868 73.82 122.831C73.7096 122.795 73.5627 122.758 73.4523 122.684C73.3227 122.638 73.1991 122.576 73.0842 122.501L75.5862 119.046C75.7331 119.156 75.8435 119.23 75.9539 119.34C76.0643 119.45 76.1747 119.56 76.2485 119.671C76.322 119.781 76.3955 119.891 76.4693 120.038C76.5428 120.149 76.5793 120.296 76.5793 120.406C76.6162 120.553 76.6162 120.663 76.6162 120.81C76.6531 120.957 76.6162 121.067 76.6162 121.214V121.214ZM140.159 83.69C140.049 82.5142 139.791 81.2645 139.46 80.0152L139.387 79.6844L139.056 79.7578C138.945 79.7578 138.871 79.7944 138.761 79.7944C138.504 79.7944 138.43 79.7209 138.393 79.6844C136.621 75.6674 134.879 71.6369 133.168 67.5932V67.5562C132.948 67.1889 133.022 67.0416 133.022 67.0416C133.022 67.0416 133.058 66.9681 133.426 66.8581L133.757 66.7477L133.647 66.4169C133.5 65.9392 133.389 65.4615 133.242 64.9838C132.985 64.0649 132.727 63.1829 132.47 62.264L132.396 62.0066H132.138C131.476 61.9701 130.74 61.9701 129.894 61.9332C128.165 61.8966 126.435 61.8966 124.706 61.9332H124.338V62.3009C124.375 64.0649 124.375 65.498 124.486 66.6743V66.9316L124.743 67.005C124.927 67.0785 125.074 67.152 125.111 67.2255C125.148 67.3358 125.148 67.4828 125.038 67.7032L125.001 67.7766C124.523 71.4519 123.86 76.0091 123.124 81.3014L123.087 81.6322L123.419 81.7057H123.603C124.743 82.1099 125.7 83.0654 126.104 84.2416C126.178 84.4559 126.178 84.6885 126.104 84.9028C125.918 85.4141 125.71 85.917 125.479 86.4098L125.185 87.0714L126.951 86.6671C127.981 86.4098 128.864 86.226 129.636 86.0421L129.931 85.9686V85.6748C129.931 84.3516 129.894 83.0654 129.784 81.8157L129.747 81.2279H129.71V81.191L129.342 81.2279H129.011C129.011 79.9782 129.048 78.6185 129.121 77.2954L129.894 77.1853C130.409 77.1115 130.924 77.075 131.55 77.038C131.955 78.3243 132.249 79.5005 132.433 80.5664C132.433 80.6398 132.359 80.7502 131.955 80.8602L131.66 80.9337L131.697 81.2645C131.734 81.6322 131.807 81.9995 131.844 82.3672C131.955 83.1758 132.065 84.0208 132.212 84.8293L132.286 85.4544H132.322V85.5278L132.69 85.4544C133.72 85.2336 134.935 85.0132 136.333 84.7193C137.4 84.4985 138.577 84.2781 139.902 84.0208L140.233 83.9474L140.159 83.69V83.69ZM130.299 72.5177L129.71 72.5912L129.269 72.6647C129.342 71.8931 129.453 71.158 129.6 70.4964C129.784 71.0111 130.005 71.5988 130.225 72.2973L130.299 72.5177V72.5177Z" fill="white"/>
<path d="M129.779 69.8342C129.705 69.6503 129.632 69.4668 129.521 69.283C129.19 70.3853 129.006 71.6716 128.896 73.0682H129.043L129.779 72.9213L130.809 72.8109C130.772 72.7009 130.735 72.6274 130.699 72.517C130.416 71.6147 130.109 70.7201 129.779 69.8342Z" fill="#0D0802"/>
<path d="M125.57 84.646L125.533 84.4987C125.128 83.4332 124.466 82.7347 123.399 82.3304L123.289 82.2939L123.178 82.3304C123.031 82.3674 122.884 82.4408 122.737 82.4774H122.7C122.516 82.5508 122.369 82.5878 122.222 82.6247L121.891 82.6982C121.449 82.8082 121.192 82.8082 121.192 82.7716C121.155 82.7347 121.081 82.5878 121.081 81.8896C121.044 79.3902 121.118 76.7808 121.192 74.2453V74.0983C121.265 72.0032 121.302 69.8719 121.302 67.8137C121.302 67.336 121.56 67.1521 122.001 66.9683L122.222 66.8582V66.6009C122.222 65.6455 122.259 65.0573 122.259 64.5062C122.296 63.8077 122.332 63.2195 122.222 62.0437L122.185 61.7129H121.854C120.346 61.7498 117.218 61.7864 114.017 62.2641L113.686 62.301V64.5427C113.686 65.7189 113.686 66.4905 113.87 67.8137L113.907 68.1076H114.238C114.679 68.1076 114.753 68.2914 114.753 68.5853C114.974 72.0767 115.047 75.2742 115.121 78.3244V78.5083C115.158 79.758 115.195 81.0073 115.231 82.2204C115.305 83.2124 115.231 83.2124 114.385 83.4697C114.238 83.5067 114.128 83.5432 114.054 83.5432C113.907 83.5432 113.76 83.4698 113.539 82.7716C112.987 80.1988 112.84 76.7074 112.656 72.7017V72.5548C112.619 71.5255 112.545 70.4596 112.509 69.3573C112.509 68.8795 112.545 68.4383 112.913 68.3283L113.171 68.2545V67.9975C113.171 67.6298 113.134 67.2625 113.134 66.7848C113.097 66.1967 113.061 65.4616 112.987 64.4327C112.987 63.9546 112.913 62.7787 112.913 62.7787L112.95 62.2641L112.398 62.3745C112.362 62.3745 108.903 62.9257 106.401 63.4403C105.902 63.5277 105.411 63.6505 104.929 63.8077L104.672 63.8811V64.1384C104.709 66.6744 104.782 68.2545 105.077 70.2762L105.113 70.5331L105.371 70.57C105.555 70.6069 105.592 70.6435 105.702 71.1947L106.07 73.5102C106.548 76.5239 106.843 78.0675 107.137 79.6845V79.721C107.321 80.7503 107.542 81.9262 107.873 83.6902C108.13 84.6825 107.873 84.9398 107.615 85.1602L107.431 85.3441L107.615 86.7038V86.8142C107.351 86.5099 107.041 86.2493 106.696 86.0422C106.475 85.9322 106.254 85.8218 106.033 85.7484L105.923 85.7118L105.813 85.7484C104.929 86.0422 104.304 86.2261 103.936 86.2261C103.752 86.2261 103.715 86.1895 103.679 86.1526C103.642 86.0792 103.531 85.9322 103.531 85.3441C103.494 83.2124 103.458 80.9707 103.458 78.7287C103.421 76.5604 103.421 74.4288 103.421 72.334C103.421 71.5989 103.715 71.1581 104.377 70.9008L104.598 70.8273V70.57C104.598 68.4384 104.562 66.6744 104.488 65.0573L104.451 63.9915V63.918L104.01 64.0281C102.244 64.5062 99.8889 64.9839 96.1731 65.682L95.8785 65.7555V66.0497C95.9154 68.6588 96.0258 70.7904 96.2831 72.5548L96.32 72.8852H96.6512C96.835 72.8852 97.0558 72.8852 97.0927 73.4733C97.24 75.605 97.387 77.6263 97.5343 79.611V79.6476C97.755 82.2204 97.9389 84.6825 98.0493 87.0715C98.1227 88.0639 98.0493 88.0639 97.2031 88.3208C97.0558 88.3578 96.9454 88.3943 96.8719 88.3943C96.7246 88.3943 96.5777 88.3209 96.3569 87.6227C95.6946 84.4621 95.1796 79.758 94.885 73.951C94.8484 73.5468 94.9954 73.2895 95.4004 73.069L95.5842 72.959V72.7383C95.5473 71.5255 95.4004 69.2103 95.1796 66.564L95.1427 65.9024V65.8289L94.738 65.9024C93.1926 66.1232 86.754 66.8948 86.6806 66.8948L86.3494 66.9317L86.3863 67.299C86.5702 70.1289 86.791 72.2974 87.0852 74.1349L87.1221 74.3922L87.4164 74.4288C87.7841 74.4657 87.7841 74.4657 87.9314 75.2742L88.2256 77.0751C88.8145 80.7134 89.3664 83.4332 89.8079 85.8588C90.1391 87.5493 90.4703 89.1663 90.7645 90.9672C91.0218 91.9595 90.7645 92.2165 90.5068 92.4373L90.323 92.6208L90.5068 93.8339C90.6907 95.1567 90.9114 96.5902 91.353 98.3173L91.3899 98.5011C91.3899 98.5746 91.4268 98.6481 91.4268 98.7585L91.5372 99.2362V99.3097L92.3095 98.9054C93.818 98.1338 95.5108 97.2515 96.32 96.8841C96.6881 96.7003 97.3504 96.4064 98.0862 96.0387C98.7194 95.7358 99.345 95.4172 99.9624 95.0832C99.6935 97.0593 99.3991 99.0317 99.0793 101L99.0428 101.147L99.1162 101.257C99.6682 102.029 100.514 102.581 101.618 102.838H101.729C101.876 102.838 102.023 102.765 102.096 102.617C104.083 99.0158 105.702 95.6713 106.806 92.6577C107.248 91.4815 107.615 90.3425 107.946 89.2767C108.057 89.7909 108.167 90.3056 108.314 90.9303L108.461 91.5918V91.6653L108.866 91.5184C110.154 91.0037 111.552 90.5995 112.545 90.3056L113.576 90.0117C114.017 89.8644 114.827 89.644 115.636 89.4236C116.188 89.2767 116.74 89.1294 117.181 88.9824C116.924 90.9672 116.703 92.2534 116.409 94.1278L116.372 94.2747L116.445 94.3851C116.997 95.1567 117.844 95.7079 118.947 95.9652C119.021 96.0021 119.058 96.0021 119.094 96.0021H119.242L119.315 95.9652L119.389 95.9287L119.462 95.8552C121.302 93.0989 122.59 90.9303 123.62 88.8724C123.914 88.2843 124.172 87.7697 124.393 87.2185L124.503 87.0346C124.834 86.263 125.165 85.491 125.496 84.646H125.57V84.646ZM89.9582 93.1336L89.9216 92.8397H89.627C88.2289 92.8028 87.9347 92.2147 87.8612 91.9942C87.6035 89.8995 87.3462 87.8047 87.0885 85.7834C86.647 82.549 86.2423 79.2049 85.8377 75.5297C85.7639 75.0519 85.9112 74.8312 86.3896 74.6477L86.647 74.5742L86.61 74.28C86.4631 72.3691 86.2423 70.6051 86.0585 69.0246L85.8008 67.0768L85.4696 67.1133C83.6669 67.2606 81.9007 67.4076 79.8772 67.518C79.1045 67.5545 78.3318 67.628 77.5225 67.7015L76.9337 67.7384L76.9706 68.1057C77.1179 69.6862 77.3018 71.2298 77.4491 72.5895L77.4856 72.7733C77.5595 73.398 77.6329 73.9861 77.7433 74.4638V74.6108C77.7802 74.905 77.8168 75.1989 77.8168 75.4562L77.8906 75.787H78.0376V75.8235H78.2953C78.5526 75.8235 78.9576 75.8605 79.068 76.0809C79.1414 76.1913 79.2518 76.6321 78.4791 77.8083C77.596 79.0576 76.7129 80.4912 75.9037 82.0347C75.8302 82.1817 75.7564 82.3286 75.646 82.439C75.4621 80.8585 75.2783 79.168 75.131 77.4406C74.984 76.4486 75.3148 76.2647 75.646 76.1543L75.9406 76.0809L75.9037 75.787C75.646 73.1776 75.3886 70.4578 75.0206 68.1057L74.984 67.7749L74.6529 67.8118C71.8932 67.9957 69.2074 68.2161 66.4481 68.5469L65.4546 68.6569L65.4915 69.0246C65.7123 71.2663 65.8961 73.2511 66.08 74.9785V75.015C66.1904 75.9339 66.2642 76.8159 66.3746 77.6244C66.4112 77.8083 66.5215 77.9183 66.7792 77.9552C66.8527 77.9921 66.9631 77.9921 67.0366 77.9921C67.2943 77.9921 67.7727 77.9921 67.8093 79.2049C68.3988 85.8249 69.1471 92.4298 70.0535 99.0139C70.2743 100.3 69.8328 100.668 69.3547 100.888L69.1339 100.998V101.256C69.2074 104.269 69.5016 107.32 70.0905 110.37C70.1274 110.517 70.2008 110.627 70.3112 110.664C70.3847 110.701 70.4216 110.701 70.4951 110.701H70.6055L70.6793 110.664C74.3952 109.01 77.1179 107.687 79.2149 106.511L79.4357 106.401V106.18C79.1783 102.726 78.8103 100.043 78.3687 97.9847L78.2583 97.36L77.8906 97.4704C77.8537 97.4704 77.8168 97.5069 77.7802 97.5069C77.4856 97.5069 77.3387 96.7719 77.3387 96.5515L77.3018 96.1472C77.0441 93.354 77.0441 93.354 79.9876 88.7971L80.5026 87.9147C80.8495 90.1455 81.1073 92.3892 81.2753 94.6406C81.3488 95.4491 81.128 96.1103 80.6499 96.4411L80.4661 96.5515L80.5026 96.7719C80.7234 99.2713 81.0545 101.844 81.3857 104.306L81.4961 104.747L81.6065 105.372L81.6799 105.335V105.372L82.0849 105.151C84.0715 104.049 90.694 100.08 90.7678 100.043L90.9517 99.9325L90.9148 99.7121C90.6574 98.0581 90.3632 95.743 89.9582 93.1336V93.1336ZM66.9985 108.241L66.9247 107.543V107.065L66.8512 106.293C66.6674 104.896 66.5201 103.683 66.3731 102.618L66.3362 102.177H66.2993L66.2627 102.03L65.8947 102.103C65.7108 102.14 65.5635 102.14 65.4162 102.14C64.975 102.14 64.5335 102.03 64.4966 101.074C63.8342 93.577 63.2088 86.7411 62.62 80.8242C62.4361 79.3171 63.025 78.8763 63.4665 78.6556L63.6873 78.5455L63.6504 78.2882C63.3927 74.8703 63.025 71.8936 62.5834 69.1738L62.5096 68.843L62.1788 68.8799C54.489 69.6515 46.3212 71.1216 37.8591 73.2533L37.5645 73.3267V73.6206C37.6748 75.8258 37.7852 77.884 37.8591 79.7949C37.9695 82.0735 38.0798 84.1686 38.1533 86.0795V86.4103H38.4845C39.1833 86.4469 39.6618 86.6307 39.993 86.9615C40.3241 87.3292 40.4345 87.8804 40.3976 88.6155V88.6889C40.7287 95.0836 41.0968 101.111 41.4276 106.55C41.4645 108.204 40.8391 109.049 39.3676 109.343L39.0729 109.417V109.711C39.1833 113.166 39.2937 116.473 39.4779 119.56C39.4779 119.67 39.5514 119.781 39.6249 119.854C39.6987 119.928 39.8091 119.965 39.9195 119.965H39.993C44.8861 119.083 49.3382 118.017 53.1644 116.84L53.459 116.767V116.473C53.2013 112.577 52.9805 109.674 52.7229 106.991V106.954L52.3551 106.991L52.7229 106.881L52.6863 106.513L52.3182 106.55H52.0609C51.4721 106.55 50.7732 106.366 50.589 104.97C50.0005 96.4433 49.5589 89.7913 49.1909 85.2341C49.1543 83.5805 49.6693 82.5512 50.6628 82.2208C51.5824 81.9266 52.539 81.6327 53.4956 81.3754C53.9006 81.3019 54.1948 81.3754 54.3787 81.5592C54.5994 81.7796 54.7098 82.2573 54.7098 82.9189C55.2987 89.7548 55.9241 96.5906 56.5495 103.316C56.7333 105.007 56.071 105.484 55.4456 105.705L55.1883 105.815L55.3352 107.175C55.6295 110.115 55.8871 112.651 56.1448 114.93L56.2552 115.958V116.032L56.6968 115.885C60.7807 114.562 63.9446 113.386 66.4097 112.357C66.5201 112.357 66.5201 112.357 67.2193 111.989L67.4401 111.879L67.4032 111.622C67.3297 110.262 67.1824 109.196 66.9985 108.241V108.241Z" fill="white"/>
<path d="M28.6778 114.816C31.1429 114.816 34.3806 116.911 36.8457 117.021C36.7722 115.036 36.6987 113.015 36.6249 110.884V110.7L36.1834 110.81C32.026 111.582 26.9485 111.435 24.8516 115.882C25.9551 115.147 27.2797 114.779 28.6043 114.779H28.6778V114.816V114.816Z" fill="url(#paint1_linear_10302:28797)"/>
<path d="M38.718 103.977C37.9453 104.087 37.651 105.226 37.0991 105.521C36.3999 105.888 34.7075 105.741 33.1621 105.263C34.119 106.292 36.8414 106.733 37.6876 106.917C38.0926 107.027 38.5338 107.101 38.9388 107.285C38.8649 106.219 38.7915 105.116 38.718 103.977V103.977Z" fill="url(#paint2_linear_10302:28797)"/>
<path d="M35.6799 92.6572C31.6694 94.7889 28.1009 90.9667 24.7158 96.2221C27.0705 95.377 29.7198 95.0093 32.1479 95.6709C34.5026 96.2955 36.0845 98.6845 38.4396 99.0888C38.2553 96.1486 38.1084 93.0615 37.9242 89.864V89.4232C37.9242 89.2762 37.9242 89.2027 37.8876 89.1289H37.8507C37.6669 90.6359 36.8572 92.0326 35.6799 92.6572V92.6572Z" fill="url(#paint3_linear_10302:28797)"/>
<path d="M25.1474 88.1355C28.4956 88.3559 32.3587 83.6518 35.5596 84.4234C35.4307 81.2251 35.2835 78.0277 35.118 74.8312C35.118 74.5742 35.1549 74.3169 35.2653 74.0596C29.7464 74.2065 23.3812 84.3868 16.1699 80.1604C17.6784 83.5048 21.0266 88.1721 25.1474 88.1355V88.1355Z" fill="url(#paint4_linear_10302:28797)"/>
<path d="M51.0917 58.5139C52.5267 58.7713 54.1452 60.9029 55.1021 61.8584C55.6172 62.373 56.5003 63.2181 57.1257 63.8797L57.1622 63.8431C62.1292 58.9917 68.3471 55.4637 75.1537 53.4424C73.7191 50.3553 71.5113 46.4962 68.7886 42.3432C68.7521 42.3067 68.7151 42.2332 68.7151 42.1963C65.6247 38.4476 59.7376 39.8077 58.0087 40.4323C52.8575 42.3432 45.205 47.8563 47.7805 54.2875C47.7805 54.2875 47.7805 54.3244 47.7435 54.2875C45.2416 52.0458 46.6397 47.8928 48.2586 45.5042C50.5028 42.1963 53.8879 40.1015 57.6037 38.558C60.8784 37.1983 64.9993 37.0513 67.9059 38.9622C68.3471 38.8518 71.9898 36.2428 72.7621 35.177C72.836 35.0666 73.0198 35.1401 73.0198 35.287C72.836 36.6102 69.5613 39.5503 69.0463 39.9546C69.5613 40.5058 71.5483 44.2545 72.1737 45.2834C73.9029 43.8503 75.3745 42.1228 76.4784 40.065C77.6557 37.8598 78.1338 34.9931 77.2876 32.8984C77.2876 34.5889 76.7357 36.3163 75.4849 37.5656C75.1907 37.8598 74.8595 37.4921 75.0803 37.1613C76.8461 34.6623 76.8461 31.0975 74.381 29.0027C72.1002 27.0549 69.2301 27.4957 67.6851 29.0393C67.5009 29.2231 67.2066 29.5905 66.9124 29.8847C66.9859 28.7454 67.0963 27.1649 66.1028 25.9521C65.3301 25.0336 63.6746 24.6293 61.835 25.1805C60.9153 25.5113 59.9953 24.8863 59.0757 24.372C58.7076 24.2251 58.3765 24.1147 58.0822 24.0778C57.4568 24.0412 56.868 24.1882 56.2795 24.7394C55.6172 25.3644 55.3595 26.4668 55.0652 27.2753C54.6606 28.3777 54.0717 29.517 53.1521 30.252C50.5028 32.4572 46.4927 32.641 43.255 33.9273C39.9803 35.9486 39.318 38.3007 41.268 40.947C42.1142 41.8655 43.255 42.5271 44.285 43.2256C44.3585 43.2621 44.3219 43.4091 44.2481 43.4091C42.5927 43.4825 41.0472 43.0048 39.9437 41.9759C38.251 41.1305 35.639 42.3802 34.2775 44.1441C32.4013 46.4962 31.9597 48.9587 32.8428 51.6046C37.2576 61.3441 49.5832 57.9997 49.804 57.9627C50.0247 57.9262 50.1717 58.1832 49.9143 58.2935C46.1616 59.5798 42.2615 59.6902 38.3983 58.8817C42.2615 61.8584 46.7135 62.2627 51.7906 60.131C51.4594 59.6167 51.1651 59.1021 51.0548 58.6243C50.8709 58.5874 50.9813 58.5139 51.0917 58.5139V58.5139Z" fill="white"/>
<path d="M140.993 83.6162C140.883 82.5138 140.662 81.2641 140.331 79.9044C140.261 79.6057 140.083 79.3432 139.832 79.1669C139.581 78.9907 139.274 78.9131 138.969 78.9489C137.283 75.1403 135.627 71.318 134.002 67.4824C134.076 67.4089 134.186 67.2985 134.223 67.2251C134.407 66.9312 134.48 66.5269 134.37 66.1961C133.965 64.7995 133.598 63.4764 133.267 62.1536C133.119 61.602 132.641 61.2347 132.089 61.1977C130.397 61.1243 127.968 61.0877 124.694 61.0877C124.51 61.0877 124.326 61.1243 124.142 61.2347C123.995 61.3081 123.811 61.4185 123.701 61.492C123.553 61.5654 123.112 61.8962 123.038 61.9328C122.854 61.4185 122.376 61.0508 121.824 61.0508C120.573 61.0877 118.881 61.1243 117.004 61.2347C116.382 60.7606 115.744 60.3071 115.091 59.8749C110.639 56.8978 105.709 54.6927 100.595 53.2964C97.5043 52.451 94.3404 51.9363 91.1392 51.7159C90.123 51.6425 89.1045 51.6056 88.0856 51.6056C84.1121 51.6056 80.2489 52.1202 76.5327 53.0756C76.4961 53.0756 76.4592 53.1126 76.3858 53.1126C75.4657 51.2382 74.2149 48.9596 72.9272 46.7914C75.613 44.5862 77.8204 41.5726 78.7035 38.265C79.4762 35.2879 78.8139 32.3112 76.8269 30.8411C76.4961 29.8121 75.9808 28.8567 75.245 28.0847C73.2584 25.99 70.5356 25.7326 67.9602 26.5042C67.9233 26.2473 67.8867 25.99 67.7763 25.7326C66.7829 23.3436 64.3544 22.7924 61.9631 23.5644C61.0431 23.7848 60.1235 23.6744 59.2035 23.1967C58.9827 23.0867 58.7254 23.0128 58.5046 22.9394C57.8792 22.6455 57.2534 22.572 56.665 22.719C55.0092 22.9028 53.6849 24.226 52.9122 26.725C51.7714 30.4368 45.8113 31.2088 42.6104 32.605C38.4527 34.1486 37.8642 37.3461 38.3792 39.4778C38.4855 39.9819 38.6719 40.4658 38.9311 40.911C36.3188 40.6171 34.1114 41.6829 32.2348 44.0716C29.6963 47.2691 29.8432 51.1278 32.051 54.8765C37.3857 63.1825 44.082 64.4322 52.1764 61.0877C52.3233 61.1977 52.4337 61.3081 52.581 61.4185C52.9857 61.8962 53.3903 62.337 53.6849 62.7413C54.1999 63.4029 55.0461 64.4687 55.6346 65.2772C54.4941 66.49 53.4272 67.7763 52.4706 69.1363C52.4337 69.2098 52.3972 69.2464 52.3603 69.3198C47.4407 70.1276 42.5556 71.133 37.7169 72.3335H37.68C30.6159 70.1653 25.3916 79.6471 19.9096 79.537C17.2237 79.537 11.9621 74.5021 14.8321 80.7864C16.7453 85.0128 19.8726 89.4596 24.9501 89.4596C29.4755 89.4596 33.9272 84.682 35.583 86.446C35.583 86.6668 35.583 86.8872 35.6199 87.1076C35.6199 87.6591 35.9141 88.1368 36.3188 88.4307C36.4291 90.9297 33.1545 92.5468 29.2913 91.959C25.2074 91.334 23.8093 94.2376 22.6319 96.4424C22.1169 97.4348 23.0735 98.5006 24.1039 98.0964C26.532 97.104 29.1444 96.4793 31.7564 97.1775C34.4422 97.9125 35.7668 100.338 38.563 100.706C38.6 101.33 38.6365 101.919 38.6734 102.507C36.6499 102.654 37.533 104.565 35.1045 104.528C34.3687 104.528 32.3083 103.756 31.646 103.683C30.5056 103.609 30.4686 104.454 31.3517 105.483C33.2649 107.725 35.5461 107.358 37.7903 108.534C34.9941 110.224 31.0575 109.379 28.0036 110.739C25.1339 112.025 23.2208 114.414 22.5954 117.391C22.3746 118.42 23.5519 119.229 24.435 118.64C25.3916 117.979 26.3482 116.693 27.6724 116.472C30.9471 115.921 33.2649 118.273 36.3188 118.751C36.5395 118.787 36.7234 118.787 36.9076 118.787C36.9442 119.449 36.9811 120.074 37.018 120.735C37.0545 121.213 37.2753 121.654 37.68 121.948C37.9746 122.169 38.3423 122.316 38.7103 122.316C38.8207 122.316 38.9311 122.316 39.0046 122.279C43.6405 121.434 47.9082 120.441 51.8452 119.302C51.8818 119.302 51.9556 119.265 51.9922 119.265C52.066 119.229 52.1764 119.229 52.2499 119.192C52.2868 119.192 52.2868 119.155 52.3233 119.155C53.7214 118.787 54.0895 117.979 54.0895 117.465C57.2534 121.691 61.4478 125.366 65.9732 128.38C73.663 133.488 82.0516 136.134 91.1761 136.355H92.4269C106.813 136.355 119.874 130.474 127.785 119.449C134.113 110.629 136.762 99.8973 134.812 89.0554C134.738 88.5777 134.628 88.0634 134.517 87.5853C135.474 87.4018 136.541 87.218 137.682 86.9975L137.976 86.9606C138.049 86.9606 138.123 86.9241 138.197 86.8872L140.735 84.4616C140.919 84.3147 141.03 83.9839 140.993 83.6162V83.6162ZM25.135 88.1369C21.0142 88.1734 17.666 83.5062 16.1575 80.1617C23.3688 84.3881 29.734 74.2078 35.2529 74.0609C35.1425 74.2813 35.1056 74.5386 35.1056 74.8325C35.2898 78.4343 35.4368 81.6318 35.5472 84.4247C32.3094 83.6896 28.4832 88.3573 25.135 88.1369ZM28.667 114.818H28.5935C27.2689 114.818 25.9443 115.186 24.8408 115.921C26.9378 111.474 32.0521 111.621 36.1726 110.849L36.6141 110.739V110.923C36.6879 113.017 36.7614 115.076 36.8349 117.06C34.3698 116.913 31.1321 114.818 28.667 114.818V114.818ZM121.861 62.2278C121.934 63.3671 121.934 63.9548 121.897 64.6164C121.861 65.1676 121.861 65.7557 121.861 66.7112C121.493 66.8585 120.941 67.1154 120.941 67.8874C120.941 69.9821 120.867 72.1138 120.83 74.2455C120.757 76.818 120.683 79.4639 120.72 81.9999C120.72 82.6615 120.757 82.9922 120.941 83.1392C121.014 83.2127 121.161 83.2861 121.346 83.2861C121.529 83.2861 121.713 83.2496 122.008 83.1761C122.228 83.1392 122.523 83.0292 122.817 82.9188C122.854 82.9188 122.854 82.9188 122.891 82.8819C123.038 82.8453 123.185 82.7718 123.332 82.7349C124.289 83.0657 124.878 83.6904 125.245 84.6828C124.914 85.4913 124.62 86.2632 124.252 87.0348H124.215C123.948 87.6421 123.666 88.2425 123.369 88.8357C122.376 90.8205 121.088 92.9518 119.211 95.745H119.175C118.144 95.4877 117.372 95.01 116.857 94.2749C117.188 92.1433 117.409 90.8205 117.703 88.5049C117.666 88.5049 117.592 88.5419 117.519 88.5419C117.114 88.7253 116.379 88.9461 115.606 89.1665C114.796 89.3869 113.987 89.6077 113.545 89.7546L112.589 90.0485C111.559 90.3427 110.124 90.747 108.799 91.2982V91.2247C108.763 91.1513 108.763 91.0774 108.763 90.9674C108.321 89.2034 108.137 87.9168 107.99 86.8144L107.806 85.6382C108.1 85.3443 108.578 85.0505 108.247 83.7642C108.02 82.4501 107.775 81.1391 107.511 79.8316C107.217 78.2146 106.923 76.671 106.408 73.6574L106.04 71.3419C105.966 70.8641 105.893 70.4599 105.414 70.3864C105.12 68.3286 105.046 66.7112 105.009 64.2856C105.476 64.1205 105.956 63.9976 106.444 63.9183C108.983 63.3671 112.405 62.8524 112.405 62.8524L112.515 62.8155V62.8893C112.515 62.8893 112.552 64.1021 112.589 64.5798C112.699 65.6457 112.736 66.3807 112.736 66.9319C112.773 67.4097 112.773 67.7404 112.773 68.1078C112.11 68.3286 112.11 69.0636 112.11 69.5044C112.184 70.6806 112.221 71.8199 112.258 72.8854C112.442 76.9284 112.589 80.3828 113.141 82.9923C113.362 83.6904 113.545 84.0581 113.987 84.0581C114.134 84.0581 114.281 84.0212 114.429 83.9846C115.385 83.6904 115.606 83.5434 115.532 82.3307C115.495 81.0813 115.459 79.8316 115.422 78.5085C115.348 75.4214 115.238 72.1873 115.054 68.659C115.017 68.1078 114.723 67.8505 114.171 67.8505C113.987 66.5642 113.987 65.7926 113.987 64.6533V62.742C117.225 62.3012 120.352 62.2278 121.861 62.2278V62.2278ZM70.3887 98.9426C69.5425 92.8418 68.8067 86.1898 68.1444 79.1701C68.1075 78.1042 67.7398 77.6265 67.004 77.6265H66.8567L66.7094 77.59C66.5994 76.7811 66.5255 75.936 66.4152 74.9805C66.2313 73.2162 66.0474 71.2318 65.8267 69.0267L66.489 68.9532C69.205 68.6393 71.9285 68.3942 74.6569 68.2182C74.988 70.3864 75.2453 72.9223 75.5396 75.8991C74.8776 76.1199 74.6569 76.6341 74.7672 77.59C74.9511 79.7213 75.1719 81.7795 75.4292 83.6538C75.6869 83.1761 75.9446 82.7349 76.2019 82.2941C76.9609 80.8464 77.8089 79.4471 78.7408 78.1042C79.3662 77.1488 79.587 76.4137 79.3662 75.9725C79.2189 75.6787 78.8512 75.5317 78.2623 75.5317V75.4948H78.1519C78.115 75.2009 78.0785 74.8332 78.0416 74.5028C77.9312 73.9513 77.8577 73.4001 77.7842 72.8119C77.6369 71.3788 77.4531 69.8352 77.3058 68.1447H77.5265C80.5435 67.9243 83.0086 67.777 85.5106 67.5566L85.7679 69.0636C85.9521 70.6437 86.1729 72.4446 86.3198 74.3555C85.6575 74.5763 85.4002 74.9805 85.5106 75.6421C85.8783 79.317 86.3198 82.6615 86.7614 85.8955C87.0551 87.9735 87.3127 90.0564 87.5341 92.1433C87.6444 92.5844 88.1595 93.2091 89.631 93.2826C89.9568 95.4314 90.2267 97.5883 90.4407 99.7511C90.4407 99.7511 83.7813 103.757 81.7943 104.859V104.713L81.6839 104.308C81.3528 101.846 81.0216 99.2733 80.8008 96.774C81.3897 96.3697 81.6839 95.5981 81.5736 94.6426C81.3528 91.8494 81.0585 89.3869 80.6539 86.9248C80.515 87.1627 80.3678 87.3955 80.2124 87.6229L79.6235 88.6519C76.6065 93.3195 76.6065 93.3195 76.8642 96.2228L76.9011 96.627C77.0115 97.4725 77.3058 97.9133 77.7104 97.9133C77.7842 97.9133 77.8577 97.9133 77.9312 97.8767V97.9502C77.9312 98.0236 77.9681 98.0602 77.9681 98.134C78.4462 100.302 78.7773 102.985 79.035 106.293C76.7907 107.505 74.0311 108.829 70.4991 110.409H70.4256L70.3887 110.372C69.8368 107.359 69.5056 104.308 69.4691 101.295C70.3152 100.853 70.6095 100.118 70.3887 98.9426V98.9426ZM67.5559 100.707V100.743C67.3734 100.816 67.2076 100.926 67.0685 101.065C66.9293 101.204 66.8197 101.369 66.7463 101.552L66.7094 101.515C66.5397 101.41 66.353 101.336 66.1578 101.295C65.8267 100.78 65.4955 100.192 65.2013 99.7141C64.5755 92.6948 63.987 86.3733 63.4351 80.7871C63.4351 80.6402 63.3982 80.4932 63.3982 80.3828C63.5455 80.1624 63.6189 79.8682 63.6559 79.5743C63.6928 79.5743 63.6928 79.5743 63.7293 79.5378C63.8397 79.5009 63.9132 79.4274 64.0236 79.3539C64.134 79.5743 64.2813 79.7947 64.502 79.9786C64.7228 80.1624 65.017 80.2725 65.3113 80.3094V80.3828C65.901 87.0151 66.6494 93.6323 67.5559 100.229V100.707V100.707ZM100.227 94.6426C99.7859 94.8996 98.8293 95.3777 97.9462 95.8185C97.2104 96.1862 96.5481 96.4801 96.1804 96.6639C95.3708 97.0313 93.6415 97.9133 92.0961 98.7218L91.7653 98.9056V98.8322C91.7284 98.6852 91.6915 98.5383 91.6915 98.391C91.2499 96.5905 91.0291 95.1204 90.8453 93.9076L90.698 92.8783C90.9926 92.621 91.4707 92.2906 91.1395 91.0039C90.8453 89.24 90.5141 87.6229 90.183 85.9324C89.7049 83.47 89.1529 80.7136 88.5641 77.0384L88.3068 75.3848C88.1595 74.5394 88.086 74.319 87.4606 74.2455C87.166 72.2608 86.9452 69.9821 86.7614 67.4462C86.7614 67.4462 93.2738 66.6746 94.8188 66.4542V66.8215C95.0765 69.9456 95.1869 72.0034 95.2235 72.9958C94.7084 73.2897 94.4877 73.6939 94.5246 74.2455C94.8188 80.0521 95.3338 84.7931 95.9962 87.9537C96.2169 88.6519 96.4008 89.0196 96.8423 89.0196C96.9896 89.0196 97.1369 88.9827 97.2839 88.9461C98.2404 88.6519 98.4612 88.5049 98.3877 87.2922C98.3143 84.8666 98.0935 82.4041 97.8727 79.7947C97.7254 77.8469 97.5416 75.8256 97.4312 73.6939C97.3943 73.0693 97.1369 72.7754 96.6216 72.7754C96.3642 70.901 96.2539 68.7694 96.2169 66.3069C99.602 65.6822 102.141 65.1676 104.054 64.6533V65.3514C104.127 67.1523 104.164 68.9532 104.164 70.8641C103.355 71.1949 102.95 71.7461 102.95 72.6285C102.95 74.7232 102.95 76.8549 102.987 79.0231C103.024 81.1914 103.024 83.3965 103.061 85.6382C103.061 86.1898 103.134 86.5206 103.318 86.704C103.428 86.8144 103.612 86.8879 103.833 86.8879C104.274 86.8879 104.937 86.704 105.82 86.3732C106.041 86.4467 106.261 86.5206 106.408 86.6306C107.071 86.9983 107.549 87.586 107.843 88.358C107.476 89.7546 107.034 91.2247 106.445 92.7314C105.305 95.7081 103.722 99.0526 101.736 102.654C101.736 102.691 101.699 102.691 101.662 102.691C100.632 102.434 99.8593 101.956 99.3443 101.221C99.6755 99.0895 100.007 96.9213 100.301 94.6057L100.227 94.6426V94.6426ZM104.385 85.5647C104.348 83.47 104.311 81.4856 104.311 79.5009C104.642 81.3752 104.937 82.6984 105.378 85.2339V85.2709C104.974 85.3813 104.642 85.4913 104.385 85.5647V85.5647ZM104.238 63.4036C104.091 63.4036 103.943 63.4036 103.833 63.4405C101.957 63.9183 99.3812 64.4695 96.1435 64.9841C95.8492 65.0207 95.6285 65.1676 95.4442 65.3514C95.1869 65.2045 94.9292 65.1676 94.635 65.2045C92.7953 65.4984 90.1464 65.7926 86.6879 66.1234C86.4671 66.16 86.2463 66.2334 86.0625 66.3807C85.8783 66.2703 85.6209 66.2334 85.4002 66.2703C82.8613 66.4908 80.3597 66.6377 77.3058 66.785C77.1954 66.785 77.1219 66.8215 77.0115 66.8215C76.6444 66.9313 76.3054 67.1193 76.018 67.3727C75.9811 67.4097 75.9077 67.4462 75.8707 67.4462C75.8342 67.4462 75.7604 67.4831 75.7238 67.4831C75.4661 67.1154 75.0615 66.8585 74.583 66.895C73.553 66.9685 72.4122 67.0419 71.1614 67.1523C80.0285 59.7653 93.3103 58.0748 104.753 63.0363C104.569 63.1832 104.385 63.2936 104.238 63.4036V63.4036ZM78.6304 96.0389C78.6304 96.2228 78.5935 96.3331 78.5935 96.4066C78.4831 96.4801 78.4096 96.627 78.2992 96.7005C78.2254 96.6639 78.1519 96.627 78.0785 96.627C78.0785 96.5535 78.0416 96.4801 78.0416 96.4066C77.9681 95.5612 77.8946 94.9365 77.8946 94.5323C77.8946 93.9441 77.9681 93.6134 78.3358 92.8783C78.4462 93.8341 78.52 94.7896 78.5935 95.8185C78.6304 95.892 78.6304 95.9654 78.6304 96.0389ZM78.0416 109.012C78.8143 108.755 79.5131 108.094 79.8443 107.359C80.3228 107.542 80.8747 107.542 81.3162 107.285C83.3397 106.182 85.7313 104.823 87.3133 103.867C88.7849 102.985 89.0056 102.838 89.9991 102.213C90.2466 102.076 90.4506 101.873 90.588 101.625C90.8453 101.625 91.0661 101.552 91.2868 101.442C92.9057 100.596 94.8188 99.6038 95.6285 99.2364C95.9596 99.0895 96.5112 98.7952 97.1369 98.5014C96.9527 99.6776 96.7689 100.853 96.585 101.956C96.5112 102.397 96.6216 102.838 96.8793 103.206C97.652 104.271 98.8293 104.97 100.117 105.3C100.853 105.484 101.478 105.227 101.993 104.492C102.545 103.72 102.766 103.352 102.876 103.169C104.716 99.8611 106.151 96.8474 107.291 94.0176C107.586 94.0545 107.88 94.0545 108.138 93.9441C109.793 93.2826 111.67 92.8048 112.773 92.4375C113.142 92.3271 113.767 92.1433 114.466 91.9598C114.318 93.0048 114.147 94.0463 113.951 95.0835C113.877 95.5246 113.988 95.9654 114.245 96.3331C115.018 97.399 116.195 98.0971 117.483 98.4279C117.593 98.4648 117.667 98.4648 117.777 98.4648C118.072 98.5383 118.403 98.4648 118.66 98.281C118.874 98.176 119.063 98.0254 119.212 97.8398C119.691 97.3621 120.059 96.7374 120.242 96.4801C121.567 94.4953 122.597 92.8418 123.443 91.3347C123.149 96.1124 121.53 100.853 118.403 105.006C109.021 117.575 89.8518 120.332 75.5772 111.181C75.283 110.997 75.0253 110.813 74.7311 110.629C75.8555 110.134 76.9601 109.595 78.0423 109.012H78.0416ZM84.3332 53.151H84.5171C85.2898 53.0775 86.0256 53.004 86.7983 52.9675C87.2029 52.9306 87.6075 52.9306 88.0122 52.9306C88.4537 52.9306 88.8587 52.894 89.2999 52.894C90.2568 52.894 91.2134 52.9306 92.1699 53.004C100.227 53.5187 108.064 56.2015 114.871 60.7219C115.202 60.9426 115.496 61.163 115.79 61.3834C115.202 61.4204 114.613 61.4938 113.988 61.5673C113.693 61.6038 113.436 61.7511 113.252 61.9346C112.994 61.7877 112.7 61.7142 112.406 61.7511C110.86 62.0081 108.947 62.3023 106.408 62.8166C93.6784 56.4219 78.2992 58.3698 68.696 67.5212C67.7763 67.5946 66.8194 67.7046 65.7894 67.7781C64.3913 67.9254 63.6924 68.697 63.4347 68.9909C63.2509 68.4766 62.7355 68.1089 62.147 68.1824C60.16 68.3662 58.1 68.6235 56.0396 68.9174C62.662 60.0972 72.9272 54.4376 84.3328 53.151H84.3332ZM51.0729 58.5167C50.9625 58.4802 50.889 58.5902 50.889 58.7006C50.9994 59.2152 51.2937 59.7295 51.6248 60.2076C46.5474 62.3389 42.0589 61.9346 38.2323 58.9579C42.0954 59.7664 45.9955 59.656 49.7483 58.3698C50.006 58.2598 49.8587 58.039 49.6379 58.039C49.4171 58.0759 37.0918 61.4204 32.6767 51.6812C31.7567 49.0349 32.2352 46.5359 34.1118 44.2204C35.473 42.4564 38.1219 41.1701 39.7777 42.0521C40.8446 43.0811 42.39 43.5591 44.0824 43.4853C44.1928 43.4853 44.1928 43.3384 44.1193 43.3018C43.0889 42.6033 41.9485 41.9417 41.1023 41.0232C39.1523 38.3403 39.8146 35.9883 43.0889 34.0035C46.3267 32.7173 50.3371 32.5703 52.986 30.3283C53.906 29.5567 54.4945 28.4174 54.8991 27.3515C55.2303 26.543 55.4511 25.4037 56.1134 24.8156C56.7022 24.2644 57.2907 24.154 57.9161 24.154C58.2107 24.1909 58.5784 24.3013 58.9096 24.4482C59.8662 24.926 60.7493 25.5506 61.6689 25.2568C63.5455 24.7056 65.1644 25.0729 65.9371 26.0284C66.9671 27.2411 66.8198 28.8216 66.7463 29.9609C67.0406 29.6671 67.3352 29.2993 67.519 29.1155C69.0644 27.5719 71.971 27.1311 74.2153 29.0789C76.6804 31.1737 76.6804 34.7386 74.9142 37.2376C74.6934 37.5318 75.0615 37.8992 75.3188 37.6418C76.57 36.3925 77.1585 34.702 77.1219 32.9746C77.9681 35.0693 77.4896 37.9361 76.3123 40.1412C75.2084 42.1991 73.7368 43.9265 72.0076 45.3597C71.3822 44.3677 69.3956 40.582 68.8802 40.0308C69.3587 39.6266 72.633 36.6864 72.8538 35.3632C72.8907 35.2163 72.7068 35.1428 72.5964 35.2532C71.8237 36.319 68.2179 38.8915 67.7398 39.0385C64.8332 37.1276 60.7493 37.2745 57.438 38.6342C53.7218 40.1412 50.3371 42.236 48.0928 45.5804C46.474 47.9691 45.1124 52.159 47.5775 54.3641H47.6144C45.0389 47.9325 52.7283 42.3829 57.8427 40.5086C59.5719 39.847 65.4955 38.5242 68.549 42.2725C68.586 42.3095 68.6229 42.346 68.6229 42.4198C71.3822 46.5359 73.553 50.4315 74.988 53.5187C68.1444 55.503 61.9635 59.0683 56.9965 63.8825L56.9596 63.9194C56.2973 63.2578 55.4145 62.4124 54.9361 61.8981C54.1264 60.9057 52.5079 58.811 51.0729 58.5167V58.5167ZM32.1248 95.6716C29.6967 95.01 27.0108 95.3777 24.6927 96.2228C28.0778 90.9674 31.6463 94.7896 35.6568 92.6579C36.8711 92.0332 37.6803 90.5997 37.9011 89.093C37.9011 89.1665 37.938 89.2769 37.938 89.4604V89.9016C38.1219 93.0991 38.2692 96.1862 38.453 99.126C36.0984 98.6852 34.4795 96.3331 32.1248 95.6716V95.6716ZM37.6803 106.917C36.8341 106.734 34.1483 106.293 33.1548 105.264C34.7003 105.741 36.3926 105.888 37.0918 105.521C37.6803 105.227 37.938 104.088 38.7107 103.978C38.7842 105.117 38.8577 106.219 38.8946 107.285C38.5265 107.101 38.0853 106.991 37.6803 106.917V106.917ZM54.0161 105.521C53.9795 105.521 54.0161 105.521 53.906 105.558C53.6207 105.663 53.3673 105.841 53.1699 106.072C52.9126 105.852 52.5814 105.741 52.2502 105.778H52.0664C51.7718 105.778 51.7352 105.705 51.6983 105.668C51.6248 105.631 51.5144 105.411 51.4406 104.896C50.8521 96.2597 50.4106 89.6812 50.0425 85.1605V85.1239C50.0425 84.8666 50.0794 84.6462 50.1163 84.4623C50.8152 84.2419 51.5144 84.0212 52.2133 83.8377V84.1316C52.8022 90.857 53.4276 97.6559 54.053 104.529C54.053 104.676 54.0899 104.823 54.0899 104.933C54.0899 105.337 54.0161 105.484 54.0161 105.521V105.521ZM56.6284 115.481C56.5919 115.297 56.5919 115.113 56.5549 114.892C56.2607 112.32 55.9661 109.417 55.6349 106.072C56.7022 105.668 57.1069 104.786 56.9596 103.316C56.2973 96.4432 55.7088 89.6442 55.1199 82.9188C55.1199 82.1837 54.973 81.6325 54.6784 81.3383C54.4576 81.1179 54.2003 81.0075 53.8322 81.0075C53.7218 81.0075 53.6114 81.0075 53.4645 81.0444L50.5944 81.9264C49.4171 82.3307 48.8286 83.4334 48.8286 85.2709C49.3143 91.8603 49.7804 98.4511 50.2267 105.043C50.3737 106.33 50.9625 106.991 52.0664 106.991H52.3606V107.138C52.6918 110.188 52.9126 113.312 53.0964 116.583C49.1229 117.796 44.7447 118.825 39.9615 119.707H39.925L39.8881 119.67C39.6905 116.39 39.5556 113.106 39.4834 109.821C41.1389 109.49 41.8746 108.461 41.8381 106.66C41.5069 101.221 41.1389 95.2673 40.8077 88.7623C40.8815 87.9168 40.6973 87.2556 40.3296 86.8144C39.9615 86.4102 39.373 86.1528 38.5634 86.1528C38.3796 82.6615 38.1957 78.5454 37.9749 73.6939C46.5474 71.5257 54.7153 70.0925 62.2578 69.3575C62.7572 72.3647 63.1133 75.394 63.3247 78.435C62.4416 78.8393 62.1104 79.6478 62.2578 80.971C62.8462 86.9248 63.472 93.6868 64.134 101.221C64.1709 102.177 64.5755 102.617 65.4217 102.617C65.6059 102.617 65.7528 102.581 65.9736 102.544V102.728C66.1578 104.014 66.3417 105.448 66.5625 107.138V107.652C66.5994 107.91 66.6359 108.13 66.6728 108.387C66.8567 109.453 67.004 110.556 67.1879 111.769L66.5255 112.1H66.489C63.9132 113.202 60.6389 114.378 56.6653 115.664C56.6284 115.518 56.6284 115.518 56.6284 115.481V115.481ZM127.121 117.428C119.615 127.903 106.995 134.15 93.3454 134.15H92.1681C83.4852 133.93 75.0596 131.247 67.7749 126.359C64.0586 123.86 60.7474 120.846 57.9881 117.502C61.3728 116.363 64.2059 115.297 66.4871 114.341C66.5975 114.304 66.671 114.231 66.7445 114.194C67.3333 113.864 67.8114 113.165 68.0322 112.504C68.1426 112.614 68.253 112.761 68.4368 112.835C68.6945 112.945 68.9522 113.018 69.2464 113.018C69.4672 113.018 69.7245 112.982 69.9453 112.871C70.9388 112.43 71.8588 112.026 72.7415 111.622C73.3304 112.063 73.9558 112.504 74.5812 112.945C89.4084 122.647 109.35 119.707 119.101 106.403C122.781 101.405 124.473 95.6346 124.363 89.8646C124.363 89.8646 124.363 89.8281 124.399 89.8281C125.614 89.5339 126.644 89.3134 127.49 89.1296L127.748 89.093C127.858 89.0561 127.931 89.0196 128.005 88.9461L128.042 88.9092C128.079 88.8726 128.116 88.8726 128.116 88.8357L129.44 87.586V87.6964L129.477 88.0272C129.477 88.2111 129.587 88.358 129.735 88.4684C129.845 88.5418 129.992 88.5784 130.102 88.5784H130.213L130.544 88.5049C131.39 88.3211 132.383 88.1376 133.487 87.9168C133.524 88.1007 133.561 88.3211 133.598 88.5049C135.4 98.7952 133.156 109.049 127.122 117.428H127.121ZM132.566 85.1605V85.087C132.566 85.0135 132.529 84.9401 132.529 84.8666C132.345 83.6169 132.198 82.4411 132.014 81.3017C132.529 81.1548 132.75 80.971 132.75 80.6402C132.566 79.5009 132.235 78.1777 131.757 76.7445C131.021 76.7811 130.395 76.818 129.807 76.8915C129.438 76.9284 129.071 77.0018 128.74 77.0753C128.666 78.5085 128.629 79.9786 128.629 81.3017C128.666 81.5591 128.813 81.6691 129.144 81.6691H129.365V81.8899C129.475 83.323 129.512 84.5727 129.512 85.7486C128.266 86.0611 127.015 86.3551 125.76 86.6306C125.98 86.1163 126.164 85.6382 126.385 85.087C126.495 84.7908 126.495 84.4647 126.385 84.1685C126.164 83.5301 125.8 82.9503 125.322 82.4728C124.844 81.9952 124.264 81.6325 123.625 81.4118C123.552 81.3752 123.478 81.3752 123.405 81.3752C124.177 75.9725 124.803 71.4522 125.281 67.8505C125.391 67.52 125.428 67.2627 125.318 67.0789C125.244 66.895 125.023 66.7481 124.729 66.6377C124.656 65.4984 124.619 64.0652 124.619 62.3012C125.649 62.2643 126.569 62.2643 127.452 62.2643C128.298 62.2643 129.107 62.2643 129.807 62.3012C130.69 62.3012 131.425 62.3378 132.051 62.3747C132.455 63.7344 132.824 65.0941 133.228 66.4908C132.897 66.6011 132.713 66.7112 132.64 66.8585C132.529 67.0419 132.603 67.3362 132.824 67.7035C134.553 71.7461 136.319 75.7891 138.085 79.8316C138.232 80.0521 138.453 80.1255 138.784 80.1255C138.894 80.1255 139.004 80.1255 139.115 80.089C139.483 81.4487 139.704 82.6615 139.814 83.6904C136.76 84.352 134.369 84.7931 132.566 85.1605V85.1605Z" fill="#0D0802"/>
<defs>
<radialGradient id="paint0_radial_10302:28797" cx="0" cy="0" r="1" gradientUnits="userSpaceOnUse" gradientTransform="translate(92.739 88.4438) scale(30.8661 28.1729)">
<stop offset="0.285" stop-color="#FDEA18"/>
<stop offset="0.462" stop-color="#FDE616"/>
<stop offset="0.63" stop-color="#FCDB10"/>
<stop offset="0.793" stop-color="#FBC806"/>
<stop offset="0.864" stop-color="#FABD00"/>
<stop offset="1" stop-color="#F39708"/>
</radialGradient>
<linearGradient id="paint1_linear_10302:28797" x1="24.8516" y1="113.902" x2="36.8457" y2="113.902" gradientUnits="userSpaceOnUse">
<stop offset="0.009" stop-color="#F9E925"/>
<stop offset="0.173" stop-color="#F9E522"/>
<stop offset="0.327" stop-color="#FADA1B"/>
<stop offset="0.478" stop-color="#FBC70E"/>
<stop offset="0.521" stop-color="#FBC009"/>
<stop offset="0.972" stop-color="#EC6D1D"/>
</linearGradient>
<linearGradient id="paint2_linear_10302:28797" x1="33.1621" y1="105.628" x2="38.9268" y2="105.628" gradientUnits="userSpaceOnUse">
<stop offset="0.009" stop-color="#F9E925"/>
<stop offset="0.173" stop-color="#F9E522"/>
<stop offset="0.327" stop-color="#FADA1B"/>
<stop offset="0.478" stop-color="#FBC70E"/>
<stop offset="0.521" stop-color="#FBC009"/>
<stop offset="0.972" stop-color="#EC6D1D"/>
</linearGradient>
<linearGradient id="paint3_linear_10302:28797" x1="24.7021" y1="94.1374" x2="38.4529" y2="94.1374" gradientUnits="userSpaceOnUse">
<stop offset="0.009" stop-color="#F9E925"/>
<stop offset="0.173" stop-color="#F9E522"/>
<stop offset="0.327" stop-color="#FADA1B"/>
<stop offset="0.478" stop-color="#FBC70E"/>
<stop offset="0.521" stop-color="#FBC009"/>
<stop offset="0.972" stop-color="#EC6D1D"/>
</linearGradient>
<linearGradient id="paint4_linear_10302:28797" x1="16.1505" y1="81.1179" x2="35.5402" y2="81.1179" gradientUnits="userSpaceOnUse">
<stop offset="0.009" stop-color="#F9E925"/>
<stop offset="0.173" stop-color="#F9E522"/>
<stop offset="0.327" stop-color="#FADA1B"/>
<stop offset="0.478" stop-color="#FBC70E"/>
<stop offset="0.521" stop-color="#FBC009"/>
<stop offset="0.972" stop-color="#EC6D1D"/>
</linearGradient>
</defs>
</svg>
