<svg width="24" height="26" viewBox="0 0 24 26" fill="none" xmlns="http://www.w3.org/2000/svg">
<path d="M21.4964 5.56421C22.0665 6.31114 22.5491 7.12263 22.9344 7.98236L12.0031 16.1489L7.43457 13.2466V9.7549L12.0031 12.6572L21.4964 5.56421Z" fill="#21A038"/>
<path d="M2.77241 12.9998C2.77241 12.8431 2.77618 12.6875 2.78372 12.5328L0.0150785 12.3953C0.00565496 12.5958 3.34578e-06 12.7983 3.34578e-06 13.0027C-0.00117464 14.5994 0.308716 16.1805 0.911908 17.6555C1.51509 19.1305 2.3997 20.4703 3.51499 21.598L5.47886 19.6087C4.62035 18.7421 3.93929 17.7121 3.47483 16.578C3.01036 15.4438 2.77165 14.2278 2.77241 12.9998Z" fill="url(#paint0_linear_9814:22510)"/>
<path d="M12.0016 3.64742C12.1561 3.64742 12.3097 3.65315 12.4623 3.66079L12.6009 0.853934C12.4024 0.844383 12.2026 0.839609 12.0016 0.839609C10.4253 0.837661 8.86432 1.15127 7.40806 1.76243C5.9518 2.37358 4.629 3.27025 3.51562 4.40095L5.47949 6.39125C6.33457 5.5209 7.35098 4.83043 8.47028 4.35954C9.58957 3.88866 10.7896 3.64665 12.0016 3.64742Z" fill="url(#paint1_linear_9814:22510)"/>
<path d="M12.0006 22.3525C11.8461 22.3525 11.6925 22.3525 11.5389 22.34L11.4004 25.1459C11.5995 25.1561 11.7996 25.1613 12.0006 25.1613C13.5762 25.1629 15.1365 24.8491 16.592 24.2378C18.0475 23.6264 19.3694 22.7296 20.4819 21.599L18.5218 19.6096C17.6666 20.4795 16.6503 21.1696 15.5312 21.6403C14.4121 22.111 13.2123 22.3531 12.0006 22.3525Z" fill="url(#paint2_linear_9814:22510)"/>
<path d="M17.2017 5.27932L19.535 3.53638C17.4024 1.78623 14.7403 0.833521 11.9961 0.838398V3.64716C13.8543 3.64483 15.6694 4.21395 17.2017 5.27932Z" fill="url(#paint3_linear_9814:22510)"/>
<path d="M24 13C24.0015 12.2693 23.9384 11.5399 23.8115 10.8206L21.2285 12.7497C21.2285 12.8329 21.2285 12.9159 21.2285 13C21.2292 14.3067 20.9589 15.5991 20.4352 16.7932C19.9115 17.9873 19.146 19.0565 18.1885 19.9316L20.0515 22.0184C21.2964 20.8794 22.2912 19.488 22.9714 17.9345C23.6517 16.3808 24.0021 14.6996 24 13Z" fill="#21A038"/>
<path d="M12.0012 22.3527C10.7117 22.3531 9.43648 22.0791 8.25807 21.5484C7.07971 21.0177 6.02445 20.242 5.16064 19.2717L3.10254 21.1589C4.22626 22.4207 5.59913 23.4291 7.13213 24.1186C8.66512 24.8081 10.324 25.1634 12.0012 25.1614V22.3527Z" fill="url(#paint4_linear_9814:22510)"/>
<path d="M5.81246 6.06796L3.95036 3.9812C2.70511 5.11996 1.70994 6.51128 1.02939 8.0649C0.348856 9.61852 -0.00185538 11.2998 7.38162e-06 12.9996H2.77242C2.77185 11.6929 3.04218 10.4006 3.56587 9.20648C4.08957 8.01241 4.85496 6.94313 5.81246 6.06796Z" fill="url(#paint5_linear_9814:22510)"/>
<defs>
<linearGradient id="paint0_linear_9814:22510" x1="4.07569" y1="21.2475" x2="0.973873" y2="12.3999" gradientUnits="userSpaceOnUse">
<stop offset="0.14" stop-color="#F1E813"/>
<stop offset="0.3" stop-color="#E6E418"/>
<stop offset="0.58" stop-color="#C9DA26"/>
<stop offset="0.89" stop-color="#A2CC39"/>
</linearGradient>
<linearGradient id="paint1_linear_9814:22510" x1="4.3072" y1="4.89757" x2="12.1351" y2="1.95406" gradientUnits="userSpaceOnUse">
<stop offset="0.06" stop-color="#0FA7DF"/>
<stop offset="0.54" stop-color="#0098F8"/>
<stop offset="0.92" stop-color="#0290EA"/>
</linearGradient>
<linearGradient id="paint2_linear_9814:22510" x1="11.2176" y1="23.466" x2="20.0512" y2="21.4969" gradientUnits="userSpaceOnUse">
<stop offset="0.12" stop-color="#A2CC39"/>
<stop offset="0.28" stop-color="#86C239"/>
<stop offset="0.87" stop-color="#219F38"/>
</linearGradient>
<linearGradient id="paint3_linear_9814:22510" x1="11.4194" y1="1.77911" x2="18.9793" y2="4.0811" gradientUnits="userSpaceOnUse">
<stop offset="0.06" stop-color="#0290EA"/>
<stop offset="0.79" stop-color="#0C89CA"/>
</linearGradient>
<linearGradient id="paint4_linear_9814:22510" x1="3.79799" y1="20.817" x2="12.0345" y2="23.8544" gradientUnits="userSpaceOnUse">
<stop offset="0.13" stop-color="#F1E813"/>
<stop offset="0.3" stop-color="#EAE616"/>
<stop offset="0.53" stop-color="#D8DF1F"/>
<stop offset="0.8" stop-color="#BAD52D"/>
<stop offset="0.98" stop-color="#A2CC39"/>
</linearGradient>
<linearGradient id="paint5_linear_9814:22510" x1="1.03283" y1="13.3396" x2="4.40578" y2="4.68185" gradientUnits="userSpaceOnUse">
<stop offset="0.07" stop-color="#A2CC39"/>
<stop offset="0.26" stop-color="#81C45E"/>
<stop offset="0.92" stop-color="#0FA7DF"/>
</linearGradient>
</defs>
</svg>
