<svg width="34" height="30" viewBox="0 0 34 30" fill="none" xmlns="http://www.w3.org/2000/svg">
<path d="M33.5586 14.0276L34 12.6234L32.5399 12.6689C32.4165 12.6689 31.5198 12.6436 30.6499 12.0167C30.7147 12.023 30.7795 12.0319 30.8457 12.0319C31.7411 12.0319 32.6073 11.4959 32.9545 10.7301L33.5828 9.34611C32.7955 9.35617 32.0756 9.25756 32.0756 9.25756C32.0693 9.25638 31.502 9.18427 30.8457 8.51821C30.3751 8.0405 29.7926 7.78774 29.1617 7.78774C28.8857 7.78774 28.639 7.83698 28.4266 7.90397C28.4596 7.79149 28.4914 7.67776 28.5092 7.56022C28.7102 6.26474 27.8708 5.27638 27.8708 5.27761L26.7731 3.92652L26.0927 5.51395C26.0902 5.51902 25.9184 5.89058 25.6107 6.07259C25.5178 5.60622 25.2901 5.08169 24.803 4.57997C23.8847 3.63455 22.7667 3.49426 22.1817 3.49426C21.9108 3.49426 21.7175 3.52331 21.6703 3.53091L20.345 3.78999C20.4214 3.49549 20.5842 2.98364 20.8818 2.52233L21.6132 1.3899L19.7727 1.59843L19.1863 0.36105L18.0518 0.942436L17.0025 -0.0876465L15.9558 0.942436L14.8174 0.36105L14.2324 1.59843L12.3932 1.3899L13.1258 2.52233C13.4235 2.98364 13.5862 3.49426 13.6613 3.78876L12.3971 3.54105L12.3538 3.53344C12.2902 3.52331 12.0982 3.49426 11.826 3.49426C11.241 3.49426 10.123 3.63579 9.20714 4.57997C8.71874 5.08046 8.4911 5.60622 8.39699 6.07259C8.09174 5.89312 7.92128 5.52662 7.92128 5.52662L7.2396 3.93029L6.12408 5.29022C5.98805 5.46593 5.31525 6.3949 5.49834 7.56272C5.51746 7.67901 5.54801 7.7928 5.58107 7.90528C5.36993 7.83829 5.12316 7.78893 4.84716 7.78893C4.21635 7.78893 3.63378 8.04175 3.16194 8.51946C2.50814 9.18308 1.94344 9.25756 1.94856 9.25756C1.94856 9.25756 1.352 9.36379 0.428618 9.34736L1.05315 10.7313C1.40035 11.4985 2.26781 12.0331 3.16194 12.0331C3.2293 12.0331 3.29416 12.0243 3.36034 12.0179C2.49289 12.6449 1.59627 12.6702 1.48814 12.6714L0 12.6234L0.450251 14.0263C0.676649 14.7492 1.43343 15.9474 2.88337 16.0764C2.72565 16.7336 2.37591 17.4692 1.6077 17.7864L0.499904 18.2401L1.10403 19.2853C1.44486 19.849 2.24494 20.5088 3.38452 20.5088C3.63122 20.5076 3.86904 20.4835 4.09806 20.4355C4.15655 20.6933 4.23028 20.9512 4.31677 21.2065C4.65638 22.21 4.36382 22.9102 4.36007 22.9178L3.81312 24.0565L5.03412 24.3763C5.04937 24.3814 5.41823 24.4813 5.87988 24.4813C6.08978 24.4813 6.28949 24.4598 6.47776 24.4155C6.62017 24.3827 6.75627 24.3384 6.88724 24.2854C7.04496 24.5672 7.23704 24.8237 7.46093 25.0538C8.24309 25.8513 9.35092 26.2558 10.7551 26.2558H10.7601L11.7624 26.2431L9.69179 27.0975L11.2638 27.852C11.8349 28.1289 12.5128 28.4562 13.2021 28.7064L13.0063 29.2398L13.5481 29.485C13.5964 29.5065 14.6381 29.9703 16.3704 30.0689C16.3704 30.0689 16.7888 30.0879 17.0191 30.0879C17.2493 30.0879 17.6627 30.0676 17.6627 30.0676C19.3835 29.9665 20.4175 29.5077 20.4659 29.485L21.009 29.2385L20.8106 28.7039C21.5203 28.4461 22.2223 28.1061 22.7692 27.8406L24.312 27.0962L22.2478 26.2406L23.2539 26.2532C24.6593 26.2532 25.7684 25.8488 26.5493 25.05C26.7719 24.8212 26.9639 24.5646 27.1229 24.2828C27.2539 24.3359 27.3913 24.3802 27.5338 24.413C27.7207 24.4572 27.9204 24.4787 28.1303 24.4787C28.5843 24.4787 28.957 24.3788 28.9672 24.3763L30.1932 24.054L29.659 22.9368C29.6463 22.9076 29.3538 22.2087 29.6934 21.204C29.7799 20.9474 29.8523 20.6895 29.9109 20.433C30.1411 20.481 30.3815 20.5063 30.6295 20.5063C32.0807 20.5063 32.7764 19.4914 32.9113 19.2714L33.509 18.2376L32.4013 17.7851C31.6317 17.4679 31.2832 16.731 31.1268 16.075C32.5564 15.9538 33.3246 14.7556 33.5586 14.0276ZM13.758 4.2728L13.7427 4.27663L13.7554 4.26019L13.758 4.2728Z" fill="white"/>
<path d="M17.0025 4.21143C15.8297 4.21266 14.9508 4.59436 14.7588 5.04306L17.0025 5.92271L19.2461 5.04306C19.0553 4.59436 18.1764 4.21266 17.0025 4.21143Z" fill="white"/>
<path d="M17.0276 27.4985H17.0251H17.0059H16.9844H16.9831C16.2721 27.5036 15.294 27.3582 14.8221 27.2217L14.2549 28.7472C14.6288 28.8799 15.8956 29.1327 17.0059 29.1327C18.1137 29.1327 19.3818 28.8787 19.7545 28.7472L19.1886 27.2217C18.7153 27.3594 17.7385 27.5036 17.0276 27.4985Z" fill="white"/>
<path d="M21.3241 25.981C20.9018 26.2186 19.9593 26.575 19.4111 26.7406L19.8715 28.0007C20.7199 27.7707 21.4195 27.5015 21.9981 27.2133L21.0429 26.8973L21.3241 25.981Z" fill="white"/>
<path d="M12.6907 25.981L12.973 26.8973L12.0166 27.2133C12.594 27.5015 13.2973 27.7707 14.1419 28.0007L14.6023 26.7406C14.0567 26.575 13.1129 26.2173 12.6907 25.981Z" fill="white"/>
<path d="M17.0032 2.75267C17.8871 2.75267 18.7546 2.9625 19.421 3.33159C19.4821 3.12807 19.5673 2.88159 19.6831 2.62381L19.4312 2.6541L19.1667 2.68191L19.0547 2.44303L18.7177 1.73526L18.1034 2.05379L17.8642 2.17512L17.6735 1.98804L17.0057 1.33081L16.3393 1.98804L16.1485 2.17512L15.9093 2.05379L15.2913 1.73526L14.958 2.44303L14.8435 2.68191L14.579 2.6541L14.3271 2.62381C14.4429 2.88289 14.5269 3.12807 14.5892 3.33159C15.2569 2.9625 16.1218 2.75267 17.0032 2.75267Z" fill="white"/>
<path d="M30.4971 10.9314C30.6115 10.9706 30.7286 10.9883 30.8443 10.9883C31.3442 10.9883 31.8275 10.6672 31.9941 10.2994C31.9941 10.2994 31.0771 10.2438 30.0914 9.24916C29.7772 8.92685 29.4453 8.83081 29.1603 8.83081C28.7177 8.83081 28.3857 9.06332 28.3857 9.06332C29.5762 9.69282 29.8192 10.7039 30.4971 10.9314Z" fill="white"/>
<path d="M3.16023 10.9883C3.27596 10.9883 3.393 10.9706 3.50491 10.9314C4.1854 10.7039 4.4296 9.69282 5.62004 9.06332C5.62004 9.06332 5.2868 8.83081 4.8467 8.83081C4.56057 8.83081 4.22858 8.92685 3.9132 9.24916C2.92872 10.2438 2.01172 10.2994 2.01172 10.2994C2.17575 10.6672 2.66034 10.9883 3.16023 10.9883Z" fill="white"/>
<path d="M30.8237 15.0414C30.8442 15.0425 30.862 15.0425 30.8835 15.0425C32.1313 15.0425 32.5548 13.7143 32.5548 13.7143H32.5306C32.3017 13.7143 30.446 13.6611 29.1347 12.0042C28.2711 10.9147 27.564 9.95665 26.1661 9.58004L26.0288 9.55598L25.9982 9.41701C25.9601 9.20462 26.1063 9.00622 26.4383 8.79139C28.3665 7.53633 27.0578 5.93621 27.0578 5.93621C27.0578 5.93621 26.5071 7.21653 25.2745 7.21653C25.2453 7.21653 25.2135 7.21528 25.183 7.21528C25.043 7.20771 24.9082 7.20265 24.7722 7.1736L24.5445 7.12936C24.5445 7.12936 24.8956 6.18018 24.0484 5.30804C23.4099 4.64958 22.6329 4.53833 22.1839 4.53833C21.9575 4.53833 21.8138 4.56744 21.8138 4.56744C22.2398 5.12102 22.5476 6.03862 22.0554 6.60478C21.6306 7.09143 20.5928 7.11542 20.5928 7.8409C20.5928 8.14802 20.8815 8.50701 21.4004 8.82926C22.961 9.80625 24.5102 11.1018 25.1537 12.8383C25.9589 15.0047 25.052 16.4417 23.7572 17.2658C23.7572 17.2658 24.163 17.6373 24.7518 17.6841C24.8714 17.6955 24.9884 17.7006 25.0978 17.7006C26.3404 17.7006 26.9827 17.1217 26.9827 17.1217C26.9827 17.1217 26.8771 17.9217 26.2297 18.6649C25.6332 19.3512 24.8498 19.7544 23.6555 19.7721C23.6555 19.7721 23.6173 20.3232 24.1464 20.7996C24.4847 21.1004 25.2669 21.199 25.2669 21.199C25.2669 21.199 23.803 21.4935 23.6415 23.6422C23.5537 24.8062 23.2548 25.2106 23.2548 25.2106H23.2815C26.6787 25.2106 26.5909 22.3151 26.5909 22.3151C26.5909 22.3151 26.8275 23.1719 27.7751 23.3956C27.8895 23.426 28.0116 23.4374 28.1287 23.4374C28.4339 23.4374 28.6985 23.3666 28.6985 23.3666C28.6985 23.3666 28.2024 22.3264 28.6946 20.8717C29.1029 19.6647 29.0367 18.7698 29.0367 18.7698C29.0367 18.7698 29.4947 19.4573 30.6292 19.4637H30.6407C31.5856 19.4637 31.9977 18.7521 31.9977 18.7521C29.7325 17.8181 29.9564 14.8025 29.9564 14.8025C29.9564 14.8025 30.2502 15.0199 30.8237 15.0414ZM30.142 18.1909C29.2212 17.7397 28.6387 16.5416 28.4975 16.1093C28.3449 18.4854 27.1773 20.1348 25.8126 21.7223C25.1042 22.5451 24.8573 23.3451 24.8573 23.3451C24.8573 23.3451 24.9935 22.4389 25.6065 21.7007C26.8797 20.1803 28.0892 18.2883 28.1795 16.1005C28.2418 14.5736 27.8463 13.3351 27.2294 12.3151C27.5741 13.378 27.5258 14.6799 26.3544 15.8944C26.3544 15.8944 28.6857 13.1177 25.426 10.2714C24.121 9.18818 22.6939 8.51963 21.9588 8.04561C24.6144 8.90637 25.9105 7.95844 25.9105 7.95844C25.0622 8.68897 23.9645 8.67635 23.2841 8.57143C23.4685 8.66123 23.6605 8.75471 23.8679 8.86469C26.1063 10.0729 28.1185 12.061 28.4618 14.8151V14.7936C28.9834 17.497 30.142 18.1909 30.142 18.1909Z" fill="white"/>
<path d="M8.74106 21.1993C8.74106 21.1993 9.52322 21.1019 9.86158 20.7999C10.3893 20.3234 10.3525 19.7723 10.3525 19.7723C9.15691 19.7559 8.37476 19.3514 7.77439 18.6664C7.13214 17.9233 7.02529 17.1232 7.02529 17.1232C7.02529 17.1232 7.66753 17.7021 8.9089 17.7021C9.02088 17.7021 9.13661 17.697 9.25614 17.6856C9.84502 17.6389 10.252 17.2673 10.252 17.2673C8.95727 16.4433 8.04914 15.0049 8.85298 12.8386C9.49785 11.1033 11.0457 9.80649 12.6063 8.8295C13.1252 8.50726 13.4139 8.14952 13.4139 7.84114C13.4139 7.11566 12.3774 7.09167 11.9526 6.60502C11.4603 6.03886 11.7694 5.11996 12.1942 4.56769C12.1942 4.56769 12.053 4.53857 11.8253 4.53857C11.3776 4.53857 10.6005 4.64982 9.96206 5.30828C9.11242 6.18042 9.46473 7.1296 9.46473 7.1296L9.23709 7.17384C9.10099 7.2029 8.96489 7.20796 8.82623 7.21552C8.79449 7.21552 8.76643 7.21677 8.73594 7.21677C7.50094 7.21677 6.95274 5.93775 6.95274 5.93775C6.95274 5.93775 5.64395 7.53777 7.57093 8.79282C7.90286 9.00772 8.04783 9.20617 8.00971 9.41851L7.97916 9.55754L7.83925 9.58153C6.44403 9.95815 5.73562 10.9163 4.87198 12.0057C3.56319 13.6601 1.71007 13.7145 1.4786 13.7145H1.45312C1.45312 13.7145 1.87666 15.0428 3.1244 15.0428C3.14471 15.0428 3.16252 15.0428 3.18414 15.0416C3.75783 15.0213 4.0529 14.8027 4.0529 14.8027C4.0529 14.8027 4.27417 17.8171 2.0115 18.7523C2.0115 18.7523 2.42361 19.4639 3.3686 19.4639H3.38004C4.5158 19.4576 4.97246 18.77 4.97246 18.77C4.97246 18.77 4.90629 19.6649 5.31326 20.8719C5.80554 22.3267 5.31208 23.3668 5.31208 23.3668C5.31208 23.3668 5.57659 23.4376 5.88059 23.4376C5.99881 23.4376 6.11973 23.4263 6.23289 23.3959C7.17913 23.1722 7.41702 22.3153 7.41702 22.3153C7.41702 22.3153 7.33048 25.2108 10.7277 25.2108H10.7519C10.7519 25.2108 10.4543 24.8064 10.3678 23.6424C10.205 21.4937 8.74106 21.1993 8.74106 21.1993ZM8.19543 21.7225C6.83064 20.1351 5.66438 18.4856 5.51041 16.1096C5.36932 16.5405 4.78925 17.74 3.8685 18.1911C3.8685 18.1911 5.02589 17.4973 5.54603 14.7938V14.8153C5.89077 12.0626 7.90161 10.0732 10.1414 8.86493C10.3462 8.75364 10.5407 8.66016 10.7239 8.57168C10.0434 8.6766 8.94583 8.68922 8.09751 7.95868C8.09751 7.95868 9.39355 8.90661 12.0479 8.04585C11.3128 8.51988 9.88702 9.18843 8.58203 10.2716C5.32095 13.1179 7.6536 15.8947 7.6536 15.8947C6.4809 14.6788 6.43385 13.3783 6.77853 12.3153C6.1604 13.3365 5.76605 14.5739 5.82972 16.1007C5.9187 18.2885 7.12827 20.1806 8.39894 21.701C9.01319 22.4379 9.15185 23.3453 9.15185 23.3453C9.15185 23.3453 8.90253 22.5453 8.19543 21.7225Z" fill="white"/>
<path d="M14.4885 10.6125C14.5444 10.6718 14.5991 10.7363 14.6513 10.8008C14.664 10.816 14.6755 10.8299 14.6881 10.8476C14.7364 10.912 14.7861 10.9803 14.8331 11.0498C14.8433 11.0637 14.8535 11.0801 14.8649 11.0966C14.9222 11.1825 14.9756 11.271 15.029 11.362C15.5187 12.2025 16.3034 12.7042 16.9992 12.7056C17.6962 12.7042 18.4784 12.2025 18.9706 11.362C19.0253 11.2685 19.0799 11.1775 19.1372 11.0928C19.1461 11.0801 19.155 11.0688 19.1626 11.0561C19.211 10.9841 19.2618 10.9133 19.3153 10.8451C19.3267 10.8299 19.3369 10.8173 19.347 10.8046C19.4017 10.7376 19.4577 10.6718 19.5149 10.6112C19.5252 10.6011 19.5327 10.5923 19.5416 10.5847C19.7909 10.3307 20.0886 10.1373 20.4778 10.0299L20.3048 9.93H20.2946L19.6053 9.53183L18.8968 9.12866L17.0042 10.1524L16.9992 10.1486L16.9954 10.1524L15.1015 9.12866L14.3943 9.53058L13.7037 9.92875H13.6961L13.5205 10.0285C13.911 10.136 14.2074 10.3269 14.4579 10.5809C14.4694 10.591 14.477 10.6024 14.4885 10.6125ZM16.2335 10.5303H17.0348H17.8347V11.0763C17.6465 10.8476 17.2802 10.8944 17.2802 10.8944V11.6818C17.2802 11.6818 17.2942 12.0685 17.4303 12.2367H17.0348H16.6379C16.7765 12.0697 16.7893 11.6818 16.7893 11.6818V10.8944C16.7893 10.8944 16.4243 10.8476 16.2335 11.0763V10.5303Z" fill="white"/>
<path d="M16.8368 9.47071V6.27436L14.7891 5.58423L15.3296 8.68212L16.8368 9.47071ZM16.3967 7.05926V7.57235L16.2976 7.52686C16.2924 7.52311 16.1474 7.49018 15.8931 7.29053C15.4733 6.96697 15.4657 6.66872 15.4657 6.66872L16.3967 7.05926Z" fill="white"/>
<path d="M18.6763 8.68236L19.2144 5.58447L17.168 6.27461V9.47095L18.6763 8.68236ZM17.608 7.05951L18.539 6.67021C18.539 6.67021 18.5314 6.96846 18.1104 7.29202C17.8573 7.49173 17.711 7.52454 17.7059 7.52841L17.6067 7.5739V7.05951H17.608Z" fill="white"/>
<path d="M13.9476 16.8812C14.1473 16.9532 14.389 16.9685 14.5124 16.9685C14.5175 16.9532 14.5238 16.9343 14.5302 16.9115C14.5417 16.8749 14.5518 16.8395 14.5595 16.7991C14.5938 16.6221 14.6065 16.4211 14.609 16.2922C14.5251 16.2404 14.4068 16.1481 14.3406 16.0103C14.2643 15.8511 14.1562 15.7778 13.9972 15.7778C13.7912 15.7778 13.5699 15.9004 13.4758 15.9585C13.4008 16.3996 13.7276 16.8003 13.9476 16.8812Z" fill="white"/>
<path d="M18.4732 15.1855C18.0929 15.5963 17.3489 16.3117 17.3119 16.3483L17.2674 16.3938L14.9157 16.3571C14.9144 16.5885 14.8763 16.7857 14.8394 16.9297C14.8331 16.9537 14.8267 16.9791 14.8203 17.0043L17.6184 17.5036C17.9097 17.3012 18.711 16.7199 19.0213 16.4924C18.7949 16.1638 18.7734 15.7746 18.8242 15.5002C18.6766 15.4054 18.5635 15.2993 18.4732 15.1855Z" fill="white"/>
<path d="M18.7932 12.3746C18.2514 12.9093 17.7312 13.1064 17.267 13.1519C17.1831 13.1608 17.0978 13.1658 17.0113 13.1658H17.005H16.9998C16.9134 13.1658 16.8269 13.1608 16.743 13.1519C16.6615 13.1444 16.5764 13.1317 16.4911 13.1128C16.4606 13.2329 16.4224 13.4844 16.5319 13.7219C16.6298 13.9381 16.8294 14.0986 17.1207 14.2048L17.2186 14.2427L17.2199 14.3476C17.2199 14.3792 17.2428 15.0591 17.9894 15.2474C18.1115 15.1223 18.2222 15.0099 18.3036 14.9164C18.1509 14.56 18.231 14.1959 18.4524 14.0178C18.4422 14.0556 18.3456 14.9479 19.0654 15.2791L19.1837 15.3347L19.1481 15.4598C19.1367 15.4978 18.8963 16.361 19.7675 16.682L19.9214 16.7401L19.8527 16.8893C19.8375 16.9222 19.4953 17.7058 20.3004 18.1506H22.0467V16.773C21.4261 16.6972 21.1627 16.2017 21.0954 15.8503C20.8066 15.8011 20.5828 15.6772 20.4301 15.475C20.0638 14.996 20.3793 14.5574 20.3831 14.5333C20.3818 14.5372 20.3831 15.0048 20.673 15.293C20.8168 15.432 20.9872 15.5394 21.2454 15.5634L21.3726 15.5748L21.3841 15.7037C21.3866 15.7315 21.4566 16.3635 22.048 16.4633L22.0467 13.65C22.0467 13.2139 22.1752 12.7753 22.3291 12.3708H18.7932V12.3746Z" fill="white"/>
<path d="M14.0871 13.6637L14.04 15.4559L14.2448 15.4862L14.7459 13.7673L14.4915 13.239L14.0871 13.6637Z" fill="white"/>
<path d="M19.6188 21.8832C19.6342 21.8832 19.652 21.8857 19.6685 21.8895C19.9801 21.978 20.059 23.0952 20.6059 23.1952C20.6593 23.2065 20.7089 23.209 20.7521 23.209C20.9098 23.209 21.0039 23.142 21.1057 23.0233C21.1057 23.0233 20.831 22.5935 20.625 22.3041C20.3514 21.9249 20.1391 21.4661 19.6303 21.4661C19.6188 21.4661 19.6036 21.4661 19.5909 21.4674C19.423 21.4763 19.32 21.5572 19.32 21.5572C19.1139 21.4282 18.9219 21.384 18.7476 21.384C18.4284 21.384 18.1804 21.5293 18.057 21.5293H18.0519L16.9148 21.4181C16.7368 21.4016 16.5969 21.2235 16.546 21.1539C16.5333 21.1349 16.5269 21.1236 16.5269 21.1236C16.5269 21.0933 16.5269 21.0617 16.5244 21.0338C16.4862 20.11 15.7664 19.7144 15.5107 19.7081C15.5107 19.7081 15.5412 19.5324 15.4713 19.4654L15.2207 19.7674L14.3978 19.3567L14.9841 20.0379L14.4868 20.5927C14.4245 20.656 14.4322 20.7419 14.4576 20.7773L14.6725 20.9656L14.9447 20.8013C14.9587 20.7912 14.9829 20.7886 15.0134 20.7886C15.0884 20.7886 15.2016 20.8076 15.3034 20.8076C15.414 20.8076 15.5107 20.7836 15.5222 20.68C15.4878 21.0225 15.1686 21.6178 15.3785 22.0854L15.5336 22.4381L14.5288 22.294L14.0582 23.0839C13.9133 23.3468 13.8903 23.6312 14.0302 23.7853L14.2058 24.004C14.2058 24.004 14.4525 23.7437 14.5085 23.5731L14.4283 23.4858C14.3609 23.4125 14.3647 23.3468 14.4055 23.2672L14.7005 22.7806L15.8872 23.0586L15.9495 22.9525C16.0296 22.8197 16.1454 22.7793 16.2726 22.7793C16.3247 22.7793 16.3781 22.7856 16.4341 22.7945C16.6541 22.8375 17.0166 22.8956 17.3791 22.8956C17.7772 22.8956 18.1715 22.8248 18.3813 22.591C18.8112 23.2242 19.6825 23.3253 19.6138 23.6464L19.3849 24.7308C19.5362 24.7245 19.6825 24.7143 19.8211 24.6953L20.0386 23.5667C20.0628 23.4442 20.0857 23.2786 20.0857 23.2786C20.0018 23.1939 19.7982 23.0144 19.6837 22.797C19.5299 22.5038 19.6138 22.3508 19.4701 21.9692C19.4752 21.9717 19.5184 21.8832 19.6188 21.8832ZM15.18 20.2982C15.1215 20.297 15.0795 20.2477 15.0821 20.1896C15.0872 20.134 15.1343 20.0897 15.1915 20.0948C15.25 20.0973 15.2919 20.1479 15.2894 20.2035C15.2843 20.2591 15.236 20.3021 15.18 20.2982Z" fill="white"/>
<path d="M13.5559 22.9089C13.5559 22.9089 13.9489 22.7484 13.9845 22.6333L13.9324 22.5031C13.8955 22.4185 13.9006 22.3262 13.9719 22.2756L14.3966 21.9837L15.1064 22.1189C15.1064 22.1189 14.9779 21.9597 14.9907 21.7461L14.314 21.6033L13.6755 21.99C13.402 22.1935 13.3817 22.5259 13.472 22.723L13.5559 22.9089Z" fill="white"/>
<path d="M18.5742 24.7464C18.7014 24.7414 18.8413 24.7388 18.9953 24.7388C18.9953 24.7388 19.3602 23.6784 19.3806 23.6443C19.1758 23.5546 18.7511 23.3309 18.587 23.2285C18.6951 23.389 18.9583 23.5736 18.9062 23.7151L18.5742 24.7464Z" fill="white"/>
<path d="M22.0508 18.4578H11.9609V22.2292C11.9609 23.7712 13.084 24.7368 14.7413 24.7368C16.1264 24.7368 16.4914 24.7899 17.0065 25.298C17.3613 24.9466 17.6552 24.8152 18.258 24.7658L18.2721 24.7078L18.59 23.7307C18.5722 23.7093 18.0521 23.1216 18.0521 23.1216C17.846 23.1898 17.673 23.2012 17.3818 23.2012C17.0828 23.2012 16.7458 23.167 16.3808 23.0988C16.3439 23.09 16.3095 23.0874 16.2752 23.0874C16.2307 23.0874 16.2268 23.0913 16.2154 23.1127L16.1518 23.2164L16.036 23.4059L15.8186 23.3566L14.8507 23.1304L14.7184 23.3478L14.7387 23.3705L14.857 23.4994L14.8049 23.6676C14.7337 23.8875 14.5022 24.144 14.4322 24.2148L14.1906 24.4727L13.9705 24.1958L13.8052 23.9899C13.631 23.7965 13.5902 23.4994 13.6882 23.1885C13.6856 23.1911 13.6818 23.1924 13.678 23.1924L13.4046 23.3048L13.2812 23.0394L13.1947 22.8511C13.0458 22.52 13.1006 22.0358 13.5012 21.7439L14.2809 21.3066L15.0224 21.452C15.0402 21.3812 15.0669 21.1284 15.0885 21.0639C15.0745 21.0627 15.0606 21.0589 15.0466 21.0589L14.6192 21.2168L14.2071 20.9338C14.2071 20.9338 14.0456 20.7796 14.1918 20.6254L14.5912 20.025L13.5801 18.7636L15.1343 19.3981L15.2373 19.2705L15.4472 19.0215L15.685 19.2465C15.7525 19.3109 15.7906 19.3905 15.8097 19.4701C16.2382 19.6357 17.0053 20.1249 17.0726 20.9199L16.8323 21.0159V21.0222C16.887 21.0867 16.9327 21.1133 16.9468 21.1157L18.0558 21.2244C18.0838 21.2194 18.1194 21.2068 18.1589 21.1954C18.2963 21.1486 18.5035 21.0816 18.749 21.0816C18.9487 21.0816 19.142 21.1272 19.3277 21.2131C19.3964 21.1878 19.4803 21.1688 19.577 21.1625L19.6304 21.1613C20.2244 21.1613 20.5194 21.6024 20.7561 21.9537C20.7955 22.0143 20.8349 22.0725 20.8756 22.1294C21.0829 22.4201 21.3538 22.8461 21.3653 22.8637L21.4874 23.0533L21.3373 23.2265C21.2216 23.3591 21.0486 23.5147 20.751 23.5147C20.6899 23.5147 20.6225 23.5083 20.55 23.4944C20.4864 23.483 20.4292 23.4641 20.3732 23.4414C20.3643 23.4994 20.3528 23.569 20.3414 23.6284L20.1468 24.6369C21.3106 24.3526 22.0496 23.4792 22.0496 22.2305L22.0508 18.4578Z" fill="#FFDD2D"/>
<path d="M11.9576 18.1543H19.8038C19.412 17.7525 19.4171 17.2431 19.5176 16.912C19.4032 16.8576 19.309 16.7919 19.2251 16.7211C18.9186 16.9461 17.9824 17.6235 17.7382 17.7929L17.6861 17.8283L14.6069 17.2747H14.5445C14.4708 17.2747 14.3627 17.2722 14.2444 17.2583C14.2113 17.396 14.0917 17.4908 13.9544 17.4908C13.9391 17.4908 13.9213 17.4896 13.9048 17.4858C13.8247 17.4718 13.7547 17.4314 13.7076 17.3644C13.6593 17.2987 13.6403 17.2204 13.6543 17.1395L13.6657 17.0737C13.3477 16.8513 13.0552 16.3546 13.1849 15.8313L13.1976 15.7757L13.2421 15.7441C13.2485 15.7391 13.3019 15.7037 13.3808 15.6581L13.1569 15.624C13.073 15.6089 13.017 15.5317 13.0298 15.4496C13.0438 15.3662 13.1226 15.3068 13.2053 15.3232L13.7382 15.4067L13.7866 13.5411L14.5801 12.7069L15.0749 13.7421L14.5522 15.5369L15.0228 15.6102C15.1055 15.6228 15.1627 15.6999 15.15 15.7846C15.1373 15.8592 15.0737 15.9109 14.9986 15.9109C14.991 15.9109 14.9821 15.9109 14.9745 15.9097L14.5916 15.8478C14.5967 15.8592 14.6043 15.8654 14.6094 15.8781C14.6501 15.9615 14.7404 16.0222 14.7939 16.0474L17.1417 16.0841C17.241 15.9881 17.4877 15.7479 17.7408 15.4939C17.1634 15.2765 16.9535 14.781 16.9178 14.4524C16.5949 14.3159 16.3723 14.1112 16.2489 13.8445C16.0988 13.5146 16.1523 13.1847 16.1916 13.0242C15.8787 12.9105 15.5494 12.7032 15.2136 12.3721H11.6777C11.8291 12.7765 11.9576 13.215 11.9576 13.6511V18.1543Z" fill="#FFDD2D"/>
<path d="M15.1867 20.0946C15.1295 20.0895 15.0811 20.1338 15.0774 20.1894C15.0735 20.2475 15.1168 20.2968 15.1753 20.2981C15.2312 20.3031 15.2808 20.2601 15.2859 20.2032C15.2859 20.1476 15.2452 20.0958 15.1867 20.0946Z" fill="black"/>
<path d="M22.0384 26.9325L21.4572 26.7114L21.6174 26.1148L21.7942 25.4639C21.7942 25.4639 20.764 26.0188 19.3128 26.4358C18.9006 26.5534 18.5891 26.6064 18.5891 26.6064V27.0488C18.5891 27.0488 17.8131 27.1828 17.0284 27.1828H17.0196H17.0081H16.9928H16.9839C16.1992 27.1828 15.4233 27.0488 15.4233 27.0488V26.6064C15.4233 26.6064 15.1105 26.5534 14.6997 26.4358C13.2484 26.0188 12.2194 25.4639 12.2194 25.4639L12.3937 26.1148L12.5578 26.7114L11.9752 26.9325L11.3291 27.1727C12.0706 27.5278 13.0971 28.046 14.037 28.3013L13.8157 28.903C13.8157 28.903 15.0074 29.4426 16.9928 29.4477V29.4489H16.9992H17.0081H17.0157H17.0209V29.4477C19.0088 29.4426 20.1992 28.903 20.1992 28.903L19.9766 28.3013C20.9166 28.046 21.9456 27.5278 22.6833 27.1727L22.0384 26.9325ZM12.0185 27.2131L12.975 26.8971L12.6926 25.9808C13.1136 26.2185 14.0586 26.5749 14.6055 26.7404L14.1438 28.0005C13.2993 27.7692 12.596 27.5 12.0185 27.2131ZM17.0081 29.1317C15.8978 29.1317 14.6297 28.8777 14.257 28.7463L14.8243 27.2207C15.2949 27.3572 16.2742 27.5026 16.9852 27.4975H16.9865H17.0081H17.0272H17.0297C17.7407 27.5026 18.7175 27.3572 19.1907 27.2207L19.7566 28.7463C19.384 28.8789 18.1171 29.1317 17.0081 29.1317ZM19.8699 28.0005L19.4094 26.7404C19.9576 26.5749 20.9001 26.2185 21.3223 25.9808L21.0412 26.8971L21.9964 27.2131C21.4177 27.5 20.7182 27.7692 19.8699 28.0005Z" fill="black"/>
<path d="M16.9999 3.12146C18.1827 3.12146 19.129 3.51076 19.6518 3.92658C19.6518 3.92658 19.8069 2.9976 20.3373 2.17735L19.3847 2.28476L18.8861 1.23193L17.9284 1.72235L16.9999 0.809814L16.0739 1.72235L15.1149 1.23193L14.6177 2.28476L13.665 2.17735C14.1954 2.9976 14.3506 3.92658 14.3506 3.92658C14.8746 3.51076 15.8183 3.12146 16.9999 3.12146ZM14.5744 2.65386L14.839 2.68167L14.9534 2.44273L15.2867 1.73495L15.9048 2.05219L16.1439 2.17358L16.3347 1.9865L17.0012 1.32927L17.6689 1.9865L17.8597 2.17358L18.0988 2.05219L18.7131 1.73495L19.0502 2.44273L19.1621 2.68167L19.4267 2.65386L19.6784 2.62351C19.5627 2.88259 19.4775 3.12776 19.4165 3.33129C18.75 2.96219 17.8826 2.75243 16.9986 2.75243C16.1185 2.75243 15.2523 2.96219 14.5834 3.33129C14.521 3.12776 14.4371 2.88135 14.3213 2.62351L14.5744 2.65386Z" fill="black"/>
<path d="M30.8834 15.4479C32.4135 15.4479 32.9247 13.9009 32.9464 13.8352L33.1168 13.2905L32.5431 13.3082H32.5406C32.3384 13.3082 30.6507 13.2639 29.4537 11.7523L29.3405 11.612C28.5583 10.6236 27.8169 9.68459 26.4916 9.25611C26.5297 9.222 26.5844 9.17901 26.6595 9.13095C27.3628 8.67092 27.7724 8.11229 27.8753 7.46392C28.0254 6.48812 27.3997 5.71083 27.3717 5.67925L26.9456 5.15602L26.6798 5.7766C26.662 5.81578 26.2143 6.80924 25.2731 6.80924H25.2031C25.1383 6.80537 25.0772 6.80287 25.0162 6.79787C25.0492 6.35421 24.9678 5.66788 24.3421 5.02457C23.5904 4.2498 22.667 4.13354 22.1837 4.13354C21.9255 4.13354 21.7538 4.16512 21.736 4.16766L21.0924 4.29404L21.4892 4.81351C21.8009 5.21418 22.0832 5.95354 21.7487 6.34034C21.6419 6.46287 21.4219 6.56273 21.2107 6.66258C20.777 6.86098 20.1855 7.13655 20.1855 7.83922C20.1855 8.29425 20.5404 8.76953 21.184 9.17394C23.0893 10.3646 24.2645 11.6069 24.772 12.9783C25.5568 15.0877 24.5328 16.2909 23.5382 16.9242L23.0918 17.2097L23.4822 17.5662C23.5344 17.6117 24.0126 18.0301 24.7186 18.0907C24.8521 18.0996 24.9806 18.1072 25.1001 18.1072C25.5529 18.1072 25.9383 18.0364 26.2512 17.9416C26.1647 18.092 26.0591 18.2449 25.9256 18.3991C25.357 19.0538 24.6575 19.352 23.6514 19.3673L23.2775 19.3736L23.2483 19.7465C23.2444 19.8209 23.2164 20.5124 23.8753 21.1001C23.9758 21.191 24.0979 21.2657 24.2251 21.3276C23.7786 21.7269 23.3246 22.4221 23.2369 23.6139C23.163 24.6086 22.924 24.9764 22.9214 24.9803L22.508 25.6071L23.2547 25.6172C24.4883 25.6172 25.4333 25.2785 26.0883 24.6086C26.475 24.2118 26.6963 23.7644 26.8273 23.3675C27.0423 23.5495 27.3196 23.7088 27.6808 23.7935C27.8182 23.825 27.9682 23.8428 28.1297 23.8428C28.4782 23.8428 28.7695 23.7694 28.8025 23.7618L29.2795 23.6354L29.0684 23.1931C29.0531 23.1577 28.6551 22.2704 29.0837 21.004C29.2681 20.4568 29.3622 19.9664 29.408 19.5846C29.7082 19.7402 30.1101 19.869 30.6302 19.8703C31.8105 19.8703 32.3308 18.9944 32.3549 18.9578L32.5877 18.5558L32.1565 18.3789C30.7498 17.7987 30.4382 16.2404 30.3759 15.3961C30.5031 15.4201 30.648 15.4428 30.8121 15.4479H30.8834ZM31.9988 18.7518C31.9988 18.7518 31.5867 19.4633 30.6417 19.4633H30.6302C29.4957 19.457 29.0379 18.7694 29.0379 18.7694C29.0379 18.7694 29.104 19.6643 28.6944 20.8713C28.2023 22.326 28.6982 23.3662 28.6982 23.3662C28.6982 23.3662 28.4337 23.437 28.1284 23.437C28.0115 23.437 27.8894 23.4256 27.7749 23.3953C26.8273 23.1716 26.5908 22.3146 26.5908 22.3146C26.5908 22.3146 26.6785 25.2103 23.2813 25.2103H23.2547C23.2547 25.2103 23.5535 24.8058 23.6425 23.6417C23.8041 21.4932 25.268 21.1987 25.268 21.1987C25.268 21.1987 24.4871 21.1013 24.1487 20.7992C23.6197 20.3228 23.6565 19.7717 23.6565 19.7717C24.8521 19.7553 25.6343 19.3509 26.2308 18.6645C26.877 17.9213 26.9838 17.1213 26.9838 17.1213C26.9838 17.1213 26.3415 17.7002 25.0988 17.7002C24.9894 17.7002 24.8724 17.6951 24.7529 17.6838C24.1653 17.637 23.7583 17.2654 23.7583 17.2654C25.0518 16.4413 25.9599 15.0031 25.1548 12.8367C24.51 11.1014 22.9608 9.80463 21.4015 8.82758C20.8826 8.50539 20.5938 8.14765 20.5938 7.83922C20.5938 7.1138 21.6317 7.09106 22.0577 6.60316C22.5488 6.03698 22.2409 5.11807 21.8148 4.5658C21.8148 4.5658 21.9586 4.53669 22.185 4.53669C22.6339 4.53669 23.4111 4.64917 24.0496 5.30639C24.8979 6.17849 24.5456 7.12768 24.5456 7.12768L24.7732 7.17192C24.9093 7.20097 25.0442 7.20603 25.1841 7.21235C25.2146 7.21235 25.2451 7.21366 25.2756 7.21366C26.5081 7.21366 27.0588 5.93333 27.0588 5.93333C27.0588 5.93333 28.3689 7.53465 26.4407 8.7884C26.1087 9.00329 25.9625 9.20175 26.0006 9.41408L26.0311 9.55312L26.1684 9.57711C27.5663 9.95372 28.2735 10.9118 29.1371 12.0013C30.4484 13.6583 32.3041 13.7113 32.533 13.7113H32.5572C32.5572 13.7113 32.1337 15.0397 30.8859 15.0397C30.8655 15.0397 30.8477 15.0397 30.8261 15.0384C30.2525 15.0182 29.9587 14.7995 29.9587 14.7995C29.9587 14.7995 29.7335 17.8164 31.9988 18.7518Z" fill="black"/>
<path d="M28.1999 9.42378C28.7709 9.7259 29.1029 10.1303 29.3942 10.4892C29.6804 10.8394 29.9526 11.1768 30.3774 11.3171C30.5287 11.3689 30.689 11.3929 30.8518 11.3929C31.4903 11.3929 32.1313 11.0049 32.3743 10.4678L32.6185 9.92936L32.027 9.89393C31.999 9.89268 31.2384 9.82444 30.3914 8.96375C30.0428 8.61113 29.6219 8.42529 29.1678 8.42529C28.6132 8.42529 28.2024 8.70086 28.1567 8.72861L27.6123 9.10909L28.1999 9.42378ZM29.1691 8.83227C29.454 8.83227 29.786 8.92838 30.1001 9.25062C31.0858 10.2454 32.0028 10.3009 32.0028 10.3009C31.8362 10.6675 31.3529 10.9898 30.853 10.9898C30.7373 10.9898 30.6216 10.972 30.5058 10.9328C29.8279 10.7053 29.585 9.69422 28.3932 9.06485C28.3932 9.06485 28.7265 8.83227 29.1691 8.83227Z" fill="black"/>
<path d="M28.466 14.7932V14.8134C28.1226 12.0606 26.1105 10.0725 23.872 8.86298C23.6646 8.753 23.4738 8.65952 23.2882 8.56979C23.9699 8.67464 25.0675 8.68733 25.9146 7.95679C25.9146 7.95679 24.6185 8.90472 21.9629 8.04402C22.698 8.51792 24.1263 9.1866 25.4301 10.2697C28.6898 13.116 26.3572 15.8928 26.3572 15.8928C27.5286 14.6782 27.5769 13.3764 27.2322 12.3135C27.8491 13.3334 28.2434 14.572 28.1823 16.0988C28.0921 18.2866 26.8825 20.1787 25.6093 21.6991C24.9976 22.4372 24.8602 23.3434 24.8602 23.3434C24.8602 23.3434 25.1069 22.5434 25.8154 21.7206C27.1801 20.1332 28.3464 18.4838 28.4991 16.1076C28.6403 16.5387 29.2215 17.7381 30.1436 18.1893C30.1462 18.1906 28.9875 17.4966 28.466 14.7932Z" fill="black"/>
<path d="M11.0879 24.9787C11.0866 24.9749 10.8501 24.6071 10.7738 23.6125C10.6847 22.4206 10.2319 21.7255 9.78423 21.3261C9.91395 21.2654 10.0335 21.1909 10.134 21.0986C10.7916 20.5108 10.7636 19.8195 10.7598 19.745L10.7343 19.3721L10.3579 19.3658C9.35431 19.3494 8.65352 19.0511 8.08495 18.3976C7.95272 18.2434 7.84587 18.0905 7.75933 17.9401C8.07226 18.0349 8.45512 18.1057 8.90915 18.1057C9.03125 18.1057 9.15717 18.0981 9.2907 18.0893C9.99662 18.0285 10.4749 17.6115 10.5283 17.5647L10.9187 17.2083L10.4723 16.9227C9.47391 16.2882 8.45381 15.0849 9.23728 12.9768C9.7448 11.6055 10.9187 10.3631 12.8265 9.17247C13.4701 8.76805 13.8225 8.29278 13.8225 7.83775C13.8225 7.13508 13.2323 6.85832 12.7986 6.66111C12.5875 6.56126 12.3674 6.4614 12.2605 6.33887C11.9248 5.95331 12.2084 5.21272 12.5188 4.81204L12.9181 4.29258L12.272 4.16619C12.253 4.16365 12.0838 4.13208 11.8243 4.13208C11.341 4.13208 10.4202 4.24833 9.66719 5.0231C9.04019 5.66772 8.95746 6.35399 8.98933 6.7964C8.92821 6.8014 8.86723 6.8039 8.80361 6.80777H8.73494C7.7912 6.80777 7.34479 5.81432 7.32698 5.77513L7.06116 5.15456L6.63118 5.67779C6.60706 5.70937 5.97875 6.48796 6.13135 7.46245C6.23314 8.11082 6.64268 8.66945 7.34604 9.12948C7.42233 9.17747 7.47576 9.22053 7.51394 9.25464C6.18984 9.68312 5.44968 10.6234 4.6674 11.6118L4.55423 11.7521C3.35867 13.2637 1.66709 13.3079 1.46487 13.3079L0.888672 13.2903L1.06419 13.835C1.08453 13.9007 1.59456 15.4477 3.1259 15.4477L3.1997 15.4451C3.36123 15.4401 3.5062 15.4186 3.63598 15.3934C3.57237 16.2363 3.26075 17.7948 1.85274 18.3761L1.42289 18.5531L1.65565 18.955C1.67852 18.9916 2.20003 19.8675 3.38285 19.8675C3.89918 19.8663 4.3011 19.7374 4.60254 19.582C4.64834 19.9636 4.74244 20.454 4.92691 21.0012C5.35551 22.2677 4.95621 23.1549 4.94091 23.1904L4.72982 23.6327L5.20797 23.759C5.23978 23.7667 5.5336 23.84 5.88084 23.84C6.04362 23.84 6.19371 23.8223 6.32856 23.7907C6.69098 23.706 6.9708 23.5468 7.18326 23.3648C7.31292 23.7616 7.53556 24.209 7.92092 24.6059C8.57722 25.2757 9.52097 25.6145 10.7547 25.6145L11.5026 25.6044L11.0879 24.9787ZM10.7267 25.2101C7.32948 25.2101 7.41602 22.3145 7.41602 22.3145C7.41602 22.3145 7.17938 23.1714 6.23183 23.3951C6.11866 23.4254 5.99781 23.4367 5.87959 23.4367C5.57427 23.4367 5.31102 23.366 5.31102 23.366C5.31102 23.366 5.80454 22.3258 5.31227 20.8711C4.90529 19.6641 4.9714 18.7692 4.9714 18.7692C4.9714 18.7692 4.5148 19.4568 3.37904 19.4631H3.3676C2.42255 19.4631 2.01044 18.7515 2.01044 18.7515C4.27442 17.8175 4.05184 14.8018 4.05184 14.8018C4.05184 14.8018 3.75808 15.0193 3.18314 15.0407C3.16283 15.042 3.14371 15.042 3.1234 15.042C1.87441 15.042 1.45213 13.7137 1.45213 13.7137H1.47754C1.70777 13.7137 3.56094 13.6606 4.87223 12.0036C5.7358 10.9141 6.44428 9.95731 7.83956 9.57945L7.97947 9.55546L8.0099 9.41642C8.04814 9.20409 7.90311 9.00563 7.57118 8.7908C5.64295 7.53575 6.95299 5.93564 6.95299 5.93564C6.95299 5.93564 7.50119 7.21469 8.73625 7.21469C8.76668 7.21469 8.79468 7.21344 8.82648 7.21344C8.96514 7.20581 9.10255 7.20081 9.23728 7.17169L9.46498 7.12745C9.46498 7.12745 9.11268 6.17827 9.96231 5.30623C10.6008 4.64771 11.3779 4.53652 11.8256 4.53652C12.0533 4.53652 12.1945 4.56557 12.1945 4.56557C11.7696 5.11915 11.4619 6.03675 11.9528 6.603C12.3776 7.08959 13.4142 7.11358 13.4142 7.83906C13.4142 8.14618 13.1255 8.50511 12.6065 8.82742C11.0459 9.80447 9.49678 11.1012 8.85317 12.8365C8.04939 15.0028 8.95627 16.4399 10.2523 17.2652C10.2523 17.2652 9.84528 17.6368 9.2564 17.6835C9.13686 17.6949 9.02113 17.6999 8.90915 17.6999C7.66778 17.6999 7.02554 17.1211 7.02554 17.1211C7.02554 17.1211 7.13233 17.9211 7.77464 18.6643C8.37501 19.3506 9.15717 19.7551 10.3528 19.7715C10.3528 19.7715 10.3909 20.3225 9.86183 20.799C9.52222 21.0998 8.74131 21.1984 8.74131 21.1984C8.74131 21.1984 10.2065 21.4929 10.3667 23.6415C10.4545 24.8056 10.7508 25.2101 10.7508 25.2101H10.7267Z" fill="black"/>
<path d="M3.16055 11.3934C3.32458 11.3934 3.48486 11.3694 3.63627 11.3175C4.06356 11.1773 4.3345 10.8398 4.62069 10.4897C4.91319 10.1308 5.24263 9.7263 5.8137 9.42424L6.40127 9.11074L5.85569 8.73038C5.80989 8.70132 5.40034 8.427 4.84708 8.427C4.39174 8.427 3.96951 8.61159 3.62221 8.96545C2.7752 9.8249 2.01591 9.89445 1.98786 9.8957L1.39648 9.92976L1.63938 10.4695C1.88357 11.0041 2.52331 11.3934 3.16055 11.3934ZM3.91352 9.25108C4.22896 8.92884 4.56089 8.83273 4.84708 8.83273C5.28712 8.83273 5.62043 9.06525 5.62043 9.06525C4.42986 9.69599 4.18566 10.7058 3.50523 10.9334C3.39332 10.9725 3.27628 10.9902 3.16055 10.9902C2.66072 10.9902 2.17738 10.6692 2.01204 10.3014C2.01204 10.3001 2.92779 10.2445 3.91352 9.25108Z" fill="black"/>
<path d="M5.83461 16.1005C5.77093 14.5737 6.16529 13.3351 6.78335 12.3152C6.43873 13.3781 6.48578 14.6799 7.65848 15.8945C7.65848 15.8945 5.32583 13.1178 8.58692 10.2714C9.8919 9.18831 11.3189 8.51963 12.0528 8.04573C9.39844 8.90643 8.10239 7.9585 8.10239 7.9585C8.94941 8.68903 10.0471 8.67635 10.7288 8.57018C10.5444 8.65992 10.3511 8.75352 10.1462 8.86344C7.90518 10.073 5.89434 12.0612 5.54973 14.8138V14.7923C5.02946 17.4959 3.87207 18.1897 3.87207 18.1897C4.79294 17.7385 5.37289 16.5404 5.51411 16.1081C5.66795 18.4842 6.83428 20.1336 8.199 21.7211C8.90741 22.5439 9.15674 23.3438 9.15674 23.3438C9.15674 23.3438 9.01808 22.4377 8.40377 21.6996C7.13315 20.1816 5.92359 18.2883 5.83461 16.1005Z" fill="black"/>
<path d="M16.2334 10.5308V11.0768C16.423 10.8479 16.7893 10.8947 16.7893 10.8947V11.6822C16.7893 11.6822 16.7765 12.0689 16.6379 12.237H17.0347H17.4303C17.2942 12.0701 17.2802 11.6822 17.2802 11.6822V10.8947C17.2802 10.8947 17.6465 10.8479 17.8348 11.0768V10.5308H17.0347H16.2334Z" fill="black"/>
<path d="M15.9001 7.29179C16.1531 7.4915 16.2994 7.52437 16.3045 7.52812L16.4037 7.57361V7.05922L15.4727 6.66992C15.4727 6.67123 15.4816 6.96824 15.9001 7.29179Z" fill="black"/>
<path d="M18.1108 7.29179C18.5318 6.96824 18.5394 6.66992 18.5394 6.66992L17.6084 7.05922V7.57361L17.7064 7.52812C17.7128 7.52437 17.8577 7.4915 18.1108 7.29179Z" fill="black"/>
<path d="M19.7852 5.19756C19.7852 4.41778 18.4636 3.71631 17.0048 3.71631H17.0036H16.9998H16.9959C15.5371 3.71631 14.2156 4.41778 14.2156 5.19756L14.2449 5.38972L14.8273 8.71248L14.2423 9.04991L12.7288 9.92835H12.7338C12.7338 9.92835 12.393 10.1015 12.2353 10.2089C11.6591 10.6071 11.537 11.1872 11.8716 11.4274C11.9542 10.9546 12.3307 10.4592 13.0353 10.4592C13.5428 10.4592 13.9295 10.7196 14.2423 11.1101C14.3224 11.2087 14.3987 11.3136 14.47 11.4274C14.5578 11.5701 14.6455 11.6952 14.7333 11.8166H10.835C11.1212 12.3891 11.3933 12.9958 11.3933 13.6543V22.2285C11.3933 24.3038 12.9997 25.2948 14.7371 25.2948C16.0802 25.2948 16.2608 25.2342 17.0023 25.9672C17.7399 25.2328 17.9206 25.2948 19.2649 25.2948C21.0036 25.2948 22.6074 24.3038 22.6074 22.2285V13.6543C22.6074 12.9958 22.8797 12.3891 23.1671 11.8166H19.2675C19.354 11.6966 19.4418 11.5701 19.5296 11.4274C19.602 11.3136 19.677 11.2087 19.7559 11.1101C20.0714 10.7183 20.4567 10.4592 20.9642 10.4592C21.6688 10.4592 22.044 10.9533 22.128 11.4274C22.4625 11.1872 22.3417 10.6071 21.7617 10.2089C21.6065 10.1015 21.2656 9.92835 21.2656 9.92835H21.2707L19.7572 9.04991L19.1747 8.71248L19.7572 5.38972L19.7852 5.19756ZM14.7892 5.58433L16.837 6.27442V9.47082L15.3298 8.68092L14.7892 5.58433ZM15.2128 12.374C15.5485 12.7063 15.878 12.9124 16.1909 13.0262C16.1501 13.1866 16.0967 13.5178 16.248 13.8477C16.3715 14.1131 16.5953 14.3178 16.9171 14.4544C16.9527 14.783 17.1613 15.2771 17.7399 15.4958C17.4868 15.7498 17.2401 15.9887 17.1397 16.086L14.793 16.0494C14.7397 16.0228 14.6493 15.9634 14.6086 15.8788C14.6035 15.8674 14.5959 15.8611 14.5921 15.8484L14.9749 15.9103C14.9839 15.9116 14.9914 15.9116 14.9991 15.9116C15.0728 15.9116 15.1377 15.8611 15.1505 15.7853C15.1632 15.7005 15.106 15.6234 15.0233 15.6108L14.5527 15.5375L15.0754 13.7441L14.5806 12.7089L13.787 13.5431L13.7387 15.4086L13.2057 15.3252C13.123 15.3088 13.0442 15.3694 13.0303 15.4516C13.0175 15.5337 13.0734 15.6108 13.1574 15.626L13.3813 15.6601C13.3011 15.7056 13.249 15.741 13.2426 15.746L13.1969 15.7777L13.1841 15.8333C13.0544 16.3565 13.3482 16.8532 13.6649 17.0756L13.6534 17.1414C13.6408 17.2222 13.6585 17.3006 13.7068 17.3664C13.7526 17.4334 13.8238 17.4738 13.9027 17.4877C13.9193 17.4902 13.9371 17.4915 13.9523 17.4915C14.0897 17.4915 14.2093 17.3967 14.2436 17.259C14.3619 17.2728 14.47 17.2753 14.5437 17.2753H14.6061L17.6853 17.8277L17.7374 17.7936C17.9829 17.6229 18.9177 16.9455 19.2242 16.7218C19.3082 16.7938 19.4023 16.8595 19.5168 16.9139C19.4176 17.245 19.4112 17.7544 19.8042 18.1563H11.9567V13.6555C11.9567 13.2195 11.8283 12.781 11.6769 12.3765H15.2128V12.374ZM19.0182 16.4917C18.7066 16.7192 17.9053 17.3006 17.6153 17.5029L14.8172 17.0037C14.8236 16.9783 14.8299 16.9544 14.8363 16.929C14.8732 16.785 14.9101 16.5878 14.9126 16.3565L17.2643 16.3945L17.3088 16.3489C17.3444 16.3135 18.0897 15.5982 18.47 15.1861C18.5603 15.2986 18.6735 15.4061 18.8211 15.5008C18.7702 15.7739 18.7918 16.1631 19.0182 16.4917ZM14.3339 16.0102C14.4 16.148 14.5196 16.2402 14.6023 16.292C14.5998 16.421 14.587 16.6219 14.5527 16.7989C14.545 16.8381 14.5348 16.8747 14.5234 16.9114C14.517 16.9341 14.5107 16.9531 14.5056 16.9682C14.3822 16.9682 14.1393 16.9531 13.9409 16.8811C13.7209 16.8001 13.3927 16.3995 13.469 15.9584C13.5644 15.9003 13.7844 15.7777 13.9904 15.7777C14.1495 15.7764 14.2576 15.851 14.3339 16.0102ZM14.0426 15.4553L14.0897 13.6644L14.4942 13.2385L14.7485 13.7668L14.2474 15.4857L14.0426 15.4553ZM18.9928 24.7399C18.8401 24.7399 18.699 24.7425 18.5718 24.7475L18.905 23.7175C18.9572 23.5746 18.6939 23.3913 18.5858 23.2308C18.7498 23.3332 19.1747 23.5569 19.3795 23.6467C19.3578 23.6795 18.9928 24.7399 18.9928 24.7399ZM20.0383 23.5696L19.8208 24.697C19.6821 24.7159 19.5346 24.7261 19.3833 24.7323L19.6122 23.6479C19.6809 23.3256 18.8096 23.2258 18.3797 22.5926C18.1699 22.8276 17.7744 22.8971 17.3775 22.8971C17.015 22.8971 16.6526 22.839 16.4324 22.796C16.3765 22.7872 16.3231 22.7809 16.271 22.7809C16.1437 22.7809 16.028 22.8201 15.9479 22.9541L15.8843 23.0602L14.6977 22.7821L14.4025 23.2675C14.3606 23.3459 14.3581 23.4128 14.4255 23.4861L14.5056 23.5733C14.4509 23.7452 14.2042 24.0043 14.2042 24.0043L14.0274 23.7857C13.8875 23.6302 13.9103 23.3472 14.0566 23.0842L14.5272 22.2943L15.532 22.4384L15.3755 22.0845C15.1657 21.6168 15.4849 21.0215 15.5193 20.679C15.5078 20.7826 15.4125 20.8054 15.3005 20.8054C15.1988 20.8054 15.0856 20.7865 15.0105 20.7865C14.9813 20.7865 14.9558 20.789 14.9419 20.7991L14.6697 20.9634L14.4547 20.7751C14.4293 20.7385 14.4204 20.6537 14.484 20.5905L14.9813 20.037L14.3937 19.3557L15.2166 19.7665L15.4671 19.4644C15.5358 19.5314 15.5066 19.7071 15.5066 19.7071C15.7635 19.7134 16.4834 20.109 16.5215 21.0316C16.5241 21.0594 16.5241 21.0911 16.5241 21.1214C16.5241 21.1214 16.5305 21.1327 16.5431 21.1517C16.594 21.2213 16.7339 21.3994 16.912 21.4159L18.049 21.5272H18.0541C18.1788 21.5272 18.4268 21.3818 18.7448 21.3818C18.9177 21.3818 19.1111 21.426 19.3171 21.5549C19.3171 21.5549 19.4201 21.4741 19.588 21.4651C19.6008 21.4639 19.6147 21.4639 19.6275 21.4639C20.1375 21.4639 20.3486 21.9215 20.6221 22.3018C20.8281 22.5913 21.1028 23.021 21.1028 23.021C21.0011 23.1411 20.907 23.2068 20.7492 23.2068C20.706 23.2068 20.6564 23.203 20.603 23.1929C20.0561 23.093 19.9772 21.9758 19.6656 21.8873C19.6491 21.8823 19.6313 21.881 19.616 21.881C19.5155 21.881 19.471 21.9694 19.471 21.9694C19.6134 22.3499 19.5308 22.5041 19.6834 22.7973C19.7979 23.0147 20.0014 23.1942 20.0853 23.2789C20.0853 23.2814 20.0624 23.4457 20.0383 23.5696ZM13.932 22.5028L13.9841 22.633C13.9498 22.7468 13.5555 22.9085 13.5555 22.9085L13.4703 22.724C13.3799 22.5269 13.3991 22.1944 13.6738 21.9909L14.3122 21.6042L14.9889 21.7471C14.9762 21.9606 15.1046 22.1199 15.1046 22.1199L14.3949 21.9846L13.9701 22.2766C13.8989 22.3259 13.8938 22.4182 13.932 22.5028ZM20.1451 24.635L20.3397 23.6264C20.3499 23.5671 20.3626 23.4975 20.3715 23.4394C20.4262 23.4621 20.4847 23.4811 20.5483 23.4924C20.6208 23.5063 20.6882 23.5127 20.7492 23.5127C21.0469 23.5127 21.2198 23.3572 21.3356 23.2245L21.4857 23.0514L21.3636 22.8618C21.3521 22.8428 21.0825 22.4182 20.8739 22.1274C20.8332 22.0706 20.7937 22.0137 20.7543 21.9518C20.5178 21.6005 20.2214 21.1594 19.6275 21.1594L19.574 21.1606C19.4761 21.1669 19.3921 21.1859 19.3247 21.2111C19.1378 21.1239 18.9457 21.0797 18.7461 21.0797C18.5006 21.0797 18.2932 21.1467 18.1559 21.1935C18.1165 21.2049 18.0809 21.2174 18.0529 21.2225L16.9425 21.1138C16.9285 21.1112 16.8827 21.0848 16.828 21.019V21.014L17.0684 20.9179C17.0011 20.1229 16.2328 19.6338 15.8041 19.4682C15.7851 19.3886 15.747 19.309 15.6795 19.2445L15.4404 19.0196L15.2306 19.2698L15.1276 19.3974L13.5733 18.763L14.5844 20.0243L14.1851 20.6247C14.0388 20.7789 14.2003 20.9331 14.2003 20.9331L14.6124 21.2149L15.0398 21.0569C15.055 21.0569 15.0678 21.0607 15.0818 21.062C15.0614 21.1264 15.0347 21.3793 15.0169 21.45L14.2754 21.3046L13.4957 21.742C13.0951 22.0339 13.0404 22.518 13.1892 22.8491L13.2756 23.0374L13.3991 23.3029L13.6712 23.1904C13.6751 23.1891 13.6789 23.1879 13.6814 23.1853C13.5835 23.4963 13.623 23.792 13.7984 23.9866L13.9638 24.1939L14.1838 24.4707L14.4255 24.2129C14.4966 24.1421 14.7269 23.8855 14.7981 23.6656L14.8503 23.4975L14.732 23.3686L14.7129 23.3459L14.8451 23.1285L15.8131 23.3547L16.0305 23.404L16.1463 23.2144L16.2099 23.1107C16.2214 23.0893 16.2252 23.0855 16.2697 23.0855C16.304 23.0855 16.3384 23.0893 16.3753 23.0969C16.7403 23.1651 17.0773 23.1993 17.3762 23.1993C17.6662 23.1993 17.8392 23.1879 18.0465 23.1196C18.0465 23.1196 18.5667 23.706 18.5845 23.7288L18.2666 24.7045L18.2525 24.7639C17.6497 24.8119 17.3559 24.9434 17.0011 25.2961C16.4859 24.788 16.1209 24.7349 14.7358 24.7349C13.0785 24.7349 11.9554 23.7693 11.9554 22.2273V18.4571H22.044L22.0466 22.2273C22.0479 23.4785 21.3089 24.3506 20.1451 24.635ZM22.3264 12.374C22.1725 12.7785 22.044 13.217 22.044 13.653L22.0453 16.4665C21.4539 16.3678 21.3839 15.7347 21.3814 15.7069L21.3699 15.5779L21.2428 15.5666C20.9858 15.5425 20.8154 15.4339 20.6716 15.2948C20.3817 15.0066 20.3804 14.539 20.3817 14.5353C20.3779 14.5592 20.0624 14.9978 20.4287 15.4768C20.5827 15.679 20.8052 15.8029 21.0939 15.8523C21.1613 16.2036 21.4246 16.699 22.0453 16.7748V18.1525H20.3003C19.4952 17.7076 19.8361 16.924 19.8526 16.8912L19.9212 16.742L19.7674 16.6839C18.8961 16.3628 19.1353 15.4983 19.1479 15.4617L19.1836 15.3353L19.0653 15.2797C18.3454 14.9486 18.4433 14.055 18.4522 14.0183C18.2309 14.1965 18.1508 14.5605 18.3034 14.917C18.2208 15.0105 18.1101 15.1242 17.9893 15.2481C17.244 15.0597 17.2211 14.3785 17.2211 14.3469L17.2198 14.242L17.1219 14.2041C16.8306 14.0966 16.6309 13.9362 16.533 13.72C16.4223 13.4811 16.4617 13.2309 16.4922 13.1108C16.5775 13.1298 16.6627 13.1437 16.7441 13.15C16.828 13.1588 16.9145 13.1639 17.0011 13.1639H17.0061H17.0125C17.099 13.1639 17.1842 13.1588 17.2681 13.15C17.7324 13.1045 18.2525 12.9061 18.7943 12.3727H22.3264V12.374ZM19.6071 9.53019L20.2965 9.92835H20.3066L20.4796 10.0282C20.0904 10.1356 19.7928 10.329 19.5435 10.583C19.5346 10.5907 19.5257 10.6007 19.5168 10.6096C19.4596 10.6703 19.4023 10.736 19.3489 10.8029C19.3388 10.8156 19.3285 10.8295 19.3171 10.8434C19.2637 10.9117 19.2141 10.9812 19.1658 11.0545C19.1581 11.0671 19.1492 11.0797 19.1403 11.0911C19.0831 11.1758 19.0284 11.2668 18.9737 11.3603C18.4828 12.2008 17.6992 12.7026 17.0023 12.7038C16.3066 12.7026 15.5231 12.2008 15.0322 11.3603C14.9787 11.2694 14.9253 11.1808 14.8681 11.0949C14.8566 11.0785 14.8465 11.0621 14.8363 11.0482C14.788 10.9786 14.7397 10.9104 14.69 10.8459C14.6773 10.8282 14.6659 10.8144 14.6531 10.7992C14.5998 10.7347 14.545 10.6703 14.4903 10.6108C14.4788 10.602 14.4713 10.5907 14.4598 10.5805C14.2093 10.3265 13.9129 10.1343 13.5224 10.0282L13.6979 9.92835H13.7056L14.3949 9.53019L15.1034 9.12708L16.9959 10.1507L16.9998 10.147L17.0048 10.1507L18.8974 9.12708L19.6071 9.53019ZM18.6735 8.68211L17.165 9.47201V6.27442L19.2115 5.58433L18.6735 8.68211ZM17.0011 5.92308L14.7574 5.04212C14.9482 4.59343 15.8283 4.21173 17.0011 4.21049C18.175 4.21173 19.0551 4.59343 19.2446 5.04212L17.0011 5.92308Z" fill="black"/>
</svg>
