<svg width="220" height="220" viewBox="0 0 220 220" fill="none" xmlns="http://www.w3.org/2000/svg">
<path d="M7.58622 0H0V7.58622H7.58622V0Z" fill="#3C4046"/>
<path d="M15.1722 0H7.58594V7.58622H15.1722V0Z" fill="#3C4046"/>
<path d="M22.7591 0H15.1729V7.58622H22.7591V0Z" fill="#3C4046"/>
<path d="M30.345 0H22.7588V7.58622H30.345V0Z" fill="#3C4046"/>
<path d="M37.9309 0H30.3447V7.58622H37.9309V0Z" fill="#3C4046"/>
<path d="M45.5169 0H37.9307V7.58622H45.5169V0Z" fill="#3C4046"/>
<path d="M53.1038 0H45.5176V7.58622H53.1038V0Z" fill="#3C4046"/>
<path d="M75.8626 0H68.2764V7.58622H75.8626V0Z" fill="#3C4046"/>
<path d="M106.207 0H98.6211V7.58622H106.207V0Z" fill="#3C4046"/>
<path d="M113.793 0H106.207V7.58622H113.793V0Z" fill="#3C4046"/>
<path d="M121.379 0H113.793V7.58622H121.379V0Z" fill="#3C4046"/>
<path d="M128.966 0H121.38V7.58622H128.966V0Z" fill="#3C4046"/>
<path d="M136.552 0H128.966V7.58622H136.552V0Z" fill="#3C4046"/>
<path d="M144.138 0H136.552V7.58622H144.138V0Z" fill="#3C4046"/>
<path d="M151.725 0H144.139V7.58622H151.725V0Z" fill="#3C4046"/>
<path d="M159.311 0H151.725V7.58622H159.311V0Z" fill="#3C4046"/>
<path d="M174.483 0H166.896V7.58622H174.483V0Z" fill="#3C4046"/>
<path d="M182.069 0H174.482V7.58622H182.069V0Z" fill="#3C4046"/>
<path d="M189.656 0H182.069V7.58622H189.656V0Z" fill="#3C4046"/>
<path d="M197.241 0H189.655V7.58622H197.241V0Z" fill="#3C4046"/>
<path d="M204.828 0H197.242V7.58622H204.828V0Z" fill="#3C4046"/>
<path d="M212.414 0H204.828V7.58622H212.414V0Z" fill="#3C4046"/>
<path d="M220 0H212.414V7.58622H220V0Z" fill="#3C4046"/>
<path d="M7.58622 7.58624H0V15.1725H7.58622V7.58624Z" fill="#3C4046"/>
<path d="M53.1038 7.58624H45.5176V15.1725H53.1038V7.58624Z" fill="#3C4046"/>
<path d="M68.2757 7.58624H60.6895V15.1725H68.2757V7.58624Z" fill="#3C4046"/>
<path d="M75.8626 7.58624H68.2764V15.1725H75.8626V7.58624Z" fill="#3C4046"/>
<path d="M91.0345 7.58624H83.4482V15.1725H91.0345V7.58624Z" fill="#3C4046"/>
<path d="M98.6204 7.58624H91.0342V15.1725H98.6204V7.58624Z" fill="#3C4046"/>
<path d="M121.379 7.58624H113.793V15.1725H121.379V7.58624Z" fill="#3C4046"/>
<path d="M136.552 7.58624H128.966V15.1725H136.552V7.58624Z" fill="#3C4046"/>
<path d="M159.311 7.58624H151.725V15.1725H159.311V7.58624Z" fill="#3C4046"/>
<path d="M174.483 7.58624H166.896V15.1725H174.483V7.58624Z" fill="#3C4046"/>
<path d="M220 7.58624H212.414V15.1725H220V7.58624Z" fill="#3C4046"/>
<path d="M7.58622 15.1724H0V22.7586H7.58622V15.1724Z" fill="#3C4046"/>
<path d="M22.7591 15.1724H15.1729V22.7586H22.7591V15.1724Z" fill="#3C4046"/>
<path d="M30.345 15.1724H22.7588V22.7586H30.345V15.1724Z" fill="#3C4046"/>
<path d="M37.9309 15.1724H30.3447V22.7586H37.9309V15.1724Z" fill="#3C4046"/>
<path d="M53.1038 15.1724H45.5176V22.7586H53.1038V15.1724Z" fill="#3C4046"/>
<path d="M75.8626 15.1724H68.2764V22.7586H75.8626V15.1724Z" fill="#3C4046"/>
<path d="M83.4485 15.1724H75.8623V22.7586H83.4485V15.1724Z" fill="#3C4046"/>
<path d="M91.0345 15.1724H83.4482V22.7586H91.0345V15.1724Z" fill="#3C4046"/>
<path d="M113.793 15.1724H106.207V22.7586H113.793V15.1724Z" fill="#3C4046"/>
<path d="M128.966 15.1724H121.38V22.7586H128.966V15.1724Z" fill="#3C4046"/>
<path d="M144.138 15.1724H136.552V22.7586H144.138V15.1724Z" fill="#3C4046"/>
<path d="M174.483 15.1724H166.896V22.7586H174.483V15.1724Z" fill="#3C4046"/>
<path d="M189.656 15.1724H182.069V22.7586H189.656V15.1724Z" fill="#3C4046"/>
<path d="M197.241 15.1724H189.655V22.7586H197.241V15.1724Z" fill="#3C4046"/>
<path d="M204.828 15.1724H197.242V22.7586H204.828V15.1724Z" fill="#3C4046"/>
<path d="M220 15.1724H212.414V22.7586H220V15.1724Z" fill="#3C4046"/>
<path d="M7.58622 22.7587H0V30.3449H7.58622V22.7587Z" fill="#3C4046"/>
<path d="M22.7591 22.7587H15.1729V30.3449H22.7591V22.7587Z" fill="#3C4046"/>
<path d="M30.345 22.7587H22.7588V30.3449H30.345V22.7587Z" fill="#3C4046"/>
<path d="M37.9309 22.7587H30.3447V30.3449H37.9309V22.7587Z" fill="#3C4046"/>
<path d="M53.1038 22.7587H45.5176V30.3449H53.1038V22.7587Z" fill="#3C4046"/>
<path d="M68.2757 22.7587H60.6895V30.3449H68.2757V22.7587Z" fill="#3C4046"/>
<path d="M75.8626 22.7587H68.2764V30.3449H75.8626V22.7587Z" fill="#3C4046"/>
<path d="M91.0345 22.7587H83.4482V30.3449H91.0345V22.7587Z" fill="#3C4046"/>
<path d="M113.793 22.7587H106.207V30.3449H113.793V22.7587Z" fill="#3C4046"/>
<path d="M136.552 22.7587H128.966V30.3449H136.552V22.7587Z" fill="#3C4046"/>
<path d="M151.725 22.7587H144.139V30.3449H151.725V22.7587Z" fill="#3C4046"/>
<path d="M174.483 22.7587H166.896V30.3449H174.483V22.7587Z" fill="#3C4046"/>
<path d="M189.656 22.7587H182.069V30.3449H189.656V22.7587Z" fill="#3C4046"/>
<path d="M197.241 22.7587H189.655V30.3449H197.241V22.7587Z" fill="#3C4046"/>
<path d="M204.828 22.7587H197.242V30.3449H204.828V22.7587Z" fill="#3C4046"/>
<path d="M220 22.7587H212.414V30.3449H220V22.7587Z" fill="#3C4046"/>
<path d="M7.58622 30.3449H0V37.9311H7.58622V30.3449Z" fill="#3C4046"/>
<path d="M22.7591 30.3449H15.1729V37.9311H22.7591V30.3449Z" fill="#3C4046"/>
<path d="M30.345 30.3449H22.7588V37.9311H30.345V30.3449Z" fill="#3C4046"/>
<path d="M37.9309 30.3449H30.3447V37.9311H37.9309V30.3449Z" fill="#3C4046"/>
<path d="M53.1038 30.3449H45.5176V37.9311H53.1038V30.3449Z" fill="#3C4046"/>
<path d="M83.4485 30.3449H75.8623V37.9311H83.4485V30.3449Z" fill="#3C4046"/>
<path d="M98.6204 30.3449H91.0342V37.9311H98.6204V30.3449Z" fill="#3C4046"/>
<path d="M121.379 30.3449H113.793V37.9311H121.379V30.3449Z" fill="#3C4046"/>
<path d="M128.966 30.3449H121.38V37.9311H128.966V30.3449Z" fill="#3C4046"/>
<path d="M136.552 30.3449H128.966V37.9311H136.552V30.3449Z" fill="#3C4046"/>
<path d="M144.138 30.3449H136.552V37.9311H144.138V30.3449Z" fill="#3C4046"/>
<path d="M151.725 30.3449H144.139V37.9311H151.725V30.3449Z" fill="#3C4046"/>
<path d="M159.311 30.3449H151.725V37.9311H159.311V30.3449Z" fill="#3C4046"/>
<path d="M174.483 30.3449H166.896V37.9311H174.483V30.3449Z" fill="#3C4046"/>
<path d="M189.656 30.3449H182.069V37.9311H189.656V30.3449Z" fill="#3C4046"/>
<path d="M197.241 30.3449H189.655V37.9311H197.241V30.3449Z" fill="#3C4046"/>
<path d="M204.828 30.3449H197.242V37.9311H204.828V30.3449Z" fill="#3C4046"/>
<path d="M220 30.3449H212.414V37.9311H220V30.3449Z" fill="#3C4046"/>
<path d="M7.58622 37.9312H0V45.5174H7.58622V37.9312Z" fill="#3C4046"/>
<path d="M53.1038 37.9312H45.5176V45.5174H53.1038V37.9312Z" fill="#3C4046"/>
<path d="M68.2757 37.9312H60.6895V45.5174H68.2757V37.9312Z" fill="#3C4046"/>
<path d="M83.4485 37.9312H75.8623V45.5174H83.4485V37.9312Z" fill="#3C4046"/>
<path d="M106.207 37.9312H98.6211V45.5174H106.207V37.9312Z" fill="#3C4046"/>
<path d="M121.379 37.9312H113.793V45.5174H121.379V37.9312Z" fill="#3C4046"/>
<path d="M136.552 37.9312H128.966V45.5174H136.552V37.9312Z" fill="#3C4046"/>
<path d="M144.138 37.9312H136.552V45.5174H144.138V37.9312Z" fill="#3C4046"/>
<path d="M174.483 37.9312H166.896V45.5174H174.483V37.9312Z" fill="#3C4046"/>
<path d="M220 37.9312H212.414V45.5174H220V37.9312Z" fill="#3C4046"/>
<path d="M7.58622 45.5173H0V53.1036H7.58622V45.5173Z" fill="#3C4046"/>
<path d="M15.1722 45.5173H7.58594V53.1036H15.1722V45.5173Z" fill="#3C4046"/>
<path d="M22.7591 45.5173H15.1729V53.1036H22.7591V45.5173Z" fill="#3C4046"/>
<path d="M30.345 45.5173H22.7588V53.1036H30.345V45.5173Z" fill="#3C4046"/>
<path d="M37.9309 45.5173H30.3447V53.1036H37.9309V45.5173Z" fill="#3C4046"/>
<path d="M45.5169 45.5173H37.9307V53.1036H45.5169V45.5173Z" fill="#3C4046"/>
<path d="M53.1038 45.5173H45.5176V53.1036H53.1038V45.5173Z" fill="#3C4046"/>
<path d="M68.2757 45.5173H60.6895V53.1036H68.2757V45.5173Z" fill="#3C4046"/>
<path d="M83.4485 45.5173H75.8623V53.1036H83.4485V45.5173Z" fill="#3C4046"/>
<path d="M98.6204 45.5173H91.0342V53.1036H98.6204V45.5173Z" fill="#3C4046"/>
<path d="M113.793 45.5173H106.207V53.1036H113.793V45.5173Z" fill="#3C4046"/>
<path d="M128.966 45.5173H121.38V53.1036H128.966V45.5173Z" fill="#3C4046"/>
<path d="M144.138 45.5173H136.552V53.1036H144.138V45.5173Z" fill="#3C4046"/>
<path d="M159.311 45.5173H151.725V53.1036H159.311V45.5173Z" fill="#3C4046"/>
<path d="M174.483 45.5173H166.896V53.1036H174.483V45.5173Z" fill="#3C4046"/>
<path d="M182.069 45.5173H174.482V53.1036H182.069V45.5173Z" fill="#3C4046"/>
<path d="M189.656 45.5173H182.069V53.1036H189.656V45.5173Z" fill="#3C4046"/>
<path d="M197.241 45.5173H189.655V53.1036H197.241V45.5173Z" fill="#3C4046"/>
<path d="M204.828 45.5173H197.242V53.1036H204.828V45.5173Z" fill="#3C4046"/>
<path d="M212.414 45.5173H204.828V53.1036H212.414V45.5173Z" fill="#3C4046"/>
<path d="M220 45.5173H212.414V53.1036H220V45.5173Z" fill="#3C4046"/>
<path d="M98.6204 53.1036H91.0342V60.6898H98.6204V53.1036Z" fill="#3C4046"/>
<path d="M113.793 53.1036H106.207V60.6898H113.793V53.1036Z" fill="#3C4046"/>
<path d="M121.379 53.1036H113.793V60.6898H121.379V53.1036Z" fill="#3C4046"/>
<path d="M128.966 53.1036H121.38V60.6898H128.966V53.1036Z" fill="#3C4046"/>
<path d="M159.311 53.1036H151.725V60.6898H159.311V53.1036Z" fill="#3C4046"/>
<path d="M7.58622 60.6897H0V68.2759H7.58622V60.6897Z" fill="#3C4046"/>
<path d="M15.1722 60.6897H7.58594V68.2759H15.1722V60.6897Z" fill="#3C4046"/>
<path d="M22.7591 60.6897H15.1729V68.2759H22.7591V60.6897Z" fill="#3C4046"/>
<path d="M30.345 60.6897H22.7588V68.2759H30.345V60.6897Z" fill="#3C4046"/>
<path d="M37.9309 60.6897H30.3447V68.2759H37.9309V60.6897Z" fill="#3C4046"/>
<path d="M53.1038 60.6897H45.5176V68.2759H53.1038V60.6897Z" fill="#3C4046"/>
<path d="M60.6897 60.6897H53.1035V68.2759H60.6897V60.6897Z" fill="#3C4046"/>
<path d="M68.2757 60.6897H60.6895V68.2759H68.2757V60.6897Z" fill="#3C4046"/>
<path d="M75.8626 60.6897H68.2764V68.2759H75.8626V60.6897Z" fill="#3C4046"/>
<path d="M83.4485 60.6897H75.8623V68.2759H83.4485V60.6897Z" fill="#3C4046"/>
<path d="M98.6204 60.6897H91.0342V68.2759H98.6204V60.6897Z" fill="#3C4046"/>
<path d="M106.207 60.6897H98.6211V68.2759H106.207V60.6897Z" fill="#3C4046"/>
<path d="M113.793 60.6897H106.207V68.2759H113.793V60.6897Z" fill="#3C4046"/>
<path d="M121.379 60.6897H113.793V68.2759H121.379V60.6897Z" fill="#3C4046"/>
<path d="M136.552 60.6897H128.966V68.2759H136.552V60.6897Z" fill="#3C4046"/>
<path d="M144.138 60.6897H136.552V68.2759H144.138V60.6897Z" fill="#3C4046"/>
<path d="M151.725 60.6897H144.139V68.2759H151.725V60.6897Z" fill="#3C4046"/>
<path d="M166.897 60.6897H159.311V68.2759H166.897V60.6897Z" fill="#3C4046"/>
<path d="M182.069 60.6897H174.482V68.2759H182.069V60.6897Z" fill="#3C4046"/>
<path d="M197.241 60.6897H189.655V68.2759H197.241V60.6897Z" fill="#3C4046"/>
<path d="M212.414 60.6897H204.828V68.2759H212.414V60.6897Z" fill="#3C4046"/>
<path d="M7.58622 68.2761H0V75.8623H7.58622V68.2761Z" fill="#3C4046"/>
<path d="M15.1722 68.2761H7.58594V75.8623H15.1722V68.2761Z" fill="#3C4046"/>
<path d="M22.7591 68.2761H15.1729V75.8623H22.7591V68.2761Z" fill="#3C4046"/>
<path d="M30.345 68.2761H22.7588V75.8623H30.345V68.2761Z" fill="#3C4046"/>
<path d="M37.9309 68.2761H30.3447V75.8623H37.9309V68.2761Z" fill="#3C4046"/>
<path d="M75.8626 68.2761H68.2764V75.8623H75.8626V68.2761Z" fill="#3C4046"/>
<path d="M106.207 68.2761H98.6211V75.8623H106.207V68.2761Z" fill="#3C4046"/>
<path d="M121.379 68.2761H113.793V75.8623H121.379V68.2761Z" fill="#3C4046"/>
<path d="M128.966 68.2761H121.38V75.8623H128.966V68.2761Z" fill="#3C4046"/>
<path d="M136.552 68.2761H128.966V75.8623H136.552V68.2761Z" fill="#3C4046"/>
<path d="M144.138 68.2761H136.552V75.8623H144.138V68.2761Z" fill="#3C4046"/>
<path d="M151.725 68.2761H144.139V75.8623H151.725V68.2761Z" fill="#3C4046"/>
<path d="M159.311 68.2761H151.725V75.8623H159.311V68.2761Z" fill="#3C4046"/>
<path d="M166.897 68.2761H159.311V75.8623H166.897V68.2761Z" fill="#3C4046"/>
<path d="M174.483 68.2761H166.896V75.8623H174.483V68.2761Z" fill="#3C4046"/>
<path d="M189.656 68.2761H182.069V75.8623H189.656V68.2761Z" fill="#3C4046"/>
<path d="M220 68.2761H212.414V75.8623H220V68.2761Z" fill="#3C4046"/>
<path d="M15.1722 75.8621H7.58594V83.4483H15.1722V75.8621Z" fill="#3C4046"/>
<path d="M30.345 75.8621H22.7588V83.4483H30.345V75.8621Z" fill="#3C4046"/>
<path d="M53.1038 75.8621H45.5176V83.4483H53.1038V75.8621Z" fill="#3C4046"/>
<path d="M60.6897 75.8621H53.1035V83.4483H60.6897V75.8621Z" fill="#3C4046"/>
<path d="M75.8626 75.8621H68.2764V83.4483H75.8626V75.8621Z" fill="#3C4046"/>
<path d="M91.0345 75.8621H83.4482V83.4483H91.0345V75.8621Z" fill="#3C4046"/>
<path d="M98.6204 75.8621H91.0342V83.4483H98.6204V75.8621Z" fill="#3C4046"/>
<path d="M121.379 75.8621H113.793V83.4483H121.379V75.8621Z" fill="#3C4046"/>
<path d="M136.552 75.8621H128.966V83.4483H136.552V75.8621Z" fill="#3C4046"/>
<path d="M159.311 75.8621H151.725V83.4483H159.311V75.8621Z" fill="#3C4046"/>
<path d="M174.483 75.8621H166.896V83.4483H174.483V75.8621Z" fill="#3C4046"/>
<path d="M182.069 75.8621H174.482V83.4483H182.069V75.8621Z" fill="#3C4046"/>
<path d="M189.656 75.8621H182.069V83.4483H189.656V75.8621Z" fill="#3C4046"/>
<path d="M7.58622 83.4484H0V91.0346H7.58622V83.4484Z" fill="#3C4046"/>
<path d="M15.1722 83.4484H7.58594V91.0346H15.1722V83.4484Z" fill="#3C4046"/>
<path d="M60.6897 83.4484H53.1035V91.0346H60.6897V83.4484Z" fill="#3C4046"/>
<path d="M75.8626 83.4484H68.2764V91.0346H75.8626V83.4484Z" fill="#3C4046"/>
<path d="M83.4485 83.4484H75.8623V91.0346H83.4485V83.4484Z" fill="#3C4046"/>
<path d="M91.0345 83.4484H83.4482V91.0346H91.0345V83.4484Z" fill="#3C4046"/>
<path d="M128.966 83.4484H121.38V91.0346H128.966V83.4484Z" fill="#3C4046"/>
<path d="M151.725 83.4484H144.139V91.0346H151.725V83.4484Z" fill="#3C4046"/>
<path d="M159.311 83.4484H151.725V91.0346H159.311V83.4484Z" fill="#3C4046"/>
<path d="M182.069 83.4484H174.482V91.0346H182.069V83.4484Z" fill="#3C4046"/>
<path d="M189.656 83.4484H182.069V91.0346H189.656V83.4484Z" fill="#3C4046"/>
<path d="M197.241 83.4484H189.655V91.0346H197.241V83.4484Z" fill="#3C4046"/>
<path d="M212.414 83.4484H204.828V91.0346H212.414V83.4484Z" fill="#3C4046"/>
<path d="M15.1722 91.0346H7.58594V98.6208H15.1722V91.0346Z" fill="#3C4046"/>
<path d="M22.7591 91.0346H15.1729V98.6208H22.7591V91.0346Z" fill="#3C4046"/>
<path d="M37.9309 91.0346H30.3447V98.6208H37.9309V91.0346Z" fill="#3C4046"/>
<path d="M45.5169 91.0346H37.9307V98.6208H45.5169V91.0346Z" fill="#3C4046"/>
<path d="M53.1038 91.0346H45.5176V98.6208H53.1038V91.0346Z" fill="#3C4046"/>
<path d="M60.6897 91.0346H53.1035V98.6208H60.6897V91.0346Z" fill="#3C4046"/>
<path d="M75.8626 91.0346H68.2764V98.6208H75.8626V91.0346Z" fill="#3C4046"/>
<path d="M91.0345 91.0346H83.4482V98.6208H91.0345V91.0346Z" fill="#3C4046"/>
<path d="M113.793 91.0346H106.207V98.6208H113.793V91.0346Z" fill="#3C4046"/>
<path d="M121.379 91.0346H113.793V98.6208H121.379V91.0346Z" fill="#3C4046"/>
<path d="M136.552 91.0346H128.966V98.6208H136.552V91.0346Z" fill="#3C4046"/>
<path d="M144.138 91.0346H136.552V98.6208H144.138V91.0346Z" fill="#3C4046"/>
<path d="M151.725 91.0346H144.139V98.6208H151.725V91.0346Z" fill="#3C4046"/>
<path d="M197.241 91.0346H189.655V98.6208H197.241V91.0346Z" fill="#3C4046"/>
<path d="M204.828 91.0346H197.242V98.6208H204.828V91.0346Z" fill="#3C4046"/>
<path d="M7.58622 98.6209H0V106.207H7.58622V98.6209Z" fill="#3C4046"/>
<path d="M37.9309 98.6209H30.3447V106.207H37.9309V98.6209Z" fill="#3C4046"/>
<path d="M45.5169 98.6209H37.9307V106.207H45.5169V98.6209Z" fill="#3C4046"/>
<path d="M60.6897 98.6209H53.1035V106.207H60.6897V98.6209Z" fill="#3C4046"/>
<path d="M75.8626 98.6209H68.2764V106.207H75.8626V98.6209Z" fill="#3C4046"/>
<path d="M83.4485 98.6209H75.8623V106.207H83.4485V98.6209Z" fill="#3C4046"/>
<path d="M98.6204 98.6209H91.0342V106.207H98.6204V98.6209Z" fill="#3C4046"/>
<path d="M113.793 98.6209H106.207V106.207H113.793V98.6209Z" fill="#3C4046"/>
<path d="M128.966 98.6209H121.38V106.207H128.966V98.6209Z" fill="#3C4046"/>
<path d="M136.552 98.6209H128.966V106.207H136.552V98.6209Z" fill="#3C4046"/>
<path d="M144.138 98.6209H136.552V106.207H144.138V98.6209Z" fill="#3C4046"/>
<path d="M151.725 98.6209H144.139V106.207H151.725V98.6209Z" fill="#3C4046"/>
<path d="M174.483 98.6209H166.896V106.207H174.483V98.6209Z" fill="#3C4046"/>
<path d="M182.069 98.6209H174.482V106.207H182.069V98.6209Z" fill="#3C4046"/>
<path d="M189.656 98.6209H182.069V106.207H189.656V98.6209Z" fill="#3C4046"/>
<path d="M220 98.6209H212.414V106.207H220V98.6209Z" fill="#3C4046"/>
<path d="M22.7591 106.207H15.1729V113.793H22.7591V106.207Z" fill="#3C4046"/>
<path d="M45.5169 106.207H37.9307V113.793H45.5169V106.207Z" fill="#3C4046"/>
<path d="M53.1038 106.207H45.5176V113.793H53.1038V106.207Z" fill="#3C4046"/>
<path d="M68.2757 106.207H60.6895V113.793H68.2757V106.207Z" fill="#3C4046"/>
<path d="M75.8626 106.207H68.2764V113.793H75.8626V106.207Z" fill="#3C4046"/>
<path d="M83.4485 106.207H75.8623V113.793H83.4485V106.207Z" fill="#3C4046"/>
<path d="M106.207 106.207H98.6211V113.793H106.207V106.207Z" fill="#3C4046"/>
<path d="M121.379 106.207H113.793V113.793H121.379V106.207Z" fill="#3C4046"/>
<path d="M159.311 106.207H151.725V113.793H159.311V106.207Z" fill="#3C4046"/>
<path d="M166.897 106.207H159.311V113.793H166.897V106.207Z" fill="#3C4046"/>
<path d="M182.069 106.207H174.482V113.793H182.069V106.207Z" fill="#3C4046"/>
<path d="M189.656 106.207H182.069V113.793H189.656V106.207Z" fill="#3C4046"/>
<path d="M197.241 106.207H189.655V113.793H197.241V106.207Z" fill="#3C4046"/>
<path d="M204.828 106.207H197.242V113.793H204.828V106.207Z" fill="#3C4046"/>
<path d="M7.58622 113.793H0V121.379H7.58622V113.793Z" fill="#3C4046"/>
<path d="M15.1722 113.793H7.58594V121.379H15.1722V113.793Z" fill="#3C4046"/>
<path d="M22.7591 113.793H15.1729V121.379H22.7591V113.793Z" fill="#3C4046"/>
<path d="M30.345 113.793H22.7588V121.379H30.345V113.793Z" fill="#3C4046"/>
<path d="M37.9309 113.793H30.3447V121.379H37.9309V113.793Z" fill="#3C4046"/>
<path d="M45.5169 113.793H37.9307V121.379H45.5169V113.793Z" fill="#3C4046"/>
<path d="M60.6897 113.793H53.1035V121.379H60.6897V113.793Z" fill="#3C4046"/>
<path d="M68.2757 113.793H60.6895V121.379H68.2757V113.793Z" fill="#3C4046"/>
<path d="M75.8626 113.793H68.2764V121.379H75.8626V113.793Z" fill="#3C4046"/>
<path d="M98.6204 113.793H91.0342V121.379H98.6204V113.793Z" fill="#3C4046"/>
<path d="M159.311 113.793H151.725V121.379H159.311V113.793Z" fill="#3C4046"/>
<path d="M182.069 113.793H174.482V121.379H182.069V113.793Z" fill="#3C4046"/>
<path d="M189.656 113.793H182.069V121.379H189.656V113.793Z" fill="#3C4046"/>
<path d="M212.414 113.793H204.828V121.379H212.414V113.793Z" fill="#3C4046"/>
<path d="M7.58622 121.379H0V128.966H7.58622V121.379Z" fill="#3C4046"/>
<path d="M22.7591 121.379H15.1729V128.966H22.7591V121.379Z" fill="#3C4046"/>
<path d="M30.345 121.379H22.7588V128.966H30.345V121.379Z" fill="#3C4046"/>
<path d="M37.9309 121.379H30.3447V128.966H37.9309V121.379Z" fill="#3C4046"/>
<path d="M45.5169 121.379H37.9307V128.966H45.5169V121.379Z" fill="#3C4046"/>
<path d="M53.1038 121.379H45.5176V128.966H53.1038V121.379Z" fill="#3C4046"/>
<path d="M60.6897 121.379H53.1035V128.966H60.6897V121.379Z" fill="#3C4046"/>
<path d="M75.8626 121.379H68.2764V128.966H75.8626V121.379Z" fill="#3C4046"/>
<path d="M83.4485 121.379H75.8623V128.966H83.4485V121.379Z" fill="#3C4046"/>
<path d="M98.6204 121.379H91.0342V128.966H98.6204V121.379Z" fill="#3C4046"/>
<path d="M106.207 121.379H98.6211V128.966H106.207V121.379Z" fill="#3C4046"/>
<path d="M113.793 121.379H106.207V128.966H113.793V121.379Z" fill="#3C4046"/>
<path d="M121.379 121.379H113.793V128.966H121.379V121.379Z" fill="#3C4046"/>
<path d="M128.966 121.379H121.38V128.966H128.966V121.379Z" fill="#3C4046"/>
<path d="M136.552 121.379H128.966V128.966H136.552V121.379Z" fill="#3C4046"/>
<path d="M144.138 121.379H136.552V128.966H144.138V121.379Z" fill="#3C4046"/>
<path d="M151.725 121.379H144.139V128.966H151.725V121.379Z" fill="#3C4046"/>
<path d="M197.241 121.379H189.655V128.966H197.241V121.379Z" fill="#3C4046"/>
<path d="M204.828 121.379H197.242V128.966H204.828V121.379Z" fill="#3C4046"/>
<path d="M7.58622 128.966H0V136.552H7.58622V128.966Z" fill="#3C4046"/>
<path d="M22.7591 128.966H15.1729V136.552H22.7591V128.966Z" fill="#3C4046"/>
<path d="M30.345 128.966H22.7588V136.552H30.345V128.966Z" fill="#3C4046"/>
<path d="M45.5169 128.966H37.9307V136.552H45.5169V128.966Z" fill="#3C4046"/>
<path d="M68.2757 128.966H60.6895V136.552H68.2757V128.966Z" fill="#3C4046"/>
<path d="M75.8626 128.966H68.2764V136.552H75.8626V128.966Z" fill="#3C4046"/>
<path d="M151.725 128.966H144.139V136.552H151.725V128.966Z" fill="#3C4046"/>
<path d="M159.311 128.966H151.725V136.552H159.311V128.966Z" fill="#3C4046"/>
<path d="M174.483 128.966H166.896V136.552H174.483V128.966Z" fill="#3C4046"/>
<path d="M182.069 128.966H174.482V136.552H182.069V128.966Z" fill="#3C4046"/>
<path d="M189.656 128.966H182.069V136.552H189.656V128.966Z" fill="#3C4046"/>
<path d="M204.828 128.966H197.242V136.552H204.828V128.966Z" fill="#3C4046"/>
<path d="M220 128.966H212.414V136.552H220V128.966Z" fill="#3C4046"/>
<path d="M7.58622 136.552H0V144.138H7.58622V136.552Z" fill="#3C4046"/>
<path d="M22.7591 136.552H15.1729V144.138H22.7591V136.552Z" fill="#3C4046"/>
<path d="M30.345 136.552H22.7588V144.138H30.345V136.552Z" fill="#3C4046"/>
<path d="M37.9309 136.552H30.3447V144.138H37.9309V136.552Z" fill="#3C4046"/>
<path d="M45.5169 136.552H37.9307V144.138H45.5169V136.552Z" fill="#3C4046"/>
<path d="M53.1038 136.552H45.5176V144.138H53.1038V136.552Z" fill="#3C4046"/>
<path d="M68.2757 136.552H60.6895V144.138H68.2757V136.552Z" fill="#3C4046"/>
<path d="M75.8626 136.552H68.2764V144.138H75.8626V136.552Z" fill="#3C4046"/>
<path d="M91.0345 136.552H83.4482V144.138H91.0345V136.552Z" fill="#3C4046"/>
<path d="M98.6204 136.552H91.0342V144.138H98.6204V136.552Z" fill="#3C4046"/>
<path d="M121.379 136.552H113.793V144.138H121.379V136.552Z" fill="#3C4046"/>
<path d="M136.552 136.552H128.966V144.138H136.552V136.552Z" fill="#3C4046"/>
<path d="M144.138 136.552H136.552V144.138H144.138V136.552Z" fill="#3C4046"/>
<path d="M159.311 136.552H151.725V144.138H159.311V136.552Z" fill="#3C4046"/>
<path d="M166.897 136.552H159.311V144.138H166.897V136.552Z" fill="#3C4046"/>
<path d="M204.828 136.552H197.242V144.138H204.828V136.552Z" fill="#3C4046"/>
<path d="M7.58622 144.138H0V151.724H7.58622V144.138Z" fill="#3C4046"/>
<path d="M22.7591 144.138H15.1729V151.724H22.7591V144.138Z" fill="#3C4046"/>
<path d="M37.9309 144.138H30.3447V151.724H37.9309V144.138Z" fill="#3C4046"/>
<path d="M45.5169 144.138H37.9307V151.724H45.5169V144.138Z" fill="#3C4046"/>
<path d="M68.2757 144.138H60.6895V151.724H68.2757V144.138Z" fill="#3C4046"/>
<path d="M83.4485 144.138H75.8623V151.724H83.4485V144.138Z" fill="#3C4046"/>
<path d="M91.0345 144.138H83.4482V151.724H91.0345V144.138Z" fill="#3C4046"/>
<path d="M113.793 144.138H106.207V151.724H113.793V144.138Z" fill="#3C4046"/>
<path d="M144.138 144.138H136.552V151.724H144.138V144.138Z" fill="#3C4046"/>
<path d="M151.725 144.138H144.139V151.724H151.725V144.138Z" fill="#3C4046"/>
<path d="M159.311 144.138H151.725V151.724H159.311V144.138Z" fill="#3C4046"/>
<path d="M166.897 144.138H159.311V151.724H166.897V144.138Z" fill="#3C4046"/>
<path d="M174.483 144.138H166.896V151.724H174.483V144.138Z" fill="#3C4046"/>
<path d="M189.656 144.138H182.069V151.724H189.656V144.138Z" fill="#3C4046"/>
<path d="M212.414 144.138H204.828V151.724H212.414V144.138Z" fill="#3C4046"/>
<path d="M7.58622 151.724H0V159.31H7.58622V151.724Z" fill="#3C4046"/>
<path d="M22.7591 151.724H15.1729V159.31H22.7591V151.724Z" fill="#3C4046"/>
<path d="M30.345 151.724H22.7588V159.31H30.345V151.724Z" fill="#3C4046"/>
<path d="M45.5169 151.724H37.9307V159.31H45.5169V151.724Z" fill="#3C4046"/>
<path d="M53.1038 151.724H45.5176V159.31H53.1038V151.724Z" fill="#3C4046"/>
<path d="M60.6897 151.724H53.1035V159.31H60.6897V151.724Z" fill="#3C4046"/>
<path d="M75.8626 151.724H68.2764V159.31H75.8626V151.724Z" fill="#3C4046"/>
<path d="M83.4485 151.724H75.8623V159.31H83.4485V151.724Z" fill="#3C4046"/>
<path d="M91.0345 151.724H83.4482V159.31H91.0345V151.724Z" fill="#3C4046"/>
<path d="M121.379 151.724H113.793V159.31H121.379V151.724Z" fill="#3C4046"/>
<path d="M128.966 151.724H121.38V159.31H128.966V151.724Z" fill="#3C4046"/>
<path d="M151.725 151.724H144.139V159.31H151.725V151.724Z" fill="#3C4046"/>
<path d="M159.311 151.724H151.725V159.31H159.311V151.724Z" fill="#3C4046"/>
<path d="M166.897 151.724H159.311V159.31H166.897V151.724Z" fill="#3C4046"/>
<path d="M174.483 151.724H166.896V159.31H174.483V151.724Z" fill="#3C4046"/>
<path d="M182.069 151.724H174.482V159.31H182.069V151.724Z" fill="#3C4046"/>
<path d="M189.656 151.724H182.069V159.31H189.656V151.724Z" fill="#3C4046"/>
<path d="M204.828 151.724H197.242V159.31H204.828V151.724Z" fill="#3C4046"/>
<path d="M212.414 151.724H204.828V159.31H212.414V151.724Z" fill="#3C4046"/>
<path d="M220 151.724H212.414V159.31H220V151.724Z" fill="#3C4046"/>
<path d="M68.2757 159.31H60.6895V166.897H68.2757V159.31Z" fill="#3C4046"/>
<path d="M75.8626 159.31H68.2764V166.897H75.8626V159.31Z" fill="#3C4046"/>
<path d="M83.4485 159.31H75.8623V166.897H83.4485V159.31Z" fill="#3C4046"/>
<path d="M98.6204 159.31H91.0342V166.897H98.6204V159.31Z" fill="#3C4046"/>
<path d="M106.207 159.31H98.6211V166.897H106.207V159.31Z" fill="#3C4046"/>
<path d="M128.966 159.31H121.38V166.897H128.966V159.31Z" fill="#3C4046"/>
<path d="M136.552 159.31H128.966V166.897H136.552V159.31Z" fill="#3C4046"/>
<path d="M159.311 159.31H151.725V166.897H159.311V159.31Z" fill="#3C4046"/>
<path d="M189.656 159.31H182.069V166.897H189.656V159.31Z" fill="#3C4046"/>
<path d="M197.241 159.31H189.655V166.897H197.241V159.31Z" fill="#3C4046"/>
<path d="M204.828 159.31H197.242V166.897H204.828V159.31Z" fill="#3C4046"/>
<path d="M212.414 159.31H204.828V166.897H212.414V159.31Z" fill="#3C4046"/>
<path d="M220 159.31H212.414V166.897H220V159.31Z" fill="#3C4046"/>
<path d="M7.58622 166.897H0V174.483H7.58622V166.897Z" fill="#3C4046"/>
<path d="M15.1722 166.897H7.58594V174.483H15.1722V166.897Z" fill="#3C4046"/>
<path d="M22.7591 166.897H15.1729V174.483H22.7591V166.897Z" fill="#3C4046"/>
<path d="M30.345 166.897H22.7588V174.483H30.345V166.897Z" fill="#3C4046"/>
<path d="M37.9309 166.897H30.3447V174.483H37.9309V166.897Z" fill="#3C4046"/>
<path d="M45.5169 166.897H37.9307V174.483H45.5169V166.897Z" fill="#3C4046"/>
<path d="M53.1038 166.897H45.5176V174.483H53.1038V166.897Z" fill="#3C4046"/>
<path d="M68.2757 166.897H60.6895V174.483H68.2757V166.897Z" fill="#3C4046"/>
<path d="M75.8626 166.897H68.2764V174.483H75.8626V166.897Z" fill="#3C4046"/>
<path d="M83.4485 166.897H75.8623V174.483H83.4485V166.897Z" fill="#3C4046"/>
<path d="M106.207 166.897H98.6211V174.483H106.207V166.897Z" fill="#3C4046"/>
<path d="M113.793 166.897H106.207V174.483H113.793V166.897Z" fill="#3C4046"/>
<path d="M121.379 166.897H113.793V174.483H121.379V166.897Z" fill="#3C4046"/>
<path d="M144.138 166.897H136.552V174.483H144.138V166.897Z" fill="#3C4046"/>
<path d="M151.725 166.897H144.139V174.483H151.725V166.897Z" fill="#3C4046"/>
<path d="M159.311 166.897H151.725V174.483H159.311V166.897Z" fill="#3C4046"/>
<path d="M174.483 166.897H166.896V174.483H174.483V166.897Z" fill="#3C4046"/>
<path d="M189.656 166.897H182.069V174.483H189.656V166.897Z" fill="#3C4046"/>
<path d="M197.241 166.897H189.655V174.483H197.241V166.897Z" fill="#3C4046"/>
<path d="M204.828 166.897H197.242V174.483H204.828V166.897Z" fill="#3C4046"/>
<path d="M7.58622 174.483H0V182.069H7.58622V174.483Z" fill="#3C4046"/>
<path d="M53.1038 174.483H45.5176V182.069H53.1038V174.483Z" fill="#3C4046"/>
<path d="M98.6204 174.483H91.0342V182.069H98.6204V174.483Z" fill="#3C4046"/>
<path d="M106.207 174.483H98.6211V182.069H106.207V174.483Z" fill="#3C4046"/>
<path d="M121.379 174.483H113.793V182.069H121.379V174.483Z" fill="#3C4046"/>
<path d="M151.725 174.483H144.139V182.069H151.725V174.483Z" fill="#3C4046"/>
<path d="M159.311 174.483H151.725V182.069H159.311V174.483Z" fill="#3C4046"/>
<path d="M189.656 174.483H182.069V182.069H189.656V174.483Z" fill="#3C4046"/>
<path d="M7.58622 182.069H0V189.655H7.58622V182.069Z" fill="#3C4046"/>
<path d="M22.7591 182.069H15.1729V189.655H22.7591V182.069Z" fill="#3C4046"/>
<path d="M30.345 182.069H22.7588V189.655H30.345V182.069Z" fill="#3C4046"/>
<path d="M37.9309 182.069H30.3447V189.655H37.9309V182.069Z" fill="#3C4046"/>
<path d="M53.1038 182.069H45.5176V189.655H53.1038V182.069Z" fill="#3C4046"/>
<path d="M68.2757 182.069H60.6895V189.655H68.2757V182.069Z" fill="#3C4046"/>
<path d="M98.6204 182.069H91.0342V189.655H98.6204V182.069Z" fill="#3C4046"/>
<path d="M113.793 182.069H106.207V189.655H113.793V182.069Z" fill="#3C4046"/>
<path d="M128.966 182.069H121.38V189.655H128.966V182.069Z" fill="#3C4046"/>
<path d="M136.552 182.069H128.966V189.655H136.552V182.069Z" fill="#3C4046"/>
<path d="M159.311 182.069H151.725V189.655H159.311V182.069Z" fill="#3C4046"/>
<path d="M166.897 182.069H159.311V189.655H166.897V182.069Z" fill="#3C4046"/>
<path d="M174.483 182.069H166.896V189.655H174.483V182.069Z" fill="#3C4046"/>
<path d="M182.069 182.069H174.482V189.655H182.069V182.069Z" fill="#3C4046"/>
<path d="M189.656 182.069H182.069V189.655H189.656V182.069Z" fill="#3C4046"/>
<path d="M204.828 182.069H197.242V189.655H204.828V182.069Z" fill="#3C4046"/>
<path d="M212.414 182.069H204.828V189.655H212.414V182.069Z" fill="#3C4046"/>
<path d="M220 182.069H212.414V189.655H220V182.069Z" fill="#3C4046"/>
<path d="M7.58622 189.656H0V197.242H7.58622V189.656Z" fill="#3C4046"/>
<path d="M22.7591 189.656H15.1729V197.242H22.7591V189.656Z" fill="#3C4046"/>
<path d="M30.345 189.656H22.7588V197.242H30.345V189.656Z" fill="#3C4046"/>
<path d="M37.9309 189.656H30.3447V197.242H37.9309V189.656Z" fill="#3C4046"/>
<path d="M53.1038 189.656H45.5176V197.242H53.1038V189.656Z" fill="#3C4046"/>
<path d="M68.2757 189.656H60.6895V197.242H68.2757V189.656Z" fill="#3C4046"/>
<path d="M75.8626 189.656H68.2764V197.242H75.8626V189.656Z" fill="#3C4046"/>
<path d="M128.966 189.656H121.38V197.242H128.966V189.656Z" fill="#3C4046"/>
<path d="M151.725 189.656H144.139V197.242H151.725V189.656Z" fill="#3C4046"/>
<path d="M159.311 189.656H151.725V197.242H159.311V189.656Z" fill="#3C4046"/>
<path d="M166.897 189.656H159.311V197.242H166.897V189.656Z" fill="#3C4046"/>
<path d="M182.069 189.656H174.482V197.242H182.069V189.656Z" fill="#3C4046"/>
<path d="M197.241 189.656H189.655V197.242H197.241V189.656Z" fill="#3C4046"/>
<path d="M204.828 189.656H197.242V197.242H204.828V189.656Z" fill="#3C4046"/>
<path d="M212.414 189.656H204.828V197.242H212.414V189.656Z" fill="#3C4046"/>
<path d="M220 189.656H212.414V197.242H220V189.656Z" fill="#3C4046"/>
<path d="M7.58622 197.242H0V204.828H7.58622V197.242Z" fill="#3C4046"/>
<path d="M22.7591 197.242H15.1729V204.828H22.7591V197.242Z" fill="#3C4046"/>
<path d="M30.345 197.242H22.7588V204.828H30.345V197.242Z" fill="#3C4046"/>
<path d="M37.9309 197.242H30.3447V204.828H37.9309V197.242Z" fill="#3C4046"/>
<path d="M53.1038 197.242H45.5176V204.828H53.1038V197.242Z" fill="#3C4046"/>
<path d="M68.2757 197.242H60.6895V204.828H68.2757V197.242Z" fill="#3C4046"/>
<path d="M75.8626 197.242H68.2764V204.828H75.8626V197.242Z" fill="#3C4046"/>
<path d="M91.0345 197.242H83.4482V204.828H91.0345V197.242Z" fill="#3C4046"/>
<path d="M98.6204 197.242H91.0342V204.828H98.6204V197.242Z" fill="#3C4046"/>
<path d="M121.379 197.242H113.793V204.828H121.379V197.242Z" fill="#3C4046"/>
<path d="M136.552 197.242H128.966V204.828H136.552V197.242Z" fill="#3C4046"/>
<path d="M166.897 197.242H159.311V204.828H166.897V197.242Z" fill="#3C4046"/>
<path d="M174.483 197.242H166.896V204.828H174.483V197.242Z" fill="#3C4046"/>
<path d="M182.069 197.242H174.482V204.828H182.069V197.242Z" fill="#3C4046"/>
<path d="M189.656 197.242H182.069V204.828H189.656V197.242Z" fill="#3C4046"/>
<path d="M197.241 197.242H189.655V204.828H197.241V197.242Z" fill="#3C4046"/>
<path d="M204.828 197.242H197.242V204.828H204.828V197.242Z" fill="#3C4046"/>
<path d="M212.414 197.242H204.828V204.828H212.414V197.242Z" fill="#3C4046"/>
<path d="M7.58622 204.828H0V212.414H7.58622V204.828Z" fill="#3C4046"/>
<path d="M53.1038 204.828H45.5176V212.414H53.1038V204.828Z" fill="#3C4046"/>
<path d="M68.2757 204.828H60.6895V212.414H68.2757V204.828Z" fill="#3C4046"/>
<path d="M83.4485 204.828H75.8623V212.414H83.4485V204.828Z" fill="#3C4046"/>
<path d="M91.0345 204.828H83.4482V212.414H91.0345V204.828Z" fill="#3C4046"/>
<path d="M113.793 204.828H106.207V212.414H113.793V204.828Z" fill="#3C4046"/>
<path d="M159.311 204.828H151.725V212.414H159.311V204.828Z" fill="#3C4046"/>
<path d="M174.483 204.828H166.896V212.414H174.483V204.828Z" fill="#3C4046"/>
<path d="M197.241 204.828H189.655V212.414H197.241V204.828Z" fill="#3C4046"/>
<path d="M212.414 204.828H204.828V212.414H212.414V204.828Z" fill="#3C4046"/>
<path d="M7.58622 212.414H0V220H7.58622V212.414Z" fill="#3C4046"/>
<path d="M15.1722 212.414H7.58594V220H15.1722V212.414Z" fill="#3C4046"/>
<path d="M22.7591 212.414H15.1729V220H22.7591V212.414Z" fill="#3C4046"/>
<path d="M30.345 212.414H22.7588V220H30.345V212.414Z" fill="#3C4046"/>
<path d="M37.9309 212.414H30.3447V220H37.9309V212.414Z" fill="#3C4046"/>
<path d="M45.5169 212.414H37.9307V220H45.5169V212.414Z" fill="#3C4046"/>
<path d="M53.1038 212.414H45.5176V220H53.1038V212.414Z" fill="#3C4046"/>
<path d="M68.2757 212.414H60.6895V220H68.2757V212.414Z" fill="#3C4046"/>
<path d="M83.4485 212.414H75.8623V220H83.4485V212.414Z" fill="#3C4046"/>
<path d="M91.0345 212.414H83.4482V220H91.0345V212.414Z" fill="#3C4046"/>
<path d="M128.966 212.414H121.38V220H128.966V212.414Z" fill="#3C4046"/>
<path d="M136.552 212.414H128.966V220H136.552V212.414Z" fill="#3C4046"/>
<path d="M151.725 212.414H144.139V220H151.725V212.414Z" fill="#3C4046"/>
<path d="M166.897 212.414H159.311V220H166.897V212.414Z" fill="#3C4046"/>
<path d="M174.483 212.414H166.896V220H174.483V212.414Z" fill="#3C4046"/>
<path d="M182.069 212.414H174.482V220H182.069V212.414Z" fill="#3C4046"/>
<path d="M189.656 212.414H182.069V220H189.656V212.414Z" fill="#3C4046"/>
<path d="M204.828 212.414H197.242V220H204.828V212.414Z" fill="#3C4046"/>
</svg>
