<svg width="180" height="180" viewBox="0 0 180 180" fill="none" xmlns="http://www.w3.org/2000/svg">
<path d="M6.2069 0H0V6.2069H6.2069V0Z" fill="black"/>
<path d="M12.4139 0H6.20703V6.2069H12.4139V0Z" fill="black"/>
<path d="M18.621 0H12.4141V6.2069H18.621V0Z" fill="black"/>
<path d="M24.828 0H18.6211V6.2069H24.828V0Z" fill="black"/>
<path d="M31.034 0H24.8271V6.2069H31.034V0Z" fill="black"/>
<path d="M37.2411 0H31.0342V6.2069H37.2411V0Z" fill="black"/>
<path d="M43.4481 0H37.2412V6.2069H43.4481V0Z" fill="black"/>
<path d="M62.0692 0H55.8623V6.2069H62.0692V0Z" fill="black"/>
<path d="M86.8973 0H80.6904V6.2069H86.8973V0Z" fill="black"/>
<path d="M93.1034 0H86.8965V6.2069H93.1034V0Z" fill="black"/>
<path d="M99.3104 0H93.1035V6.2069H99.3104V0Z" fill="black"/>
<path d="M105.517 0H99.3105V6.2069H105.517V0Z" fill="black"/>
<path d="M111.724 0H105.518V6.2069H111.724V0Z" fill="black"/>
<path d="M117.932 0H111.725V6.2069H117.932V0Z" fill="black"/>
<path d="M124.139 0H117.932V6.2069H124.139V0Z" fill="black"/>
<path d="M130.346 0H124.139V6.2069H130.346V0Z" fill="black"/>
<path d="M142.759 0H136.552V6.2069H142.759V0Z" fill="black"/>
<path d="M148.966 0H142.759V6.2069H148.966V0Z" fill="black"/>
<path d="M155.173 0H148.966V6.2069H155.173V0Z" fill="black"/>
<path d="M161.38 0H155.173V6.2069H161.38V0Z" fill="black"/>
<path d="M167.587 0H161.38V6.2069H167.587V0Z" fill="black"/>
<path d="M173.794 0H167.587V6.2069H173.794V0Z" fill="black"/>
<path d="M180 0H173.793V6.2069H180V0Z" fill="black"/>
<path d="M6.2069 6.20693H0V12.4138H6.2069V6.20693Z" fill="black"/>
<path d="M43.4481 6.20693H37.2412V12.4138H43.4481V6.20693Z" fill="black"/>
<path d="M55.8622 6.20693H49.6553V12.4138H55.8622V6.20693Z" fill="black"/>
<path d="M62.0692 6.20693H55.8623V12.4138H62.0692V6.20693Z" fill="black"/>
<path d="M74.4823 6.20693H68.2754V12.4138H74.4823V6.20693Z" fill="black"/>
<path d="M80.6893 6.20693H74.4824V12.4138H80.6893V6.20693Z" fill="black"/>
<path d="M99.3104 6.20693H93.1035V12.4138H99.3104V6.20693Z" fill="black"/>
<path d="M111.724 6.20693H105.518V12.4138H111.724V6.20693Z" fill="black"/>
<path d="M130.346 6.20693H124.139V12.4138H130.346V6.20693Z" fill="black"/>
<path d="M142.759 6.20693H136.552V12.4138H142.759V6.20693Z" fill="black"/>
<path d="M180 6.20693H173.793V12.4138H180V6.20693Z" fill="black"/>
<path d="M6.2069 12.4138H0V18.6207H6.2069V12.4138Z" fill="black"/>
<path d="M18.621 12.4138H12.4141V18.6207H18.621V12.4138Z" fill="black"/>
<path d="M24.828 12.4138H18.6211V18.6207H24.828V12.4138Z" fill="black"/>
<path d="M31.034 12.4138H24.8271V18.6207H31.034V12.4138Z" fill="black"/>
<path d="M43.4481 12.4138H37.2412V18.6207H43.4481V12.4138Z" fill="black"/>
<path d="M62.0692 12.4138H55.8623V18.6207H62.0692V12.4138Z" fill="black"/>
<path d="M68.2762 12.4138H62.0693V18.6207H68.2762V12.4138Z" fill="black"/>
<path d="M74.4823 12.4138H68.2754V18.6207H74.4823V12.4138Z" fill="black"/>
<path d="M93.1034 12.4138H86.8965V18.6207H93.1034V12.4138Z" fill="black"/>
<path d="M105.517 12.4138H99.3105V18.6207H105.517V12.4138Z" fill="black"/>
<path d="M117.932 12.4138H111.725V18.6207H117.932V12.4138Z" fill="black"/>
<path d="M142.759 12.4138H136.552V18.6207H142.759V12.4138Z" fill="black"/>
<path d="M155.173 12.4138H148.966V18.6207H155.173V12.4138Z" fill="black"/>
<path d="M161.38 12.4138H155.173V18.6207H161.38V12.4138Z" fill="black"/>
<path d="M167.587 12.4138H161.38V18.6207H167.587V12.4138Z" fill="black"/>
<path d="M180 12.4138H173.793V18.6207H180V12.4138Z" fill="black"/>
<path d="M6.2069 18.6207H0V24.8276H6.2069V18.6207Z" fill="black"/>
<path d="M18.621 18.6207H12.4141V24.8276H18.621V18.6207Z" fill="black"/>
<path d="M24.828 18.6207H18.6211V24.8276H24.828V18.6207Z" fill="black"/>
<path d="M31.034 18.6207H24.8271V24.8276H31.034V18.6207Z" fill="black"/>
<path d="M43.4481 18.6207H37.2412V24.8276H43.4481V18.6207Z" fill="black"/>
<path d="M55.8622 18.6207H49.6553V24.8276H55.8622V18.6207Z" fill="black"/>
<path d="M62.0692 18.6207H55.8623V24.8276H62.0692V18.6207Z" fill="black"/>
<path d="M74.4823 18.6207H68.2754V24.8276H74.4823V18.6207Z" fill="black"/>
<path d="M93.1034 18.6207H86.8965V24.8276H93.1034V18.6207Z" fill="black"/>
<path d="M111.724 18.6207H105.518V24.8276H111.724V18.6207Z" fill="black"/>
<path d="M124.139 18.6207H117.932V24.8276H124.139V18.6207Z" fill="black"/>
<path d="M142.759 18.6207H136.552V24.8276H142.759V18.6207Z" fill="black"/>
<path d="M155.173 18.6207H148.966V24.8276H155.173V18.6207Z" fill="black"/>
<path d="M161.38 18.6207H155.173V24.8276H161.38V18.6207Z" fill="black"/>
<path d="M167.587 18.6207H161.38V24.8276H167.587V18.6207Z" fill="black"/>
<path d="M180 18.6207H173.793V24.8276H180V18.6207Z" fill="black"/>
<path d="M6.2069 24.8276H0V31.0345H6.2069V24.8276Z" fill="black"/>
<path d="M18.621 24.8276H12.4141V31.0345H18.621V24.8276Z" fill="black"/>
<path d="M24.828 24.8276H18.6211V31.0345H24.828V24.8276Z" fill="black"/>
<path d="M31.034 24.8276H24.8271V31.0345H31.034V24.8276Z" fill="black"/>
<path d="M43.4481 24.8276H37.2412V31.0345H43.4481V24.8276Z" fill="black"/>
<path d="M68.2762 24.8276H62.0693V31.0345H68.2762V24.8276Z" fill="black"/>
<path d="M80.6893 24.8276H74.4824V31.0345H80.6893V24.8276Z" fill="black"/>
<path d="M99.3104 24.8276H93.1035V31.0345H99.3104V24.8276Z" fill="black"/>
<path d="M105.517 24.8276H99.3105V31.0345H105.517V24.8276Z" fill="black"/>
<path d="M111.724 24.8276H105.518V31.0345H111.724V24.8276Z" fill="black"/>
<path d="M117.932 24.8276H111.725V31.0345H117.932V24.8276Z" fill="black"/>
<path d="M124.139 24.8276H117.932V31.0345H124.139V24.8276Z" fill="black"/>
<path d="M130.346 24.8276H124.139V31.0345H130.346V24.8276Z" fill="black"/>
<path d="M142.759 24.8276H136.552V31.0345H142.759V24.8276Z" fill="black"/>
<path d="M155.173 24.8276H148.966V31.0345H155.173V24.8276Z" fill="black"/>
<path d="M161.38 24.8276H155.173V31.0345H161.38V24.8276Z" fill="black"/>
<path d="M167.587 24.8276H161.38V31.0345H167.587V24.8276Z" fill="black"/>
<path d="M180 24.8276H173.793V31.0345H180V24.8276Z" fill="black"/>
<path d="M6.2069 31.0346H0V37.2415H6.2069V31.0346Z" fill="black"/>
<path d="M43.4481 31.0346H37.2412V37.2415H43.4481V31.0346Z" fill="black"/>
<path d="M55.8622 31.0346H49.6553V37.2415H55.8622V31.0346Z" fill="black"/>
<path d="M68.2762 31.0346H62.0693V37.2415H68.2762V31.0346Z" fill="black"/>
<path d="M86.8973 31.0346H80.6904V37.2415H86.8973V31.0346Z" fill="black"/>
<path d="M99.3104 31.0346H93.1035V37.2415H99.3104V31.0346Z" fill="black"/>
<path d="M111.724 31.0346H105.518V37.2415H111.724V31.0346Z" fill="black"/>
<path d="M117.932 31.0346H111.725V37.2415H117.932V31.0346Z" fill="black"/>
<path d="M142.759 31.0346H136.552V37.2415H142.759V31.0346Z" fill="black"/>
<path d="M180 31.0346H173.793V37.2415H180V31.0346Z" fill="black"/>
<path d="M6.2069 37.2414H0V43.4483H6.2069V37.2414Z" fill="black"/>
<path d="M12.4139 37.2414H6.20703V43.4483H12.4139V37.2414Z" fill="black"/>
<path d="M18.621 37.2414H12.4141V43.4483H18.621V37.2414Z" fill="black"/>
<path d="M24.828 37.2414H18.6211V43.4483H24.828V37.2414Z" fill="black"/>
<path d="M31.034 37.2414H24.8271V43.4483H31.034V37.2414Z" fill="black"/>
<path d="M37.2411 37.2414H31.0342V43.4483H37.2411V37.2414Z" fill="black"/>
<path d="M43.4481 37.2414H37.2412V43.4483H43.4481V37.2414Z" fill="black"/>
<path d="M55.8622 37.2414H49.6553V43.4483H55.8622V37.2414Z" fill="black"/>
<path d="M68.2762 37.2414H62.0693V43.4483H68.2762V37.2414Z" fill="black"/>
<path d="M80.6893 37.2414H74.4824V43.4483H80.6893V37.2414Z" fill="black"/>
<path d="M93.1034 37.2414H86.8965V43.4483H93.1034V37.2414Z" fill="black"/>
<path d="M105.517 37.2414H99.3105V43.4483H105.517V37.2414Z" fill="black"/>
<path d="M117.932 37.2414H111.725V43.4483H117.932V37.2414Z" fill="black"/>
<path d="M130.346 37.2414H124.139V43.4483H130.346V37.2414Z" fill="black"/>
<path d="M142.759 37.2414H136.552V43.4483H142.759V37.2414Z" fill="black"/>
<path d="M148.966 37.2414H142.759V43.4483H148.966V37.2414Z" fill="black"/>
<path d="M155.173 37.2414H148.966V43.4483H155.173V37.2414Z" fill="black"/>
<path d="M161.38 37.2414H155.173V43.4483H161.38V37.2414Z" fill="black"/>
<path d="M167.587 37.2414H161.38V43.4483H167.587V37.2414Z" fill="black"/>
<path d="M173.794 37.2414H167.587V43.4483H173.794V37.2414Z" fill="black"/>
<path d="M180 37.2414H173.793V43.4483H180V37.2414Z" fill="black"/>
<path d="M80.6893 43.4483H74.4824V49.6552H80.6893V43.4483Z" fill="black"/>
<path d="M93.1034 43.4483H86.8965V49.6552H93.1034V43.4483Z" fill="black"/>
<path d="M99.3104 43.4483H93.1035V49.6552H99.3104V43.4483Z" fill="black"/>
<path d="M105.517 43.4483H99.3105V49.6552H105.517V43.4483Z" fill="black"/>
<path d="M130.346 43.4483H124.139V49.6552H130.346V43.4483Z" fill="black"/>
<path d="M6.2069 49.6552H0V55.8621H6.2069V49.6552Z" fill="black"/>
<path d="M12.4139 49.6552H6.20703V55.8621H12.4139V49.6552Z" fill="black"/>
<path d="M18.621 49.6552H12.4141V55.8621H18.621V49.6552Z" fill="black"/>
<path d="M24.828 49.6552H18.6211V55.8621H24.828V49.6552Z" fill="black"/>
<path d="M31.034 49.6552H24.8271V55.8621H31.034V49.6552Z" fill="black"/>
<path d="M43.4481 49.6552H37.2412V55.8621H43.4481V49.6552Z" fill="black"/>
<path d="M49.6551 49.6552H43.4482V55.8621H49.6551V49.6552Z" fill="black"/>
<path d="M55.8622 49.6552H49.6553V55.8621H55.8622V49.6552Z" fill="black"/>
<path d="M62.0692 49.6552H55.8623V55.8621H62.0692V49.6552Z" fill="black"/>
<path d="M68.2762 49.6552H62.0693V55.8621H68.2762V49.6552Z" fill="black"/>
<path d="M80.6893 49.6552H74.4824V55.8621H80.6893V49.6552Z" fill="black"/>
<path d="M86.8973 49.6552H80.6904V55.8621H86.8973V49.6552Z" fill="black"/>
<path d="M93.1034 49.6552H86.8965V55.8621H93.1034V49.6552Z" fill="black"/>
<path d="M99.3104 49.6552H93.1035V55.8621H99.3104V49.6552Z" fill="black"/>
<path d="M111.724 49.6552H105.518V55.8621H111.724V49.6552Z" fill="black"/>
<path d="M117.932 49.6552H111.725V55.8621H117.932V49.6552Z" fill="black"/>
<path d="M124.139 49.6552H117.932V55.8621H124.139V49.6552Z" fill="black"/>
<path d="M136.552 49.6552H130.345V55.8621H136.552V49.6552Z" fill="black"/>
<path d="M148.966 49.6552H142.759V55.8621H148.966V49.6552Z" fill="black"/>
<path d="M161.38 49.6552H155.173V55.8621H161.38V49.6552Z" fill="black"/>
<path d="M173.794 49.6552H167.587V55.8621H173.794V49.6552Z" fill="black"/>
<path d="M6.2069 55.8622H0V62.0691H6.2069V55.8622Z" fill="black"/>
<path d="M12.4139 55.8622H6.20703V62.0691H12.4139V55.8622Z" fill="black"/>
<path d="M18.621 55.8622H12.4141V62.0691H18.621V55.8622Z" fill="black"/>
<path d="M24.828 55.8622H18.6211V62.0691H24.828V55.8622Z" fill="black"/>
<path d="M31.034 55.8622H24.8271V62.0691H31.034V55.8622Z" fill="black"/>
<path d="M62.0692 55.8622H55.8623V62.0691H62.0692V55.8622Z" fill="black"/>
<path d="M86.8973 55.8622H80.6904V62.0691H86.8973V55.8622Z" fill="black"/>
<path d="M99.3104 55.8622H93.1035V62.0691H99.3104V55.8622Z" fill="black"/>
<path d="M105.517 55.8622H99.3105V62.0691H105.517V55.8622Z" fill="black"/>
<path d="M111.724 55.8622H105.518V62.0691H111.724V55.8622Z" fill="black"/>
<path d="M117.932 55.8622H111.725V62.0691H117.932V55.8622Z" fill="black"/>
<path d="M124.139 55.8622H117.932V62.0691H124.139V55.8622Z" fill="black"/>
<path d="M130.346 55.8622H124.139V62.0691H130.346V55.8622Z" fill="black"/>
<path d="M136.552 55.8622H130.345V62.0691H136.552V55.8622Z" fill="black"/>
<path d="M142.759 55.8622H136.552V62.0691H142.759V55.8622Z" fill="black"/>
<path d="M155.173 55.8622H148.966V62.0691H155.173V55.8622Z" fill="black"/>
<path d="M180 55.8622H173.793V62.0691H180V55.8622Z" fill="black"/>
<path d="M12.4139 62.0689H6.20703V68.2758H12.4139V62.0689Z" fill="black"/>
<path d="M24.828 62.0689H18.6211V68.2758H24.828V62.0689Z" fill="black"/>
<path d="M43.4481 62.0689H37.2412V68.2758H43.4481V62.0689Z" fill="black"/>
<path d="M49.6551 62.0689H43.4482V68.2758H49.6551V62.0689Z" fill="black"/>
<path d="M62.0692 62.0689H55.8623V68.2758H62.0692V62.0689Z" fill="black"/>
<path d="M74.4823 62.0689H68.2754V68.2758H74.4823V62.0689Z" fill="black"/>
<path d="M80.6893 62.0689H74.4824V68.2758H80.6893V62.0689Z" fill="black"/>
<path d="M99.3104 62.0689H93.1035V68.2758H99.3104V62.0689Z" fill="black"/>
<path d="M111.724 62.0689H105.518V68.2758H111.724V62.0689Z" fill="black"/>
<path d="M130.346 62.0689H124.139V68.2758H130.346V62.0689Z" fill="black"/>
<path d="M142.759 62.0689H136.552V68.2758H142.759V62.0689Z" fill="black"/>
<path d="M148.966 62.0689H142.759V68.2758H148.966V62.0689Z" fill="black"/>
<path d="M155.173 62.0689H148.966V68.2758H155.173V62.0689Z" fill="black"/>
<path d="M6.2069 68.2759H0V74.4828H6.2069V68.2759Z" fill="black"/>
<path d="M12.4139 68.2759H6.20703V74.4828H12.4139V68.2759Z" fill="black"/>
<path d="M49.6551 68.2759H43.4482V74.4828H49.6551V68.2759Z" fill="black"/>
<path d="M62.0692 68.2759H55.8623V74.4828H62.0692V68.2759Z" fill="black"/>
<path d="M68.2762 68.2759H62.0693V74.4828H68.2762V68.2759Z" fill="black"/>
<path d="M74.4823 68.2759H68.2754V74.4828H74.4823V68.2759Z" fill="black"/>
<path d="M105.517 68.2759H99.3105V74.4828H105.517V68.2759Z" fill="black"/>
<path d="M124.139 68.2759H117.932V74.4828H124.139V68.2759Z" fill="black"/>
<path d="M130.346 68.2759H124.139V74.4828H130.346V68.2759Z" fill="black"/>
<path d="M148.966 68.2759H142.759V74.4828H148.966V68.2759Z" fill="black"/>
<path d="M155.173 68.2759H148.966V74.4828H155.173V68.2759Z" fill="black"/>
<path d="M161.38 68.2759H155.173V74.4828H161.38V68.2759Z" fill="black"/>
<path d="M173.794 68.2759H167.587V74.4828H173.794V68.2759Z" fill="black"/>
<path d="M12.4139 74.4828H6.20703V80.6897H12.4139V74.4828Z" fill="black"/>
<path d="M18.621 74.4828H12.4141V80.6897H18.621V74.4828Z" fill="black"/>
<path d="M31.034 74.4828H24.8271V80.6897H31.034V74.4828Z" fill="black"/>
<path d="M37.2411 74.4828H31.0342V80.6897H37.2411V74.4828Z" fill="black"/>
<path d="M43.4481 74.4828H37.2412V80.6897H43.4481V74.4828Z" fill="black"/>
<path d="M49.6551 74.4828H43.4482V80.6897H49.6551V74.4828Z" fill="black"/>
<path d="M62.0692 74.4828H55.8623V80.6897H62.0692V74.4828Z" fill="black"/>
<path d="M74.4823 74.4828H68.2754V80.6897H74.4823V74.4828Z" fill="black"/>
<path d="M93.1034 74.4828H86.8965V80.6897H93.1034V74.4828Z" fill="black"/>
<path d="M99.3104 74.4828H93.1035V80.6897H99.3104V74.4828Z" fill="black"/>
<path d="M111.724 74.4828H105.518V80.6897H111.724V74.4828Z" fill="black"/>
<path d="M117.932 74.4828H111.725V80.6897H117.932V74.4828Z" fill="black"/>
<path d="M124.139 74.4828H117.932V80.6897H124.139V74.4828Z" fill="black"/>
<path d="M161.38 74.4828H155.173V80.6897H161.38V74.4828Z" fill="black"/>
<path d="M167.587 74.4828H161.38V80.6897H167.587V74.4828Z" fill="black"/>
<path d="M6.2069 80.6897H0V86.8966H6.2069V80.6897Z" fill="black"/>
<path d="M31.034 80.6897H24.8271V86.8966H31.034V80.6897Z" fill="black"/>
<path d="M37.2411 80.6897H31.0342V86.8966H37.2411V80.6897Z" fill="black"/>
<path d="M49.6551 80.6897H43.4482V86.8966H49.6551V80.6897Z" fill="black"/>
<path d="M62.0692 80.6897H55.8623V86.8966H62.0692V80.6897Z" fill="black"/>
<path d="M68.2762 80.6897H62.0693V86.8966H68.2762V80.6897Z" fill="black"/>
<path d="M80.6893 80.6897H74.4824V86.8966H80.6893V80.6897Z" fill="black"/>
<path d="M93.1034 80.6897H86.8965V86.8966H93.1034V80.6897Z" fill="black"/>
<path d="M105.517 80.6897H99.3105V86.8966H105.517V80.6897Z" fill="black"/>
<path d="M111.724 80.6897H105.518V86.8966H111.724V80.6897Z" fill="black"/>
<path d="M117.932 80.6897H111.725V86.8966H117.932V80.6897Z" fill="black"/>
<path d="M124.139 80.6897H117.932V86.8966H124.139V80.6897Z" fill="black"/>
<path d="M142.759 80.6897H136.552V86.8966H142.759V80.6897Z" fill="black"/>
<path d="M148.966 80.6897H142.759V86.8966H148.966V80.6897Z" fill="black"/>
<path d="M155.173 80.6897H148.966V86.8966H155.173V80.6897Z" fill="black"/>
<path d="M180 80.6897H173.793V86.8966H180V80.6897Z" fill="black"/>
<path d="M18.621 86.8966H12.4141V93.1035H18.621V86.8966Z" fill="black"/>
<path d="M37.2411 86.8966H31.0342V93.1035H37.2411V86.8966Z" fill="black"/>
<path d="M43.4481 86.8966H37.2412V93.1035H43.4481V86.8966Z" fill="black"/>
<path d="M55.8622 86.8966H49.6553V93.1035H55.8622V86.8966Z" fill="black"/>
<path d="M62.0692 86.8966H55.8623V93.1035H62.0692V86.8966Z" fill="black"/>
<path d="M68.2762 86.8966H62.0693V93.1035H68.2762V86.8966Z" fill="black"/>
<path d="M86.8973 86.8966H80.6904V93.1035H86.8973V86.8966Z" fill="black"/>
<path d="M99.3104 86.8966H93.1035V93.1035H99.3104V86.8966Z" fill="black"/>
<path d="M130.346 86.8966H124.139V93.1035H130.346V86.8966Z" fill="black"/>
<path d="M136.552 86.8966H130.345V93.1035H136.552V86.8966Z" fill="black"/>
<path d="M148.966 86.8966H142.759V93.1035H148.966V86.8966Z" fill="black"/>
<path d="M155.173 86.8966H148.966V93.1035H155.173V86.8966Z" fill="black"/>
<path d="M161.38 86.8966H155.173V93.1035H161.38V86.8966Z" fill="black"/>
<path d="M167.587 86.8966H161.38V93.1035H167.587V86.8966Z" fill="black"/>
<path d="M6.2069 93.1035H0V99.3104H6.2069V93.1035Z" fill="black"/>
<path d="M12.4139 93.1035H6.20703V99.3104H12.4139V93.1035Z" fill="black"/>
<path d="M18.621 93.1035H12.4141V99.3104H18.621V93.1035Z" fill="black"/>
<path d="M24.828 93.1035H18.6211V99.3104H24.828V93.1035Z" fill="black"/>
<path d="M31.034 93.1035H24.8271V99.3104H31.034V93.1035Z" fill="black"/>
<path d="M37.2411 93.1035H31.0342V99.3104H37.2411V93.1035Z" fill="black"/>
<path d="M49.6551 93.1035H43.4482V99.3104H49.6551V93.1035Z" fill="black"/>
<path d="M55.8622 93.1035H49.6553V99.3104H55.8622V93.1035Z" fill="black"/>
<path d="M62.0692 93.1035H55.8623V99.3104H62.0692V93.1035Z" fill="black"/>
<path d="M80.6893 93.1035H74.4824V99.3104H80.6893V93.1035Z" fill="black"/>
<path d="M130.346 93.1035H124.139V99.3104H130.346V93.1035Z" fill="black"/>
<path d="M148.966 93.1035H142.759V99.3104H148.966V93.1035Z" fill="black"/>
<path d="M155.173 93.1035H148.966V99.3104H155.173V93.1035Z" fill="black"/>
<path d="M173.794 93.1035H167.587V99.3104H173.794V93.1035Z" fill="black"/>
<path d="M6.2069 99.3103H0V105.517H6.2069V99.3103Z" fill="black"/>
<path d="M18.621 99.3103H12.4141V105.517H18.621V99.3103Z" fill="black"/>
<path d="M24.828 99.3103H18.6211V105.517H24.828V99.3103Z" fill="black"/>
<path d="M31.034 99.3103H24.8271V105.517H31.034V99.3103Z" fill="black"/>
<path d="M37.2411 99.3103H31.0342V105.517H37.2411V99.3103Z" fill="black"/>
<path d="M43.4481 99.3103H37.2412V105.517H43.4481V99.3103Z" fill="black"/>
<path d="M49.6551 99.3103H43.4482V105.517H49.6551V99.3103Z" fill="black"/>
<path d="M62.0692 99.3103H55.8623V105.517H62.0692V99.3103Z" fill="black"/>
<path d="M68.2762 99.3103H62.0693V105.517H68.2762V99.3103Z" fill="black"/>
<path d="M80.6893 99.3103H74.4824V105.517H80.6893V99.3103Z" fill="black"/>
<path d="M86.8973 99.3103H80.6904V105.517H86.8973V99.3103Z" fill="black"/>
<path d="M93.1034 99.3103H86.8965V105.517H93.1034V99.3103Z" fill="black"/>
<path d="M99.3104 99.3103H93.1035V105.517H99.3104V99.3103Z" fill="black"/>
<path d="M105.517 99.3103H99.3105V105.517H105.517V99.3103Z" fill="black"/>
<path d="M111.724 99.3103H105.518V105.517H111.724V99.3103Z" fill="black"/>
<path d="M117.932 99.3103H111.725V105.517H117.932V99.3103Z" fill="black"/>
<path d="M124.139 99.3103H117.932V105.517H124.139V99.3103Z" fill="black"/>
<path d="M161.38 99.3103H155.173V105.517H161.38V99.3103Z" fill="black"/>
<path d="M167.587 99.3103H161.38V105.517H167.587V99.3103Z" fill="black"/>
<path d="M6.2069 105.517H0V111.724H6.2069V105.517Z" fill="black"/>
<path d="M18.621 105.517H12.4141V111.724H18.621V105.517Z" fill="black"/>
<path d="M24.828 105.517H18.6211V111.724H24.828V105.517Z" fill="black"/>
<path d="M37.2411 105.517H31.0342V111.724H37.2411V105.517Z" fill="black"/>
<path d="M55.8622 105.517H49.6553V111.724H55.8622V105.517Z" fill="black"/>
<path d="M62.0692 105.517H55.8623V111.724H62.0692V105.517Z" fill="black"/>
<path d="M124.139 105.517H117.932V111.724H124.139V105.517Z" fill="black"/>
<path d="M130.346 105.517H124.139V111.724H130.346V105.517Z" fill="black"/>
<path d="M142.759 105.517H136.552V111.724H142.759V105.517Z" fill="black"/>
<path d="M148.966 105.517H142.759V111.724H148.966V105.517Z" fill="black"/>
<path d="M155.173 105.517H148.966V111.724H155.173V105.517Z" fill="black"/>
<path d="M167.587 105.517H161.38V111.724H167.587V105.517Z" fill="black"/>
<path d="M180 105.517H173.793V111.724H180V105.517Z" fill="black"/>
<path d="M6.2069 111.724H0V117.931H6.2069V111.724Z" fill="black"/>
<path d="M18.621 111.724H12.4141V117.931H18.621V111.724Z" fill="black"/>
<path d="M24.828 111.724H18.6211V117.931H24.828V111.724Z" fill="black"/>
<path d="M31.034 111.724H24.8271V117.931H31.034V111.724Z" fill="black"/>
<path d="M37.2411 111.724H31.0342V117.931H37.2411V111.724Z" fill="black"/>
<path d="M43.4481 111.724H37.2412V117.931H43.4481V111.724Z" fill="black"/>
<path d="M55.8622 111.724H49.6553V117.931H55.8622V111.724Z" fill="black"/>
<path d="M62.0692 111.724H55.8623V117.931H62.0692V111.724Z" fill="black"/>
<path d="M74.4823 111.724H68.2754V117.931H74.4823V111.724Z" fill="black"/>
<path d="M80.6893 111.724H74.4824V117.931H80.6893V111.724Z" fill="black"/>
<path d="M99.3104 111.724H93.1035V117.931H99.3104V111.724Z" fill="black"/>
<path d="M111.724 111.724H105.518V117.931H111.724V111.724Z" fill="black"/>
<path d="M117.932 111.724H111.725V117.931H117.932V111.724Z" fill="black"/>
<path d="M130.346 111.724H124.139V117.931H130.346V111.724Z" fill="black"/>
<path d="M136.552 111.724H130.345V117.931H136.552V111.724Z" fill="black"/>
<path d="M167.587 111.724H161.38V117.931H167.587V111.724Z" fill="black"/>
<path d="M6.2069 117.931H0V124.138H6.2069V117.931Z" fill="black"/>
<path d="M18.621 117.931H12.4141V124.138H18.621V117.931Z" fill="black"/>
<path d="M31.034 117.931H24.8271V124.138H31.034V117.931Z" fill="black"/>
<path d="M37.2411 117.931H31.0342V124.138H37.2411V117.931Z" fill="black"/>
<path d="M55.8622 117.931H49.6553V124.138H55.8622V117.931Z" fill="black"/>
<path d="M68.2762 117.931H62.0693V124.138H68.2762V117.931Z" fill="black"/>
<path d="M74.4823 117.931H68.2754V124.138H74.4823V117.931Z" fill="black"/>
<path d="M93.1034 117.931H86.8965V124.138H93.1034V117.931Z" fill="black"/>
<path d="M117.932 117.931H111.725V124.138H117.932V117.931Z" fill="black"/>
<path d="M124.139 117.931H117.932V124.138H124.139V117.931Z" fill="black"/>
<path d="M130.346 117.931H124.139V124.138H130.346V117.931Z" fill="black"/>
<path d="M136.552 117.931H130.345V124.138H136.552V117.931Z" fill="black"/>
<path d="M142.759 117.931H136.552V124.138H142.759V117.931Z" fill="black"/>
<path d="M155.173 117.931H148.966V124.138H155.173V117.931Z" fill="black"/>
<path d="M173.794 117.931H167.587V124.138H173.794V117.931Z" fill="black"/>
<path d="M6.2069 124.138H0V130.345H6.2069V124.138Z" fill="black"/>
<path d="M18.621 124.138H12.4141V130.345H18.621V124.138Z" fill="black"/>
<path d="M24.828 124.138H18.6211V130.345H24.828V124.138Z" fill="black"/>
<path d="M37.2411 124.138H31.0342V130.345H37.2411V124.138Z" fill="black"/>
<path d="M43.4481 124.138H37.2412V130.345H43.4481V124.138Z" fill="black"/>
<path d="M49.6551 124.138H43.4482V130.345H49.6551V124.138Z" fill="black"/>
<path d="M62.0692 124.138H55.8623V130.345H62.0692V124.138Z" fill="black"/>
<path d="M68.2762 124.138H62.0693V130.345H68.2762V124.138Z" fill="black"/>
<path d="M74.4823 124.138H68.2754V130.345H74.4823V124.138Z" fill="black"/>
<path d="M99.3104 124.138H93.1035V130.345H99.3104V124.138Z" fill="black"/>
<path d="M105.517 124.138H99.3105V130.345H105.517V124.138Z" fill="black"/>
<path d="M124.139 124.138H117.932V130.345H124.139V124.138Z" fill="black"/>
<path d="M130.346 124.138H124.139V130.345H130.346V124.138Z" fill="black"/>
<path d="M136.552 124.138H130.345V130.345H136.552V124.138Z" fill="black"/>
<path d="M142.759 124.138H136.552V130.345H142.759V124.138Z" fill="black"/>
<path d="M148.966 124.138H142.759V130.345H148.966V124.138Z" fill="black"/>
<path d="M155.173 124.138H148.966V130.345H155.173V124.138Z" fill="black"/>
<path d="M167.587 124.138H161.38V130.345H167.587V124.138Z" fill="black"/>
<path d="M173.794 124.138H167.587V130.345H173.794V124.138Z" fill="black"/>
<path d="M180 124.138H173.793V130.345H180V124.138Z" fill="black"/>
<path d="M55.8622 130.345H49.6553V136.552H55.8622V130.345Z" fill="black"/>
<path d="M62.0692 130.345H55.8623V136.552H62.0692V130.345Z" fill="black"/>
<path d="M68.2762 130.345H62.0693V136.552H68.2762V130.345Z" fill="black"/>
<path d="M80.6893 130.345H74.4824V136.552H80.6893V130.345Z" fill="black"/>
<path d="M86.8973 130.345H80.6904V136.552H86.8973V130.345Z" fill="black"/>
<path d="M105.517 130.345H99.3105V136.552H105.517V130.345Z" fill="black"/>
<path d="M111.724 130.345H105.518V136.552H111.724V130.345Z" fill="black"/>
<path d="M130.346 130.345H124.139V136.552H130.346V130.345Z" fill="black"/>
<path d="M155.173 130.345H148.966V136.552H155.173V130.345Z" fill="black"/>
<path d="M161.38 130.345H155.173V136.552H161.38V130.345Z" fill="black"/>
<path d="M167.587 130.345H161.38V136.552H167.587V130.345Z" fill="black"/>
<path d="M173.794 130.345H167.587V136.552H173.794V130.345Z" fill="black"/>
<path d="M180 130.345H173.793V136.552H180V130.345Z" fill="black"/>
<path d="M6.2069 136.552H0V142.759H6.2069V136.552Z" fill="black"/>
<path d="M12.4139 136.552H6.20703V142.759H12.4139V136.552Z" fill="black"/>
<path d="M18.621 136.552H12.4141V142.759H18.621V136.552Z" fill="black"/>
<path d="M24.828 136.552H18.6211V142.759H24.828V136.552Z" fill="black"/>
<path d="M31.034 136.552H24.8271V142.759H31.034V136.552Z" fill="black"/>
<path d="M37.2411 136.552H31.0342V142.759H37.2411V136.552Z" fill="black"/>
<path d="M43.4481 136.552H37.2412V142.759H43.4481V136.552Z" fill="black"/>
<path d="M55.8622 136.552H49.6553V142.759H55.8622V136.552Z" fill="black"/>
<path d="M62.0692 136.552H55.8623V142.759H62.0692V136.552Z" fill="black"/>
<path d="M68.2762 136.552H62.0693V142.759H68.2762V136.552Z" fill="black"/>
<path d="M86.8973 136.552H80.6904V142.759H86.8973V136.552Z" fill="black"/>
<path d="M93.1034 136.552H86.8965V142.759H93.1034V136.552Z" fill="black"/>
<path d="M99.3104 136.552H93.1035V142.759H99.3104V136.552Z" fill="black"/>
<path d="M117.932 136.552H111.725V142.759H117.932V136.552Z" fill="black"/>
<path d="M124.139 136.552H117.932V142.759H124.139V136.552Z" fill="black"/>
<path d="M130.346 136.552H124.139V142.759H130.346V136.552Z" fill="black"/>
<path d="M142.759 136.552H136.552V142.759H142.759V136.552Z" fill="black"/>
<path d="M155.173 136.552H148.966V142.759H155.173V136.552Z" fill="black"/>
<path d="M161.38 136.552H155.173V142.759H161.38V136.552Z" fill="black"/>
<path d="M167.587 136.552H161.38V142.759H167.587V136.552Z" fill="black"/>
<path d="M6.2069 142.759H0V148.966H6.2069V142.759Z" fill="black"/>
<path d="M43.4481 142.759H37.2412V148.966H43.4481V142.759Z" fill="black"/>
<path d="M80.6893 142.759H74.4824V148.966H80.6893V142.759Z" fill="black"/>
<path d="M86.8973 142.759H80.6904V148.966H86.8973V142.759Z" fill="black"/>
<path d="M99.3104 142.759H93.1035V148.966H99.3104V142.759Z" fill="black"/>
<path d="M124.139 142.759H117.932V148.966H124.139V142.759Z" fill="black"/>
<path d="M130.346 142.759H124.139V148.966H130.346V142.759Z" fill="black"/>
<path d="M155.173 142.759H148.966V148.966H155.173V142.759Z" fill="black"/>
<path d="M6.2069 148.966H0V155.172H6.2069V148.966Z" fill="black"/>
<path d="M18.621 148.966H12.4141V155.172H18.621V148.966Z" fill="black"/>
<path d="M24.828 148.966H18.6211V155.172H24.828V148.966Z" fill="black"/>
<path d="M31.034 148.966H24.8271V155.172H31.034V148.966Z" fill="black"/>
<path d="M43.4481 148.966H37.2412V155.172H43.4481V148.966Z" fill="black"/>
<path d="M55.8622 148.966H49.6553V155.172H55.8622V148.966Z" fill="black"/>
<path d="M80.6893 148.966H74.4824V155.172H80.6893V148.966Z" fill="black"/>
<path d="M93.1034 148.966H86.8965V155.172H93.1034V148.966Z" fill="black"/>
<path d="M105.517 148.966H99.3105V155.172H105.517V148.966Z" fill="black"/>
<path d="M111.724 148.966H105.518V155.172H111.724V148.966Z" fill="black"/>
<path d="M130.346 148.966H124.139V155.172H130.346V148.966Z" fill="black"/>
<path d="M136.552 148.966H130.345V155.172H136.552V148.966Z" fill="black"/>
<path d="M142.759 148.966H136.552V155.172H142.759V148.966Z" fill="black"/>
<path d="M148.966 148.966H142.759V155.172H148.966V148.966Z" fill="black"/>
<path d="M155.173 148.966H148.966V155.172H155.173V148.966Z" fill="black"/>
<path d="M167.587 148.966H161.38V155.172H167.587V148.966Z" fill="black"/>
<path d="M173.794 148.966H167.587V155.172H173.794V148.966Z" fill="black"/>
<path d="M180 148.966H173.793V155.172H180V148.966Z" fill="black"/>
<path d="M6.2069 155.173H0V161.379H6.2069V155.173Z" fill="black"/>
<path d="M18.621 155.173H12.4141V161.379H18.621V155.173Z" fill="black"/>
<path d="M24.828 155.173H18.6211V161.379H24.828V155.173Z" fill="black"/>
<path d="M31.034 155.173H24.8271V161.379H31.034V155.173Z" fill="black"/>
<path d="M43.4481 155.173H37.2412V161.379H43.4481V155.173Z" fill="black"/>
<path d="M55.8622 155.173H49.6553V161.379H55.8622V155.173Z" fill="black"/>
<path d="M62.0692 155.173H55.8623V161.379H62.0692V155.173Z" fill="black"/>
<path d="M105.517 155.173H99.3105V161.379H105.517V155.173Z" fill="black"/>
<path d="M124.139 155.173H117.932V161.379H124.139V155.173Z" fill="black"/>
<path d="M130.346 155.173H124.139V161.379H130.346V155.173Z" fill="black"/>
<path d="M136.552 155.173H130.345V161.379H136.552V155.173Z" fill="black"/>
<path d="M148.966 155.173H142.759V161.379H148.966V155.173Z" fill="black"/>
<path d="M161.38 155.173H155.173V161.379H161.38V155.173Z" fill="black"/>
<path d="M167.587 155.173H161.38V161.379H167.587V155.173Z" fill="black"/>
<path d="M173.794 155.173H167.587V161.379H173.794V155.173Z" fill="black"/>
<path d="M180 155.173H173.793V161.379H180V155.173Z" fill="black"/>
<path d="M6.2069 161.379H0V167.586H6.2069V161.379Z" fill="black"/>
<path d="M18.621 161.379H12.4141V167.586H18.621V161.379Z" fill="black"/>
<path d="M24.828 161.379H18.6211V167.586H24.828V161.379Z" fill="black"/>
<path d="M31.034 161.379H24.8271V167.586H31.034V161.379Z" fill="black"/>
<path d="M43.4481 161.379H37.2412V167.586H43.4481V161.379Z" fill="black"/>
<path d="M55.8622 161.379H49.6553V167.586H55.8622V161.379Z" fill="black"/>
<path d="M62.0692 161.379H55.8623V167.586H62.0692V161.379Z" fill="black"/>
<path d="M74.4823 161.379H68.2754V167.586H74.4823V161.379Z" fill="black"/>
<path d="M80.6893 161.379H74.4824V167.586H80.6893V161.379Z" fill="black"/>
<path d="M99.3104 161.379H93.1035V167.586H99.3104V161.379Z" fill="black"/>
<path d="M111.724 161.379H105.518V167.586H111.724V161.379Z" fill="black"/>
<path d="M136.552 161.379H130.345V167.586H136.552V161.379Z" fill="black"/>
<path d="M142.759 161.379H136.552V167.586H142.759V161.379Z" fill="black"/>
<path d="M148.966 161.379H142.759V167.586H148.966V161.379Z" fill="black"/>
<path d="M155.173 161.379H148.966V167.586H155.173V161.379Z" fill="black"/>
<path d="M161.38 161.379H155.173V167.586H161.38V161.379Z" fill="black"/>
<path d="M167.587 161.379H161.38V167.586H167.587V161.379Z" fill="black"/>
<path d="M173.794 161.379H167.587V167.586H173.794V161.379Z" fill="black"/>
<path d="M6.2069 167.586H0V173.793H6.2069V167.586Z" fill="black"/>
<path d="M43.4481 167.586H37.2412V173.793H43.4481V167.586Z" fill="black"/>
<path d="M55.8622 167.586H49.6553V173.793H55.8622V167.586Z" fill="black"/>
<path d="M68.2762 167.586H62.0693V173.793H68.2762V167.586Z" fill="black"/>
<path d="M74.4823 167.586H68.2754V173.793H74.4823V167.586Z" fill="black"/>
<path d="M93.1034 167.586H86.8965V173.793H93.1034V167.586Z" fill="black"/>
<path d="M130.346 167.586H124.139V173.793H130.346V167.586Z" fill="black"/>
<path d="M142.759 167.586H136.552V173.793H142.759V167.586Z" fill="black"/>
<path d="M161.38 167.586H155.173V173.793H161.38V167.586Z" fill="black"/>
<path d="M173.794 167.586H167.587V173.793H173.794V167.586Z" fill="black"/>
<path d="M6.2069 173.793H0V180H6.2069V173.793Z" fill="black"/>
<path d="M12.4139 173.793H6.20703V180H12.4139V173.793Z" fill="black"/>
<path d="M18.621 173.793H12.4141V180H18.621V173.793Z" fill="black"/>
<path d="M24.828 173.793H18.6211V180H24.828V173.793Z" fill="black"/>
<path d="M31.034 173.793H24.8271V180H31.034V173.793Z" fill="black"/>
<path d="M37.2411 173.793H31.0342V180H37.2411V173.793Z" fill="black"/>
<path d="M43.4481 173.793H37.2412V180H43.4481V173.793Z" fill="black"/>
<path d="M55.8622 173.793H49.6553V180H55.8622V173.793Z" fill="black"/>
<path d="M68.2762 173.793H62.0693V180H68.2762V173.793Z" fill="black"/>
<path d="M74.4823 173.793H68.2754V180H74.4823V173.793Z" fill="black"/>
<path d="M105.517 173.793H99.3105V180H105.517V173.793Z" fill="black"/>
<path d="M111.724 173.793H105.518V180H111.724V173.793Z" fill="black"/>
<path d="M124.139 173.793H117.932V180H124.139V173.793Z" fill="black"/>
<path d="M136.552 173.793H130.345V180H136.552V173.793Z" fill="black"/>
<path d="M142.759 173.793H136.552V180H142.759V173.793Z" fill="black"/>
<path d="M148.966 173.793H142.759V180H148.966V173.793Z" fill="black"/>
<path d="M155.173 173.793H148.966V180H155.173V173.793Z" fill="black"/>
<path d="M167.587 173.793H161.38V180H167.587V173.793Z" fill="black"/>
</svg>
