<svg width="130" height="130" viewBox="0 0 130 130" fill="none" xmlns="http://www.w3.org/2000/svg">
<path d="M4.48275 0H0V4.48284H4.48275V0Z" fill="black"/>
<path d="M8.96908 0H4.48633V4.48284H8.96908V0Z" fill="black"/>
<path d="M13.4456 0H8.96289V4.48284H13.4456V0Z" fill="black"/>
<path d="M17.93 0H13.4473V4.48284H17.93V0Z" fill="black"/>
<path d="M22.4163 0H17.9336V4.48284H22.4163V0Z" fill="black"/>
<path d="M26.8929 0H22.4102V4.48284H26.8929V0Z" fill="black"/>
<path d="M31.3812 0H26.8984V4.48284H31.3812V0Z" fill="black"/>
<path d="M44.8246 0H40.3418V4.48284H44.8246V0Z" fill="black"/>
<path d="M62.7581 0H58.2754V4.48284H62.7581V0Z" fill="black"/>
<path d="M67.2425 0H62.7598V4.48284H67.2425V0Z" fill="black"/>
<path d="M71.7249 0H67.2422V4.48284H71.7249V0Z" fill="black"/>
<path d="M76.2074 0H71.7246V4.48284H76.2074V0Z" fill="black"/>
<path d="M80.6917 0H76.209V4.48284H80.6917V0Z" fill="black"/>
<path d="M85.1722 0H80.6895V4.48284H85.1722V0Z" fill="black"/>
<path d="M89.6566 0H85.1738V4.48284H89.6566V0Z" fill="black"/>
<path d="M94.139 0H89.6562V4.48284H94.139V0Z" fill="black"/>
<path d="M103.106 0H98.623V4.48284H103.106V0Z" fill="black"/>
<path d="M107.586 0H103.104V4.48284H107.586V0Z" fill="black"/>
<path d="M112.071 0H107.588V4.48284H112.071V0Z" fill="black"/>
<path d="M116.549 0H112.066V4.48284H116.549V0Z" fill="black"/>
<path d="M121.035 0H116.553V4.48284H121.035V0Z" fill="black"/>
<path d="M125.518 0H121.035V4.48284H125.518V0Z" fill="black"/>
<path d="M130 0H125.518V4.48284H130V0Z" fill="black"/>
<path d="M4.48275 4.48145H0V8.96429H4.48275V4.48145Z" fill="black"/>
<path d="M31.3812 4.48145H26.8984V8.96429H31.3812V4.48145Z" fill="black"/>
<path d="M40.346 4.48145H35.8633V8.96429H40.346V4.48145Z" fill="black"/>
<path d="M44.8246 4.48145H40.3418V8.96429H44.8246V4.48145Z" fill="black"/>
<path d="M53.7933 4.48145H49.3105V8.96429H53.7933V4.48145Z" fill="black"/>
<path d="M58.2738 4.48145H53.791V8.96429H58.2738V4.48145Z" fill="black"/>
<path d="M71.7249 4.48145H67.2422V8.96429H71.7249V4.48145Z" fill="black"/>
<path d="M80.6917 4.48145H76.209V8.96429H80.6917V4.48145Z" fill="black"/>
<path d="M94.139 4.48145H89.6562V8.96429H94.139V4.48145Z" fill="black"/>
<path d="M103.106 4.48145H98.623V8.96429H103.106V4.48145Z" fill="black"/>
<path d="M130 4.48145H125.518V8.96429H130V4.48145Z" fill="black"/>
<path d="M4.48275 8.9668H0V13.4496H4.48275V8.9668Z" fill="black"/>
<path d="M13.4456 8.96875H8.96289V13.4516H13.4456V8.96875Z" fill="black"/>
<path d="M17.93 8.96875H13.4473V13.4516H17.93V8.96875Z" fill="black"/>
<path d="M22.4163 8.96875H17.9336V13.4516H22.4163V8.96875Z" fill="black"/>
<path d="M31.3812 8.96875H26.8984V13.4516H31.3812V8.96875Z" fill="black"/>
<path d="M44.8246 8.9668H40.3418V13.4496H44.8246V8.9668Z" fill="black"/>
<path d="M49.3109 8.9668H44.8281V13.4496H49.3109V8.9668Z" fill="black"/>
<path d="M53.7933 8.9668H49.3105V13.4496H53.7933V8.9668Z" fill="black"/>
<path d="M67.2425 8.9668H62.7598V13.4496H67.2425V8.9668Z" fill="black"/>
<path d="M76.2074 8.9668H71.7246V13.4496H76.2074V8.9668Z" fill="black"/>
<path d="M85.1722 8.9668H80.6895V13.4496H85.1722V8.9668Z" fill="black"/>
<path d="M103.106 8.9668H98.623V13.4496H103.106V8.9668Z" fill="black"/>
<path d="M112.071 8.9668H107.588V13.4496H112.071V8.9668Z" fill="black"/>
<path d="M116.549 8.9668H112.066V13.4496H116.549V8.9668Z" fill="black"/>
<path d="M121.035 8.9668H116.553V13.4496H121.035V8.9668Z" fill="black"/>
<path d="M130 8.9668H125.518V13.4496H130V8.9668Z" fill="black"/>
<path d="M4.48275 13.4492H0V17.9321H4.48275V13.4492Z" fill="black"/>
<path d="M13.4456 13.4492H8.96289V17.9321H13.4456V13.4492Z" fill="black"/>
<path d="M17.93 13.4492H13.4473V17.9321H17.93V13.4492Z" fill="black"/>
<path d="M22.4163 13.4492H17.9336V17.9321H22.4163V13.4492Z" fill="black"/>
<path d="M31.3812 13.4492H26.8984V17.9321H31.3812V13.4492Z" fill="black"/>
<path d="M40.346 13.4482H35.8633V17.9311H40.346V13.4482Z" fill="black"/>
<path d="M44.8246 13.4482H40.3418V17.9311H44.8246V13.4482Z" fill="black"/>
<path d="M53.7933 13.4482H49.3105V17.9311H53.7933V13.4482Z" fill="black"/>
<path d="M67.2425 13.4482H62.7598V17.9311H67.2425V13.4482Z" fill="black"/>
<path d="M80.6917 13.4482H76.209V17.9311H80.6917V13.4482Z" fill="black"/>
<path d="M89.6566 13.4482H85.1738V17.9311H89.6566V13.4482Z" fill="black"/>
<path d="M103.106 13.4482H98.623V17.9311H103.106V13.4482Z" fill="black"/>
<path d="M112.071 13.4482H107.588V17.9311H112.071V13.4482Z" fill="black"/>
<path d="M116.549 13.4482H112.066V17.9311H116.549V13.4482Z" fill="black"/>
<path d="M121.035 13.4482H116.553V17.9311H121.035V13.4482Z" fill="black"/>
<path d="M130 13.4482H125.518V17.9311H130V13.4482Z" fill="black"/>
<path d="M4.48275 17.9326H0V22.4155H4.48275V17.9326Z" fill="black"/>
<path d="M13.4456 17.9326H8.96289V22.4155H13.4456V17.9326Z" fill="black"/>
<path d="M17.93 17.9326H13.4473V22.4155H17.93V17.9326Z" fill="black"/>
<path d="M22.4163 17.9326H17.9336V22.4155H22.4163V17.9326Z" fill="black"/>
<path d="M31.3812 17.9326H26.8984V22.4155H31.3812V17.9326Z" fill="black"/>
<path d="M49.3109 17.9326H44.8281V22.4155H49.3109V17.9326Z" fill="black"/>
<path d="M58.2738 17.9326H53.791V22.4155H58.2738V17.9326Z" fill="black"/>
<path d="M71.7249 17.9326H67.2422V22.4155H71.7249V17.9326Z" fill="black"/>
<path d="M76.2074 17.9326H71.7246V22.4155H76.2074V17.9326Z" fill="black"/>
<path d="M80.6917 17.9326H76.209V22.4155H80.6917V17.9326Z" fill="black"/>
<path d="M85.1722 17.9326H80.6895V22.4155H85.1722V17.9326Z" fill="black"/>
<path d="M89.6566 17.9326H85.1738V22.4155H89.6566V17.9326Z" fill="black"/>
<path d="M94.139 17.9326H89.6562V22.4155H94.139V17.9326Z" fill="black"/>
<path d="M103.106 17.9326H98.623V22.4155H103.106V17.9326Z" fill="black"/>
<path d="M112.071 17.9326H107.588V22.4155H112.071V17.9326Z" fill="black"/>
<path d="M116.549 17.9326H112.066V22.4155H116.549V17.9326Z" fill="black"/>
<path d="M121.035 17.9326H116.553V22.4155H121.035V17.9326Z" fill="black"/>
<path d="M130 17.9326H125.518V22.4155H130V17.9326Z" fill="black"/>
<path d="M4.48275 22.415H0V26.8979H4.48275V22.415Z" fill="black"/>
<path d="M31.3812 22.415H26.8984V26.8979H31.3812V22.415Z" fill="black"/>
<path d="M40.346 22.415H35.8633V26.8979H40.346V22.415Z" fill="black"/>
<path d="M49.3109 22.415H44.8281V26.8979H49.3109V22.415Z" fill="black"/>
<path d="M62.7581 22.415H58.2754V26.8979H62.7581V22.415Z" fill="black"/>
<path d="M71.7249 22.415H67.2422V26.8979H71.7249V22.415Z" fill="black"/>
<path d="M80.6917 22.415H76.209V26.8979H80.6917V22.415Z" fill="black"/>
<path d="M85.1722 22.415H80.6895V26.8979H85.1722V22.415Z" fill="black"/>
<path d="M103.106 22.415H98.623V26.8979H103.106V22.415Z" fill="black"/>
<path d="M130 22.415H125.518V26.8979H130V22.415Z" fill="black"/>
<path d="M4.48275 26.8965H0V31.3793H4.48275V26.8965Z" fill="black"/>
<path d="M8.96908 26.8965H4.48633V31.3793H8.96908V26.8965Z" fill="black"/>
<path d="M13.4456 26.8965H8.96289V31.3793H13.4456V26.8965Z" fill="black"/>
<path d="M17.93 26.8965H13.4473V31.3793H17.93V26.8965Z" fill="black"/>
<path d="M22.4163 26.8965H17.9336V31.3793H22.4163V26.8965Z" fill="black"/>
<path d="M26.8929 26.8965H22.4102V31.3793H26.8929V26.8965Z" fill="black"/>
<path d="M31.3812 26.8965H26.8984V31.3793H31.3812V26.8965Z" fill="black"/>
<path d="M40.346 26.8965H35.8633V31.3793H40.346V26.8965Z" fill="black"/>
<path d="M49.3109 26.8965H44.8281V31.3793H49.3109V26.8965Z" fill="black"/>
<path d="M58.2738 26.8965H53.791V31.3793H58.2738V26.8965Z" fill="black"/>
<path d="M67.2425 26.8965H62.7598V31.3793H67.2425V26.8965Z" fill="black"/>
<path d="M76.2074 26.8965H71.7246V31.3793H76.2074V26.8965Z" fill="black"/>
<path d="M85.1722 26.8965H80.6895V31.3793H85.1722V26.8965Z" fill="black"/>
<path d="M94.139 26.8965H89.6562V31.3793H94.139V26.8965Z" fill="black"/>
<path d="M103.106 26.8965H98.623V31.3793H103.106V26.8965Z" fill="black"/>
<path d="M107.586 26.8965H103.104V31.3793H107.586V26.8965Z" fill="black"/>
<path d="M112.071 26.8965H107.588V31.3793H112.071V26.8965Z" fill="black"/>
<path d="M116.549 26.8965H112.066V31.3793H116.549V26.8965Z" fill="black"/>
<path d="M121.035 26.8965H116.553V31.3793H121.035V26.8965Z" fill="black"/>
<path d="M125.518 26.8965H121.035V31.3793H125.518V26.8965Z" fill="black"/>
<path d="M130 26.8965H125.518V31.3793H130V26.8965Z" fill="black"/>
<path d="M58.2738 31.3809H53.791V35.8637H58.2738V31.3809Z" fill="black"/>
<path d="M67.2425 31.3809H62.7598V35.8637H67.2425V31.3809Z" fill="black"/>
<path d="M71.7249 31.3809H67.2422V35.8637H71.7249V31.3809Z" fill="black"/>
<path d="M76.2074 31.3809H71.7246V35.8637H76.2074V31.3809Z" fill="black"/>
<path d="M94.139 31.3809H89.6562V35.8637H94.139V31.3809Z" fill="black"/>
<path d="M4.48275 35.8623H0V40.3451H4.48275V35.8623Z" fill="black"/>
<path d="M8.96908 35.8623H4.48633V40.3451H8.96908V35.8623Z" fill="black"/>
<path d="M13.4456 35.8623H8.96289V40.3451H13.4456V35.8623Z" fill="black"/>
<path d="M17.93 35.8623H13.4473V40.3451H17.93V35.8623Z" fill="black"/>
<path d="M22.4163 35.8623H17.9336V40.3451H22.4163V35.8623Z" fill="black"/>
<path d="M31.3812 35.8623H26.8984V40.3451H31.3812V35.8623Z" fill="black"/>
<path d="M35.8597 35.8623H31.377V40.3451H35.8597V35.8623Z" fill="black"/>
<path d="M40.346 35.8623H35.8633V40.3451H40.346V35.8623Z" fill="black"/>
<path d="M44.8246 35.8623H40.3418V40.3451H44.8246V35.8623Z" fill="black"/>
<path d="M49.3109 35.8623H44.8281V40.3451H49.3109V35.8623Z" fill="black"/>
<path d="M58.2738 35.8623H53.791V40.3451H58.2738V35.8623Z" fill="black"/>
<path d="M62.7581 35.8623H58.2754V40.3451H62.7581V35.8623Z" fill="black"/>
<path d="M67.2425 35.8623H62.7598V40.3451H67.2425V35.8623Z" fill="black"/>
<path d="M71.7249 35.8623H67.2422V40.3451H71.7249V35.8623Z" fill="black"/>
<path d="M80.6917 35.8623H76.209V40.3451H80.6917V35.8623Z" fill="black"/>
<path d="M85.1722 35.8623H80.6895V40.3451H85.1722V35.8623Z" fill="black"/>
<path d="M89.6566 35.8623H85.1738V40.3451H89.6566V35.8623Z" fill="black"/>
<path d="M98.6195 35.8623H94.1367V40.3451H98.6195V35.8623Z" fill="black"/>
<path d="M107.586 35.8623H103.104V40.3451H107.586V35.8623Z" fill="black"/>
<path d="M116.549 35.8623H112.066V40.3451H116.549V35.8623Z" fill="black"/>
<path d="M125.518 35.8623H121.035V40.3451H125.518V35.8623Z" fill="black"/>
<path d="M4.48275 40.3428H0V44.8256H4.48275V40.3428Z" fill="black"/>
<path d="M8.96908 40.3428H4.48633V44.8256H8.96908V40.3428Z" fill="black"/>
<path d="M13.4456 40.3428H8.96289V44.8256H13.4456V40.3428Z" fill="black"/>
<path d="M17.93 40.3428H13.4473V44.8256H17.93V40.3428Z" fill="black"/>
<path d="M22.4163 40.3428H17.9336V44.8256H22.4163V40.3428Z" fill="black"/>
<path d="M44.8246 40.3428H40.3418V44.8256H44.8246V40.3428Z" fill="black"/>
<path d="M62.7581 40.3428H58.2754V44.8256H62.7581V40.3428Z" fill="black"/>
<path d="M71.7249 40.3428H67.2422V44.8256H71.7249V40.3428Z" fill="black"/>
<path d="M76.2074 40.3428H71.7246V44.8256H76.2074V40.3428Z" fill="black"/>
<path d="M80.6917 40.3428H76.209V44.8256H80.6917V40.3428Z" fill="black"/>
<path d="M85.1722 40.3428H80.6895V44.8256H85.1722V40.3428Z" fill="black"/>
<path d="M89.6566 40.3428H85.1738V44.8256H89.6566V40.3428Z" fill="black"/>
<path d="M94.139 40.3428H89.6562V44.8256H94.139V40.3428Z" fill="black"/>
<path d="M98.6195 40.3428H94.1367V44.8256H98.6195V40.3428Z" fill="black"/>
<path d="M103.106 40.3428H98.623V44.8256H103.106V40.3428Z" fill="black"/>
<path d="M112.071 40.3428H107.588V44.8256H112.071V40.3428Z" fill="black"/>
<path d="M130 40.3428H125.518V44.8256H130V40.3428Z" fill="black"/>
<path d="M8.96908 44.8301H4.48633V49.3129H8.96908V44.8301Z" fill="black"/>
<path d="M17.93 44.8301H13.4473V49.3129H17.93V44.8301Z" fill="black"/>
<path d="M31.3812 44.8301H26.8984V49.3129H31.3812V44.8301Z" fill="black"/>
<path d="M35.8597 44.8281H31.377V49.311H35.8597V44.8281Z" fill="black"/>
<path d="M44.8246 44.8281H40.3418V49.311H44.8246V44.8281Z" fill="black"/>
<path d="M53.7933 44.8281H49.3105V49.311H53.7933V44.8281Z" fill="black"/>
<path d="M58.2738 44.8281H53.791V49.311H58.2738V44.8281Z" fill="black"/>
<path d="M71.7249 44.8281H67.2422V49.311H71.7249V44.8281Z" fill="black"/>
<path d="M80.6917 44.8281H76.209V49.311H80.6917V44.8281Z" fill="black"/>
<path d="M94.139 44.8281H89.6562V49.311H94.139V44.8281Z" fill="black"/>
<path d="M103.106 44.8281H98.623V49.311H103.106V44.8281Z" fill="black"/>
<path d="M107.586 44.8281H103.104V49.311H107.586V44.8281Z" fill="black"/>
<path d="M112.071 44.8281H107.588V49.311H112.071V44.8281Z" fill="black"/>
<path d="M4.48275 49.3115H0V53.7944H4.48275V49.3115Z" fill="black"/>
<path d="M8.96908 49.3115H4.48633V53.7944H8.96908V49.3115Z" fill="black"/>
<path d="M35.8597 49.3096H31.377V53.7924H35.8597V49.3096Z" fill="black"/>
<path d="M44.8246 49.3096H40.3418V53.7924H44.8246V49.3096Z" fill="black"/>
<path d="M49.3109 49.3096H44.8281V53.7924H49.3109V49.3096Z" fill="black"/>
<path d="M53.7933 49.3096H49.3105V53.7924H53.7933V49.3096Z" fill="black"/>
<path d="M76.2074 49.3096H71.7246V53.7924H76.2074V49.3096Z" fill="black"/>
<path d="M89.6566 49.3096H85.1738V53.7924H89.6566V49.3096Z" fill="black"/>
<path d="M94.139 49.3096H89.6562V53.7924H94.139V49.3096Z" fill="black"/>
<path d="M107.586 49.3096H103.104V53.7924H107.586V49.3096Z" fill="black"/>
<path d="M112.071 49.3096H107.588V53.7924H112.071V49.3096Z" fill="black"/>
<path d="M116.549 49.3096H112.066V53.7924H116.549V49.3096Z" fill="black"/>
<path d="M125.518 49.3096H121.035V53.7924H125.518V49.3096Z" fill="black"/>
<path d="M8.96908 53.7949H4.48633V58.2778H8.96908V53.7949Z" fill="black"/>
<path d="M13.4456 53.7949H8.96289V58.2778H13.4456V53.7949Z" fill="black"/>
<path d="M22.4163 53.7949H17.9336V58.2778H22.4163V53.7949Z" fill="black"/>
<path d="M26.8929 53.7949H22.4102V58.2778H26.8929V53.7949Z" fill="black"/>
<path d="M31.3812 53.7949H26.8984V58.2778H31.3812V53.7949Z" fill="black"/>
<path d="M35.8597 53.7949H31.377V58.2778H35.8597V53.7949Z" fill="black"/>
<path d="M44.8246 53.7949H40.3418V58.2778H44.8246V53.7949Z" fill="black"/>
<path d="M53.7933 53.7949H49.3105V58.2778H53.7933V53.7949Z" fill="black"/>
<path d="M67.2425 53.7949H62.7598V58.2778H67.2425V53.7949Z" fill="black"/>
<path d="M71.7249 53.7949H67.2422V58.2778H71.7249V53.7949Z" fill="black"/>
<path d="M80.6917 53.7949H76.209V58.2778H80.6917V53.7949Z" fill="black"/>
<path d="M85.1722 53.7949H80.6895V58.2778H85.1722V53.7949Z" fill="black"/>
<path d="M89.6566 53.7949H85.1738V58.2778H89.6566V53.7949Z" fill="black"/>
<path d="M116.549 53.7949H112.066V58.2778H116.549V53.7949Z" fill="black"/>
<path d="M121.035 53.7949H116.553V58.2778H121.035V53.7949Z" fill="black"/>
<path d="M4.48275 58.2783H0V62.7612H4.48275V58.2783Z" fill="black"/>
<path d="M22.4163 58.2783H17.9336V62.7612H22.4163V58.2783Z" fill="black"/>
<path d="M26.8929 58.2783H22.4102V62.7612H26.8929V58.2783Z" fill="black"/>
<path d="M35.8597 58.2783H31.377V62.7612H35.8597V58.2783Z" fill="black"/>
<path d="M44.8246 58.2783H40.3418V62.7612H44.8246V58.2783Z" fill="black"/>
<path d="M49.3109 58.2783H44.8281V62.7612H49.3109V58.2783Z" fill="black"/>
<path d="M58.2738 58.2783H53.791V62.7612H58.2738V58.2783Z" fill="black"/>
<path d="M67.2425 58.2783H62.7598V62.7612H67.2425V58.2783Z" fill="black"/>
<path d="M76.2074 58.2783H71.7246V62.7612H76.2074V58.2783Z" fill="black"/>
<path d="M80.6917 58.2783H76.209V62.7612H80.6917V58.2783Z" fill="black"/>
<path d="M85.1722 58.2783H80.6895V62.7612H85.1722V58.2783Z" fill="black"/>
<path d="M89.6566 58.2783H85.1738V62.7612H89.6566V58.2783Z" fill="black"/>
<path d="M103.106 58.2783H98.623V62.7612H103.106V58.2783Z" fill="black"/>
<path d="M107.586 58.2783H103.104V62.7612H107.586V58.2783Z" fill="black"/>
<path d="M112.071 58.2783H107.588V62.7612H112.071V58.2783Z" fill="black"/>
<path d="M130 58.2783H125.518V62.7612H130V58.2783Z" fill="black"/>
<path d="M13.4456 62.7588H8.96289V67.2416H13.4456V62.7588Z" fill="black"/>
<path d="M26.8929 62.7588H22.4102V67.2416H26.8929V62.7588Z" fill="black"/>
<path d="M31.3812 62.7588H26.8984V67.2416H31.3812V62.7588Z" fill="black"/>
<path d="M40.346 62.7588H35.8633V67.2416H40.346V62.7588Z" fill="black"/>
<path d="M44.8246 62.7588H40.3418V67.2416H44.8246V62.7588Z" fill="black"/>
<path d="M49.3109 62.7588H44.8281V67.2416H49.3109V62.7588Z" fill="black"/>
<path d="M62.7581 62.7588H58.2754V67.2416H62.7581V62.7588Z" fill="black"/>
<path d="M71.7249 62.7588H67.2422V67.2416H71.7249V62.7588Z" fill="black"/>
<path d="M94.139 62.7588H89.6562V67.2416H94.139V62.7588Z" fill="black"/>
<path d="M98.6195 62.7588H94.1367V67.2416H98.6195V62.7588Z" fill="black"/>
<path d="M107.586 62.7588H103.104V67.2416H107.586V62.7588Z" fill="black"/>
<path d="M112.071 62.7588H107.588V67.2416H112.071V62.7588Z" fill="black"/>
<path d="M116.549 62.7588H112.066V67.2416H116.549V62.7588Z" fill="black"/>
<path d="M121.035 62.7588H116.553V67.2416H121.035V62.7588Z" fill="black"/>
<path d="M4.48275 67.2441H0V71.727H4.48275V67.2441Z" fill="black"/>
<path d="M8.96908 67.2441H4.48633V71.727H8.96908V67.2441Z" fill="black"/>
<path d="M13.4456 67.2441H8.96289V71.727H13.4456V67.2441Z" fill="black"/>
<path d="M17.93 67.2441H13.4473V71.727H17.93V67.2441Z" fill="black"/>
<path d="M22.4163 67.2441H17.9336V71.727H22.4163V67.2441Z" fill="black"/>
<path d="M26.8929 67.2441H22.4102V71.727H26.8929V67.2441Z" fill="black"/>
<path d="M35.8597 67.2441H31.377V71.727H35.8597V67.2441Z" fill="black"/>
<path d="M40.346 67.2441H35.8633V71.727H40.346V67.2441Z" fill="black"/>
<path d="M44.8246 67.2441H40.3418V71.727H44.8246V67.2441Z" fill="black"/>
<path d="M58.2738 67.2441H53.791V71.727H58.2738V67.2441Z" fill="black"/>
<path d="M94.139 67.2441H89.6562V71.727H94.139V67.2441Z" fill="black"/>
<path d="M107.586 67.2441H103.104V71.727H107.586V67.2441Z" fill="black"/>
<path d="M112.071 67.2441H107.588V71.727H112.071V67.2441Z" fill="black"/>
<path d="M125.518 67.2441H121.035V71.727H125.518V67.2441Z" fill="black"/>
<path d="M4.48275 71.7256H0V76.2084H4.48275V71.7256Z" fill="black"/>
<path d="M13.4456 71.7256H8.96289V76.2084H13.4456V71.7256Z" fill="black"/>
<path d="M17.93 71.7256H13.4473V76.2084H17.93V71.7256Z" fill="black"/>
<path d="M22.4163 71.7256H17.9336V76.2084H22.4163V71.7256Z" fill="black"/>
<path d="M26.8929 71.7256H22.4102V76.2084H26.8929V71.7256Z" fill="black"/>
<path d="M31.3812 71.7256H26.8984V76.2084H31.3812V71.7256Z" fill="black"/>
<path d="M35.8597 71.7256H31.377V76.2084H35.8597V71.7256Z" fill="black"/>
<path d="M44.8246 71.7256H40.3418V76.2084H44.8246V71.7256Z" fill="black"/>
<path d="M49.3109 71.7256H44.8281V76.2084H49.3109V71.7256Z" fill="black"/>
<path d="M58.2738 71.7256H53.791V76.2084H58.2738V71.7256Z" fill="black"/>
<path d="M62.7581 71.7256H58.2754V76.2084H62.7581V71.7256Z" fill="black"/>
<path d="M67.2425 71.7256H62.7598V76.2084H67.2425V71.7256Z" fill="black"/>
<path d="M71.7249 71.7256H67.2422V76.2084H71.7249V71.7256Z" fill="black"/>
<path d="M76.2074 71.7256H71.7246V76.2084H76.2074V71.7256Z" fill="black"/>
<path d="M80.6917 71.7256H76.209V76.2084H80.6917V71.7256Z" fill="black"/>
<path d="M85.1722 71.7256H80.6895V76.2084H85.1722V71.7256Z" fill="black"/>
<path d="M89.6566 71.7256H85.1738V76.2084H89.6566V71.7256Z" fill="black"/>
<path d="M116.549 71.7256H112.066V76.2084H116.549V71.7256Z" fill="black"/>
<path d="M121.035 71.7256H116.553V76.2084H121.035V71.7256Z" fill="black"/>
<path d="M4.48275 76.207H0V80.6899H4.48275V76.207Z" fill="black"/>
<path d="M13.4456 76.207H8.96289V80.6899H13.4456V76.207Z" fill="black"/>
<path d="M17.93 76.207H13.4473V80.6899H17.93V76.207Z" fill="black"/>
<path d="M26.8929 76.207H22.4102V80.6899H26.8929V76.207Z" fill="black"/>
<path d="M40.346 76.207H35.8633V80.6899H40.346V76.207Z" fill="black"/>
<path d="M44.8246 76.207H40.3418V80.6899H44.8246V76.207Z" fill="black"/>
<path d="M89.6566 76.207H85.1738V80.6899H89.6566V76.207Z" fill="black"/>
<path d="M94.139 76.207H89.6562V80.6899H94.139V76.207Z" fill="black"/>
<path d="M103.106 76.207H98.623V80.6899H103.106V76.207Z" fill="black"/>
<path d="M107.586 76.207H103.104V80.6899H107.586V76.207Z" fill="black"/>
<path d="M112.071 76.207H107.588V80.6899H112.071V76.207Z" fill="black"/>
<path d="M121.035 76.207H116.553V80.6899H121.035V76.207Z" fill="black"/>
<path d="M130 76.207H125.518V80.6899H130V76.207Z" fill="black"/>
<path d="M4.48275 80.6904H0V85.1733H4.48275V80.6904Z" fill="black"/>
<path d="M13.4456 80.6904H8.96289V85.1733H13.4456V80.6904Z" fill="black"/>
<path d="M17.93 80.6904H13.4473V85.1733H17.93V80.6904Z" fill="black"/>
<path d="M22.4163 80.6904H17.9336V85.1733H22.4163V80.6904Z" fill="black"/>
<path d="M26.8929 80.6904H22.4102V85.1733H26.8929V80.6904Z" fill="black"/>
<path d="M31.3812 80.6904H26.8984V85.1733H31.3812V80.6904Z" fill="black"/>
<path d="M40.346 80.6904H35.8633V85.1733H40.346V80.6904Z" fill="black"/>
<path d="M44.8246 80.6904H40.3418V85.1733H44.8246V80.6904Z" fill="black"/>
<path d="M53.7933 80.6904H49.3105V85.1733H53.7933V80.6904Z" fill="black"/>
<path d="M58.2738 80.6904H53.791V85.1733H58.2738V80.6904Z" fill="black"/>
<path d="M71.7249 80.6904H67.2422V85.1733H71.7249V80.6904Z" fill="black"/>
<path d="M80.6917 80.6904H76.209V85.1733H80.6917V80.6904Z" fill="black"/>
<path d="M85.1722 80.6904H80.6895V85.1733H85.1722V80.6904Z" fill="black"/>
<path d="M94.139 80.6904H89.6562V85.1733H94.139V80.6904Z" fill="black"/>
<path d="M98.6195 80.6904H94.1367V85.1733H98.6195V80.6904Z" fill="black"/>
<path d="M121.035 80.6904H116.553V85.1733H121.035V80.6904Z" fill="black"/>
<path d="M4.48275 85.1719H0V89.6547H4.48275V85.1719Z" fill="black"/>
<path d="M13.4456 85.1719H8.96289V89.6547H13.4456V85.1719Z" fill="black"/>
<path d="M22.4163 85.1719H17.9336V89.6547H22.4163V85.1719Z" fill="black"/>
<path d="M26.8929 85.1719H22.4102V89.6547H26.8929V85.1719Z" fill="black"/>
<path d="M40.346 85.1719H35.8633V89.6547H40.346V85.1719Z" fill="black"/>
<path d="M49.3109 85.1719H44.8281V89.6547H49.3109V85.1719Z" fill="black"/>
<path d="M53.7933 85.1719H49.3105V89.6547H53.7933V85.1719Z" fill="black"/>
<path d="M67.2425 85.1719H62.7598V89.6547H67.2425V85.1719Z" fill="black"/>
<path d="M85.1722 85.1719H80.6895V89.6547H85.1722V85.1719Z" fill="black"/>
<path d="M89.6566 85.1719H85.1738V89.6547H89.6566V85.1719Z" fill="black"/>
<path d="M94.139 85.1719H89.6562V89.6547H94.139V85.1719Z" fill="black"/>
<path d="M98.6195 85.1719H94.1367V89.6547H98.6195V85.1719Z" fill="black"/>
<path d="M103.106 85.1719H98.623V89.6547H103.106V85.1719Z" fill="black"/>
<path d="M112.071 85.1719H107.588V89.6547H112.071V85.1719Z" fill="black"/>
<path d="M125.518 85.1719H121.035V89.6547H125.518V85.1719Z" fill="black"/>
<path d="M4.48275 89.6543H0V94.1371H4.48275V89.6543Z" fill="black"/>
<path d="M13.4456 89.6543H8.96289V94.1371H13.4456V89.6543Z" fill="black"/>
<path d="M17.93 89.6543H13.4473V94.1371H17.93V89.6543Z" fill="black"/>
<path d="M26.8929 89.6543H22.4102V94.1371H26.8929V89.6543Z" fill="black"/>
<path d="M31.3812 89.6543H26.8984V94.1371H31.3812V89.6543Z" fill="black"/>
<path d="M35.8597 89.6543H31.377V94.1371H35.8597V89.6543Z" fill="black"/>
<path d="M44.8246 89.6543H40.3418V94.1371H44.8246V89.6543Z" fill="black"/>
<path d="M49.3109 89.6543H44.8281V94.1371H49.3109V89.6543Z" fill="black"/>
<path d="M53.7933 89.6543H49.3105V94.1371H53.7933V89.6543Z" fill="black"/>
<path d="M71.7249 89.6543H67.2422V94.1371H71.7249V89.6543Z" fill="black"/>
<path d="M76.2074 89.6543H71.7246V94.1371H76.2074V89.6543Z" fill="black"/>
<path d="M89.6566 89.6543H85.1738V94.1371H89.6566V89.6543Z" fill="black"/>
<path d="M94.139 89.6543H89.6562V94.1371H94.139V89.6543Z" fill="black"/>
<path d="M98.6195 89.6543H94.1367V94.1371H98.6195V89.6543Z" fill="black"/>
<path d="M103.106 89.6543H98.623V94.1371H103.106V89.6543Z" fill="black"/>
<path d="M107.586 89.6543H103.104V94.1371H107.586V89.6543Z" fill="black"/>
<path d="M112.071 89.6543H107.588V94.1371H112.071V89.6543Z" fill="black"/>
<path d="M121.035 89.6543H116.553V94.1371H121.035V89.6543Z" fill="black"/>
<path d="M125.518 89.6543H121.035V94.1371H125.518V89.6543Z" fill="black"/>
<path d="M130 89.6543H125.518V94.1371H130V89.6543Z" fill="black"/>
<path d="M40.346 94.1377H35.8633V98.6205H40.346V94.1377Z" fill="black"/>
<path d="M44.8246 94.1377H40.3418V98.6205H44.8246V94.1377Z" fill="black"/>
<path d="M49.3109 94.1377H44.8281V98.6205H49.3109V94.1377Z" fill="black"/>
<path d="M58.2738 94.1377H53.791V98.6205H58.2738V94.1377Z" fill="black"/>
<path d="M62.7581 94.1377H58.2754V98.6205H62.7581V94.1377Z" fill="black"/>
<path d="M76.2074 94.1377H71.7246V98.6205H76.2074V94.1377Z" fill="black"/>
<path d="M80.6917 94.1377H76.209V98.6205H80.6917V94.1377Z" fill="black"/>
<path d="M94.139 94.1377H89.6562V98.6205H94.139V94.1377Z" fill="black"/>
<path d="M112.071 94.1377H107.588V98.6205H112.071V94.1377Z" fill="black"/>
<path d="M116.549 94.1377H112.066V98.6205H116.549V94.1377Z" fill="black"/>
<path d="M121.035 94.1377H116.553V98.6205H121.035V94.1377Z" fill="black"/>
<path d="M125.518 94.1377H121.035V98.6205H125.518V94.1377Z" fill="black"/>
<path d="M130 94.1377H125.518V98.6205H130V94.1377Z" fill="black"/>
<path d="M4.48275 98.6211H0V103.104H4.48275V98.6211Z" fill="black"/>
<path d="M8.96908 98.6211H4.48633V103.104H8.96908V98.6211Z" fill="black"/>
<path d="M13.4456 98.6211H8.96289V103.104H13.4456V98.6211Z" fill="black"/>
<path d="M17.93 98.6211H13.4473V103.104H17.93V98.6211Z" fill="black"/>
<path d="M22.4163 98.6211H17.9336V103.104H22.4163V98.6211Z" fill="black"/>
<path d="M26.8929 98.6211H22.4102V103.104H26.8929V98.6211Z" fill="black"/>
<path d="M31.3812 98.6211H26.8984V103.104H31.3812V98.6211Z" fill="black"/>
<path d="M40.346 98.6191H35.8633V103.102H40.346V98.6191Z" fill="black"/>
<path d="M44.8246 98.6191H40.3418V103.102H44.8246V98.6191Z" fill="black"/>
<path d="M49.3109 98.6191H44.8281V103.102H49.3109V98.6191Z" fill="black"/>
<path d="M62.7581 98.6191H58.2754V103.102H62.7581V98.6191Z" fill="black"/>
<path d="M67.2425 98.6191H62.7598V103.102H67.2425V98.6191Z" fill="black"/>
<path d="M71.7249 98.6191H67.2422V103.102H71.7249V98.6191Z" fill="black"/>
<path d="M85.1722 98.6191H80.6895V103.102H85.1722V98.6191Z" fill="black"/>
<path d="M89.6566 98.6191H85.1738V103.102H89.6566V98.6191Z" fill="black"/>
<path d="M94.139 98.6191H89.6562V103.102H94.139V98.6191Z" fill="black"/>
<path d="M103.106 98.6191H98.623V103.102H103.106V98.6191Z" fill="black"/>
<path d="M112.071 98.6191H107.588V103.102H112.071V98.6191Z" fill="black"/>
<path d="M116.549 98.6191H112.066V103.102H116.549V98.6191Z" fill="black"/>
<path d="M121.035 98.6191H116.553V103.102H121.035V98.6191Z" fill="black"/>
<path d="M4.48275 103.104H0V107.587H4.48275V103.104Z" fill="black"/>
<path d="M31.3812 103.104H26.8984V107.587H31.3812V103.104Z" fill="black"/>
<path d="M58.2738 103.104H53.791V107.587H58.2738V103.104Z" fill="black"/>
<path d="M62.7581 103.104H58.2754V107.587H62.7581V103.104Z" fill="black"/>
<path d="M71.7249 103.104H67.2422V107.587H71.7249V103.104Z" fill="black"/>
<path d="M89.6566 103.104H85.1738V107.587H89.6566V103.104Z" fill="black"/>
<path d="M94.139 103.104H89.6562V107.587H94.139V103.104Z" fill="black"/>
<path d="M112.071 103.104H107.588V107.587H112.071V103.104Z" fill="black"/>
<path d="M4.48275 107.59H0V112.073H4.48275V107.59Z" fill="black"/>
<path d="M13.4456 107.59H8.96289V112.073H13.4456V107.59Z" fill="black"/>
<path d="M17.93 107.59H13.4473V112.073H17.93V107.59Z" fill="black"/>
<path d="M22.4163 107.59H17.9336V112.073H22.4163V107.59Z" fill="black"/>
<path d="M31.3812 107.59H26.8984V112.073H31.3812V107.59Z" fill="black"/>
<path d="M40.346 107.59H35.8633V112.073H40.346V107.59Z" fill="black"/>
<path d="M58.2738 107.59H53.791V112.073H58.2738V107.59Z" fill="black"/>
<path d="M67.2425 107.59H62.7598V112.073H67.2425V107.59Z" fill="black"/>
<path d="M76.2074 107.59H71.7246V112.073H76.2074V107.59Z" fill="black"/>
<path d="M80.6917 107.59H76.209V112.073H80.6917V107.59Z" fill="black"/>
<path d="M94.139 107.59H89.6562V112.073H94.139V107.59Z" fill="black"/>
<path d="M98.6195 107.59H94.1367V112.073H98.6195V107.59Z" fill="black"/>
<path d="M103.106 107.59H98.623V112.073H103.106V107.59Z" fill="black"/>
<path d="M107.586 107.59H103.104V112.073H107.586V107.59Z" fill="black"/>
<path d="M112.071 107.59H107.588V112.073H112.071V107.59Z" fill="black"/>
<path d="M121.035 107.59H116.553V112.073H121.035V107.59Z" fill="black"/>
<path d="M125.518 107.59H121.035V112.073H125.518V107.59Z" fill="black"/>
<path d="M130 107.59H125.518V112.073H130V107.59Z" fill="black"/>
<path d="M4.48275 112.072H0V116.555H4.48275V112.072Z" fill="black"/>
<path d="M13.4456 112.072H8.96289V116.555H13.4456V112.072Z" fill="black"/>
<path d="M17.93 112.072H13.4473V116.555H17.93V112.072Z" fill="black"/>
<path d="M22.4163 112.072H17.9336V116.555H22.4163V112.072Z" fill="black"/>
<path d="M31.3812 112.072H26.8984V116.555H31.3812V112.072Z" fill="black"/>
<path d="M40.346 112.072H35.8633V116.555H40.346V112.072Z" fill="black"/>
<path d="M44.8246 112.072H40.3418V116.555H44.8246V112.072Z" fill="black"/>
<path d="M76.2074 112.072H71.7246V116.555H76.2074V112.072Z" fill="black"/>
<path d="M89.6566 112.072H85.1738V116.555H89.6566V112.072Z" fill="black"/>
<path d="M94.139 112.072H89.6562V116.555H94.139V112.072Z" fill="black"/>
<path d="M98.6195 112.072H94.1367V116.555H98.6195V112.072Z" fill="black"/>
<path d="M107.586 112.072H103.104V116.555H107.586V112.072Z" fill="black"/>
<path d="M116.549 112.072H112.066V116.555H116.549V112.072Z" fill="black"/>
<path d="M121.035 112.072H116.553V116.555H121.035V112.072Z" fill="black"/>
<path d="M125.518 112.072H121.035V116.555H125.518V112.072Z" fill="black"/>
<path d="M130 112.072H125.518V116.555H130V112.072Z" fill="black"/>
<path d="M4.48275 116.555H0V121.038H4.48275V116.555Z" fill="black"/>
<path d="M13.4456 116.555H8.96289V121.038H13.4456V116.555Z" fill="black"/>
<path d="M17.93 116.555H13.4473V121.038H17.93V116.555Z" fill="black"/>
<path d="M22.4163 116.555H17.9336V121.038H22.4163V116.555Z" fill="black"/>
<path d="M31.3812 116.555H26.8984V121.038H31.3812V116.555Z" fill="black"/>
<path d="M40.346 116.555H35.8633V121.038H40.346V116.555Z" fill="black"/>
<path d="M44.8246 116.555H40.3418V121.038H44.8246V116.555Z" fill="black"/>
<path d="M53.7933 116.555H49.3105V121.038H53.7933V116.555Z" fill="black"/>
<path d="M58.2738 116.555H53.791V121.038H58.2738V116.555Z" fill="black"/>
<path d="M71.7249 116.555H67.2422V121.038H71.7249V116.555Z" fill="black"/>
<path d="M80.6917 116.555H76.209V121.038H80.6917V116.555Z" fill="black"/>
<path d="M98.6195 116.555H94.1367V121.038H98.6195V116.555Z" fill="black"/>
<path d="M103.106 116.555H98.623V121.038H103.106V116.555Z" fill="black"/>
<path d="M107.586 116.555H103.104V121.038H107.586V116.555Z" fill="black"/>
<path d="M112.071 116.555H107.588V121.038H112.071V116.555Z" fill="black"/>
<path d="M116.549 116.555H112.066V121.038H116.549V116.555Z" fill="black"/>
<path d="M121.035 116.555H116.553V121.038H121.035V116.555Z" fill="black"/>
<path d="M125.518 116.555H121.035V121.038H125.518V116.555Z" fill="black"/>
<path d="M4.48275 121.036H0V125.519H4.48275V121.036Z" fill="black"/>
<path d="M31.3812 121.036H26.8984V125.519H31.3812V121.036Z" fill="black"/>
<path d="M40.346 121.036H35.8633V125.519H40.346V121.036Z" fill="black"/>
<path d="M49.3109 121.036H44.8281V125.519H49.3109V121.036Z" fill="black"/>
<path d="M53.7933 121.036H49.3105V125.519H53.7933V121.036Z" fill="black"/>
<path d="M67.2425 121.036H62.7598V125.519H67.2425V121.036Z" fill="black"/>
<path d="M94.139 121.036H89.6562V125.519H94.139V121.036Z" fill="black"/>
<path d="M103.106 121.036H98.623V125.519H103.106V121.036Z" fill="black"/>
<path d="M116.549 121.036H112.066V125.519H116.549V121.036Z" fill="black"/>
<path d="M125.518 121.036H121.035V125.519H125.518V121.036Z" fill="black"/>
<path d="M4.48275 125.518H0V130H4.48275V125.518Z" fill="black"/>
<path d="M8.96908 125.518H4.48633V130H8.96908V125.518Z" fill="black"/>
<path d="M13.4456 125.518H8.96289V130H13.4456V125.518Z" fill="black"/>
<path d="M17.93 125.518H13.4473V130H17.93V125.518Z" fill="black"/>
<path d="M22.4163 125.518H17.9336V130H22.4163V125.518Z" fill="black"/>
<path d="M26.8929 125.518H22.4102V130H26.8929V125.518Z" fill="black"/>
<path d="M31.3812 125.518H26.8984V130H31.3812V125.518Z" fill="black"/>
<path d="M40.346 125.518H35.8633V130H40.346V125.518Z" fill="black"/>
<path d="M49.3109 125.518H44.8281V130H49.3109V125.518Z" fill="black"/>
<path d="M53.7933 125.518H49.3105V130H53.7933V125.518Z" fill="black"/>
<path d="M76.2074 125.518H71.7246V130H76.2074V125.518Z" fill="black"/>
<path d="M80.6917 125.518H76.209V130H80.6917V125.518Z" fill="black"/>
<path d="M89.6566 125.518H85.1738V130H89.6566V125.518Z" fill="black"/>
<path d="M98.6195 125.518H94.1367V130H98.6195V125.518Z" fill="black"/>
<path d="M103.106 125.518H98.623V130H103.106V125.518Z" fill="black"/>
<path d="M107.586 125.518H103.104V130H107.586V125.518Z" fill="black"/>
<path d="M112.071 125.518H107.588V130H112.071V125.518Z" fill="black"/>
<path d="M121.035 125.518H116.553V130H121.035V125.518Z" fill="black"/>
</svg>
