<svg width="22" height="22" viewBox="0 0 22 22" fill="none" xmlns="http://www.w3.org/2000/svg">
<path fill-rule="evenodd" clip-rule="evenodd" d="M16.6697 2.83894C15.1484 1.30672 13.107 0.466143 10.993 0.501045C9.90736 0.497792 8.83188 0.719175 7.82876 1.15241C6.80379 1.59509 5.46205 2.46226 4.25368 4.03801C4.23412 4.06352 4.21563 4.0899 4.19826 4.11707C2.94642 6.07601 2.88963 7.68933 2.89049 8.70816V10.9069C2.8905 13.3687 2.27076 15.6104 0.789012 17.2766C0.496176 17.6059 0.418189 18.0849 0.590384 18.4966C0.76258 18.9083 1.15223 19.1744 1.5828 19.1744H8.56373C8.61768 19.8072 8.896 20.3964 9.34446 20.8266C9.7959 21.2597 10.3868 21.5 11 21.5C11.6133 21.5 12.2041 21.2597 12.6556 20.8266C13.1041 20.3964 13.3824 19.8072 13.4363 19.1744H20.4172C20.8478 19.1744 21.2374 18.9083 21.4096 18.4966C21.5818 18.0849 21.5038 17.6059 21.211 17.2766C19.7292 15.6104 19.1095 13.3688 19.1095 10.9069V8.70758C19.1095 8.70084 19.1094 8.6941 19.1093 8.68736C19.0714 6.47759 18.1939 4.37399 16.6697 2.83894Z" fill="#A4A9B0"/>
</svg>
