<svg width="43" height="23" viewBox="0 0 43 23" fill="none" xmlns="http://www.w3.org/2000/svg">
<path d="M36.6499 8.71277L36.6495 8.65528L36.6426 8.5982C36.1124 4.2382 32.0259 1 27.25 1C22.8011 1 18.9505 3.80987 18.0154 7.71891H17.7998V8.71891V16.9065C17.7998 17.9424 18.391 18.7848 19.1547 19.3287C19.9205 19.8741 20.9269 20.1801 21.9922 20.1801H32.5077C33.573 20.1801 34.5794 19.8741 35.3452 19.3287C36.1089 18.7848 36.7001 17.9424 36.7002 16.9065L36.7001 16.9003L36.6499 8.71277Z" fill="#EF5DA8" stroke="#F7F9FC" stroke-width="2"/>
<path d="M20.4849 8.71891C20.0254 4.94088 16.4402 2 12.0849 2C7.72964 2 4.14444 4.94088 3.68502 8.71891L3.63477 16.9065C3.63477 18.1623 5.06406 19.1802 6.82718 19.1802H18.5398C19.6418 19.1802 20.5351 18.544 20.5351 17.7592V8.71891H20.4849Z" fill="#EF5DA8"/>
<path d="M23.6782 9.09678C23.2188 5.45517 19.6336 2.62061 15.2783 2.62061C10.923 2.62061 7.33779 5.45525 6.87838 9.09678H6.82812V17.8105C6.82812 18.5669 7.72143 19.1802 8.82342 19.1802H21.7333C22.8352 19.1802 23.7286 18.5669 23.7286 17.8105V9.09678H23.6782Z" fill="#F178B6"/>
<path d="M31.6587 9.09678C31.1993 5.45517 27.6141 2.62061 23.2588 2.62061C18.9035 2.62061 15.3183 5.45525 14.8588 9.09678H14.8086V17.8105C14.8086 18.5669 15.7019 19.1802 16.8039 19.1802H29.7137C30.8157 19.1802 31.709 18.5669 31.709 17.8105V9.09678H31.6587Z" fill="#F178B6"/>
<path d="M27.6675 9.09678C27.2081 5.45517 23.6228 2.62061 19.2676 2.62061C14.9123 2.62061 11.3271 5.45525 10.8676 9.09678H10.8174V17.8105C10.8174 18.5669 11.7107 19.1802 12.8127 19.1802H25.7225C26.8245 19.1802 27.7178 18.5669 27.7178 17.8105V9.09678H27.6675Z" fill="#EF5DA8"/>
<path d="M23.7308 9.09678C23.5188 5.45517 21.8653 2.62061 19.8565 2.62061C17.8477 2.62061 16.1941 5.45525 15.9821 9.09678H15.959V17.8105C15.959 18.5669 16.371 19.1802 16.8792 19.1802H22.8336C23.3418 19.1802 23.7538 18.5669 23.7538 17.8105V9.09678H23.7308Z" fill="#F178B6"/>
<path d="M34.3535 15.1538C34.3412 15.1538 34.3291 15.1534 34.3167 15.1525C34.0257 15.1325 33.806 14.8804 33.8262 14.5894C34.3369 7.17224 32.2022 6.21988 32.1807 6.21117C32.1933 6.21627 32.2002 6.21785 32.2002 6.21785L32.5153 5.20978C32.8174 5.30421 35.4507 6.3717 34.8798 14.662C34.8606 14.9405 34.6286 15.1538 34.3535 15.1538Z" fill="#F178B6"/>
<path d="M19.1586 13.9815C19.9258 13.9815 20.5477 13.3596 20.5477 12.5924C20.5477 11.8253 19.9258 11.2034 19.1586 11.2034C18.3914 11.2034 17.7695 11.8253 17.7695 12.5924C17.7695 13.3596 18.3914 13.9815 19.1586 13.9815Z" fill="white" fill-opacity="0.6"/>
<path d="M8.96329 10.9002C9.73045 10.9002 10.3524 10.2782 10.3524 9.51108C10.3524 8.74392 9.73045 8.12201 8.96329 8.12201C8.19613 8.12201 7.57422 8.74392 7.57422 9.51108C7.57422 10.2782 8.19613 10.9002 8.96329 10.9002Z" fill="white" fill-opacity="0.6"/>
<path d="M13.4154 16.2086C14.1826 16.2086 14.8045 15.5867 14.8045 14.8196C14.8045 14.0524 14.1826 13.4305 13.4154 13.4305C12.6483 13.4305 12.0264 14.0524 12.0264 14.8196C12.0264 15.5867 12.6483 16.2086 13.4154 16.2086Z" fill="white" fill-opacity="0.6"/>
<path d="M34.3695 22.1114H4.63108C4.145 22.1114 3.75098 21.7174 3.75098 21.2313V19.6627H35.2496V21.2314C35.2496 21.7174 34.8556 22.1114 34.3695 22.1114Z" fill="#FCDFEE"/>
<path d="M4.59315 21.034H35.2496V19.6627H3.75098V21.1319C3.75098 21.6729 4.12801 22.1115 4.59315 22.1115V21.034Z" fill="#EF5DA8"/>
<path d="M38.1199 20.2601H0.880107C0.394024 20.2601 0 19.8661 0 19.38V19.1812C0 18.6951 0.394024 18.3011 0.880107 18.3011H38.1199C38.606 18.3011 39 18.6951 39 19.1812V19.38C39 19.8661 38.606 20.2601 38.1199 20.2601Z" fill="#FCDFEE"/>
</svg>
