<svg width="36" height="36" viewBox="0 0 36 36" fill="none" xmlns="http://www.w3.org/2000/svg">
<path d="M30.6906 18.3601L29.7415 18.6751L30.6906 18.36L25.7042 3.33847C25.5621 2.81626 25.307 2.33321 24.9114 1.93763C24.1147 1.14087 22.998 0.928417 21.879 1.02027C20.7544 1.11259 19.4829 1.51834 18.1586 2.14323C15.5019 3.39691 12.4271 5.63105 9.529 8.52918C6.63086 11.4273 4.39673 14.5021 3.14308 17.1588C2.5182 18.483 2.11245 19.7546 2.02015 20.8792C1.9283 21.9982 2.14076 23.1148 2.93751 23.9116L2.93752 23.9116C2.95033 23.9244 2.96323 23.9371 2.97622 23.9496L2.74602 24.1795L4.02822 24.6051C4.10929 24.6355 4.19165 24.6628 4.27511 24.6871L4.28493 24.6903L19.3572 29.6934L30.1503 33.276L30.1503 33.2761C31.4378 33.7034 32.712 33.3943 33.5518 32.5546C34.3915 31.7149 34.7006 30.4406 34.2732 29.1531L34.2732 29.1531L30.6906 18.3601Z" fill="#FFEA63" stroke="#F7F9FC" stroke-width="2"/>
<path d="M33.298 29.39C32.8961 29.4753 32.4471 29.455 31.9787 29.2995L21.1857 25.7169L6.11345 20.7138L6.11466 20.7127C5.73579 20.6097 5.41376 20.4327 5.15818 20.1772C4.29124 19.3102 4.32833 17.6793 5.094 15.6542C3.04173 19.0341 2.37648 21.9363 3.64454 23.2045C3.90012 23.46 4.22214 23.637 4.60101 23.74L4.5998 23.7411L19.672 28.7442L30.4651 32.3268C32.367 32.9581 33.9552 31.3699 33.3239 29.4681L33.298 29.39Z" fill="#FFD551"/>
<path d="M12.6203 30.2937C11.4709 30.2937 10.5391 29.3619 10.5391 28.2124V19.6982H14.7016V28.2124C14.7016 29.3619 13.7698 30.2937 12.6203 30.2937Z" fill="#FFEA63"/>
<path d="M22.0422 35.5914C20.8927 35.5914 19.9609 34.6596 19.9609 33.5102V24.9959H24.1235V33.5102C24.1235 34.6596 23.1917 35.5914 22.0422 35.5914Z" fill="#FFEA63"/>
<path d="M25.8299 33.1461H25.8297C24.8871 33.1461 24.123 32.382 24.123 31.4394V24.4573H27.5365V31.4394C27.5365 32.382 26.7725 33.1461 25.8299 33.1461Z" fill="#FFEA63"/>
<path d="M24.7852 3.7442C21.9597 3.63794 17.0488 6.43455 12.5065 10.9769C7.53353 15.9499 4.65246 21.3649 5.38294 24.0011L9.20695 25.2704C9.94182 22.4022 12.4935 18.4242 16.2236 14.6941C19.6812 11.2364 23.3514 8.7919 26.1538 7.8676L24.7852 3.7442Z" fill="#FFD551"/>
<path d="M4.59996 23.7411L6.75706 24.4572C7.10914 21.5633 9.80229 17.1045 13.9534 12.9534C18.1028 8.80395 22.5598 6.1114 25.4536 5.75751L24.7458 3.62531C24.6438 3.23607 24.4653 2.90557 24.2043 2.64462C22.1673 0.607627 15.9136 3.55871 10.2361 9.23617C4.55864 14.9136 1.60764 21.1674 3.64463 23.2045C3.90021 23.4601 4.22223 23.637 4.60117 23.74L4.59996 23.7411Z" fill="#DB9C2E"/>
<path d="M16.8754 22.8463C18.3384 22.8463 19.5243 21.6603 19.5243 20.1974C19.5243 18.7345 18.3384 17.5485 16.8754 17.5485C15.4125 17.5485 14.2266 18.7345 14.2266 20.1974C14.2266 21.6603 15.4125 22.8463 16.8754 22.8463Z" fill="#FFC34C"/>
<path d="M17.6323 22.0894C19.0952 22.0894 20.2812 20.9034 20.2812 19.4405C20.2812 17.9776 19.0952 16.7916 17.6323 16.7916C16.1693 16.7916 14.9834 17.9776 14.9834 19.4405C14.9834 20.9034 16.1693 22.0894 17.6323 22.0894Z" fill="#FF624B"/>
<path d="M18.3891 21.3327C16.9262 21.3327 15.7402 20.1467 15.7402 18.6838C15.7402 18.1459 15.901 17.6458 16.1765 17.228C15.4579 17.7017 14.9834 18.5155 14.9834 19.4406C14.9834 20.9036 16.1693 22.0895 17.6323 22.0895C18.5573 22.0895 19.3712 21.615 19.8449 20.8964C19.4271 21.1719 18.927 21.3327 18.3891 21.3327Z" fill="#FF4B34"/>
<path d="M26.3051 25.8736C27.7681 25.8736 28.954 24.6876 28.954 23.2247C28.954 21.7618 27.7681 20.5758 26.3051 20.5758C24.8422 20.5758 23.6562 21.7618 23.6562 23.2247C23.6562 24.6876 24.8422 25.8736 26.3051 25.8736Z" fill="#FFD551"/>
<path d="M27.062 25.1168C28.5249 25.1168 29.7108 23.9308 29.7108 22.4679C29.7108 21.005 28.5249 19.819 27.062 19.819C25.599 19.819 24.4131 21.005 24.4131 22.4679C24.4131 23.9308 25.599 25.1168 27.062 25.1168Z" fill="#FF624B"/>
<path d="M27.8188 24.3599C26.3559 24.3599 25.1699 23.174 25.1699 21.711C25.1699 21.1731 25.3307 20.673 25.6061 20.2552C24.8875 20.729 24.4131 21.5428 24.4131 22.4678C24.4131 23.9308 25.599 25.1167 27.062 25.1167C27.987 25.1167 28.8008 24.6422 29.2746 23.9237C28.8568 24.1991 28.3567 24.3599 27.8188 24.3599Z" fill="#FF4B34"/>
<path d="M21.7348 14.6325C23.1978 14.6325 24.3837 13.4466 24.3837 11.9837C24.3837 10.5207 23.1978 9.33478 21.7348 9.33478C20.2719 9.33478 19.0859 10.5207 19.0859 11.9837C19.0859 13.4466 20.2719 14.6325 21.7348 14.6325Z" fill="#FFC34C"/>
<path d="M22.4917 13.8758C23.9546 13.8758 25.1405 12.6898 25.1405 11.2269C25.1405 9.76395 23.9546 8.578 22.4917 8.578C21.0287 8.578 19.8428 9.76395 19.8428 11.2269C19.8428 12.6898 21.0287 13.8758 22.4917 13.8758Z" fill="#FF624B"/>
<path d="M20.9023 11.9837C20.9023 10.5208 22.0883 9.33483 23.5512 9.33483C23.8906 9.33483 24.2146 9.39931 24.5128 9.51563C24.0269 8.94234 23.302 8.578 22.4917 8.578C21.0287 8.578 19.8428 9.76394 19.8428 11.2269C19.8428 12.3505 20.5427 13.31 21.53 13.695C21.1388 13.2333 20.9023 12.6363 20.9023 11.9837Z" fill="#FF4B34"/>
<path d="M27.3829 17.6877L24.3815 18.8442C24.0694 18.9644 23.719 18.8089 23.5988 18.4968L23.1286 17.2763C23.0083 16.9643 23.1638 16.6139 23.4759 16.4937L26.4773 15.3373C26.7893 15.2171 27.1397 15.3725 27.2599 15.6846L27.7302 16.9051C27.8504 17.2171 27.6949 17.5675 27.3829 17.6877Z" fill="#FFD551"/>
<path d="M27.836 17.0065L24.8346 18.1629C24.5226 18.2831 24.1722 18.1277 24.052 17.8156L23.5817 16.5951C23.4614 16.2831 23.6169 15.9327 23.929 15.8125L26.9304 14.656C27.2424 14.5359 27.5928 14.6913 27.713 15.0034L28.1833 16.2239C28.3036 16.5359 28.148 16.8863 27.836 17.0065Z" fill="#99AF17"/>
<path d="M21.7352 5.86826C22.441 5.86826 23.0133 5.29602 23.0133 4.59014C23.0133 3.88425 22.441 3.31201 21.7352 3.31201C21.0293 3.31201 20.457 3.88425 20.457 4.59014C20.457 5.29602 21.0293 5.86826 21.7352 5.86826Z" fill="#BF6C0D"/>
<path d="M18.2322 7.14627C18.9381 7.14627 19.5103 6.57404 19.5103 5.86815C19.5103 5.16226 18.9381 4.59003 18.2322 4.59003C17.5263 4.59003 16.9541 5.16226 16.9541 5.86815C16.9541 6.57404 17.5263 7.14627 18.2322 7.14627Z" fill="#BF6C0D"/>
<path d="M6.11345 20.7138L6.11466 20.7127C5.73579 20.6097 5.41376 20.4327 5.15818 20.1772C4.29124 19.3102 4.32833 17.6793 5.094 15.6542C3.04173 19.0341 2.37648 21.9363 3.64454 23.2045C3.90012 23.46 4.22214 23.637 4.60101 23.74L4.5998 23.7411L6.7569 24.4571C6.86928 23.5333 7.22128 22.4496 7.78209 21.2677L6.11345 20.7138Z" fill="#BF6C0D"/>
</svg>
