<svg width="16" height="18" viewBox="0 0 16 18" fill="none" xmlns="http://www.w3.org/2000/svg">
<path d="M10.7014 2.88451C10.0471 3.64023 9.00014 4.23629 7.95318 4.15114C7.82231 3.12932 8.33488 2.04364 8.9347 1.37307C9.58905 0.596061 10.7342 0.0425758 11.6612 0C11.7702 1.06439 11.3449 2.1075 10.7014 2.88451ZM11.6502 4.35337C10.1343 4.26822 8.83655 5.19424 8.11677 5.19424C7.38608 5.19424 6.28459 4.39595 5.08495 4.41724C3.52542 4.43852 2.07495 5.30068 1.27882 6.67375C-0.35705 9.41989 0.853495 13.4859 2.43484 15.7211C3.20915 16.8281 4.13614 18.0415 5.35759 17.9989C6.51361 17.9563 6.97165 17.2645 8.3676 17.2645C9.77445 17.2645 10.178 17.9989 11.3994 17.9776C12.6645 17.9563 13.4606 16.8707 14.2349 15.7637C15.1183 14.5077 15.4782 13.2836 15.5 13.2198C15.4782 13.1985 13.0571 12.2938 13.0353 9.56891C13.0135 7.2911 14.9438 6.20542 15.031 6.14156C13.9405 4.56625 12.2392 4.39595 11.6502 4.35337Z" fill="#3C4046"/>
</svg>
