<svg width="17" height="12" viewBox="0 0 17 12" fill="none" xmlns="http://www.w3.org/2000/svg">
<path d="M10.625 6C10.625 7.13713 9.67158 8.0625 8.5 8.0625C7.32842 8.0625 6.375 7.13713 6.375 6C6.375 4.86287 7.32842 3.9375 8.5 3.9375C9.67158 3.9375 10.625 4.86287 10.625 6ZM17 5.69131C17 5.69131 13.9882 11.5 8.51062 11.5C3.42479 11.5 0 5.69131 0 5.69131C0 5.69131 3.14925 0.5 8.51062 0.5C13.9605 0.5 17 5.69131 17 5.69131ZM12.0417 6C12.0417 4.10456 10.4529 2.5625 8.5 2.5625C6.54712 2.5625 4.95833 4.10456 4.95833 6C4.95833 7.89544 6.54712 9.4375 8.5 9.4375C10.4529 9.4375 12.0417 7.89544 12.0417 6Z" fill="#A4A9B0"/>
</svg>
