<svg width="18" height="17" viewBox="0 0 18 17" fill="none" xmlns="http://www.w3.org/2000/svg">
<path d="M17.0306 8.68688C17.0313 8.12853 16.9841 7.57115 16.8895 7.02087H9.1626V10.1765H13.5882C13.4976 10.6805 13.306 11.1609 13.0247 11.5889C12.7435 12.0168 12.3785 12.3833 11.9518 12.6664V14.7148H14.593C16.1396 13.2889 17.0306 11.1802 17.0306 8.68688Z" fill="#4285F4"/>
<path d="M9.16291 16.6937C11.374 16.6937 13.2357 15.9677 14.5934 14.7159L11.9521 12.6676C11.217 13.166 10.2702 13.4505 9.16291 13.4505C7.02579 13.4505 5.21184 12.0098 4.5632 10.0684H1.84229V12.1794C2.52424 13.5364 3.56994 14.6772 4.86265 15.4743C6.15535 16.2715 7.64418 16.6937 9.16291 16.6937Z" fill="#34A853"/>
<path d="M4.56309 10.0683C4.22018 9.05103 4.22018 7.94936 4.56309 6.93206V4.82111H1.84218C1.2685 5.96267 0.969727 7.22258 0.969727 8.5002C0.969727 9.77781 1.2685 11.0377 1.84218 12.1793L4.56309 10.0683Z" fill="#FBBC04"/>
<path d="M9.16291 3.55006C10.3314 3.53097 11.4604 3.97245 12.306 4.77907L14.6446 2.44053C13.1617 1.04772 11.1972 0.283052 9.16291 0.306812C7.64418 0.306881 6.15535 0.729065 4.86265 1.52623C3.56994 2.32339 2.52424 3.46416 1.84229 4.82118L4.5632 6.93213C5.21184 4.99074 7.02579 3.55006 9.16291 3.55006Z" fill="#EA4335"/>
</svg>
