<svg width="18" height="19" viewBox="0 0 18 19" fill="none" xmlns="http://www.w3.org/2000/svg">
<path fill-rule="evenodd" clip-rule="evenodd" d="M6.24 0.5H11.76C16.8 0.5 18 1.7 18 6.74V12.26C18 17.3 16.8 18.5 11.76 18.5H6.24C1.2 18.5 0 17.3 0 12.26V6.74C0 1.7 1.2 0.5 6.24 0.5Z" fill="#2787F5"/>
<path fill-rule="evenodd" clip-rule="evenodd" d="M14.7414 6.70133C14.8248 6.42323 14.7414 6.21887 14.3445 6.21887H13.032C12.6983 6.21887 12.5445 6.3954 12.461 6.59007C12.461 6.59007 11.7936 8.21696 10.848 9.27373C10.5421 9.57964 10.4031 9.67697 10.2362 9.67697C10.1528 9.67697 10.032 9.57964 10.032 9.30156V6.70133C10.032 6.3676 9.93516 6.21887 9.65703 6.21887H7.59453C7.38598 6.21887 7.26056 6.37376 7.26056 6.52056C7.26056 6.83692 7.7333 6.90988 7.78203 7.79981V9.73261C7.78203 10.1564 7.70551 10.2332 7.53864 10.2332C7.0937 10.2332 6.01137 8.59904 5.36945 6.72913C5.24365 6.36568 5.11747 6.21887 4.78203 6.21887H3.46953C3.09454 6.21887 3.01953 6.3954 3.01953 6.59007C3.01953 6.9377 3.4645 8.66193 5.09137 10.9423C6.17594 12.4997 7.70403 13.3439 9.09453 13.3439C9.92882 13.3439 10.032 13.1564 10.032 12.8334V11.6564C10.032 11.2814 10.1111 11.2065 10.3753 11.2065C10.5699 11.2065 10.9036 11.3039 11.6823 12.0547C12.5723 12.9446 12.719 13.3439 13.2195 13.3439H14.532C14.907 13.3439 15.0945 13.1564 14.9864 12.7864C14.868 12.4176 14.4431 11.8825 13.8793 11.2482C13.5734 10.8867 13.1146 10.4974 12.9755 10.3027C12.7808 10.0524 12.8364 9.94116 12.9755 9.7187C12.9755 9.7187 14.5746 7.46609 14.7414 6.70133Z" fill="white"/>
</svg>
