<svg width="34" height="34" viewBox="0 0 34 34" fill="none" xmlns="http://www.w3.org/2000/svg">
<g clip-path="url(#clip0_14770_91328)">
<rect x="2" y="2" width="30" height="30" rx="15" fill="white"/>
<path d="M31.9612 17.9682C31.9353 17.709 31.8833 17.4152 31.8054 17.0956C31.789 17.0253 31.7472 16.9636 31.6882 16.9222C31.6291 16.8807 31.5568 16.8625 31.4852 16.8709C31.0884 15.9755 30.6989 15.0769 30.3167 14.1752C30.334 14.158 30.3599 14.1321 30.3686 14.1148C30.4119 14.0457 30.4292 13.9506 30.4032 13.8729C30.308 13.5446 30.2214 13.2335 30.1436 12.9225C30.1089 12.7929 29.9964 12.7065 29.8666 12.6978C29.4684 12.6805 28.8972 12.672 28.1268 12.672C28.0836 12.672 28.0402 12.6805 27.997 12.7065C27.9624 12.7238 27.9191 12.7497 27.8931 12.7669C27.8585 12.7842 27.7547 12.862 27.7374 12.8706C27.694 12.7497 27.5815 12.6633 27.4517 12.6633C27.1574 12.672 26.7593 12.6805 26.3179 12.7065C26.1714 12.595 26.0213 12.4884 25.8678 12.3868C24.8204 11.687 23.6607 11.1686 22.4575 10.8403C21.7304 10.6415 20.9861 10.5206 20.2331 10.4687C19.9907 10.4515 19.757 10.4428 19.5147 10.4428C18.5799 10.4428 17.671 10.5638 16.7968 10.7884C16.7882 10.7884 16.7795 10.797 16.7622 10.797C16.5458 10.3564 16.2515 9.82072 15.9486 9.31097C16.5804 8.79258 17.0998 8.08409 17.3075 7.30651C17.4893 6.60667 17.3335 5.90683 16.8661 5.56124C16.7882 5.31934 16.667 5.09465 16.4939 4.91321C16.0265 4.42076 15.386 4.36031 14.7801 4.54175C14.7715 4.48121 14.7628 4.42076 14.7369 4.36031C14.5032 3.79867 13.9319 3.66912 13.3693 3.85056C13.1529 3.90237 12.9365 3.87642 12.7201 3.76417C12.6682 3.73822 12.6076 3.72092 12.5557 3.70363C12.4086 3.63452 12.2614 3.61723 12.1229 3.65182C11.7334 3.69498 11.4218 4.00606 11.24 4.59356C10.9718 5.46619 9.56956 5.64764 8.81652 5.97593C7.83844 6.33883 7.69998 7.09047 7.82115 7.59165C7.84709 7.71255 7.89042 7.8249 7.95096 7.9286C7.33648 7.85949 6.81712 8.11004 6.37569 8.67159C5.77842 9.42332 5.8131 10.3305 6.33237 11.2117C7.58746 13.1644 9.16273 13.4582 11.0669 12.672C11.1016 12.6978 11.1275 12.7238 11.1621 12.7497C11.2573 12.862 11.3526 12.9657 11.4218 13.0607C11.543 13.2162 11.7421 13.4668 11.8806 13.6568C11.6122 13.942 11.3612 14.2444 11.1362 14.5641C11.1275 14.5814 11.1189 14.59 11.1102 14.6072C9.95291 14.7971 8.8037 15.0335 7.66538 15.3157H7.65665C5.99481 14.806 4.76575 17.0351 3.47614 17.0092C2.84427 17.0092 1.60656 15.8255 2.28168 17.303C2.73175 18.2965 3.46741 19.3419 4.66188 19.3419C5.72653 19.3419 6.77379 18.2188 7.16333 18.6335C7.16333 18.6853 7.16333 18.7372 7.17198 18.789C7.18063 18.9186 7.24125 19.0309 7.33648 19.1C7.36242 19.6875 6.59208 20.0677 5.68328 19.9294C4.7225 19.7826 4.39359 20.4651 4.11658 20.9835C3.99541 21.2169 4.22045 21.4674 4.46278 21.3724C5.03411 21.1391 5.6486 20.9922 6.26318 21.1563C6.89505 21.3291 7.20657 21.8994 7.86439 21.9858C7.87304 22.1326 7.88169 22.2709 7.89042 22.4091C7.41431 22.4437 7.62205 22.893 7.05081 22.8844C6.87766 22.8844 6.39299 22.7029 6.23723 22.6856C5.96886 22.6683 5.96021 22.8671 6.16795 23.109C6.61803 23.636 7.15468 23.5496 7.68268 23.8261C7.02486 24.2235 6.09868 24.0248 5.38032 24.3445C4.70521 24.6468 4.25513 25.2085 4.10793 25.9083C4.05604 26.1502 4.33297 26.3403 4.54071 26.2021C4.76575 26.0465 4.99078 25.7442 5.3024 25.6923C6.07273 25.5627 6.61803 26.1157 7.33648 26.228C7.38837 26.2366 7.43161 26.2366 7.47494 26.2366C7.48359 26.3921 7.49224 26.5391 7.50089 26.6946C7.50953 26.8069 7.56151 26.9106 7.65665 26.9797C7.72592 27.0315 7.8125 27.0661 7.89907 27.0661C7.92502 27.0661 7.95096 27.0661 7.96826 27.0574C9.05886 26.8587 10.0629 26.6255 10.9891 26.3576C10.9977 26.3576 11.015 26.349 11.0237 26.349C11.041 26.3403 11.0669 26.3403 11.0843 26.3317C11.0929 26.3317 11.0929 26.323 11.1016 26.323C11.4305 26.2366 11.517 26.0465 11.517 25.9256C12.2614 26.9192 13.2481 27.7832 14.3127 28.4916C16.1217 29.6926 18.0951 30.3147 20.2417 30.3665H20.536C23.9203 30.3665 26.993 28.9842 28.8539 26.3921C30.3426 24.3186 30.9658 21.7957 30.5071 19.2469C30.4898 19.1346 30.4638 19.0136 30.4378 18.9013C30.6629 18.8581 30.9139 18.8149 31.1822 18.7631L31.2515 18.7544C31.2688 18.7544 31.2861 18.7458 31.3034 18.7372L31.9006 18.167C31.9439 18.1324 31.9699 18.0546 31.9612 17.9682Z" fill="#0D0802"/>
<path fill-rule="evenodd" clip-rule="evenodd" d="M23.8351 13.2775C20.9272 11.8513 17.4274 12.3035 15.2421 14.3559C13.8231 15.7125 13.0918 17.6518 13.3965 19.7129C13.6577 21.487 14.7894 23.0523 16.078 24.148C16.2434 24.2698 16.4088 24.3915 16.5829 24.5046C19.9609 26.67 24.4967 26.0178 26.7166 23.0436C27.5524 21.9218 27.9441 20.6347 27.918 19.3389C27.9267 19.3389 27.9267 19.3389 27.9355 19.3302C27.8571 16.7387 26.2116 14.4516 23.8349 13.2775H23.8351Z" fill="url(#paint0_radial_14770_91328)"/>
<path d="M17.1172 20.5489C17.1172 20.6533 17.1346 20.8011 17.152 20.9924C17.152 21.0098 17.1607 21.0273 17.1607 21.0446C17.1781 21.0446 17.1955 21.062 17.2129 21.062C17.2391 21.0359 17.2477 21.0098 17.2826 20.9924C17.2826 20.9837 17.2913 20.949 17.2913 20.9055V20.8446C17.2738 20.6011 17.2477 20.3749 17.2303 20.1489C17.1346 20.3315 17.1258 20.4011 17.1172 20.5489ZM23.3852 18.4269C23.4462 18.4095 23.5246 18.3834 23.6203 18.3573V18.3486C23.5158 17.7486 23.4549 17.4355 23.3678 16.9919C23.3766 17.4616 23.3766 17.9399 23.3852 18.4269Z" fill="#F3CB0E"/>
<path d="M16.9047 14.0092C16.9308 14.0005 16.9482 14.0005 16.9743 14.0005C17.1572 13.9919 17.3313 13.9831 17.4966 13.9744C18.3411 13.5048 19.8822 13.3483 20.3 13.3222C20.8398 13.2961 21.0661 13.4178 21.1445 13.6266C21.188 13.6266 21.2229 13.6353 21.2664 13.6614C21.31 13.6179 21.3709 13.5831 21.4318 13.5744C21.4927 13.5657 21.5624 13.557 21.6233 13.5396C21.6147 13.4527 21.5972 13.3657 21.5537 13.2874C21.2403 12.7482 20.4132 12.7743 19.8822 12.8265C19.2901 12.8786 17.1223 13.2787 16.5216 14.1049C16.5477 14.1223 16.5739 14.1483 16.5912 14.1832C16.6 14.1832 16.6174 14.1744 16.6261 14.1744C16.6347 14.1658 16.6435 14.1571 16.6609 14.1571C16.7306 14.0788 16.8089 14.0353 16.9047 14.0092ZM23.634 23.4528C23.8517 23.592 24.1215 23.5658 24.226 23.3919C24.3392 23.218 24.2521 22.9659 24.0345 22.8267C23.8168 22.6875 23.547 22.7137 23.4425 22.8876C23.338 23.0615 23.4164 23.3136 23.634 23.4528ZM14.4665 20.4354C14.4143 20.0267 14.3707 19.6092 14.3185 19.1831V19.1571C14.3011 18.957 14.275 18.7571 14.2576 18.557C14.2576 18.5396 14.2576 18.5222 14.2489 18.4961C14.2228 18.2787 14.2054 18.0613 14.1879 17.8352C13.9268 18.8701 13.7874 20.131 14.4665 20.4354ZM22.2502 13.244C22.1283 13.2962 22.05 13.3745 21.9803 13.4701C22.3475 13.4027 22.7133 13.3273 23.0773 13.244C22.7813 13.157 22.4939 13.1397 22.2502 13.244ZM18.471 23.2449C18.4449 23.4102 18.4798 23.558 18.5755 23.6623C18.7931 23.8797 19.2285 23.7841 19.5593 23.4536C19.8815 23.1318 19.9772 22.6971 19.7682 22.4796C19.6638 22.5492 19.5593 22.61 19.3329 22.7405C19.1066 22.8796 18.7931 23.0623 18.471 23.2449Z" fill="#EC6D1D"/>
<path d="M20.2832 22.1746C20.2745 22.1746 20.2745 22.1746 20.2658 22.1833C20.1004 23.0703 19.8044 24.3226 19.4039 24.4792C18.9686 24.6444 18.1937 24.3226 17.4798 23.7487C17.3928 23.853 17.2796 23.94 17.1577 23.9835C17.0445 24.0443 16.9314 24.1052 16.8008 24.1661C17.5582 24.6879 18.3417 25.1227 18.9076 25.1488C19.5954 25.1835 19.813 25.0096 19.9872 24.5922C20.1265 24.2617 20.3528 23.0355 20.5618 22.0442C20.465 22.0787 20.3717 22.1224 20.2832 22.1746ZM21.5281 23.7663C21.7805 24.0359 22.2594 24.0098 22.5989 23.6968C22.8775 23.4446 22.9907 23.088 22.8862 22.8184C22.8688 22.8445 22.8427 22.8793 22.8253 22.9054C22.7121 23.0793 22.5554 23.1402 22.3813 23.0967C22.1201 23.0358 21.8763 22.8966 21.7022 22.7053C21.354 23.0184 21.2756 23.4967 21.5281 23.7663Z" fill="#EC6D1D"/>
<path d="M23.6862 21.3056C23.6514 21.3752 23.6166 21.4534 23.5817 21.5231C24.2173 22.2188 24.818 23.1406 24.7658 23.3841C24.7135 23.6189 23.9823 24.1755 23.3815 24.3928C22.7808 24.619 21.1353 25.1407 20.8219 24.6711C20.6565 24.4189 20.9264 22.7927 21.0831 21.7491C21.0048 21.7839 20.9264 21.8274 20.8306 21.8796C20.6304 22.7754 20.3605 24.0189 20.2821 24.4102C20.195 24.8103 20.1515 25.1147 20.3518 25.3321C20.4476 25.4364 20.6217 25.4886 20.8828 25.4886C21.0396 25.4886 21.1963 25.4712 21.3356 25.4538C21.3965 25.4451 21.4575 25.4364 21.5097 25.4364C22.032 25.3929 22.4847 25.3146 22.9114 25.1929C23.4512 25.0364 24.435 24.6624 25.0183 23.9319C25.2968 23.584 25.114 23.1493 24.9138 22.8101C24.7484 22.5318 24.1215 21.7926 23.6862 21.3056ZM27.4907 20.4705L27.3862 20.627C27.334 20.714 27.273 20.8009 27.2208 20.8879L27.2121 20.8966C27.1946 20.9314 27.1685 20.9575 27.1511 20.9923C27.1163 21.0531 27.0205 21.201 26.9074 21.3141C26.872 21.358 26.8274 21.3936 26.7768 21.4184C26.7158 21.4532 26.6549 21.4706 26.594 21.4619C26.4372 21.975 25.8452 22.8185 25.6886 22.8446C25.5231 22.8707 24.6786 21.6967 23.9038 20.8183C23.869 20.9053 23.8254 20.9923 23.7906 21.0793C24.3391 21.7401 24.9572 22.5229 25.0791 22.6968C25.201 22.862 25.349 23.2273 25.5841 23.2794C25.8627 23.349 26.0629 23.1925 26.2109 23.0098C26.4286 22.7316 26.6201 22.4359 26.7942 22.1315C27.0902 21.6271 27.3427 21.0619 27.4907 20.4705Z" fill="#EC6D1D"/>
<path d="M24.9612 21.4185C25.2659 21.4446 25.5445 21.088 25.5794 20.6184C25.5967 20.3923 25.5532 20.1836 25.4661 20.0271C25.4314 20.0357 25.4053 20.0445 25.3791 20.0531C25.1702 20.1228 24.8393 20.2097 24.5172 20.3227C24.4998 20.3923 24.4824 20.4619 24.4824 20.5402C24.4389 21.0011 24.6565 21.3924 24.9612 21.4185ZM14.5488 21.0708C14.3835 21.3751 14.4531 21.7404 14.6011 22.0709C14.6185 22.0535 14.6447 22.0448 14.6708 22.0274V22.0187C14.6708 21.9926 14.6708 21.9666 14.662 21.9143C14.6272 21.6361 14.5924 21.3578 14.5488 21.0708Z" fill="#EC6D1D"/>
<path d="M30.2842 19.1308C30.2756 19.0873 30.2668 19.0351 30.2581 18.9916C29.997 19.0438 29.7706 19.0873 29.5703 19.1308L29.492 19.1482H29.4658C29.4311 19.1482 29.405 19.1395 29.3788 19.1221C29.344 19.096 29.3266 19.0612 29.3179 19.0177L29.3092 18.9395V18.9133L28.9958 19.209L28.9784 19.2264L28.9696 19.2352C28.9523 19.2525 28.9348 19.2699 28.9087 19.2699L28.8478 19.2786C28.6475 19.3221 28.4037 19.3742 28.1164 19.4439C28.1164 19.4439 28.1164 19.4525 28.1078 19.4525C28.1339 20.8179 27.7334 22.1832 26.8628 23.366C26.6483 23.6581 26.4095 23.9316 26.1489 24.1834C23.6764 26.6184 19.5062 26.9923 16.3288 24.9139C16.1807 24.8182 16.0327 24.7139 15.8935 24.6009C15.6845 24.6965 15.4668 24.8008 15.2318 24.8965C15.1796 24.9226 15.1273 24.9313 15.0664 24.9313C14.9967 24.9313 14.9358 24.9139 14.8749 24.8878C14.84 24.8705 14.8139 24.8356 14.7791 24.8096C14.7269 24.94 14.6398 25.0792 14.5266 25.1661C14.4918 25.1922 14.457 25.227 14.4134 25.2444C13.8824 25.4704 13.212 25.714 12.4023 25.9922C13.0553 26.7923 13.8301 27.4968 14.7182 28.0881C16.4419 29.236 18.4357 29.8796 20.4903 29.9317H20.7689C20.9691 29.9317 21.1693 29.9231 21.3696 29.9143C24.3645 29.7404 27.0982 28.2968 28.761 25.9749C30.1888 23.9921 30.7286 21.5657 30.2846 19.1308H30.2842ZM16.9811 27.4359C16.9376 27.4794 16.894 27.5141 16.8418 27.5403C16.7896 27.5663 16.746 27.5924 16.6851 27.6098H16.6764L16.5023 27.6707C16.4936 27.6707 16.4762 27.6793 16.4674 27.6793C16.4501 27.6793 16.4413 27.6881 16.4327 27.6881C16.4239 27.6881 16.4066 27.6967 16.3891 27.6967C16.3804 27.6967 16.363 27.6967 16.3456 27.7055H16.276C16.2237 27.7055 16.1715 27.7055 16.1105 27.6967C16.0583 27.6881 15.9974 27.6793 15.9451 27.6619C15.8929 27.6446 15.8319 27.6272 15.7797 27.6011C15.7535 27.5924 15.7274 27.575 15.7013 27.5576L15.6491 27.6359L15.5707 27.6619L15.475 27.6967L15.1094 27.462L15.2399 27.2793C15.179 27.2358 15.1267 27.1924 15.0745 27.1489C15.0223 27.1054 14.9788 27.0532 14.9439 27.0097C14.909 26.9576 14.8743 26.9141 14.8481 26.8619C14.822 26.8098 14.8046 26.7575 14.7872 26.7054C14.7698 26.6532 14.7698 26.5923 14.7611 26.5402C14.7611 26.4879 14.7698 26.4271 14.7785 26.3749C14.7872 26.3227 14.8133 26.2706 14.8394 26.2097C14.8655 26.1575 14.9004 26.1053 14.9352 26.0531C14.9613 26.0184 14.9961 25.9836 15.0223 25.9487C15.0571 25.914 15.0832 25.8879 15.118 25.8618C15.1529 25.8357 15.1876 25.8097 15.2225 25.7923C15.2573 25.7748 15.2921 25.7574 15.3357 25.74L15.5011 25.6792C15.5098 25.6792 15.5098 25.6792 15.5185 25.6705C15.5707 25.6531 15.6317 25.6357 15.6839 25.6357H15.7535C15.8058 25.6357 15.858 25.6357 15.9103 25.6444C15.9625 25.6531 16.0147 25.6618 16.0757 25.6792C16.128 25.6966 16.1889 25.714 16.2411 25.74C16.2672 25.7488 16.2933 25.7662 16.3195 25.7835L16.363 25.7227L16.5371 25.6618L16.894 25.8966L16.7722 26.0705C16.8331 26.114 16.8854 26.1575 16.9376 26.2009C16.9899 26.2445 17.0246 26.288 17.0682 26.3401C17.103 26.3923 17.1378 26.4358 17.164 26.4879C17.1901 26.5402 17.2075 26.5923 17.2249 26.6445C17.2423 26.6966 17.2423 26.7489 17.251 26.8098C17.251 26.8619 17.251 26.9141 17.2336 26.975C17.2249 27.0271 17.2075 27.0793 17.1813 27.1315C17.1552 27.1837 17.1291 27.2358 17.0856 27.2881C17.0595 27.3489 17.0246 27.3924 16.9811 27.4359ZM19.1663 28.9751L19.088 29.0013L18.9922 29.0273L18.5482 28.9056L18.5395 28.4098C18.5395 28.4098 18.1477 28.2968 17.9562 28.2446L17.7211 28.5751L17.6428 28.6012L17.547 28.6273L17.1291 28.5055L18.4177 26.801L18.5918 26.7401L19.0706 26.8793L19.1663 28.9751ZM21.6563 28.6099C21.6476 28.6534 21.6389 28.6882 21.6215 28.7229C21.604 28.7577 21.5866 28.7925 21.5605 28.8273C21.536 28.8605 21.5066 28.8898 21.4734 28.9143C21.4474 28.9404 21.4125 28.9578 21.3864 28.9751L21.2819 29.0273C21.2645 29.036 21.2384 29.0447 21.2297 29.0447L21.0643 29.0969C21.0468 29.1056 21.0382 29.1056 21.0207 29.1056C21.0033 29.1056 20.9946 29.1143 20.9772 29.1143C20.9598 29.1143 20.9423 29.123 20.9337 29.123H20.8205L20.0108 29.1143V28.9925C20.0196 28.5664 20.0543 27.1924 20.0543 27.1924L20.2198 27.1402L21.517 27.1663L21.5083 27.5054L21.4213 27.5315L21.3342 27.5576L20.6203 27.5403L20.6115 27.8533L20.9946 27.862C21.0468 27.862 21.0904 27.8707 21.1426 27.8707C21.1862 27.8794 21.2297 27.888 21.2732 27.9055C21.3168 27.9229 21.3515 27.9403 21.3864 27.9577C21.4213 27.975 21.456 28.0012 21.4909 28.0272C21.5256 28.0533 21.5518 28.0881 21.5692 28.1142C21.5954 28.149 21.6127 28.1837 21.6301 28.2185C21.6476 28.2533 21.6563 28.2968 21.665 28.3316C21.6737 28.3751 21.6737 28.4098 21.6737 28.4621C21.665 28.5229 21.665 28.5664 21.6563 28.6099ZM23.8241 27.6533C23.8153 27.6967 23.8067 27.7316 23.798 27.775C23.7806 27.8185 23.7632 27.8533 23.7457 27.888L23.6674 27.9924C23.6419 28.0255 23.6091 28.0523 23.5716 28.0707C23.5368 28.0968 23.4932 28.1142 23.4585 28.1316C23.4149 28.149 23.3714 28.1664 23.3191 28.1751L22.9535 28.2708L23.1015 28.8447H23.0841H23.0928L23.0057 28.8707L22.9187 28.8969L22.7271 28.949L22.5443 28.9925H22.5269L22.0568 27.1489L22.2309 27.0967L23.0057 26.9054C23.0232 26.9054 23.0318 26.8967 23.0493 26.8967C23.0667 26.8967 23.0754 26.888 23.0928 26.888C23.1102 26.888 23.1189 26.888 23.1276 26.8793C23.1363 26.8706 23.1537 26.8793 23.1624 26.8793H23.2582C23.2843 26.8793 23.3191 26.888 23.3453 26.8967C23.3714 26.9054 23.4062 26.9141 23.4324 26.9228C23.4585 26.9314 23.4845 26.9488 23.5106 26.9662C23.5455 26.9923 23.5803 27.0097 23.6151 27.0445C23.65 27.0706 23.6761 27.1054 23.7022 27.1402C23.7283 27.175 23.7457 27.2098 23.7632 27.2533C23.7806 27.2967 23.798 27.3402 23.8067 27.3837C23.8153 27.4271 23.8241 27.4794 23.8328 27.5228C23.8241 27.575 23.8241 27.6185 23.8241 27.6533ZM26.1312 27.575L26.079 27.5924L25.957 27.6272C25.957 27.6272 25.6523 27.1141 25.4695 26.801L25.3999 28.0098L25.0778 28.2011L25.0255 28.2185L24.8949 28.2533L23.9373 26.6358L24.2768 26.4445L24.451 26.3923L24.9472 27.2272L25.0168 26.0184L25.339 25.8357L25.5131 25.7835L26.4707 27.3837L26.1312 27.575ZM28.0291 25.8879L27.942 25.914L27.855 25.9401L27.0279 25.8966L27.559 26.401L27.3065 26.6792L27.2456 26.6966L27.1236 26.7315L25.7743 25.4618L26.0354 25.1835L26.2095 25.1226L26.6187 25.514C26.5752 25.227 26.5056 24.6791 26.5056 24.6791L26.7929 24.3747L26.967 24.3138L27.1236 25.4618L28.3338 25.5401L28.0291 25.8879ZM29.3437 23.7834L29.2567 23.8095L29.1696 23.8355L28.8649 23.7747L28.6298 24.2443L28.952 24.566L28.7865 24.8965L28.7169 24.9226L28.6124 24.9574L27.2804 23.5485L27.472 23.1659L27.6461 23.105L29.5092 23.4181L29.3437 23.7834Z" fill="#E42320"/>
<path d="M28.305 23.9402L28.4269 23.688L27.9654 23.5923L28.305 23.9402ZM23.2119 27.4712C23.2032 27.4452 23.1946 27.4277 23.1771 27.4104C23.1684 27.393 23.151 27.3756 23.1336 27.3582C23.1162 27.3408 23.0988 27.3321 23.0813 27.3234C23.0727 27.3147 23.0552 27.3147 23.0466 27.306C23.0291 27.2973 23.0205 27.2973 23.003 27.2973C22.9856 27.2973 22.9769 27.2887 22.9595 27.2887H22.8637C22.855 27.2887 22.8463 27.2887 22.8376 27.2973C22.8289 27.2973 22.8201 27.2973 22.8115 27.306C22.8115 27.306 22.7593 27.3147 22.707 27.3321L22.8724 27.9583L23.0727 27.9061C23.0813 27.9061 23.0813 27.8974 23.0901 27.8974C23.0988 27.8974 23.0988 27.8886 23.1075 27.8886C23.1162 27.88 23.1336 27.8713 23.1423 27.8713C23.151 27.8713 23.151 27.8626 23.151 27.8626C23.1597 27.8539 23.1771 27.8452 23.1858 27.8365C23.1946 27.8278 23.2119 27.8105 23.2207 27.793L23.2468 27.7408C23.2555 27.7234 23.2555 27.6973 23.2642 27.6799V27.6104C23.2642 27.5843 23.2555 27.5583 23.2555 27.5409C23.2293 27.5147 23.2207 27.4974 23.2119 27.4712ZM21.0699 28.4619C21.0699 28.4445 21.0612 28.427 21.0525 28.4097L21.0264 28.3575C21.0177 28.3401 21.0003 28.3314 20.9829 28.314C20.9654 28.3053 20.948 28.288 20.9306 28.2792C20.9132 28.2706 20.887 28.2618 20.8697 28.2531C20.8435 28.2445 20.8262 28.2445 20.8 28.2357C20.7739 28.2357 20.7478 28.2271 20.7217 28.2271H20.5998L20.5911 28.7315H20.9132C20.9393 28.7315 20.9568 28.7228 20.948 28.7315C20.9568 28.7315 20.9568 28.7228 20.9654 28.7228C20.9829 28.714 20.9915 28.6966 21.009 28.6792C21.0177 28.6619 21.0351 28.6532 21.0351 28.6358C21.0438 28.6184 21.0525 28.601 21.0525 28.5836C21.0525 28.5662 21.0612 28.5402 21.0612 28.5227V28.5141C21.0786 28.4967 21.0786 28.4793 21.0699 28.4619ZM18.2054 27.8705L18.5449 27.9661C18.5449 27.8183 18.5449 27.5575 18.5362 27.4009L18.2054 27.8705ZM15.9768 26.1399C15.9507 26.1312 15.9159 26.1138 15.8898 26.1051C15.8637 26.0965 15.8288 26.0877 15.8027 26.0877C15.7766 26.0877 15.7418 26.0791 15.7157 26.0877H15.6547C15.6547 26.0877 15.646 26.0877 15.646 26.0965C15.6199 26.1138 15.5938 26.1312 15.5676 26.1574C15.5415 26.1834 15.5241 26.2095 15.498 26.2355C15.4719 26.2704 15.4545 26.2964 15.4458 26.3312C15.4304 26.3616 15.4187 26.3937 15.411 26.4269C15.4023 26.4617 15.4023 26.4877 15.4023 26.5226C15.4023 26.5574 15.4023 26.5834 15.411 26.6183C15.4197 26.653 15.4284 26.6791 15.4371 26.7052C15.4545 26.7313 15.4632 26.7661 15.4893 26.7921C15.5068 26.8182 15.5329 26.8443 15.559 26.8704L15.5676 26.8791L16.0639 26.1921C16.0338 26.1767 16.0047 26.1592 15.9768 26.1399ZM16.6215 26.6536C16.6108 26.6211 16.5929 26.5913 16.5693 26.5665C16.5519 26.5405 16.5258 26.5144 16.4997 26.4883C16.4997 26.4883 16.4909 26.4883 16.4909 26.4796L15.9947 27.1666C16.0209 27.184 16.0556 27.2014 16.0818 27.2101C16.1079 27.2188 16.1427 27.2362 16.1688 27.2449C16.195 27.2536 16.2297 27.2623 16.2559 27.2623C16.282 27.2623 16.3168 27.271 16.343 27.2623H16.3952C16.4126 27.2536 16.4301 27.2362 16.4474 27.2275C16.4648 27.2101 16.4909 27.1927 16.5083 27.1754C16.5258 27.1579 16.5432 27.1318 16.5606 27.1057C16.578 27.0797 16.6042 27.0448 16.6128 27.0101C16.6303 26.9753 16.6389 26.9492 16.6477 26.9144C16.6564 26.8884 16.6564 26.8535 16.6564 26.8188C16.6564 26.784 16.6564 26.7579 16.6477 26.7231C16.6389 26.7144 16.6303 26.6796 16.6215 26.6536ZM13.6959 14.4957C13.9222 14.261 14.1486 14.2175 14.2531 14.2088C14.4881 14.1827 14.7232 14.1653 14.9408 14.1479C17.2131 11.9912 20.8523 11.5216 23.8646 13.0347C24.3342 12.932 24.8076 12.8479 25.2838 12.7825C25.3534 12.7739 25.423 12.7825 25.484 12.826C25.5309 12.7787 25.5921 12.7481 25.6581 12.7391C25.7974 12.7217 25.9454 12.7043 26.0847 12.6956C26.0151 12.6434 25.9367 12.5912 25.8671 12.5391C24.2652 11.4694 22.4108 10.8346 20.4954 10.7128C20.2691 10.6954 20.0427 10.6954 19.8163 10.6868C19.7119 10.6868 19.6161 10.6954 19.5116 10.6954C19.4158 10.6954 19.3201 10.6954 19.2243 10.7042C19.0415 10.7128 18.8674 10.7302 18.6845 10.7476H18.641C15.9422 11.052 13.5131 12.3912 11.9461 14.461C12.4336 14.3914 12.9124 14.3305 13.3913 14.287C13.5305 14.287 13.6437 14.374 13.696 14.4957H13.6959ZM11.041 18.1046V18.0349C10.8765 18.087 10.711 18.1363 10.5448 18.1827C10.5361 18.235 10.5361 18.2784 10.5273 18.3393V18.348C10.6057 19.4177 10.7189 20.9743 10.8582 23.018C10.8669 23.1398 10.9018 23.1919 10.9192 23.2006C10.9279 23.2093 10.9365 23.218 11.0062 23.2267H11.0498C11.1281 23.218 11.2065 23.2441 11.2674 23.2962C11.3141 23.2414 11.374 23.1995 11.4416 23.1746C11.4676 23.1658 11.4589 23.1658 11.4676 23.1658C11.4676 23.1658 11.4851 23.1223 11.4851 23.0354C11.4851 23.0093 11.4851 22.9745 11.4763 22.9397C11.3283 21.3048 11.1804 19.696 11.041 18.1046Z" fill="#E42320"/>
<path d="M29.3342 23.7837L28.8902 23.6968L28.8554 23.7837L29.1513 23.8446L29.2384 23.8098L29.3342 23.7837ZM28.4195 23.6876L28.2977 23.9398L28.3934 24.0441L28.6024 23.6267L27.8797 23.4875L27.8711 23.505L27.9581 23.5919L28.4195 23.6876Z" fill="#0D0802"/>
<path d="M27.4554 23.4962L27.5598 23.2875L27.6557 23.1135H27.6469L27.4728 23.1744L27.2812 23.5571L28.6046 24.9659L28.7178 24.931L28.7874 24.905L27.4554 23.4962Z" fill="#0D0802"/>
<path d="M25.9542 25.4089L26.0936 25.261L26.2067 25.1306L26.0326 25.1828L25.7715 25.4611H25.7801H25.7715L27.1208 26.7308L27.2428 26.6959L27.3037 26.6785L25.9542 25.4089ZM28.0264 25.8876L27.0513 25.8354L27.0078 25.8789L27.0252 25.905L27.8523 25.9484L27.9393 25.9224L28.0264 25.8876ZM26.5029 24.6873C26.5029 24.6873 26.5812 25.2351 26.616 25.5222L26.7727 25.67L26.8162 25.6265L26.6944 24.7482V24.722L26.677 24.6264L26.9643 24.322L26.7902 24.3829L26.5029 24.6873Z" fill="#0D0802"/>
<path d="M24.1125 26.5836L24.2779 26.4879L24.4434 26.3923L24.2693 26.4445L23.9297 26.6358L24.8873 28.2533L25.0179 28.2185L25.0702 28.2012L24.1125 26.5836ZM25.5059 25.7747L25.3318 25.8269L25.0184 26.0182V26.0095V26.0182L24.9487 27.2183L25.0881 27.4531L25.1055 27.4444L25.1925 25.9573L25.5059 25.7747ZM26.1323 27.5751L25.4967 26.5142L25.4794 26.5229L25.462 26.8011C25.6448 27.1142 25.9495 27.6273 25.9495 27.6273L26.0714 27.5925L26.1323 27.5751Z" fill="#0D0802"/>
<path d="M23.0848 28.8532L22.6931 28.9489L22.2229 27.1052L22.0488 27.1574L22.5189 29.0011H22.5364L22.7192 28.9576L22.9107 28.9054L22.9978 28.8793L23.0848 28.8532H23.0762H23.0848ZM23.3897 27.4188C23.3811 27.3926 23.3723 27.3753 23.3549 27.3579C23.3462 27.3405 23.3288 27.3231 23.3113 27.3057C23.294 27.2883 23.2766 27.2796 23.2591 27.2709C23.2505 27.2622 23.233 27.2622 23.2243 27.2536C23.2069 27.2448 23.1982 27.2448 23.1807 27.2448C23.1634 27.2448 23.1546 27.2361 23.1372 27.2361H23.0415C23.0328 27.2361 23.0241 27.2361 23.0154 27.2448C23.0066 27.2448 22.998 27.2448 22.9893 27.2536L22.7107 27.3231V27.3317C22.7716 27.3144 22.8151 27.3057 22.8151 27.3057C22.8238 27.3057 22.8325 27.3057 22.8413 27.297C22.8499 27.297 22.8587 27.297 22.8674 27.2883H22.9631C22.9805 27.2883 22.9893 27.2883 23.0066 27.297C23.0241 27.297 23.0328 27.3057 23.0502 27.3057C23.0676 27.3144 23.0764 27.3144 23.085 27.3231C23.1025 27.3317 23.1199 27.3492 23.1372 27.3579C23.1546 27.3753 23.1634 27.384 23.1807 27.41C23.1895 27.4274 23.2069 27.4449 23.2156 27.4709C23.2243 27.497 23.233 27.5144 23.2417 27.5405C23.2505 27.5666 23.2505 27.5927 23.2505 27.6101V27.6796C23.2505 27.697 23.2417 27.7231 23.233 27.7405C23.2243 27.7579 23.2156 27.7753 23.2069 27.7927C23.1982 27.8101 23.1895 27.8188 23.1721 27.8362C23.1634 27.8449 23.1546 27.8535 23.1372 27.8623L23.1285 27.8709C23.1199 27.8797 23.1025 27.8883 23.0937 27.8883C23.085 27.8883 23.085 27.8971 23.0764 27.8971C23.0676 27.8971 23.0676 27.9058 23.0589 27.9058L23.146 27.8883L23.2243 27.8623H23.233L23.2852 27.8362C23.2852 27.8362 23.294 27.8362 23.294 27.8275C23.3113 27.8188 23.3288 27.8014 23.3375 27.7927L23.3811 27.7492L23.4072 27.697C23.4158 27.6796 23.4158 27.6536 23.4246 27.6362V27.5666C23.4246 27.5405 23.4158 27.5144 23.4158 27.497C23.4072 27.4623 23.3984 27.4449 23.3897 27.4188Z" fill="#0D0802"/>
<path d="M21.2295 29.0448C21.2121 29.0535 21.2034 29.0535 21.186 29.0535C21.1686 29.0535 21.1512 29.0622 21.1424 29.0622C21.125 29.0622 21.1077 29.0709 21.0989 29.0709H20.9771L20.1674 29.0622L20.2022 27.4272L20.2109 27.1316L20.0455 27.1837C20.0455 27.1837 20.0107 28.5491 20.002 28.9839V29.1057L20.8116 29.1144H20.9248C20.9422 29.1144 20.9597 29.1144 20.9683 29.1057C20.9858 29.1057 21.0032 29.097 21.0119 29.097C21.0293 29.097 21.038 29.0883 21.0554 29.0883L21.2295 29.0448Z" fill="#0D0802"/>
<path d="M21.2334 28.3493L21.2073 28.2972C21.1985 28.2798 21.1811 28.2711 21.1638 28.2537C21.1463 28.245 21.1289 28.2276 21.1115 28.2189C21.0941 28.2102 21.068 28.2015 21.0505 28.1929C21.0244 28.1841 21.007 28.1841 20.9809 28.1755C20.9548 28.1755 20.9287 28.1667 20.9026 28.1667L20.6152 28.158V28.2102H20.7372C20.7633 28.2102 20.7894 28.2102 20.8155 28.2189C20.8416 28.2189 20.8677 28.2276 20.8852 28.2363C20.9113 28.245 20.9287 28.2537 20.9461 28.2624C20.9635 28.2711 20.9809 28.2798 20.9983 28.2972C21.0158 28.3059 21.0244 28.3233 21.0419 28.3407L21.068 28.3928C21.0767 28.4102 21.0767 28.4276 21.0854 28.4451V28.5146C21.0854 28.5407 21.0854 28.5581 21.0767 28.5755C21.0767 28.5929 21.068 28.6103 21.0593 28.6276C21.0505 28.645 21.0419 28.6624 21.0332 28.6711C21.0244 28.6885 21.007 28.6972 20.9897 28.7146C20.9809 28.7146 20.9809 28.7233 20.9722 28.7233H21.007C21.0244 28.7233 21.0505 28.7146 21.068 28.7059C21.0854 28.6972 21.1028 28.6972 21.1203 28.6885C21.1376 28.6798 21.155 28.6711 21.1638 28.6624C21.1811 28.6538 21.1899 28.6364 21.2073 28.6189C21.216 28.6015 21.2334 28.5929 21.2334 28.5755C21.2421 28.5581 21.2508 28.5407 21.2508 28.5232C21.2508 28.5059 21.2595 28.4798 21.2595 28.4624V28.4016L21.2334 28.3493ZM21.5121 27.5054L20.6241 27.488V27.5489L21.338 27.5663L21.4251 27.5403L21.5121 27.5054Z" fill="#0D0802"/>
<path d="M17.3128 28.4441L18.0179 27.5048L18.6012 26.7395L18.4271 26.7917L17.1387 28.5049V28.4962V28.5049L17.5565 28.6179L17.6436 28.5919L17.722 28.5658L17.3128 28.4441ZM19.1674 28.9752L18.7235 28.8534L18.7147 28.3665V28.3577L18.0182 28.1577L17.9573 28.2447C18.1488 28.2969 18.5319 28.4099 18.5406 28.4099L18.5493 28.9057L18.9933 29.0274L19.0891 29.0013L19.1674 28.9752ZM18.5489 27.9662L18.7231 28.0184L18.7144 27.2271V27.2009L18.6883 27.1923L18.5403 27.401C18.5489 27.5575 18.5489 27.8271 18.5489 27.9662Z" fill="#0D0802"/>
<path d="M15.296 27.4182L15.3657 27.3225L15.4266 27.2355C15.3657 27.1921 15.3134 27.1486 15.2612 27.1051C15.2089 27.0616 15.1654 27.0094 15.1306 26.9659C15.0957 26.9138 15.061 26.8703 15.0348 26.8181C15.0087 26.766 14.9912 26.7138 14.9739 26.6616C14.9565 26.6094 14.9565 26.5485 14.9477 26.4964C14.9477 26.4442 14.9565 26.3833 14.9651 26.3311C14.9739 26.2789 15 26.2268 15.0261 26.1659C15.0261 26.1659 15.0261 26.1572 15.0348 26.1572C15.061 26.1137 15.0871 26.0616 15.1218 26.0181C15.1218 26.0181 15.1218 26.0093 15.1306 26.0093C15.1567 25.9746 15.1915 25.9311 15.2176 25.905C15.2524 25.8702 15.2786 25.8441 15.3134 25.818C15.3482 25.792 15.3831 25.7659 15.4179 25.7485C15.4527 25.7311 15.4875 25.7137 15.531 25.6963L15.3657 25.7571C15.3308 25.7745 15.2873 25.792 15.2524 25.8094C15.2176 25.8267 15.1828 25.8528 15.148 25.8789C15.1132 25.905 15.0783 25.9311 15.0522 25.9658C15.0174 26.0007 14.9912 26.0354 14.9651 26.0702C14.9304 26.1224 14.8955 26.1746 14.8694 26.2268C14.8433 26.2789 14.8259 26.3311 14.8084 26.392C14.7998 26.4442 14.791 26.4964 14.791 26.5572C14.791 26.6094 14.7998 26.6703 14.8171 26.7224C14.8345 26.7746 14.852 26.8268 14.8781 26.879C14.9042 26.9311 14.939 26.9834 14.9739 27.0268C15.0087 27.079 15.0522 27.1225 15.1045 27.166C15.148 27.2095 15.2089 27.253 15.2698 27.2964L15.1392 27.4791L15.5049 27.7139L15.6007 27.679L15.679 27.653L15.296 27.4182ZM16.567 25.6614L16.3929 25.7223L16.3494 25.7832C16.3755 25.8005 16.4104 25.8093 16.4365 25.8353L16.567 25.6614ZM16.7933 26.5918C16.7758 26.5656 16.7672 26.5309 16.7411 26.5047C16.7236 26.4787 16.6975 26.4526 16.6713 26.4266C16.6452 26.4004 16.6191 26.3743 16.5843 26.3569L16.4885 26.4874C16.4885 26.4874 16.4972 26.4874 16.4972 26.4961C16.5234 26.5222 16.5495 26.5483 16.5669 26.5744C16.5843 26.6004 16.6017 26.6265 16.6191 26.6613C16.6366 26.6874 16.6452 26.7222 16.6452 26.7483C16.654 26.7831 16.654 26.8092 16.654 26.844C16.654 26.8787 16.6452 26.9049 16.6452 26.9396C16.6366 26.9657 16.6278 27.0005 16.6105 27.0353C16.593 27.0701 16.5756 27.0962 16.5582 27.1309C16.5407 27.157 16.5234 27.1744 16.506 27.2005C16.4885 27.2179 16.4624 27.2352 16.445 27.2527C16.4276 27.2701 16.4102 27.2788 16.3928 27.2875H16.4102C16.445 27.2788 16.4711 27.2701 16.4972 27.2614C16.4972 27.2614 16.506 27.2614 16.506 27.2527C16.5321 27.244 16.5495 27.2266 16.5756 27.2179C16.5843 27.2179 16.5843 27.2092 16.593 27.2092C16.6191 27.1918 16.6366 27.1744 16.654 27.157L16.6627 27.1483C16.6888 27.1222 16.7062 27.0962 16.7323 27.07C16.7584 27.0353 16.7758 27.0092 16.7846 26.9744C16.8 26.944 16.8116 26.9119 16.8193 26.8787C16.8281 26.844 16.8281 26.8178 16.8281 26.7831C16.8281 26.7483 16.8281 26.7222 16.8193 26.6874C16.8193 26.6526 16.8107 26.6265 16.7933 26.5918ZM16.6797 27.6182C16.671 27.6182 16.6536 27.6269 16.6449 27.6269C16.6362 27.6269 16.6188 27.6356 16.6101 27.6356C16.5926 27.6356 16.584 27.6443 16.5665 27.6443C16.5579 27.6443 16.5404 27.6443 16.5317 27.653H16.462C16.4099 27.653 16.3576 27.653 16.2967 27.6443C16.2444 27.6356 16.1834 27.6269 16.1313 27.6095C16.079 27.5921 16.0181 27.5747 15.9658 27.5486C15.9136 27.5225 15.8526 27.4965 15.8005 27.4617L15.7221 27.566C15.7482 27.5747 15.7743 27.5921 15.8005 27.6095C15.8526 27.6356 15.9136 27.653 15.9658 27.6704C16.0181 27.6878 16.079 27.6964 16.1313 27.7052C16.1834 27.7139 16.2357 27.7139 16.2967 27.7139H16.3663C16.3838 27.7139 16.3924 27.7139 16.4099 27.7052C16.4273 27.7052 16.436 27.6964 16.4534 27.6964C16.462 27.6964 16.4795 27.6878 16.4881 27.6878C16.5056 27.6878 16.5143 27.679 16.523 27.679L16.6797 27.6182Z" fill="#0D0802"/>
<path d="M15.6448 26.9392L16.2367 26.1217C16.2096 26.1038 16.1804 26.0892 16.1497 26.0783C16.1236 26.0696 16.0887 26.0522 16.0626 26.0434C16.0365 26.0348 16.0017 26.0261 15.9756 26.0261C15.9495 26.0261 15.9146 26.0174 15.8885 26.0261H15.8189C15.784 26.0348 15.7579 26.0348 15.7231 26.0522C15.697 26.0609 15.6709 26.0783 15.6534 26.0869H15.8015C15.8275 26.0869 15.8624 26.0957 15.8885 26.1043C15.9146 26.1131 15.9495 26.1217 15.9756 26.1391C16.0017 26.1478 16.0365 26.1652 16.0626 26.1826L15.5664 26.8696C15.5925 26.8957 15.6186 26.9218 15.6448 26.9392Z" fill="#0D0802"/>
<path d="M29.3371 23.7834L29.5112 23.4269L27.6482 23.1138L27.4566 23.5051L28.7887 24.9139L28.954 24.5834L28.6319 24.2617L28.9018 23.7051L29.3371 23.7834ZM28.3968 24.0442L27.8658 23.5051L27.8745 23.4877L28.5971 23.6268L28.3968 24.0442ZM26.96 24.3311L26.6815 24.6267L26.8207 25.6268L26.7772 25.6703L26.2025 25.1311L25.9501 25.4007L27.2995 26.6791L27.552 26.4008L27.0035 25.879L27.0471 25.8355L28.0222 25.8878L28.3356 25.5573L27.1254 25.479L26.96 24.3311ZM25.184 25.9569L25.097 27.444L25.0796 27.4526L24.4441 26.383L24.1045 26.5743L25.0709 28.2005L25.393 28.0092L25.4714 26.5222L25.4887 26.5047L26.1243 27.5744L26.4551 27.3744L25.4975 25.7742L25.184 25.9569ZM23.7478 27.262C23.7304 27.2185 23.7043 27.1837 23.6869 27.149C23.6607 27.1142 23.6346 27.0794 23.5998 27.0533C23.565 27.0272 23.5389 27.0012 23.4954 26.975C23.4692 26.9577 23.4431 26.9489 23.417 26.9315C23.3909 26.9229 23.3648 26.9142 23.3299 26.9055C23.3038 26.8968 23.269 26.8968 23.2429 26.8881H23.1123C23.1036 26.8881 23.0862 26.8881 23.0774 26.8968C23.0601 26.8968 23.0513 26.8968 23.0339 26.9055C23.0165 26.9055 23.0078 26.9142 22.9904 26.9142L22.2155 27.1055L22.6857 28.9491L23.0774 28.8535L22.9294 28.2795L23.2951 28.1838C23.3474 28.1752 23.3909 28.1577 23.4344 28.1403C23.4779 28.1229 23.5127 28.0969 23.5476 28.0795C23.5824 28.0534 23.6172 28.0273 23.6434 28.0013C23.6695 27.9664 23.6956 27.9404 23.7217 27.8969C23.7478 27.8621 23.7652 27.8186 23.774 27.7838C23.7827 27.7491 23.8001 27.7055 23.8001 27.662C23.8087 27.619 23.8087 27.5747 23.8001 27.5316C23.8001 27.4881 23.7913 27.4447 23.774 27.3925C23.7827 27.3403 23.7652 27.2968 23.7478 27.262ZM23.417 27.6273C23.417 27.6447 23.4083 27.6708 23.3996 27.6882L23.3735 27.7403C23.3648 27.7577 23.3474 27.7751 23.3299 27.7925C23.3125 27.8099 23.2951 27.8186 23.2777 27.836C23.2603 27.8447 23.2342 27.8621 23.208 27.8707L23.1297 27.8969L22.8511 27.9664L22.6857 27.3229L22.9643 27.2534C22.973 27.2534 22.9817 27.2446 22.9904 27.2446C22.9991 27.2446 23.0078 27.2446 23.0165 27.2359H23.1123C23.1297 27.2359 23.1384 27.2359 23.1558 27.2446C23.1732 27.2446 23.1819 27.2534 23.1993 27.2534C23.2168 27.262 23.2254 27.262 23.2342 27.2708C23.2515 27.2794 23.269 27.2968 23.2864 27.3055C23.3038 27.3229 23.3125 27.3316 23.3299 27.3577C23.3386 27.3751 23.356 27.3924 23.3648 27.4186C23.3735 27.4447 23.3821 27.4621 23.3909 27.4881C23.3996 27.5142 23.3996 27.5403 23.3996 27.5577C23.417 27.5838 23.417 27.6099 23.417 27.6273ZM21.6145 28.2361C21.597 28.2013 21.5797 28.1665 21.5535 28.1318C21.5274 28.097 21.5013 28.0709 21.4752 28.0448C21.4404 28.0187 21.4143 27.9926 21.3707 27.9752C21.3359 27.9578 21.2923 27.9405 21.2576 27.9231C21.214 27.9057 21.1705 27.897 21.127 27.8882C21.0835 27.8796 21.0312 27.8796 20.979 27.8796L20.5959 27.8708L20.6046 27.4969L21.4926 27.5143L21.5013 27.1752L20.2041 27.1491L20.1606 29.071L20.9702 29.0797H21.0399C21.0835 29.0797 21.127 29.071 21.1617 29.0622C21.1966 29.0536 21.2401 29.0449 21.2749 29.0275C21.3098 29.0101 21.3446 29.0014 21.3794 28.9753C21.4143 28.9579 21.4404 28.9318 21.4664 28.9144C21.5013 28.8883 21.5274 28.8535 21.5535 28.8275C21.5797 28.7926 21.597 28.7579 21.6145 28.7231C21.6319 28.6883 21.6406 28.6448 21.6493 28.6101C21.658 28.5666 21.6668 28.5231 21.6668 28.4796C21.6668 28.4361 21.6668 28.3926 21.658 28.3491C21.6493 28.3057 21.6319 28.2709 21.6145 28.2361ZM21.2401 28.5318C21.2401 28.5492 21.2314 28.5666 21.2227 28.5839C21.214 28.6013 21.2053 28.6187 21.1966 28.6275C21.1878 28.6448 21.1705 28.6536 21.1531 28.671C21.1356 28.6796 21.127 28.6883 21.1096 28.697C21.0921 28.7057 21.0747 28.7144 21.0573 28.7144C21.0399 28.7231 21.0225 28.7231 20.9964 28.7318C20.979 28.7318 20.9529 28.7405 20.9267 28.7405H20.6046L20.6133 28.1839L20.9006 28.1927C20.9267 28.1927 20.9529 28.1927 20.979 28.2013C21.0051 28.2013 21.0312 28.21 21.0486 28.2187C21.0747 28.2274 21.0921 28.2361 21.1096 28.2448C21.127 28.2535 21.1443 28.2622 21.1617 28.2796C21.1792 28.2883 21.1879 28.3057 21.2053 28.3231L21.2314 28.3752C21.2401 28.3926 21.2488 28.41 21.2488 28.4274C21.2488 28.4449 21.2576 28.4709 21.2488 28.4883C21.2488 28.497 21.2401 28.5144 21.2401 28.5318ZM18.5936 26.7396L17.3052 28.4528L17.7231 28.5746L18.0191 28.1571L18.7156 28.3572L18.7242 28.8528L19.1683 28.9746L19.0812 26.8788L18.5936 26.7396ZM18.2019 27.8701L18.6807 27.1919L18.7068 27.2005L18.7156 28.018L18.2019 27.8701ZM17.174 26.488C17.1472 26.4356 17.1152 26.3861 17.0783 26.3402C17.0434 26.2881 16.9999 26.2445 16.9477 26.201C16.8954 26.1576 16.8432 26.1141 16.7823 26.0706L16.9042 25.8967L16.5472 25.6619L16.4254 25.8358C16.3731 25.801 16.3121 25.7749 16.2599 25.7489C16.2077 25.7227 16.1467 25.7054 16.0945 25.688C16.0423 25.6706 15.99 25.6619 15.9291 25.6532C15.8768 25.6445 15.8246 25.6445 15.7723 25.6445H15.7027C15.6417 25.6532 15.5895 25.6619 15.5373 25.6792C15.485 25.6967 15.4329 25.7227 15.3806 25.7489C15.3284 25.7749 15.2848 25.8184 15.2413 25.8532C15.1978 25.8967 15.1542 25.9402 15.1194 25.9923C15.0846 26.0445 15.0498 26.0967 15.0237 26.1489C14.9976 26.201 14.9801 26.2533 14.9627 26.3141C14.954 26.3663 14.9453 26.4185 14.9453 26.4794C14.9453 26.5315 14.954 26.5924 14.9714 26.6446C14.9888 26.6967 15.0062 26.749 15.0323 26.8011C15.0584 26.8533 15.0933 26.9055 15.1281 26.9489C15.1629 27.0012 15.2064 27.0446 15.2587 27.0881C15.3109 27.1316 15.3632 27.1751 15.4241 27.2185L15.2935 27.4012L15.6592 27.636L15.7898 27.4533C15.8507 27.4881 15.9029 27.5142 15.9552 27.5403C16.0074 27.5664 16.0684 27.5838 16.1206 27.6012C16.1728 27.6186 16.2338 27.6273 16.286 27.636C16.3383 27.6447 16.3905 27.6447 16.4514 27.6447H16.5211C16.582 27.636 16.6342 27.6273 16.6865 27.6099C16.7387 27.5925 16.791 27.5664 16.8432 27.5403C16.8954 27.5142 16.9389 27.4707 16.9825 27.436C17.026 27.3924 17.0695 27.349 17.1044 27.2968C17.1392 27.2446 17.174 27.1925 17.2001 27.1402C17.2253 27.091 17.2429 27.0383 17.2524 26.9838C17.2611 26.9315 17.2698 26.8794 17.2698 26.8185C17.2698 26.7663 17.2611 26.7142 17.2437 26.6533C17.2175 26.5924 17.2001 26.5403 17.174 26.488ZM15.6331 26.9403C15.5982 26.9142 15.5721 26.8881 15.546 26.8707C15.5199 26.8446 15.4938 26.8185 15.4764 26.7924C15.457 26.7646 15.4396 26.7356 15.4241 26.7055C15.4076 26.6794 15.3986 26.6494 15.398 26.6185C15.3893 26.5837 15.3893 26.5576 15.3893 26.5229C15.3893 26.488 15.398 26.462 15.398 26.4272C15.4067 26.3924 15.4154 26.3663 15.4329 26.3315C15.4503 26.2967 15.4676 26.2707 15.485 26.2358C15.5111 26.2098 15.5286 26.175 15.5547 26.1576C15.5809 26.1315 15.607 26.1141 15.6331 26.0967C15.6592 26.0793 15.6853 26.062 15.7201 26.0532C15.7462 26.0445 15.7811 26.0358 15.8158 26.0271H15.9726C15.9987 26.0271 16.0335 26.0358 16.0597 26.0445C16.0858 26.0532 16.1206 26.062 16.1467 26.0793C16.1728 26.088 16.2077 26.1054 16.2338 26.1228L15.6331 26.9403ZM16.8171 26.8707C16.8094 26.9038 16.7977 26.9359 16.7823 26.9663C16.7648 27.0012 16.7475 27.0272 16.7301 27.062C16.7039 27.0881 16.6865 27.1229 16.6604 27.1402C16.6342 27.1664 16.6081 27.1837 16.582 27.2011C16.5559 27.2185 16.5298 27.2359 16.495 27.2446C16.4689 27.2534 16.434 27.262 16.3992 27.2708H16.2425C16.2164 27.2708 16.1815 27.262 16.1554 27.2534C16.1293 27.2446 16.0945 27.2359 16.0684 27.2185C16.0377 27.2076 16.0085 27.193 15.9813 27.1751L16.5733 26.3576C16.6081 26.3837 16.6342 26.4011 16.6604 26.4272C16.6865 26.4532 16.7126 26.4794 16.7301 26.5054C16.7475 26.5315 16.7648 26.5576 16.7823 26.5924C16.7997 26.6185 16.8083 26.6533 16.8083 26.6793C16.8171 26.7142 16.8171 26.7402 16.8171 26.775C16.8258 26.8098 16.8171 26.8359 16.8171 26.8707ZM31.8531 17.9914C31.8269 17.7132 31.766 17.4175 31.6877 17.1219L31.6703 17.0436L31.5919 17.061C31.5658 17.061 31.5483 17.0696 31.5222 17.0696C31.4613 17.0696 31.4439 17.0522 31.4352 17.0436C31.0158 16.093 30.6037 15.1393 30.1989 14.1825V14.1737C30.1467 14.0868 30.1641 14.052 30.1641 14.052C30.1641 14.052 30.1728 14.0346 30.2599 14.0085L30.3382 13.9824L30.3121 13.9041C30.2773 13.7911 30.2511 13.6781 30.2164 13.565C30.1554 13.3476 30.0945 13.1389 30.0335 12.9214L30.0161 12.8605H29.9552C29.7984 12.8519 29.6243 12.8519 29.4241 12.8432C29.015 12.8345 28.6057 12.8345 28.1965 12.8432H28.1094V12.9302C28.1182 13.3476 28.1182 13.6867 28.1443 13.965V14.0259L28.2053 14.0433C28.2488 14.0607 28.2836 14.0781 28.2923 14.0955C28.301 14.1216 28.301 14.1563 28.2749 14.2085L28.2662 14.2259C28.153 15.0955 27.9963 16.1739 27.8222 17.4262L27.8135 17.5045L27.8918 17.5219H27.9353C28.2053 17.6175 28.4316 17.8436 28.5274 18.1219C28.5447 18.1726 28.5447 18.2277 28.5274 18.2784C28.4833 18.3994 28.434 18.5184 28.3794 18.635L28.3097 18.7916L28.7276 18.6959C28.9714 18.635 29.1803 18.5915 29.3631 18.548L29.4328 18.5306V18.4611C29.4328 18.148 29.4241 17.8436 29.398 17.5479L29.3893 17.4088H29.3806V17.4001L29.2935 17.4088H29.2151C29.2151 17.1131 29.2239 16.7914 29.2413 16.4783L29.4241 16.4522C29.546 16.4348 29.6678 16.4261 29.8158 16.4174C29.9117 16.7217 29.9813 17.0001 30.0248 17.2523C30.0248 17.2697 30.0074 17.2958 29.9117 17.3218L29.8419 17.3392L29.8507 17.4175C29.8594 17.5045 29.8768 17.5914 29.8855 17.6784C29.9117 17.8697 29.9378 18.0697 29.9726 18.261L29.99 18.4089H29.9987V18.4263L30.0858 18.4089C30.3295 18.3567 30.6168 18.3045 30.9477 18.235C31.2001 18.1827 31.4787 18.1306 31.7922 18.0697L31.8705 18.0523L31.8531 17.9914ZM29.5199 15.3478L29.3806 15.3651L29.2761 15.3825C29.2935 15.1999 29.3196 15.026 29.3545 14.8695C29.398 14.9912 29.4502 15.1303 29.5025 15.2956L29.5199 15.3478Z" fill="white"/>
<path d="M29.3965 14.7127C29.3791 14.6692 29.3617 14.6258 29.3356 14.5823C29.2572 14.8431 29.2136 15.1475 29.1875 15.478H29.2224L29.3965 15.4432L29.6403 15.4171C29.6315 15.391 29.6228 15.3737 29.6142 15.3475C29.5472 15.134 29.4746 14.9224 29.3965 14.7127Z" fill="#0D0802"/>
<path d="M28.4007 18.2179L28.392 18.183C28.2962 17.9309 28.1395 17.7656 27.887 17.6699L27.8609 17.6613L27.8348 17.6699C27.8 17.6787 27.7651 17.6961 27.7304 17.7047H27.7216C27.6781 17.7221 27.6433 17.7308 27.6084 17.7396L27.5301 17.757C27.4257 17.783 27.3647 17.783 27.3647 17.7743C27.3559 17.7656 27.3386 17.7308 27.3386 17.5656C27.3298 16.9742 27.3473 16.3568 27.3647 15.7568V15.722C27.3821 15.2262 27.3908 14.7219 27.3908 14.2349C27.3908 14.1218 27.4518 14.0783 27.5562 14.0348L27.6084 14.0088V13.9479C27.6084 13.7218 27.6171 13.5826 27.6171 13.4522C27.6259 13.2869 27.6345 13.1478 27.6084 12.8695L27.5998 12.7913H27.5214C27.1645 12.8 26.4244 12.8086 25.667 12.9217L25.5887 12.9304V13.4609C25.5887 13.7392 25.5887 13.9218 25.6322 14.2349L25.6409 14.3044H25.7193C25.8237 14.3044 25.8411 14.3479 25.8411 14.4175C25.8934 15.2436 25.9108 16.0002 25.9281 16.722V16.7655C25.9369 17.0612 25.9456 17.3568 25.9543 17.6439C25.9717 17.8786 25.9543 17.8786 25.754 17.9395C25.7193 17.9483 25.6931 17.9569 25.6757 17.9569C25.6409 17.9569 25.606 17.9395 25.5538 17.7743C25.4232 17.1655 25.3884 16.3394 25.3448 15.3915V15.3567C25.3362 15.1132 25.3187 14.861 25.3101 14.6001C25.3101 14.4871 25.3187 14.3827 25.4058 14.3567L25.4667 14.3392V14.2784C25.4667 14.1914 25.4581 14.1044 25.4581 13.9914C25.4493 13.8522 25.4407 13.6783 25.4232 13.4348C25.4232 13.3217 25.4058 13.0435 25.4058 13.0435L25.4146 12.9217L25.284 12.9478C25.2752 12.9478 24.4568 13.0782 23.8648 13.2C23.7468 13.2207 23.6304 13.2497 23.5166 13.2869L23.4557 13.3043V13.3652C23.4643 13.9653 23.4817 14.3392 23.5514 14.8176L23.5601 14.8784L23.6211 14.8871C23.6646 14.8958 23.6733 14.9045 23.6994 15.0349L23.7865 15.5828C23.8997 16.2959 23.9693 16.6612 24.039 17.0438V17.0525C24.0825 17.296 24.1347 17.5743 24.2131 17.9917C24.274 18.2265 24.2131 18.2874 24.1521 18.3396L24.1086 18.3831L24.1521 18.7048V18.7309C24.0897 18.6589 24.0163 18.5972 23.9345 18.5483C23.8823 18.5222 23.83 18.4961 23.7778 18.4787L23.7517 18.4701L23.7255 18.4787C23.5166 18.5483 23.3686 18.5918 23.2815 18.5918C23.238 18.5918 23.2293 18.5831 23.2206 18.5744C23.2119 18.557 23.1857 18.5222 23.1857 18.3831C23.177 17.8786 23.1684 17.3482 23.1684 16.8177C23.1596 16.3046 23.1596 15.8002 23.1596 15.3045C23.1596 15.1306 23.2293 15.0263 23.386 14.9654L23.4382 14.948V14.8871C23.4382 14.3827 23.4296 13.9653 23.4121 13.5826L23.4034 13.3304V13.3131L23.299 13.3391C22.881 13.4522 22.3239 13.5653 21.4446 13.7305L21.3749 13.7478V13.8175C21.3836 14.4348 21.4097 14.9393 21.4706 15.3567L21.4794 15.4349H21.5577C21.6012 15.4349 21.6535 15.4349 21.6622 15.5741C21.6971 16.0785 21.7318 16.5568 21.7667 17.0265V17.0351C21.8189 17.6439 21.8624 18.2265 21.8885 18.7918C21.9059 19.0266 21.8885 19.0266 21.6883 19.0874C21.6535 19.0962 21.6273 19.1048 21.61 19.1048C21.5751 19.1048 21.5403 19.0874 21.4881 18.9222C21.3314 18.1744 21.2095 17.0612 21.1398 15.6871C21.1311 15.5915 21.1659 15.5306 21.2617 15.4784L21.3052 15.4524V15.4002C21.2965 15.1132 21.2617 14.5654 21.2095 13.9392L21.2008 13.7826V13.7652L21.105 13.7826C20.7393 13.8349 19.2158 14.0174 19.1984 14.0174L19.12 14.0262L19.1288 14.1131C19.1723 14.7827 19.2245 15.2959 19.2941 15.7306L19.3029 15.7915L19.3725 15.8002C19.4595 15.8089 19.4595 15.8089 19.4944 16.0002L19.564 16.4264C19.7033 17.2873 19.8339 17.9309 19.9384 18.5048C20.0168 18.9049 20.0951 19.2875 20.1648 19.7136C20.2257 19.9485 20.1648 20.0093 20.1038 20.0615L20.0603 20.1049L20.1038 20.392C20.1473 20.705 20.1995 21.0442 20.304 21.4529L20.3128 21.4964C20.3128 21.5138 20.3215 21.5311 20.3215 21.5573L20.3476 21.6703V21.6877L20.5304 21.592C20.8873 21.4095 21.2879 21.2007 21.4794 21.1137C21.5665 21.0702 21.7232 21.0007 21.8973 20.9137C22.0471 20.842 22.1952 20.7666 22.3412 20.6876C22.2776 21.1552 22.2079 21.6219 22.1323 22.0877L22.1236 22.1225L22.141 22.1486C22.2716 22.3313 22.4718 22.4617 22.7331 22.5226H22.7592C22.7939 22.5226 22.8288 22.5052 22.8462 22.4703C23.3164 21.6182 23.6994 20.8268 23.9606 20.1136C24.0651 19.8353 24.1521 19.5658 24.2305 19.3136C24.2566 19.4353 24.2827 19.5571 24.3176 19.7049L24.3523 19.8614V19.8788L24.4482 19.8441C24.7529 19.7223 25.0837 19.6266 25.3187 19.5571L25.5625 19.4875C25.667 19.4527 25.8585 19.4005 26.0501 19.3484C26.1806 19.3136 26.3112 19.2788 26.4157 19.244C26.3548 19.7136 26.3026 20.018 26.2328 20.4615L26.2242 20.4963L26.2416 20.5224C26.3722 20.705 26.5724 20.8354 26.8336 20.8963C26.851 20.905 26.8597 20.905 26.8684 20.905H26.9032L26.9206 20.8963L26.9381 20.8877L26.9555 20.8703C27.3908 20.218 27.6955 19.7049 27.9392 19.218C28.009 19.0788 28.0698 18.957 28.1221 18.8266L28.1482 18.7831C28.2266 18.6005 28.3049 18.4178 28.3833 18.2179H28.4007ZM19.974 20.2263L19.9653 20.1567H19.8956C19.5648 20.148 19.4952 20.0088 19.4778 19.9567C19.4168 19.461 19.3559 18.9653 19.2949 18.487C19.1904 17.7217 19.0947 16.9304 18.999 16.0607C18.9815 15.9476 19.0163 15.8954 19.1296 15.852L19.1904 15.8346L19.1817 15.765C19.1469 15.3128 19.0947 14.8954 19.0512 14.5214L18.9902 14.0605L18.9119 14.0692C18.4853 14.104 18.0674 14.1388 17.5885 14.1649C17.4057 14.1735 17.2228 14.1909 17.0314 14.2083L16.892 14.2171L16.9008 14.304C16.9356 14.678 16.9791 15.0432 17.014 15.365L17.0226 15.4085C17.0401 15.5563 17.0575 15.6954 17.0836 15.8085V15.8433C17.0923 15.9129 17.101 15.9824 17.101 16.0433L17.1185 16.1216H17.1532V16.1302H17.2142C17.2751 16.1302 17.3709 16.139 17.397 16.1911C17.4144 16.2172 17.4405 16.3215 17.2577 16.5999C17.0487 16.8955 16.8398 17.2347 16.6483 17.6C16.6309 17.6347 16.6134 17.6695 16.5873 17.6956C16.5438 17.3216 16.5003 16.9216 16.4654 16.5129C16.4307 16.2781 16.5089 16.2346 16.5873 16.2085L16.657 16.1911L16.6483 16.1216C16.5873 15.5041 16.5264 14.8605 16.4393 14.304L16.4307 14.2257L16.3523 14.2344C15.6993 14.2779 15.0638 14.3301 14.4108 14.4084L14.1757 14.4344L14.1845 14.5214C14.2367 15.0519 14.2802 15.5215 14.3237 15.9303V15.9389C14.3499 16.1563 14.3673 16.3651 14.3934 16.5564C14.4021 16.5999 14.4282 16.6259 14.4892 16.6346C14.5066 16.6434 14.5327 16.6434 14.5501 16.6434C14.6111 16.6434 14.7243 16.6434 14.7329 16.9304C14.8724 18.4968 15.0495 20.0597 15.264 21.6177C15.3162 21.9221 15.2117 22.009 15.0986 22.0612L15.0464 22.0873V22.1482C15.0638 22.8613 15.1334 23.583 15.2727 24.3049C15.2815 24.3397 15.2988 24.3658 15.325 24.3744C15.3423 24.3832 15.3511 24.3832 15.3685 24.3832H15.3946L15.4121 24.3744C16.2913 23.9832 16.9356 23.6701 17.4318 23.3917L17.4841 23.3657V23.3135C17.4232 22.496 17.3361 21.8612 17.2316 21.3742L17.2055 21.2263L17.1185 21.2525C17.1097 21.2525 17.101 21.2611 17.0923 21.2611C17.0226 21.2611 16.9879 21.0872 16.9879 21.035L16.9791 20.9394C16.9181 20.2784 16.9181 20.2784 17.6147 19.2001L17.7365 18.9913C17.8186 19.5192 17.8796 20.0501 17.9194 20.5829C17.9368 20.7742 17.8845 20.9306 17.7714 21.0089L17.7279 21.035L17.7365 21.0872C17.7888 21.6786 17.8671 22.2873 17.9455 22.87L17.9716 22.9743L17.9977 23.1221L18.0151 23.1135V23.1221L18.1109 23.07C18.581 22.8091 20.1481 21.8699 20.1656 21.8612L20.2091 21.8351L20.2003 21.7829C20.1394 21.3915 20.0698 20.8437 19.974 20.2263ZM14.5411 23.801L14.5236 23.6358V23.5228L14.5062 23.3401C14.4627 23.0096 14.4279 22.7226 14.3931 22.4704L14.3844 22.3661H14.3756L14.367 22.3314L14.2799 22.3487C14.2364 22.3574 14.2015 22.3574 14.1667 22.3574C14.0623 22.3574 13.9578 22.3314 13.949 22.1052C13.7923 20.3312 13.6443 18.7136 13.505 17.3135C13.4615 16.9569 13.6008 16.8526 13.7053 16.8004L13.7576 16.7743L13.7488 16.7134C13.6878 15.9047 13.6008 15.2003 13.4964 14.5567L13.4789 14.4784L13.4006 14.4872C11.581 14.6698 9.64825 15.0176 7.64588 15.522L7.57617 15.5394V15.609C7.60229 16.1308 7.62841 16.6178 7.64588 17.07C7.67201 17.6091 7.69813 18.1049 7.71551 18.5571V18.6354H7.79387C7.95924 18.644 8.07246 18.6875 8.15082 18.7658C8.22918 18.8528 8.2553 18.9832 8.24657 19.1571V19.1745C8.32493 20.6877 8.41203 22.1139 8.4903 23.401C8.49904 23.7924 8.35105 23.9923 8.00284 24.062L7.93312 24.0793V24.1489C7.95924 24.9664 7.98536 25.749 8.02896 26.4795C8.02896 26.5056 8.04634 26.5317 8.06373 26.5491C8.0812 26.5665 8.10732 26.5752 8.13344 26.5752H8.15082C9.30869 26.3665 10.3622 26.1143 11.2675 25.836L11.3373 25.8186V25.749C11.2763 24.8272 11.224 24.1402 11.1631 23.5054V23.4966L11.0761 23.5054L11.1631 23.4793L11.1544 23.3923L11.0673 23.401H11.0064C10.8671 23.401 10.7017 23.3575 10.6581 23.027C10.5189 21.0094 10.4144 19.4354 10.3273 18.357C10.3187 17.9657 10.4405 17.7222 10.6756 17.644C10.8932 17.5744 11.1196 17.5048 11.3459 17.4439C11.4417 17.4266 11.5114 17.4439 11.5549 17.4874C11.6071 17.5396 11.6332 17.6526 11.6332 17.8092C11.7726 19.4267 11.9206 21.0443 12.0685 22.6357C12.1121 23.0357 11.9553 23.1488 11.8073 23.2009L11.7465 23.2271L11.7812 23.5488C11.8508 24.2445 11.9118 24.8446 11.9728 25.3838L11.9989 25.6273V25.6446L12.1034 25.6099C13.0698 25.2968 13.8184 25.0185 14.4017 24.775C14.4279 24.775 14.4279 24.775 14.5933 24.6881L14.6456 24.6619L14.6368 24.6011C14.6194 24.2793 14.5846 24.0271 14.5411 23.801Z" fill="white"/>
<path d="M5.47375 25.357C6.05705 25.357 6.8232 25.8527 7.4065 25.8788C7.38911 25.4092 7.37173 24.9309 7.35425 24.4266V24.3831L7.24977 24.4091C6.26602 24.5918 5.06456 24.557 4.56836 25.6092C4.82948 25.4353 5.14292 25.3484 5.45637 25.3484H5.47375V25.357Z" fill="url(#paint1_linear_14770_91328)"/>
<path d="M7.84788 22.7917C7.66503 22.8178 7.59541 23.0874 7.46481 23.157C7.29935 23.2439 6.89889 23.2092 6.5332 23.0961C6.75964 23.3396 7.40383 23.444 7.60406 23.4874C7.69989 23.5135 7.80428 23.5309 7.90012 23.5744C7.88265 23.3222 7.86526 23.0613 7.84788 22.7917Z" fill="url(#paint2_linear_14770_91328)"/>
<path d="M7.12956 20.1135C6.18057 20.6179 5.33616 19.7134 4.53516 20.957C5.09234 20.757 5.71923 20.67 6.29379 20.8266C6.85097 20.9744 7.22531 21.5397 7.78257 21.6354C7.73898 20.9396 7.70421 20.2091 7.66062 19.4525V19.3482C7.66062 19.3134 7.66062 19.296 7.65197 19.2786H7.64323C7.59973 19.6352 7.40815 19.9656 7.12956 20.1135Z" fill="url(#paint3_linear_14770_91328)"/>
<path d="M4.63799 19.0434C5.43026 19.0956 6.34439 17.9824 7.1018 18.165C7.07131 17.4082 7.03648 16.6516 6.99731 15.8952C6.99731 15.8344 7.00605 15.7735 7.03217 15.7126C5.72623 15.7474 4.22007 18.1564 2.51367 17.1563C2.87062 17.9477 3.66289 19.0521 4.63799 19.0434Z" fill="url(#paint4_linear_14770_91328)"/>
<path d="M10.7772 12.0343C11.1168 12.0952 11.4997 12.5996 11.7262 12.8257C11.848 12.9475 12.057 13.1474 12.205 13.304L12.2136 13.2953C13.389 12.1474 14.8603 11.3125 16.4709 10.8343C16.1315 10.1038 15.609 9.19059 14.9648 8.20788C14.9561 8.19923 14.9474 8.18185 14.9474 8.17311C14.2161 7.28606 12.8231 7.60789 12.414 7.75571C11.195 8.20788 9.38424 9.51242 9.99366 11.0342C9.99366 11.0342 9.99366 11.043 9.98492 11.0342C9.39289 10.5038 9.72372 9.52107 10.1068 8.95585C10.6378 8.17311 11.4388 7.67743 12.3181 7.31218C13.093 6.99044 14.0681 6.95567 14.7559 7.40784C14.8603 7.38172 15.7223 6.76435 15.905 6.51214C15.9225 6.48602 15.966 6.50341 15.966 6.53818C15.9225 6.85127 15.1476 7.547 15.0257 7.64266C15.1476 7.77309 15.6178 8.66014 15.7658 8.90361C16.175 8.56448 16.5232 8.15573 16.7844 7.66878C17.063 7.14698 17.1761 6.46864 16.9759 5.97296C16.9759 6.37298 16.8453 6.78173 16.5493 7.07736C16.4797 7.14698 16.4013 7.05997 16.4535 6.9817C16.8714 6.39036 16.8714 5.54682 16.2881 5.05114C15.7484 4.59023 15.0692 4.69454 14.7036 5.05979C14.6601 5.1033 14.5904 5.19022 14.5208 5.25984C14.5382 4.99025 14.5643 4.61627 14.3292 4.32929C14.1464 4.11194 13.7547 4.01628 13.3194 4.14671C13.1017 4.22498 12.884 4.07708 12.6664 3.95539C12.5793 3.92062 12.501 3.8945 12.4313 3.88577C12.2834 3.87712 12.144 3.91189 12.0048 4.04231C11.848 4.19021 11.7871 4.45107 11.7174 4.64239C11.6217 4.90324 11.4824 5.17283 11.2647 5.34677C10.6378 5.86857 9.68895 5.91207 8.92281 6.21643C8.14793 6.69472 7.9912 7.25129 8.45264 7.87749C8.65287 8.09484 8.92281 8.25138 9.16654 8.41667C9.18393 8.42532 9.17528 8.46009 9.1578 8.46009C8.76608 8.47747 8.4004 8.36443 8.13928 8.12096C7.73874 7.9209 7.12067 8.21661 6.79849 8.63402C6.35452 9.19059 6.25004 9.77327 6.45901 10.3994C7.50365 12.704 10.4202 11.9126 10.4725 11.9039C10.5247 11.8952 10.5595 11.956 10.4986 11.9822C9.61059 12.2865 8.68772 12.3126 7.77359 12.1213C8.68772 12.8257 9.74119 12.9214 10.9426 12.4169C10.8642 12.2953 10.7946 12.1735 10.7685 12.0604C10.7249 12.0517 10.7511 12.0343 10.7772 12.0343Z" fill="white"/>
<path d="M32.05 17.974C32.0239 17.7131 31.9717 17.4174 31.8933 17.0957C31.8768 17.025 31.8348 16.9629 31.7754 16.9212C31.716 16.8795 31.6433 16.8611 31.5712 16.8696C31.1721 15.9683 30.7803 15.0639 30.3959 14.1563C30.4133 14.1389 30.4394 14.1128 30.4481 14.0954C30.4916 14.0258 30.509 13.9302 30.4829 13.8519C30.3871 13.5214 30.3001 13.2083 30.2218 12.8953C30.1869 12.7648 30.0738 12.6779 29.9432 12.6692C29.5426 12.6518 28.9681 12.6431 28.1932 12.6431C28.1497 12.6431 28.1062 12.6518 28.0627 12.6779C28.0278 12.6953 27.9843 12.7214 27.9582 12.7388C27.9233 12.7562 27.8188 12.8344 27.8015 12.8431C27.758 12.7214 27.6447 12.6344 27.5141 12.6344C27.2182 12.6431 26.8176 12.6518 26.3737 12.6779C26.2263 12.5657 26.0753 12.4584 25.921 12.3561C24.8675 11.6517 23.7009 11.1299 22.4907 10.7995C21.7594 10.5994 21.0107 10.4776 20.2533 10.4255C20.0128 10.4081 19.7718 10.3994 19.5307 10.3994C18.5904 10.3994 17.6763 10.5212 16.797 10.7472C16.7883 10.7472 16.7796 10.756 16.7622 10.756C16.5445 10.3125 16.2485 9.77327 15.9438 9.26021C16.5793 8.73841 17.1017 8.02529 17.3106 7.24264C17.4935 6.53817 17.3368 5.83379 16.8666 5.48593C16.7883 5.24245 16.6664 5.01637 16.4922 4.8337C16.0222 4.33802 15.3779 4.27713 14.7685 4.45971C14.7597 4.39891 14.7511 4.33802 14.725 4.27713C14.4899 3.71183 13.9152 3.5814 13.3494 3.76407C13.1317 3.81622 12.9141 3.7901 12.6964 3.67706C12.6441 3.65103 12.5833 3.63355 12.531 3.61617C12.383 3.54663 12.235 3.52925 12.0957 3.56402C11.7039 3.60752 11.3905 3.92062 11.2077 4.51195C10.9378 5.39027 9.52742 5.57294 8.77002 5.90333C7.78617 6.26858 7.64692 7.0252 7.76879 7.52961C7.79395 7.6489 7.83804 7.76339 7.89939 7.86874C7.28123 7.79921 6.75891 8.05141 6.31486 8.61663C5.71418 9.37325 5.74895 10.2863 6.27136 11.1734C7.5337 13.1388 9.11823 13.4345 11.0336 12.6431C11.0684 12.6692 11.0945 12.6953 11.1293 12.7214C11.2251 12.8344 11.3208 12.9387 11.3905 13.0344C11.5124 13.1909 11.7126 13.4432 11.8519 13.6345C11.582 13.9214 11.3296 14.2258 11.1032 14.5476C11.0945 14.565 11.0858 14.5737 11.0771 14.5911C9.91299 14.7822 8.75704 15.0201 7.61206 15.3042H7.60333C5.93179 14.7911 4.69557 17.0348 3.39837 17.0087C2.76282 17.0087 1.51778 15.8173 2.19691 17.3044C2.64961 18.3045 3.38963 19.3567 4.59108 19.3567C5.66194 19.3567 6.71532 18.2262 7.10713 18.6436C7.10713 18.6958 7.10713 18.748 7.11586 18.8001C7.11586 18.9306 7.18549 19.0437 7.28123 19.1132C7.30735 19.7046 6.53248 20.0872 5.61835 19.9481C4.65197 19.8002 4.32114 20.4873 4.04255 21.009C3.92069 21.2438 4.14704 21.496 4.39086 21.4004C4.96542 21.1656 5.58358 21.0178 6.20165 21.1829C6.83719 21.3569 7.15063 21.9308 7.81229 22.0178C7.82103 22.1657 7.82968 22.3048 7.83841 22.444C7.3596 22.4788 7.56856 22.9309 6.99391 22.9223C6.8198 22.9223 6.33225 22.7396 6.17553 22.7222C5.90567 22.7048 5.89694 22.9049 6.1059 23.1484C6.5586 23.6788 7.09839 23.5919 7.62945 23.8702C6.96779 24.2702 6.03627 24.0702 5.31364 24.3919C4.63459 24.6964 4.18189 25.2616 4.03391 25.966C3.98166 26.2095 4.26025 26.4008 4.46922 26.2617C4.69557 26.1051 4.92192 25.8008 5.23527 25.7486C6.01015 25.6182 6.5586 26.1748 7.28123 26.2878C7.33348 26.2965 7.37698 26.2965 7.42057 26.2965C7.42922 26.453 7.43796 26.6008 7.44669 26.7574C7.45534 26.8704 7.50758 26.9748 7.60333 27.0443C7.67304 27.0966 7.76005 27.1313 7.84715 27.1313C7.87327 27.1313 7.89939 27.1313 7.91677 27.1226C9.01375 26.9226 10.0236 26.6878 10.9552 26.4182C10.9639 26.4182 10.9813 26.4095 10.99 26.4095C11.0075 26.4008 11.0336 26.4008 11.051 26.3921C11.0597 26.3921 11.0597 26.3835 11.0684 26.3835C11.3992 26.2965 11.4863 26.1051 11.4863 25.9834C12.235 26.9835 13.2274 27.8531 14.2983 28.5662C16.1179 29.775 18.1029 30.4012 20.262 30.4534H20.558C23.9621 30.4534 27.0527 29.0619 28.9246 26.453C30.422 24.3659 31.0488 21.8265 30.5874 19.261C30.57 19.148 30.5439 19.0263 30.5177 18.9132C30.7441 18.8698 30.9965 18.8263 31.2665 18.7741L31.3361 18.7654C31.3535 18.7654 31.371 18.7567 31.3884 18.748L31.989 18.174C32.0326 18.1393 32.0588 18.061 32.05 17.974ZM4.63485 19.0437C3.65974 19.0523 2.86748 17.9479 2.51053 17.1565C4.21692 18.1566 5.72309 15.7477 7.02903 15.7129C7.00291 15.7651 6.99417 15.826 6.99417 15.8955C7.03776 16.7478 7.07253 17.5044 7.09865 18.1653C6.33251 17.9914 5.42712 19.0958 4.63485 19.0437ZM5.47062 25.3573H5.45324C5.13979 25.3573 4.82634 25.4443 4.56523 25.6182C5.06143 24.5659 6.27162 24.6007 7.24664 24.418L7.35112 24.3919V24.4354C7.36859 24.9311 7.38598 25.4181 7.40336 25.8878C6.82006 25.8529 6.05392 25.3573 5.47062 25.3573ZM27.5228 12.9129C27.5402 13.1825 27.5402 13.3216 27.5314 13.4781C27.5228 13.6085 27.5228 13.7477 27.5228 13.9738C27.4357 14.0086 27.3051 14.0694 27.3051 14.2521C27.3051 14.7478 27.2877 15.2522 27.279 15.7566C27.2616 16.3653 27.2442 16.9914 27.2528 17.5915C27.2528 17.7481 27.2616 17.8263 27.3051 17.8611C27.3226 17.8785 27.3573 17.8959 27.4009 17.8959C27.4444 17.8959 27.4879 17.8872 27.5576 17.8698C27.6098 17.8611 27.6795 17.8351 27.7491 17.8089C27.7579 17.8089 27.7579 17.8089 27.7665 17.8002C27.8014 17.7916 27.8361 17.7742 27.871 17.7654C28.0974 17.8437 28.2367 17.9915 28.3237 18.2264C28.2453 18.4177 28.1757 18.6003 28.0887 18.7829H28.08C28.0168 18.9266 27.95 19.0687 27.8797 19.2091C27.6447 19.6787 27.3399 20.183 26.8959 20.844H26.8872C26.6434 20.7831 26.4606 20.6701 26.3387 20.4961C26.4171 19.9917 26.4693 19.6787 26.5389 19.1308C26.5303 19.1308 26.5128 19.1395 26.4954 19.1395C26.3997 19.1829 26.2256 19.2352 26.0427 19.2873C25.8512 19.3395 25.6597 19.3917 25.5552 19.4265L25.3288 19.496C25.0851 19.5657 24.7455 19.6613 24.4321 19.7917V19.7744C24.4234 19.757 24.4234 19.7395 24.4234 19.7135C24.319 19.2961 24.2754 18.9916 24.2406 18.7308L24.197 18.4524C24.2667 18.3829 24.3799 18.3134 24.3015 18.009C24.2477 17.698 24.1897 17.3878 24.1274 17.0784C24.0578 16.6958 23.9881 16.3306 23.8662 15.6174L23.7792 15.0695C23.7618 14.9565 23.7443 14.8608 23.6312 14.8434C23.5615 14.3565 23.5441 13.9738 23.5353 13.3998C23.6457 13.3608 23.7594 13.3317 23.8749 13.3129C24.4756 13.1825 25.2853 13.0607 25.2853 13.0607L25.3115 13.052V13.0694C25.3115 13.0694 25.3201 13.3564 25.3288 13.4695C25.355 13.7217 25.3637 13.8956 25.3637 14.026C25.3723 14.1391 25.3723 14.2173 25.3723 14.3043C25.2156 14.3565 25.2156 14.5304 25.2156 14.6347C25.2331 14.9131 25.2417 15.1827 25.2505 15.4348C25.294 16.3915 25.3288 17.2089 25.4594 17.8263C25.5117 17.9915 25.5552 18.0785 25.6597 18.0785C25.6945 18.0785 25.7293 18.0698 25.7642 18.0612C25.9905 17.9915 26.0427 17.9568 26.0254 17.6698C26.0166 17.3742 26.0079 17.0784 25.9992 16.7654C25.9818 16.0349 25.9556 15.2696 25.9121 14.4347C25.9034 14.3043 25.8338 14.2434 25.7032 14.2434C25.6597 13.939 25.6597 13.7564 25.6597 13.4868V13.0346C26.4258 12.9303 27.1658 12.9129 27.5228 12.9129ZM15.3431 21.6006C15.1429 20.157 14.9688 18.583 14.8121 16.9219C14.8033 16.6697 14.7163 16.5566 14.5422 16.5566H14.5074L14.4725 16.548C14.4465 16.3566 14.429 16.1566 14.4029 15.9305C14.3594 15.5131 14.3159 15.0435 14.2636 14.5217L14.4203 14.5043C15.063 14.43 15.7075 14.372 16.3531 14.3304C16.4314 14.8434 16.4923 15.4435 16.562 16.1479C16.4053 16.2001 16.3531 16.3218 16.3792 16.548C16.4227 17.0523 16.475 17.5394 16.5358 17.9829C16.5968 17.8698 16.6578 17.7654 16.7187 17.6611C16.8983 17.3186 17.0989 16.9875 17.3195 16.6697C17.4674 16.4436 17.5197 16.2697 17.4674 16.1653C17.4326 16.0957 17.3456 16.061 17.2062 16.061V16.0522H17.1801C17.1714 15.9827 17.1627 15.8957 17.154 15.8175C17.1279 15.687 17.1105 15.5566 17.0931 15.4174C17.0583 15.0783 17.0147 14.713 16.9799 14.313H17.0321C17.746 14.2608 18.3293 14.226 18.9214 14.1738L18.9823 14.5304C19.0258 14.9043 19.0781 15.3305 19.1129 15.7826C18.9561 15.8349 18.8952 15.9305 18.9214 16.0871C19.0084 16.9567 19.1129 17.7481 19.2173 18.5133C19.2868 19.005 19.3478 19.4979 19.4002 19.9917C19.4263 20.0961 19.5482 20.2439 19.8964 20.2613C19.9735 20.7698 20.0373 21.2802 20.088 21.7919C20.088 21.7919 18.5122 22.7398 18.042 23.0007V22.966L18.0159 22.8703C17.9375 22.2876 17.8592 21.6789 17.8069 21.0875C17.9463 20.9918 18.0159 20.8092 17.9898 20.5831C17.9375 19.9222 17.8679 19.3395 17.7722 18.7569C17.7393 18.8132 17.7044 18.8683 17.6677 18.9221L17.5283 19.1656C16.8144 20.27 16.8144 20.27 16.8754 20.957L16.8841 21.0527C16.9103 21.2527 16.9799 21.3571 17.0756 21.3571C17.0931 21.3571 17.1105 21.3571 17.1279 21.3484V21.3658C17.1279 21.3832 17.1366 21.3918 17.1366 21.4093C17.2497 21.9224 17.3281 22.5572 17.3891 23.3399C16.858 23.6268 16.205 23.9399 15.3692 24.3138H15.3519L15.3431 24.3052C15.2125 23.5921 15.1342 22.8703 15.1255 22.1572C15.3257 22.0528 15.3954 21.8789 15.3431 21.6006ZM14.6728 22.018V22.0267C14.6296 22.044 14.5904 22.0699 14.5575 22.1028C14.5245 22.1357 14.4986 22.1749 14.4812 22.2181L14.4725 22.2093C14.4323 22.1845 14.3882 22.1669 14.342 22.1572C14.2636 22.0354 14.1853 21.8962 14.1156 21.7832C13.9676 20.1222 13.8283 18.6264 13.6977 17.3045C13.6977 17.2698 13.689 17.235 13.689 17.2089C13.7238 17.1567 13.7412 17.0871 13.7499 17.0176C13.7587 17.0176 13.7587 17.0176 13.7673 17.0089C13.7935 17.0002 13.8108 16.9828 13.837 16.9654C13.8631 17.0176 13.8979 17.0697 13.9502 17.1132C14.0024 17.1567 14.072 17.1828 14.1417 17.1915V17.2089C14.2812 18.7783 14.4583 20.3441 14.6728 21.905V22.018ZM22.4038 20.5831C22.2993 20.6439 22.073 20.7571 21.864 20.8614C21.6899 20.9484 21.5332 21.0179 21.4461 21.0614C21.2546 21.1484 20.8454 21.3571 20.4797 21.5484L20.4014 21.5919V21.5745C20.3927 21.5397 20.3839 21.505 20.3839 21.4701C20.2795 21.044 20.2272 20.6962 20.1837 20.4092L20.1489 20.1656C20.2186 20.1048 20.3317 20.0266 20.2533 19.7221C20.1837 19.3047 20.1054 18.9221 20.027 18.5221C19.9139 17.9394 19.7833 17.2871 19.6439 16.4175L19.583 16.0262C19.5482 15.8261 19.5308 15.774 19.3828 15.7566C19.3131 15.287 19.2608 14.7478 19.2173 14.1477C19.2173 14.1477 20.7584 13.9651 21.124 13.913V13.9999C21.1849 14.7391 21.2111 15.2261 21.2197 15.4609C21.0978 15.5304 21.0456 15.6261 21.0543 15.7566C21.124 17.1306 21.2458 18.2525 21.4026 19.0004C21.4548 19.1656 21.4983 19.2526 21.6028 19.2526C21.6376 19.2526 21.6725 19.2438 21.7073 19.2352C21.9336 19.1656 21.9859 19.1308 21.9685 18.8438C21.9511 18.2699 21.8988 17.6872 21.8466 17.0697C21.8117 16.6088 21.7682 16.1305 21.7421 15.6261C21.7334 15.4783 21.6725 15.4087 21.5505 15.4087C21.4897 14.9652 21.4635 14.4608 21.4548 13.8781C22.2558 13.7303 22.8565 13.6085 23.3092 13.4868V13.652C23.3266 14.0782 23.3353 14.5043 23.3353 14.9565C23.1438 15.0348 23.0481 15.1652 23.0481 15.374C23.0481 15.8697 23.0481 16.3741 23.0567 16.8871C23.0654 17.4002 23.0654 17.922 23.0742 18.4524C23.0742 18.583 23.0916 18.6612 23.1351 18.7046C23.1612 18.7308 23.2047 18.7482 23.2569 18.7482C23.3614 18.7482 23.5181 18.7046 23.7271 18.6264C23.7793 18.6438 23.8316 18.6612 23.8664 18.6873C24.0231 18.7743 24.1363 18.9133 24.2059 19.096C24.1189 19.4265 24.0144 19.7744 23.8751 20.1309C23.6052 20.8353 23.2308 21.6266 22.7607 22.4789C22.7607 22.4876 22.752 22.4876 22.7433 22.4876C22.4995 22.4268 22.3167 22.3137 22.1948 22.1398C22.2732 21.6354 22.3515 21.1223 22.4212 20.5744L22.4038 20.5831ZM23.3875 18.4351C23.3789 17.9394 23.3702 17.4698 23.3702 17.0002C23.4485 17.4437 23.5181 17.7568 23.6226 18.3568V18.3655C23.5269 18.3916 23.4485 18.4177 23.3875 18.4351ZM23.3528 13.1911C23.3179 13.1911 23.2831 13.1911 23.2569 13.1999C22.813 13.3129 22.2036 13.4433 21.4374 13.5651C21.3678 13.5738 21.3155 13.6085 21.2719 13.652C21.2111 13.6173 21.1501 13.6085 21.0805 13.6173C20.6451 13.6868 20.0183 13.7564 19.2 13.8347C19.1477 13.8434 19.0955 13.8607 19.052 13.8956C19.0084 13.8695 18.9475 13.8607 18.8952 13.8695C18.2945 13.9216 17.7025 13.9564 16.9799 13.9913C16.9538 13.9913 16.9364 13.9999 16.9103 13.9999C16.8234 14.0259 16.7432 14.0704 16.6752 14.1303C16.6664 14.1391 16.6491 14.1477 16.6403 14.1477C16.6317 14.1477 16.6142 14.1564 16.6056 14.1564C16.5446 14.0694 16.4488 14.0086 16.3356 14.0173C16.0919 14.0347 15.8219 14.0521 15.526 14.0782C17.6242 12.3302 20.767 11.9302 23.4746 13.1042C23.4311 13.139 23.3875 13.1651 23.3528 13.1911ZM17.2933 20.9135C17.2933 20.957 17.2846 20.9832 17.2846 21.0005C17.2585 21.0179 17.2411 21.0527 17.215 21.0701C17.1975 21.0614 17.1801 21.0527 17.1627 21.0527C17.1627 21.0353 17.154 21.0179 17.154 21.0005C17.1366 20.8005 17.1192 20.6527 17.1192 20.557C17.1192 20.4179 17.1366 20.3396 17.2236 20.1656C17.2497 20.3918 17.2672 20.6179 17.2846 20.8614C17.2933 20.8788 17.2933 20.8961 17.2933 20.9135ZM17.154 23.9834C17.3368 23.9225 17.5022 23.766 17.5806 23.5921C17.6938 23.6356 17.8244 23.6356 17.9289 23.5747C18.4077 23.3137 18.9736 22.992 19.3479 22.7659C19.6962 22.5572 19.7484 22.5224 19.9835 22.3745C20.042 22.3421 20.0903 22.2939 20.1228 22.2355C20.1837 22.2355 20.236 22.2181 20.2882 22.192C20.6713 21.9919 21.124 21.7571 21.3155 21.6702C21.3939 21.6354 21.5244 21.5658 21.6725 21.4962C21.6289 21.7745 21.5854 22.0528 21.5419 22.3137C21.5244 22.418 21.5505 22.5224 21.6115 22.6094C21.7944 22.8616 22.073 23.0268 22.3777 23.105C22.5518 23.1485 22.6998 23.0877 22.8216 22.9137C22.9522 22.7311 23.0045 22.6441 23.0306 22.6007C23.4659 21.818 23.8055 21.1049 24.0753 20.4352C24.1449 20.444 24.2147 20.444 24.2755 20.4179C24.6674 20.2613 25.1114 20.1483 25.3725 20.0613C25.4596 20.0352 25.6076 19.9917 25.7731 19.9483C25.7381 20.1956 25.6974 20.442 25.6511 20.6874C25.6337 20.7918 25.6598 20.8961 25.7208 20.9832C25.9036 21.2354 26.1822 21.4006 26.4869 21.4788C26.513 21.4876 26.5305 21.4876 26.5566 21.4876C26.6262 21.505 26.7046 21.4876 26.7656 21.4441C26.8162 21.4192 26.8607 21.3836 26.8961 21.3397C27.0093 21.2266 27.0964 21.0788 27.1399 21.0179C27.4533 20.5483 27.6971 20.157 27.8973 19.8004C27.8277 20.9309 27.4446 22.0528 26.7046 23.0355C24.4845 26.0097 19.9486 26.6619 16.5709 24.4965C16.5012 24.453 16.4403 24.4095 16.3706 24.3661C16.6367 24.2488 16.8981 24.1212 17.1542 23.9834H17.154ZM18.6428 10.7651H18.6863C18.8691 10.7477 19.0432 10.7303 19.2261 10.7216C19.3218 10.7129 19.4176 10.7129 19.5133 10.7129C19.6178 10.7129 19.7136 10.7043 19.818 10.7043C20.0445 10.7043 20.2708 10.7129 20.4972 10.7303C22.4038 10.8521 24.2582 11.4869 25.8688 12.5565C25.9472 12.6088 26.0168 12.6609 26.0864 12.7131C25.9472 12.7218 25.8078 12.7392 25.6598 12.7566C25.5902 12.7652 25.5292 12.8001 25.4857 12.8435C25.4248 12.8088 25.3551 12.7914 25.2855 12.8001C24.9198 12.8609 24.4671 12.9305 23.8664 13.0522C20.8541 11.5391 17.215 12 14.9426 14.1654C14.725 14.1828 14.4985 14.2089 14.2548 14.2262C13.924 14.2611 13.7586 14.4437 13.6976 14.5132C13.6541 14.3915 13.5322 14.3045 13.3929 14.3219C12.9227 14.3654 12.4353 14.4263 11.9477 14.4958C13.5148 12.4087 15.9438 11.0695 18.6427 10.7651H18.6428ZM10.7725 12.0347C10.7464 12.0261 10.729 12.0521 10.729 12.0783C10.7551 12.2 10.8247 12.3217 10.9031 12.4349C9.70162 12.9392 8.6395 12.8435 7.73402 12.1391C8.64815 12.3305 9.57102 12.3043 10.459 12C10.52 11.9739 10.4851 11.9217 10.4329 11.9217C10.3807 11.9304 7.46417 12.7218 6.41943 10.4173C6.20173 9.79109 6.31495 9.19975 6.759 8.65183C7.08109 8.23443 7.7079 7.93007 8.09971 8.13877C8.35217 8.38224 8.71786 8.49537 9.11832 8.4779C9.14444 8.4779 9.14444 8.44313 9.12705 8.43448C8.88323 8.2692 8.61338 8.11265 8.41315 7.8953C7.95172 7.26046 8.10844 6.70389 8.88323 6.23425C9.64938 5.92989 10.5984 5.89512 11.2252 5.36458C11.4429 5.182 11.5821 4.91241 11.6779 4.6602C11.7562 4.46889 11.8085 4.19929 11.9652 4.06013C12.1045 3.9297 12.2438 3.90358 12.3918 3.90358C12.4615 3.91232 12.5485 3.93844 12.6269 3.97321C12.8532 4.08625 13.0622 4.23406 13.2798 4.16452C13.7238 4.0341 14.1069 4.12102 14.2897 4.34711C14.5335 4.63408 14.4986 5.00807 14.4812 5.27766C14.5509 5.20812 14.6206 5.12111 14.6641 5.07761C15.0298 4.71236 15.7175 4.60805 16.2486 5.06896C16.8319 5.56464 16.8319 6.40818 16.414 6.99952C16.3617 7.06914 16.4488 7.15606 16.5097 7.09518C16.8058 6.79955 16.945 6.39953 16.9364 5.99078C17.1366 6.48645 17.0234 7.1648 16.7448 7.6866C16.4836 8.17354 16.1354 8.5823 15.7262 8.92143C15.5782 8.68669 15.1081 7.79091 14.9862 7.66048C15.0994 7.56482 15.8742 6.86909 15.9264 6.55599C15.9352 6.52122 15.8917 6.50384 15.8655 6.52996C15.6827 6.78217 14.8294 7.39089 14.7163 7.42566C14.0285 6.97348 13.0622 7.00825 12.2786 7.33C11.3993 7.6866 10.5984 8.18228 10.0673 8.97367C9.68423 9.53888 9.36205 10.5303 9.94535 11.0521H9.95409C9.34467 9.53024 11.1642 8.21705 12.3744 7.77352C12.7836 7.61697 14.1853 7.30396 14.9078 8.19093C14.9165 8.19966 14.9253 8.20831 14.9253 8.22578C15.5782 9.19975 16.0919 10.1216 16.4314 10.8521C14.8121 11.3216 13.3495 12.1653 12.1742 13.3044L12.1654 13.3132C12.0087 13.1566 11.7998 12.9566 11.6866 12.8349C11.495 12.6 11.112 12.1044 10.7725 12.0347ZM6.28883 20.8266C5.71427 20.6701 5.07873 20.7571 4.5302 20.957C5.33119 19.7135 6.17561 20.6179 7.1246 20.1135C7.41192 19.9657 7.60342 19.6265 7.65566 19.2699C7.65566 19.2873 7.66439 19.3135 7.66439 19.3569V19.4613C7.7079 20.2179 7.74275 20.9484 7.78626 21.644C7.22908 21.5397 6.84601 20.9832 6.28883 20.8266ZM7.60342 23.4877C7.40319 23.4443 6.76765 23.3399 6.53256 23.0964C6.89825 23.2094 7.29871 23.2442 7.46417 23.1573C7.60342 23.0876 7.66439 22.8181 7.84724 22.792C7.86462 23.0616 7.88201 23.3225 7.89074 23.5747C7.80364 23.5312 7.69925 23.5051 7.60342 23.4877ZM11.4689 23.1573C11.4603 23.1573 11.4689 23.1573 11.4429 23.1659C11.3754 23.191 11.3154 23.2329 11.2687 23.2877C11.2078 23.2355 11.1294 23.2094 11.0511 23.2181H11.0076C10.9378 23.2181 10.9292 23.2007 10.9205 23.192C10.9031 23.1833 10.877 23.1312 10.8595 23.0094C10.7202 20.9658 10.6157 19.4091 10.5287 18.3394V18.3307C10.5287 18.2699 10.5374 18.2177 10.5461 18.1742C10.7115 18.122 10.877 18.0698 11.0423 18.0264V18.0959C11.1817 19.6874 11.3296 21.2962 11.4776 22.9225C11.4776 22.9572 11.4864 22.992 11.4864 23.0181C11.4864 23.1138 11.4689 23.1485 11.4689 23.1573ZM12.0871 25.514C12.0784 25.4705 12.0784 25.427 12.0697 25.3748C12 24.7661 11.9303 24.0791 11.852 23.2877C12.1045 23.192 12.2003 22.9833 12.1654 22.6355C12.0087 21.0092 11.8694 19.4004 11.7301 17.8089C11.7301 17.635 11.6953 17.5046 11.6256 17.435C11.5734 17.3828 11.5125 17.3567 11.4254 17.3567C11.3993 17.3567 11.3732 17.3567 11.3384 17.3654L10.6593 17.5741C10.3807 17.6698 10.2414 17.9307 10.2414 18.3655C10.3563 19.9248 10.4666 21.4843 10.5722 23.0442C10.607 23.3486 10.7464 23.5051 11.0076 23.5051H11.0772V23.5399C11.1555 24.2617 11.2078 25.0009 11.2513 25.7748C10.311 26.0619 9.27504 26.3054 8.14321 26.5141H8.13456L8.12583 26.5053C8.07908 25.7292 8.04716 24.9521 8.03008 24.1748C8.4218 24.0965 8.59591 23.8529 8.58726 23.4269C8.5089 22.1398 8.4218 20.731 8.34344 19.1917C8.36091 18.9916 8.31732 18.8352 8.23031 18.7308C8.14321 18.6351 8.00396 18.5742 7.81238 18.5742C7.76888 17.7481 7.72537 16.7741 7.67313 15.6261C9.70162 15.113 11.6344 14.7739 13.4191 14.6C13.5373 15.3116 13.6216 16.0284 13.6716 16.748C13.4626 16.8436 13.3843 17.0349 13.4191 17.348C13.5584 18.7569 13.7064 20.357 13.8631 22.1398C13.8718 22.3659 13.9676 22.4702 14.1678 22.4702C14.2114 22.4702 14.2461 22.4615 14.2984 22.4528V22.4963C14.342 22.8007 14.3855 23.1399 14.4377 23.5399V23.6616C14.4465 23.7225 14.4551 23.7747 14.4638 23.8355C14.5074 24.0877 14.5422 24.3487 14.5857 24.6357L14.429 24.7139H14.4203C13.8108 24.9748 13.036 25.2531 12.0958 25.5575C12.0871 25.5227 12.0871 25.5227 12.0871 25.514ZM28.7675 25.9749C26.9915 28.4534 24.0053 29.9317 20.7753 29.9317H20.4967C18.4421 29.8796 16.4484 29.2447 14.7246 28.0881C13.8453 27.4968 13.0617 26.7837 12.4088 25.9923C13.2097 25.7227 13.8801 25.4705 14.4199 25.2444C14.446 25.2356 14.4634 25.2183 14.4808 25.2096C14.6201 25.1313 14.7333 24.9661 14.7855 24.8096C14.8116 24.8356 14.8377 24.8705 14.8813 24.8879C14.9422 24.9139 15.0032 24.9313 15.0728 24.9313C15.1251 24.9313 15.186 24.9226 15.2382 24.8965C15.4733 24.7922 15.691 24.6965 15.8999 24.6009C16.0392 24.7052 16.1872 24.8096 16.3352 24.9139C19.8437 27.2098 24.5624 26.5141 26.8699 23.366C27.7405 22.1832 28.1409 20.8179 28.1148 19.4525C28.1148 19.4525 28.1148 19.4439 28.1236 19.4439C28.4109 19.3743 28.6546 19.3221 28.8548 19.2786L28.9158 19.2699C28.9419 19.2612 28.9593 19.2526 28.9768 19.2352L28.9854 19.2264C28.9942 19.2178 29.0029 19.2178 29.0029 19.2091L29.3163 18.9133V18.9395L29.325 19.0177C29.325 19.0612 29.3511 19.096 29.386 19.1221C29.4121 19.1395 29.4469 19.1482 29.473 19.1482H29.4991L29.5775 19.1308C29.7777 19.0873 30.0128 19.0439 30.274 18.9916C30.2826 19.0351 30.2914 19.0873 30.3001 19.1308C30.7267 21.5658 30.1956 23.9921 28.7678 25.9749H28.7675ZM30.056 18.3394V18.322C30.056 18.3046 30.0473 18.2872 30.0473 18.2699C30.0037 17.9741 29.9689 17.6959 29.9253 17.4263C30.0473 17.3915 30.0995 17.348 30.0995 17.2698C30.056 17.0002 29.9776 16.6871 29.8645 16.3479C29.6904 16.3566 29.5423 16.3653 29.403 16.3827C29.3159 16.3915 29.2289 16.4088 29.1506 16.4262C29.1331 16.7654 29.1244 17.1132 29.1244 17.4263C29.1331 17.4872 29.1679 17.5132 29.2463 17.5132H29.2985V17.5655C29.3247 17.9046 29.3334 18.2003 29.3334 18.4786C29.0384 18.5525 28.7424 18.6221 28.4454 18.6873C28.4975 18.5656 28.5411 18.4524 28.5934 18.322C28.6195 18.2519 28.6195 18.1748 28.5934 18.1047C28.541 17.9536 28.455 17.8164 28.3419 17.7034C28.2288 17.5904 28.0915 17.5046 27.9404 17.4523C27.923 17.4437 27.9056 17.4437 27.8881 17.4437C28.071 16.1653 28.219 15.0956 28.3322 14.2434C28.3583 14.1652 28.367 14.1043 28.3409 14.0608C28.3234 14.0173 28.2712 13.9825 28.2016 13.9564C28.1842 13.6868 28.1754 13.3477 28.1754 12.9303C28.4193 12.9215 28.6369 12.9215 28.8458 12.9215C29.0461 12.9215 29.2376 12.9215 29.403 12.9303C29.612 12.9303 29.7861 12.9389 29.9341 12.9477C30.0298 13.2694 30.1169 13.5911 30.2127 13.9216C30.1343 13.9477 30.0908 13.9738 30.0734 14.0086C30.0473 14.0521 30.0647 14.1217 30.1169 14.2086C30.5261 15.1652 30.944 16.1219 31.3619 17.0784C31.3967 17.1306 31.449 17.148 31.5273 17.148C31.5534 17.148 31.5795 17.148 31.6056 17.1393C31.6927 17.4611 31.745 17.7481 31.7711 17.9915C31.0484 18.1481 30.4825 18.2525 30.056 18.3394Z" fill="#0D0802"/>
</g>
<rect x="1" y="1" width="32" height="32" rx="16" stroke="white" stroke-width="2"/>
<defs>
<radialGradient id="paint0_radial_14770_91328" cx="0" cy="0" r="1" gradientUnits="userSpaceOnUse" gradientTransform="translate(20.6319 19.1163) scale(7.30378 6.66649)">
<stop offset="0.285" stop-color="#FDEA18"/>
<stop offset="0.462" stop-color="#FDE616"/>
<stop offset="0.63" stop-color="#FCDB10"/>
<stop offset="0.793" stop-color="#FBC806"/>
<stop offset="0.864" stop-color="#FABD00"/>
<stop offset="1" stop-color="#F39708"/>
</radialGradient>
<linearGradient id="paint1_linear_14770_91328" x1="4.56836" y1="25.1407" x2="7.4065" y2="25.1407" gradientUnits="userSpaceOnUse">
<stop offset="0.009" stop-color="#F9E925"/>
<stop offset="0.173" stop-color="#F9E522"/>
<stop offset="0.327" stop-color="#FADA1B"/>
<stop offset="0.478" stop-color="#FBC70E"/>
<stop offset="0.521" stop-color="#FBC009"/>
<stop offset="0.972" stop-color="#EC6D1D"/>
</linearGradient>
<linearGradient id="paint2_linear_14770_91328" x1="6.5332" y1="23.1823" x2="7.8973" y2="23.1823" gradientUnits="userSpaceOnUse">
<stop offset="0.009" stop-color="#F9E925"/>
<stop offset="0.173" stop-color="#F9E522"/>
<stop offset="0.327" stop-color="#FADA1B"/>
<stop offset="0.478" stop-color="#FBC70E"/>
<stop offset="0.521" stop-color="#FBC009"/>
<stop offset="0.972" stop-color="#EC6D1D"/>
</linearGradient>
<linearGradient id="paint3_linear_14770_91328" x1="4.53191" y1="20.4637" x2="7.78573" y2="20.4637" gradientUnits="userSpaceOnUse">
<stop offset="0.009" stop-color="#F9E925"/>
<stop offset="0.173" stop-color="#F9E522"/>
<stop offset="0.327" stop-color="#FADA1B"/>
<stop offset="0.478" stop-color="#FBC70E"/>
<stop offset="0.521" stop-color="#FBC009"/>
<stop offset="0.972" stop-color="#EC6D1D"/>
</linearGradient>
<linearGradient id="paint4_linear_14770_91328" x1="2.50908" y1="17.3828" x2="7.09721" y2="17.3828" gradientUnits="userSpaceOnUse">
<stop offset="0.009" stop-color="#F9E925"/>
<stop offset="0.173" stop-color="#F9E522"/>
<stop offset="0.327" stop-color="#FADA1B"/>
<stop offset="0.478" stop-color="#FBC70E"/>
<stop offset="0.521" stop-color="#FBC009"/>
<stop offset="0.972" stop-color="#EC6D1D"/>
</linearGradient>
<clipPath id="clip0_14770_91328">
<rect x="2" y="2" width="30" height="30" rx="15" fill="white"/>
</clipPath>
</defs>
</svg>
