<svg width="112" height="32" viewBox="0 0 112 32" fill="none" xmlns="http://www.w3.org/2000/svg">
<rect y="1" width="30" height="30" rx="15" fill="#8672E8"/>
<path fill-rule="evenodd" clip-rule="evenodd" d="M19.1713 10.8452L18.8085 11.0456C18.2644 11.3462 17.5777 11.5969 16.7865 11.5969C16.0601 11.5969 15.4448 11.3772 14.9911 11.2062C14.9439 11.1884 14.8984 11.1711 14.855 11.1545L14.8547 11.1544C14.6765 11.0866 14.5343 11.0327 14.3973 10.9902C14.2295 10.9383 14.1246 10.9222 14.0546 10.9222C13.6813 10.9222 13.2608 11.0953 12.9202 11.3399L11.6817 12.2294V9.3842L12.0445 9.18377C12.5886 8.88315 13.2753 8.63244 14.0665 8.63244C14.7929 8.63244 15.4083 8.85216 15.8619 9.02319C15.9092 9.04105 15.9548 9.05836 15.9983 9.07494C16.1766 9.14276 16.3187 9.19671 16.4557 9.23913C16.6236 9.29109 16.7284 9.30716 16.7985 9.30716C17.1717 9.30716 17.5923 9.13407 17.9328 8.8895L19.1713 8V10.8452ZM11.5063 15.5987L11.3393 15.8701C10.9957 16.4284 10.7995 17.0833 10.7995 17.7964C10.7995 19.9721 12.6259 21.6316 15 21.6316C17.3741 21.6316 19.2005 19.9721 19.2005 17.7964C19.2005 17.0864 19.006 16.4341 18.6652 15.8774L18.4993 15.6064L20.4699 13.8373L20.783 14.2428C21.5559 15.2439 22 16.4653 22 17.7964C22 21.295 18.9393 24 15 24C11.0607 24 8 21.295 8 17.7964C8 16.4617 8.44649 15.2374 9.22322 14.2348L9.53651 13.8304L11.5063 15.5987Z" fill="white"/>
<path d="M51.8399 10.3309V15.8146H44.6332V10.3309H42V23.7058H44.6332V18.2221H51.8399V23.7058H54.4731V10.3309H51.8399Z" fill="#334155"/>
<path d="M69.7896 23.7058L64.4123 10.3309H61.6405L63.0264 13.7548C57.7323 14.5038 54.9051 18.6768 56.1801 24L66.3249 22.0205L67.0178 23.7058H69.7896ZM58.5916 21.2983C58.3144 18.2488 60.3655 16.2961 63.858 15.8413L65.521 19.9608L58.5916 21.2983Z" fill="#334155"/>
<path d="M77.3373 10.3309V16.2961C72.7361 16.5903 70.685 14.3166 70.685 11.3206V10.3309H68.0795V10.8659C68.0795 15.7878 71.1839 18.7838 77.3373 18.5966V23.7058H79.9428V10.3309H77.3373Z" fill="#334155"/>
<path d="M95.25 23.7058L89.8727 10.3309H87.1009L88.4868 13.7548C83.1927 14.5038 80.3655 18.6768 81.6405 24L91.7853 22.0205L92.4782 23.7058H95.25ZM84.052 21.2983C83.7748 18.2488 85.8259 16.2961 89.3184 15.8413L90.9814 19.9608L84.052 21.2983Z" fill="#334155"/>
<path fill-rule="evenodd" clip-rule="evenodd" d="M108.133 6.05336L108.409 5.89003V3L107.47 3.72486C106.998 4.0892 106.38 4.37746 105.786 4.37746C105.635 4.37746 105.455 4.34114 105.223 4.26403C105.034 4.2011 104.841 4.12199 104.617 4.03063C104.562 4.00798 104.505 3.98457 104.445 3.96047C103.873 3.72839 103.154 3.45646 102.317 3.45646C101.406 3.45646 100.604 3.7668 99.9537 4.15319L99.6787 4.31652V7.20655L100.618 6.48169C101.089 6.11735 101.707 5.82908 102.302 5.82908C102.452 5.82908 102.632 5.86541 102.864 5.94252C103.053 6.00544 103.246 6.08456 103.47 6.17592C103.525 6.19857 103.582 6.22198 103.642 6.24607C104.214 6.47816 104.933 6.75008 105.77 6.75008C106.682 6.75008 107.483 6.43975 108.133 6.05336ZM100.257 4.62816V6.0462V4.62816ZM100.816 5.68196C100.822 5.67864 100.828 5.67534 100.834 5.67205C101.272 5.43792 101.78 5.27139 102.302 5.27139C101.773 5.27139 101.258 5.44263 100.816 5.68196Z" fill="#334155"/>
<path d="M96.6451 11.0483C95.7269 12.3224 95.1962 13.8815 95.1962 15.5888C95.1962 20.0467 98.8143 23.4944 103.502 23.4944C108.189 23.4944 111.807 20.0467 111.807 15.5888C111.807 13.886 111.279 12.3307 110.366 11.0585L108.666 12.6986C109.147 13.5427 109.418 14.5264 109.418 15.5888C109.418 18.8608 106.847 21.3863 103.502 21.3863C100.157 21.3863 97.5855 18.8608 97.5855 15.5888C97.5855 14.5217 97.859 13.534 98.3436 12.6875L96.6451 11.0483Z" fill="#334155"/>
<path fill-rule="evenodd" clip-rule="evenodd" d="M96.6185 10.7597L98.5823 12.6549L98.5122 12.7774C98.0436 13.596 97.7782 14.5527 97.7782 15.5888C97.7782 18.761 100.266 21.2004 103.502 21.2004C106.738 21.2004 109.225 18.761 109.225 15.5888C109.225 14.5572 108.962 13.6044 108.498 12.7881L108.428 12.6658L110.393 10.7697L110.524 10.9526C111.46 12.256 112 13.8483 112 15.5888C112 20.1517 108.293 23.6803 103.502 23.6803C98.7104 23.6803 95.0037 20.1517 95.0037 15.5888C95.0037 13.8436 95.5463 12.2475 96.487 10.9422L96.6185 10.7597ZM110.476 11.2155C111.322 12.4577 111.807 13.9554 111.807 15.5888C111.807 20.0467 108.189 23.4944 103.502 23.4944C98.8143 23.4944 95.1962 20.0467 95.1962 15.5888C95.1962 13.9509 95.6847 12.4493 96.5351 11.2051C96.5712 11.1524 96.6078 11.1001 96.6451 11.0483L98.3436 12.6875C97.859 13.534 97.5855 14.5217 97.5855 15.5888C97.5855 18.8608 100.157 21.3863 103.502 21.3863C106.847 21.3863 109.418 18.8608 109.418 15.5888C109.418 14.5264 109.147 13.5427 108.666 12.6986L110.366 11.0585C110.403 11.1104 110.44 11.1627 110.476 11.2155Z" fill="#334155"/>
</svg>
