<svg width="235" height="232" viewBox="0 0 235 232" fill="none" xmlns="http://www.w3.org/2000/svg">
<g filter="url(#filter0_dd_18066_116955)">
<circle cx="109" cy="107" r="90" fill="#F5F5F5"/>
</g>
<g filter="url(#filter1_i_18066_116955)">
<path d="M80.343 78.3442C77.219 81.4673 77.219 86.5337 80.343 89.6567L97.3132 106.627L80.343 123.598C77.219 126.721 77.219 131.788 80.343 134.911C83.467 138.036 88.5325 138.036 91.6565 134.911L108.627 117.94L125.598 134.913C128.722 138.036 133.787 138.036 136.912 134.913C140.036 131.788 140.036 126.723 136.912 123.598L119.941 106.627L136.911 89.6567C140.036 86.5317 140.036 81.4673 136.911 78.3423C133.787 75.2192 128.722 75.2192 125.598 78.3423L108.627 95.313L91.657 78.3442C88.5325 75.2192 83.4675 75.2192 80.343 78.3442Z" fill="#FF4949"/>
</g>
<defs>
<filter id="filter0_dd_18066_116955" x="0" y="0" width="235" height="232" filterUnits="userSpaceOnUse" color-interpolation-filters="sRGB">
<feFlood flood-opacity="0" result="BackgroundImageFix"/>
<feColorMatrix in="SourceAlpha" type="matrix" values="0 0 0 0 0 0 0 0 0 0 0 0 0 0 0 0 0 0 127 0" result="hardAlpha"/>
<feOffset dx="10" dy="9"/>
<feGaussianBlur stdDeviation="13"/>
<feComposite in2="hardAlpha" operator="out"/>
<feColorMatrix type="matrix" values="0 0 0 0 0 0 0 0 0 0 0 0 0 0 0 0 0 0 0.09 0"/>
<feBlend mode="normal" in2="BackgroundImageFix" result="effect1_dropShadow_18066_116955"/>
<feColorMatrix in="SourceAlpha" type="matrix" values="0 0 0 0 0 0 0 0 0 0 0 0 0 0 0 0 0 0 127 0" result="hardAlpha"/>
<feOffset dx="-6" dy="-4"/>
<feGaussianBlur stdDeviation="6.5"/>
<feComposite in2="hardAlpha" operator="out"/>
<feColorMatrix type="matrix" values="0 0 0 0 1 0 0 0 0 1 0 0 0 0 1 0 0 0 1 0"/>
<feBlend mode="normal" in2="effect1_dropShadow_18066_116955" result="effect2_dropShadow_18066_116955"/>
<feBlend mode="normal" in="SourceGraphic" in2="effect2_dropShadow_18066_116955" result="shape"/>
</filter>
<filter id="filter1_i_18066_116955" x="78" y="76" width="61.2549" height="65.2539" filterUnits="userSpaceOnUse" color-interpolation-filters="sRGB">
<feFlood flood-opacity="0" result="BackgroundImageFix"/>
<feBlend mode="normal" in="SourceGraphic" in2="BackgroundImageFix" result="shape"/>
<feColorMatrix in="SourceAlpha" type="matrix" values="0 0 0 0 0 0 0 0 0 0 0 0 0 0 0 0 0 0 127 0" result="hardAlpha"/>
<feOffset dy="4"/>
<feGaussianBlur stdDeviation="3"/>
<feComposite in2="hardAlpha" operator="arithmetic" k2="-1" k3="1"/>
<feColorMatrix type="matrix" values="0 0 0 0 0 0 0 0 0 0 0 0 0 0 0 0 0 0 0.25 0"/>
<feBlend mode="normal" in2="shape" result="effect1_innerShadow_18066_116955"/>
</filter>
</defs>
</svg>
