<svg width="184" height="83" viewBox="0 0 184 83" fill="none" xmlns="http://www.w3.org/2000/svg">
<path fill-rule="evenodd" clip-rule="evenodd" d="M77.6855 0.219743C76.8424 0.45065 71.432 3.77991 57.4116 12.6953C46.8933 19.3835 33.9478 27.6053 28.6437 30.9658C21.7808 35.3139 18.6812 37.4039 17.8953 38.2135C17.1369 38.9944 16.6729 39.7138 16.4158 40.5075C16.2096 41.1436 16.041 42.143 16.041 42.7287C16.041 43.3144 16.2225 44.2616 16.4441 44.8335C16.6659 45.4057 18.0386 47.7219 19.4946 49.9812C20.9506 52.2403 22.5 54.5 22.7211 54.8866C22.8356 55.0867 25.3087 59.0478 28.3467 63.7976C31.7924 69.185 34 72.5 34.277 72.9596C34.6287 73.5431 34.8548 74.0067 35.6405 75.2137C36.4263 76.4204 37.516 77.7801 38.062 78.2351C38.608 78.6899 39.0547 79.2428 39.0547 79.4635C39.0547 79.6843 38.8997 80.1639 38.7103 80.5289C38.4787 80.9754 37.9588 81.3828 37.1213 81.7741C35.9371 82.3274 35.717 82.3545 32.5889 82.3316C29.6934 82.3104 29.0674 82.2374 27.3409 81.7195C26.2628 81.3962 23.4519 80.2412 21.0944 79.1533C18.7369 78.0651 15.8034 76.8394 14.5756 76.4296C13.3476 76.0195 11.4243 75.4952 10.3017 75.2643C9.1788 75.0337 7.30243 74.7407 6.1318 74.6133C4.96139 74.4862 2.3477 74.3831 0.323599 74.3844C-1.70028 74.3857 -3.72592 74.4478 -4.17808 74.5222C-4.63003 74.5967 -5 74.7676 -5 74.9021C-5 75.0756 -3.39299 75.151 0.534229 75.1614C5.2038 75.1741 6.46232 75.2493 8.589 75.642C9.9753 75.8983 11.9972 76.3643 13.0821 76.6777C14.1671 76.9914 16.041 77.6737 17.2465 78.194C18.452 78.7144 20.7235 79.735 22.2946 80.462C23.8654 81.1891 26.0353 82.0535 27.1165 82.3834C28.8975 82.9267 29.4115 82.9843 32.5889 82.997C36.0598 83.0108 36.1091 83.0042 37.4108 82.3556C38.2227 81.951 38.9146 81.4163 39.219 80.9579C39.4904 80.5496 39.7122 79.9434 39.7122 79.6105C39.7122 79.2776 39.653 78.8518 39.5809 78.6642C39.5086 78.4765 39.0994 78.1073 38.6715 77.8439C38.1893 77.5468 37.4056 76.6126 36.611 75.388C35.9057 74.3009 34.1602 71.5304 33.9888 71.2902C33.8924 71.1283 25.1101 57.3204 22.2858 52.9349C22.1377 52.7759 20.9519 50.9778 19.6507 48.9394C18.3494 46.901 17.1457 44.7874 16.9758 44.2426C16.7922 43.6541 16.7111 42.7886 16.7759 42.1101C16.838 41.4619 17.1415 40.4985 17.4782 39.882C17.8043 39.2848 18.2801 38.6043 18.5355 38.3697C18.7908 38.1353 24.3752 34.5268 30.9451 30.3513C37.5149 26.1755 49.1039 18.8085 56.6984 13.9805C64.2929 9.15216 71.7888 4.38437 73.3559 3.3856C74.923 2.3866 76.5997 1.39001 77.0819 1.1709C77.6277 0.922732 78.4785 0.770468 79.3355 0.76741C80.0928 0.764789 81.0738 0.91312 81.5154 1.09706C81.9573 1.281 82.6354 1.67247 83.0229 1.96695C83.4192 2.2682 85.0624 4.5812 86.7814 7.25771C88.4614 9.87306 91.9145 15.2571 94.455 19.2221C96.9955 23.187 99.1066 26.5475 99.1465 26.6897C100.134 28.2944 100.5 29 102.313 31.5119C103.371 33.163 104.361 34.858 104.513 35.2785C104.665 35.699 104.793 36.4925 104.798 37.0419C104.803 37.5911 104.65 38.5016 104.458 39.065C104.265 39.6284 103.698 40.5197 103.197 41.0455C102.697 41.5711 100.907 42.8624 99.2188 43.9149C97.5312 44.9674 95.3613 46.3396 94.3969 46.9639C93.4326 47.5885 82.0277 54.8473 69.0526 63.0946C56.0775 71.3422 45.3183 78.1449 45.143 78.212C44.9378 78.2904 44.6167 78.0206 44.2406 77.4541C43.9175 76.9676 43.4119 76.5135 43.109 76.4377C42.8078 76.3623 42.3083 76.364 41.9991 76.4414C41.63 76.5338 41.3262 76.8455 41.1154 77.3488C40.8477 77.9872 40.8414 78.2146 41.077 78.7046C41.2326 79.0283 41.6234 79.4191 41.9454 79.5729C42.3699 79.7757 42.7837 79.7958 43.4531 79.6459L44.3756 79.4392L45.6056 80.7152C46.5823 81.7286 47.0805 82.0624 48.026 82.3373C48.6807 82.5275 49.7163 82.6826 50.3274 82.6818C50.9382 82.6809 52.2765 82.4821 53.3012 82.2398C54.3258 81.9978 57.4327 81.0704 60.2053 80.1794C62.9779 79.2883 66.7975 78.1165 68.6933 77.5752C70.5892 77.0338 73.4988 76.2981 75.1591 75.9402C76.8194 75.5822 79.1148 75.1352 80.26 74.9465C81.4052 74.758 83.6737 74.4556 85.3011 74.275C86.9285 74.0941 90.1339 73.8844 92.4243 73.8085C94.7787 73.7308 98.4465 73.7788 100.863 73.9191C103.213 74.0554 109.279 74.5035 114.342 74.9146C119.405 75.3257 183.317 77.85 184.13 77.9046C185.411 77.9905 185.61 77.9544 185.61 77.6359C185.61 77.3137 185.1 77.2348 181.5 77C179.24 76.8525 115.526 74.3473 112.15 74.0519C108.775 73.7566 104.386 73.4156 102.397 73.2941C100.408 73.1726 97.1038 73.0732 95.0545 73.0732C93.0052 73.073 89.9476 73.1748 88.26 73.2991C86.5723 73.4234 83.8137 73.7234 82.1296 73.9656C80.4456 74.2077 77.684 74.6931 75.9926 75.0439C74.3014 75.3948 71.4874 76.0728 69.7395 76.551C67.9915 77.0292 64.0957 78.2137 61.082 79.1832C58.0683 80.1527 54.8135 81.157 53.8491 81.4149C52.7874 81.6987 51.404 81.8892 50.3423 81.8973C48.9367 81.9082 48.3833 81.8108 47.5526 81.406C46.9825 81.1283 46.2062 80.5112 45.8275 80.0345C45.4487 79.5579 45.1754 79.1349 45.2199 79.0947C45.2646 79.0545 47.2738 77.7654 49.6848 76.2301C52.0957 74.6948 62.6491 67.9845 73.1367 61.3184C83.6244 54.6524 93.5367 48.3467 95.1641 47.306C96.7915 46.2651 99.2039 44.7306 100.525 43.8959C101.847 43.0612 103.297 42.0021 103.749 41.5425C104.2 41.0829 104.771 40.1699 105.017 39.5137C105.285 38.8024 105.461 37.8165 105.456 37.0725C105.451 36.3863 105.317 35.4631 105.158 35.0214C105 34.5797 103.959 32.7855 102.845 31.0344C101.731 29.2832 100.921 28.1989 100.636 27.737C98.3268 24 100.895 28.1292 100.134 26.8894C100.08 26.7494 96.6106 21.2804 92.4239 14.7363C88.2372 8.19227 84.4138 2.42592 83.9275 1.92216C83.4409 1.41863 82.5894 0.814597 82.0351 0.579976C81.4806 0.345355 80.534 0.0974083 79.9312 0.0290318C79.2662 -0.0465536 78.3832 0.0283765 77.6855 0.219743ZM44.0957 78.5453C44.0957 78.4365 43.8404 78.0453 43.5283 77.6756C43.2162 77.306 42.7844 77.0035 42.5689 77.0035C42.3533 77.0035 42.0589 77.145 41.9149 77.318C41.7709 77.4908 41.685 77.9087 41.7238 78.2465C41.7806 78.7395 41.9182 78.8745 42.4236 78.932C42.7697 78.9715 43.2874 78.9449 43.5743 78.8732C43.861 78.8016 44.0957 78.6539 44.0957 78.5453Z" fill="black"/>
<path fill-rule="evenodd" clip-rule="evenodd" d="M49.4523 28.6477C49.2892 28.7641 48.9764 29.0142 48.7572 29.2035C48.5379 29.3927 48.2364 29.6938 48.0872 29.8724C47.9379 30.0511 47.7466 30.348 47.6619 30.5322C47.5515 30.7725 47.5277 30.9263 47.5778 31.0765C47.6452 31.2788 47.6349 31.2974 47.2711 31.6315C47.064 31.8217 46.6825 32.2428 46.4232 32.5674C46.1639 32.8919 45.809 33.3854 45.6345 33.6641C45.4601 33.9427 45.2344 34.3603 45.1328 34.5921C45.0314 34.8239 44.8708 35.3407 44.7759 35.7406L44.6034 36.4675L43.8912 37.2327C43.4994 37.6535 42.9005 38.2524 42.5601 38.5635C42.2198 38.8746 41.7111 39.3213 41.4298 39.5562C41.1485 39.7911 40.3571 40.3491 39.6712 40.7963C38.9316 41.2785 38.1904 41.719 37.8498 41.8789C37.5338 42.0272 37.0153 42.2484 36.6975 42.3706C36.3797 42.4927 35.8186 42.6703 35.4506 42.7651C35.0827 42.86 34.4582 42.9748 34.0631 43.0204C17.7327 44.9325 18.1356 45.2183 17.7323 45.1917C17.3289 45.1651 16.9995 45.174 17.0002 45.2114C17.001 45.2488 17.2765 45.298 17.6123 45.3207C17.9482 45.3434 18.5005 44.7114 33.7006 43.1896C34.03 43.1701 34.6122 43.0892 34.9946 43.0098C35.3769 42.9304 35.9801 42.7659 36.335 42.6441C36.6899 42.5224 37.2962 42.2808 37.6824 42.107C38.2136 41.8682 38.7087 41.5804 39.7155 40.9252C40.6736 40.3016 41.2381 39.895 41.731 39.4734C42.1076 39.1513 42.6459 38.6682 42.9272 38.3999C43.2086 38.1316 43.688 37.6456 43.9926 37.3198C44.2973 36.994 44.5616 36.7306 44.58 36.7345C44.5985 36.7384 44.6066 36.8311 44.598 36.9406C44.5895 37.0501 44.5898 37.3532 44.5988 37.6143C44.6077 37.8753 44.6577 38.3206 44.7098 38.6038C44.7618 38.8869 44.9026 39.3992 45.0225 39.7421C45.1425 40.085 45.3902 40.6318 45.5731 40.9572C45.8091 41.3773 46.039 41.6987 46.3656 42.0653C46.6187 42.3492 47.0296 42.7403 47.2788 42.9344C47.5279 43.1285 47.9319 43.3923 48.1764 43.5207C48.421 43.649 48.8923 43.8444 49.2238 43.9549C49.5552 44.0653 50.1308 44.1836 50.5028 44.2177C50.8748 44.2517 51.5348 44.2445 51.9696 44.2017C52.4044 44.1588 53.0293 44.0463 53.3585 43.9518C53.9012 43.7959 54.0369 43.728 54.8173 43.2219C55.6134 42.7056 55.7054 42.6293 56.048 42.2016C56.2517 41.9474 56.5024 41.5955 56.6051 41.4196C56.7078 41.2437 56.8897 40.8677 57.0091 40.5841C57.1287 40.3005 57.2872 39.843 57.3616 39.5674C57.4359 39.2918 57.5283 38.766 57.5669 38.3988C57.6055 38.0318 57.628 37.4433 57.617 37.0912C57.606 36.7391 57.5583 36.2289 57.511 35.9574C57.4636 35.686 57.3482 35.2098 57.2545 34.8994C57.1608 34.589 56.945 34.0607 56.7749 33.7255C56.5619 33.3057 56.3521 32.9788 56.1006 32.6747C55.8998 32.4318 55.5927 32.1026 55.418 31.943C55.2434 31.7834 54.9245 31.5406 54.7094 31.4034C54.4942 31.2661 54.109 31.072 53.8533 30.972C53.5976 30.8719 53.1933 30.7561 52.9548 30.7146C52.7163 30.6731 52.3488 30.6351 52.1381 30.6302C51.9274 30.6253 51.5743 30.6482 51.3533 30.6812C51.1323 30.7141 50.6985 30.8217 50.3891 30.9202C50.0797 31.0188 49.5456 31.2423 49.2022 31.4169C48.6891 31.6777 48.5026 31.804 48.1571 32.1251C47.9258 32.3401 47.6189 32.6875 47.4752 32.8972C47.3314 33.1069 46.9977 33.5197 46.7336 33.8145C46.4695 34.1093 45.9474 34.7469 45.5735 35.2313C45.1994 35.7156 44.8786 36.1215 44.8606 36.1333C44.8425 36.145 44.8701 35.9486 44.9219 35.6968C44.9736 35.445 45.1157 34.997 45.2376 34.7013C45.3596 34.4055 45.5872 33.9634 45.7434 33.7188C45.8997 33.4741 46.2456 33.0013 46.5121 32.668C46.7787 32.3346 47.1702 31.9012 47.3821 31.7048L47.7674 31.3477L48.0555 31.3891C48.2141 31.4118 48.4136 31.4064 48.4991 31.3771C48.5846 31.3477 48.6957 31.2737 48.7459 31.2126C48.8017 31.1448 48.8066 31.0544 48.7585 30.9803C48.7152 30.9137 48.607 30.8605 48.5179 30.8622C48.429 30.8639 48.2238 30.9307 48.0621 31.0106C47.8656 31.1075 47.7511 31.13 47.7174 31.078C47.6896 31.0353 47.6887 30.8982 47.7154 30.7735C47.7421 30.6488 47.841 30.432 47.9351 30.2918C48.0292 30.1517 48.2497 29.883 48.4251 29.6946C48.6005 29.5064 48.9788 29.1726 49.2658 28.953C49.5528 28.7334 50.0564 28.4078 50.3847 28.2295C50.7131 28.0511 51.2148 27.8265 51.4995 27.7305C51.7843 27.6344 52.2183 27.5276 52.464 27.493C52.7097 27.4585 53.109 27.4445 53.3512 27.462C53.5934 27.4795 53.923 27.5382 54.0836 27.5923C54.2442 27.6465 54.6431 27.84 54.97 28.0224C55.297 28.2048 55.822 28.5584 56.1365 28.8082C56.4511 29.058 56.8822 29.4503 57.0946 29.6799C57.307 29.9096 57.6513 30.3229 57.8597 30.5984C58.0706 30.8772 58.4022 31.4115 58.6074 31.8034C58.8102 32.1907 59.0873 32.7892 59.2232 33.1335C59.3591 33.4777 59.5643 34.0699 59.6792 34.4493C59.7941 34.8288 59.9771 35.5769 60.0858 36.1118C60.1945 36.6467 60.3432 37.5764 60.4161 38.1778C60.4891 38.7792 60.6375 40.4698 60.7461 41.9347C60.8546 43.3996 61.0252 45.8872 61.1252 47.4627C61.2251 49.0381 61.3493 51.1869 61.4011 52.2377C61.4529 53.2884 61.5097 54.6343 61.5273 55.2283C61.5449 55.8224 61.5521 56.6172 61.5433 56.9944C61.5323 57.4647 61.5621 57.734 61.638 57.8509C61.706 57.9555 61.8514 58.0523 62.0142 58.1016C62.1601 58.1457 62.3884 58.1619 62.5214 58.1374C62.6544 58.113 62.9302 57.9838 63.1343 57.8504C63.3716 57.6951 63.5892 57.4944 63.7385 57.2929C63.8668 57.1197 64.0667 56.7434 64.1826 56.4565C64.2984 56.1697 64.4296 55.7051 64.474 55.4241C64.5183 55.1431 64.56 54.5914 64.5667 54.1982C64.5734 53.8049 64.529 53.0906 64.468 52.6109C64.4071 52.1311 64.2275 51.1743 64.0691 50.4847C63.9106 49.795 63.7046 48.7922 63.6113 48.2562C63.5181 47.7201 63.36 46.6665 63.26 45.9149C63.16 45.1633 63.0244 43.964 62.9587 43.2497C62.8929 42.5355 62.7945 41.3016 62.7399 40.5078L62.6406 39.0645L63.0764 39.3273C63.395 39.5196 63.6237 39.6005 63.9269 39.6282C64.1551 39.6491 64.5044 39.6296 64.7033 39.5849C64.9021 39.5401 65.1848 39.4512 65.3315 39.3871L65.5982 39.2707L65.4117 40.1898C65.3092 40.6953 65.2212 41.3769 65.2163 41.7045C65.2114 42.0321 65.2298 42.5094 65.2574 42.7653C65.285 43.021 65.3877 43.5382 65.4857 43.9145C65.5835 44.2909 65.7441 44.8119 65.8426 45.0723C65.9458 45.3456 66.2681 45.9547 66.6044 46.5124C67.0824 47.305 67.2542 47.5444 67.5592 47.8432C67.7638 48.0436 68.1138 48.3331 68.3371 48.4867C68.5604 48.6403 68.963 48.8632 69.2317 48.9821C69.5005 49.101 69.9195 49.2507 70.1629 49.3148C70.4063 49.3789 70.8762 49.4513 71.207 49.4758C71.5379 49.5002 72.0395 49.4932 72.3218 49.4601C72.6041 49.4271 73.0452 49.341 73.302 49.2688C73.5589 49.1966 73.989 49.0148 74.2577 48.8647C74.645 48.6483 74.8546 48.576 75.2692 48.5156C75.5568 48.4737 76.0491 48.3811 76.3632 48.3098C76.6772 48.2384 77.2243 48.0802 77.579 47.9582C78.047 47.7972 78.444 47.6053 79.0268 47.2584C79.6432 46.8915 79.9493 46.6711 80.3438 46.3101C80.6265 46.0514 81.0546 45.5959 81.2952 45.2979C81.5358 44.9998 81.9071 44.4783 82.1202 44.1388C82.3332 43.7992 82.6983 43.1317 82.9313 42.6554C83.1643 42.1791 83.6375 41.0768 83.983 40.2058C84.3284 39.3348 84.8083 38.1607 85.0495 37.5967C85.2906 37.0327 85.6604 36.263 85.8713 35.8862C86.0822 35.5094 86.3859 35.0234 86.5463 34.8063C86.7067 34.5891 87.0185 34.222 87.2393 33.9907C87.5112 33.7058 87.829 33.448 88.2237 33.1919C88.5622 32.9725 88.9939 32.7458 89.2532 32.6512C89.4987 32.5617 89.8325 32.4594 89.9948 32.4238C90.1571 32.3883 90.2949 32.3357 90.301 32.307C115.5 27.5 90.2099 32.2652 90.085 32.2777C89.96 32.2903 89.6059 32.3907 89.298 32.5009C88.9122 32.639 88.5562 32.82 88.1524 33.0833C87.8186 33.301 87.425 33.6113 87.2376 33.8044C87.0568 33.9908 86.7806 34.3013 86.6239 34.4943C86.4673 34.6873 86.1545 35.1572 85.929 35.5386C85.7034 35.92 85.3831 36.5239 85.2174 36.8807C85.0515 37.2376 84.5661 38.4083 84.1387 39.4824C83.7113 40.5565 83.1779 41.8293 82.9534 42.311C82.7288 42.7925 82.3558 43.5027 82.1244 43.889C81.8929 44.2753 81.4979 44.8486 81.2465 45.1629C80.9951 45.4773 80.5685 45.9376 80.2985 46.1858C79.9255 46.5287 79.609 46.756 78.9804 47.1324C78.3402 47.5159 77.9998 47.6795 77.4737 47.8568C77.0999 47.9828 76.3873 48.1692 75.8901 48.2711C75.0026 48.453 74.989 48.4532 75.1472 48.2814C75.2359 48.1852 75.4371 47.9493 75.5943 47.7572C75.7973 47.5092 75.9965 47.3385 76.2812 47.1687C76.5017 47.0371 76.8243 46.7959 76.9981 46.6325C77.1717 46.4692 77.4584 46.1367 77.6349 45.8935C77.8114 45.6504 78.0603 45.2137 78.188 44.9231C78.3156 44.6325 78.4628 44.1961 78.5151 43.9532C78.5674 43.7103 78.6148 43.2983 78.6206 43.0375C78.6263 42.7767 78.5942 42.3 78.5493 41.978C78.5043 41.656 78.3935 41.1399 78.3032 40.831C78.2128 40.5221 78.0375 40.0167 77.9136 39.7079C77.7498 39.2998 77.5252 38.8981 77.0911 38.2369C76.5738 37.4491 76.4293 37.269 76.0123 36.8922C75.7475 36.6528 75.3517 36.3437 75.1329 36.2053C74.9141 36.0668 74.5205 35.8764 74.2583 35.7822C73.9961 35.688 73.5845 35.5955 73.3438 35.5766C73.103 35.5577 72.6746 35.5499 72.3918 35.5591C72.109 35.5683 71.6774 35.6144 71.4327 35.6616C71.1881 35.7088 70.7545 35.8254 70.4694 35.9209C70.175 36.0193 69.6792 36.2536 69.3223 36.4627C68.9661 36.6715 68.5319 36.9761 68.3201 37.1658C68.1146 37.3498 67.77 37.7211 67.5543 37.9907C67.3385 38.2605 67.0384 38.728 66.8873 39.0298C66.7091 39.3857 66.5512 39.8681 66.438 40.4028C66.3238 40.9414 66.2739 41.4371 66.2937 41.8333C66.3104 42.1668 66.3698 42.6814 66.4256 42.9771C66.4813 43.2727 66.61 43.7553 66.7115 44.0495C66.8247 44.3778 67.0644 44.8702 67.3319 45.3237C67.596 45.7716 67.8985 46.2084 68.0994 46.4323C68.2818 46.6354 68.6615 46.9855 68.9431 47.2102C69.2248 47.435 69.7035 47.7395 70.0071 47.8869C70.3107 48.0343 70.8051 48.233 71.1058 48.3285C71.4066 48.4239 71.9585 48.5399 72.3322 48.5862C72.706 48.6325 73.3201 48.6652 73.6969 48.6588C74.3541 48.6476 74.374 48.6523 74.1881 48.773C74.0815 48.8422 73.7759 48.9728 73.5091 49.0632C73.2422 49.1536 72.8103 49.2602 72.5493 49.3001C72.2882 49.34 71.8682 49.3711 71.616 49.3691C71.3638 49.3672 70.8837 49.3164 70.5494 49.2562C70.215 49.1961 69.6768 49.0325 69.3534 48.8929C69.0301 48.7531 68.6012 48.5241 68.4004 48.3838C68.1995 48.2436 67.8694 47.9663 67.6667 47.7678C67.3662 47.4734 67.1906 47.2285 66.7148 46.4407C66.2634 45.6933 66.0769 45.3229 65.8914 44.8047C65.7595 44.4362 65.6052 43.9206 65.5484 43.6588C65.4917 43.3971 65.4192 42.8927 65.3873 42.538C65.3555 42.1833 65.3435 41.6874 65.3608 41.4361C65.3781 41.1847 65.4349 40.7439 65.4871 40.4563C65.5393 40.1687 65.6202 39.7848 65.6668 39.6031L65.7516 39.2728L66.4083 38.8022C66.9121 38.4413 67.1078 38.2655 67.2485 38.0476C67.3494 37.8913 67.4325 37.6715 67.4331 37.5593C67.4338 37.435 67.3878 37.3121 67.3155 37.2451C67.2466 37.1811 67.1085 37.1515 66.986 37.1743C66.8571 37.1984 66.7048 37.2807 66.5939 37.3863C66.4942 37.4813 66.3448 37.6759 66.2621 37.8188C66.1793 37.9617 66.0126 38.3087 65.8916 38.5901L65.6716 39.1016L65.2664 39.2674C65.0436 39.3585 64.712 39.4585 64.5295 39.4896C64.3471 39.5207 64.0449 39.5219 63.8581 39.4924C63.6713 39.4628 63.3878 39.362 63.2283 39.2685C63.0688 39.175 62.869 39.0223 62.7843 38.9292C62.6489 38.78 62.6231 38.5921 62.5689 37.357C62.535 36.5855 62.4893 35.1875 62.4672 34.2503C62.4451 33.3131 62.4148 31.3157 62.3996 29.8118C62.3845 28.3078 62.3654 26.754 62.3571 26.359C62.3488 25.9639 62.3874 24.948 62.4428 24.1014C62.4983 23.2547 62.5107 22.4475 62.4704 22.3075C62.42 22.1321 62.3615 22.0365 62.2826 22.0002C62.2197 21.9713 62.068 21.9803 61.9456 22.0202C61.8033 22.0666 61.5321 22.2501 61.1932 22.529C60.9018 22.769 60.4666 23.1778 60.226 23.4375C59.9855 23.6973 59.673 24.1155 59.5316 24.3671C59.369 24.6563 59.2427 25.0092 59.188 25.3273C59.1404 25.6039 59.1308 26.0743 59.1665 26.3729C59.2023 26.6714 59.3827 27.5959 59.5675 28.4274C59.7522 29.2589 60.0179 30.608 60.1578 31.4254C60.2977 32.2428 60.4739 33.2253 60.5493 33.6089C60.6248 33.9924 60.7534 34.5989 60.8352 34.9566C60.917 35.3144 61.1135 36.0006 61.2718 36.4817C61.5143 37.2183 61.6345 37.4813 62.0343 38.1489L62.509 38.9415L62.6212 40.638C62.6829 41.5711 62.8254 43.1947 62.938 44.2461C63.0506 45.2975 63.2105 46.5914 63.2935 47.1214C63.3765 47.6514 63.5308 48.5243 63.6364 49.0613C63.742 49.5982 63.9258 50.4696 64.0448 50.9978C64.1639 51.526 64.3025 52.3206 64.3529 52.7637C64.4034 53.2066 64.4412 53.8647 64.4371 54.226C64.4329 54.5873 64.3876 55.1238 64.3363 55.4182C64.285 55.7126 64.1613 56.1604 64.0613 56.4134C63.9613 56.6664 63.7777 57.0161 63.6533 57.1906C63.5063 57.3969 63.3012 57.591 63.0671 57.7455C62.8043 57.9189 62.6234 57.992 62.3973 58.016C62.2269 58.034 62.0305 58.0175 61.9607 57.9793C61.8911 57.941 61.7907 57.843 61.7377 57.7614C61.6847 57.6799 61.651 57.4429 61.6627 57.2349C61.6744 57.0268 61.6792 56.4528 61.6733 55.9592C61.6674 55.4657 61.615 54.0488 61.5569 52.8106C61.4987 51.5725 61.3801 49.4378 61.2934 48.0668C61.2067 46.6959 61.077 44.7454 61.0052 43.7323C60.9335 42.7193 60.8251 41.2503 60.7644 40.468C60.7038 39.6856 60.5921 38.555 60.5162 37.9555C60.4404 37.356 60.3027 36.4957 60.2104 36.0438C60.118 35.5917 59.9351 34.8684 59.8037 34.4364C59.6725 34.0043 59.457 33.3777 59.325 33.0438C59.193 32.7101 58.9116 32.1084 58.6996 31.7069C58.4876 31.3055 58.1604 30.7749 57.9722 30.528C57.7842 30.2811 57.4536 29.8851 57.2376 29.6481C57.0216 29.4111 56.6091 29.0244 56.321 28.7887C56.0329 28.5531 55.4993 28.1822 55.1353 27.9645C54.5899 27.6383 54.3525 27.5429 53.7855 27.4221C53.2746 27.3133 52.9565 27.2938 52.5496 27.3465C52.2482 27.3855 51.7577 27.5 51.4596 27.6011C51.1615 27.7022 50.6546 27.9314 50.3332 28.1105C50.0117 28.2895 49.6153 28.5313 49.4523 28.6477ZM48.3803 31.0235C48.4981 30.9945 48.6171 31.0056 48.6448 31.0483C48.6743 31.0936 48.6389 31.1623 48.5596 31.2139C48.485 31.2624 48.314 31.2861 48.1796 31.2666C47.9528 31.2338 47.9436 31.2257 48.0507 31.1538C48.1141 31.1112 48.2625 31.0525 48.3803 31.0235ZM62.0943 22.1097C62.1738 22.1028 62.2663 22.1401 62.2997 22.1925C62.3332 22.2449 62.368 22.4245 62.377 22.5917C62.386 22.7589 62.3534 23.4878 62.3047 24.2115C62.256 24.9351 62.2212 25.8601 62.2276 26.2668C62.2339 26.6737 62.2478 27.974 62.2585 29.1564C62.2693 30.3388 62.2894 31.9536 62.3032 32.7447C62.3171 33.5359 62.3644 35.1847 62.4084 36.4088L62.4883 38.6344L62.172 38.1474C61.998 37.8796 61.7488 37.3882 61.6182 37.0554C61.4876 36.7226 61.3069 36.1974 61.2167 35.8883C61.1265 35.5793 60.9659 34.9405 60.8598 34.4688C60.7538 33.997 60.5154 32.7364 60.3301 31.6673C60.1448 30.5983 59.847 29.0755 59.6683 28.2833C59.4895 27.4911 59.3197 26.5818 59.2908 26.2626C59.2571 25.8892 59.282 25.4998 59.3606 25.171C59.4321 24.8717 59.5855 24.4995 59.7306 24.2733C59.8669 24.0607 60.1096 23.7437 60.2699 23.5689C60.4302 23.3939 60.755 23.0774 60.9919 22.8655C61.2286 22.6535 61.541 22.3995 61.6861 22.3011C61.8311 22.2027 62.0148 22.1166 62.0943 22.1097ZM50.0993 31.1524C50.3843 31.0516 50.8211 30.9242 51.0701 30.8693C51.3189 30.8143 51.752 30.7661 52.0326 30.7621C52.3131 30.7581 52.8177 30.8212 53.1539 30.9023C53.4901 30.9835 53.9845 31.1654 54.2525 31.3067C54.5206 31.4479 54.921 31.7112 55.1424 31.8918C55.3638 32.0724 55.7301 32.4422 55.9566 32.7136C56.2638 33.0818 56.4452 33.3602 56.6716 33.81C56.8384 34.1416 57.0521 34.6687 57.1465 34.9814C57.2408 35.294 57.356 35.8253 57.4023 36.1622C57.4486 36.499 57.489 36.9507 57.4921 37.1659C57.4951 37.3812 57.473 37.8569 57.4428 38.223C57.4127 38.5891 57.3208 39.1585 57.2386 39.4883C57.1564 39.818 56.9713 40.3529 56.8272 40.6768C56.6831 41.0007 56.4223 41.4681 56.2476 41.7155C56.0729 41.9628 55.7867 42.3081 55.6115 42.4828C55.4364 42.6576 55.0407 42.9652 54.7322 43.1664C54.314 43.4391 54.0092 43.5874 53.5346 43.7491C53.1818 43.8694 52.5671 44.007 52.1556 44.0579C51.7473 44.1084 51.1142 44.1293 50.7486 44.1044C50.383 44.0794 49.8487 43.9918 49.5614 43.9095C49.2739 43.8273 48.8904 43.6972 48.7089 43.6204C48.5275 43.5437 48.2068 43.3804 47.9962 43.2577C47.7857 43.135 47.418 42.8739 47.1792 42.6774C46.9403 42.481 46.5436 42.0774 46.2976 41.7807C45.9556 41.3681 45.7777 41.0972 45.5424 40.63C45.373 40.2939 45.1533 39.7531 45.0542 39.4283C44.955 39.1035 44.8381 38.5667 44.7943 38.2355C44.7506 37.9043 44.7227 37.3733 44.7323 37.0557L44.7498 36.4782L45.74 35.2348C46.2846 34.551 46.7938 33.9261 46.8714 33.846C47.0022 33.7113 47.0036 33.7404 46.8904 34.2395C46.8231 34.536 46.7664 34.9737 46.7642 35.2124C46.762 35.451 46.7821 35.8444 46.8088 36.0866C46.8355 36.3288 46.924 36.7681 47.0056 37.0629C47.0871 37.3578 47.2525 37.8102 47.3733 38.0684C47.494 38.3264 47.7229 38.738 47.8819 38.9828C48.041 39.2276 48.3803 39.6645 48.6359 39.9537C48.8917 40.2429 49.2953 40.6398 49.5329 40.8359C49.7706 41.032 50.2103 41.3374 50.5101 41.5147C50.8098 41.6921 51.2423 41.9066 51.471 41.9914C51.6998 42.0763 52.0833 42.1798 52.3233 42.2217C52.5632 42.2634 52.9149 42.2902 53.1047 42.2812C53.2946 42.2722 53.6374 42.2014 53.8664 42.124C54.1427 42.0306 54.3738 41.9077 54.5529 41.7591C54.7013 41.6359 54.9224 41.4003 55.044 41.2356C55.1657 41.0708 55.3339 40.7351 55.4179 40.4895C55.5023 40.2426 55.5734 39.8006 55.577 39.5004C55.5807 39.2019 55.5364 38.723 55.4787 38.4361C55.421 38.1493 55.2949 37.7005 55.1984 37.4388C55.1019 37.1771 54.8699 36.6791 54.6829 36.3321C54.4755 35.9475 54.1671 35.4768 53.8928 35.1263C53.6453 34.81 53.2805 34.3864 53.082 34.1849C52.8835 33.9835 52.4599 33.6096 52.1407 33.3542C51.8215 33.0988 51.3689 32.7943 51.1349 32.6776C50.9008 32.5609 50.5085 32.4129 50.2631 32.3488C50.0176 32.2847 49.6221 32.2498 49.3843 32.2713C49.1464 32.2928 48.8278 32.3511 48.6762 32.4008C48.5245 32.4506 48.2059 32.616 47.9682 32.7684C47.578 33.0184 47.5448 33.0296 47.6278 32.8833C47.6784 32.7942 47.8391 32.6045 47.9852 32.4619C48.1312 32.3192 48.2931 32.1585 48.345 32.1049C48.3968 32.0511 48.6962 31.8561 49.0102 31.6715C49.3242 31.4868 49.8143 31.2533 50.0993 31.1524ZM49.2294 32.4119C49.5512 32.3732 49.8859 32.3964 50.2216 32.4808C50.5004 32.5508 50.9331 32.7225 51.1833 32.8623C51.4336 33.0021 51.8571 33.2907 52.1243 33.5036C52.3916 33.7165 52.7783 34.0612 52.9838 34.2698C53.1893 34.4784 53.5572 34.9117 53.8016 35.2327C54.0459 35.5537 54.402 36.104 54.5929 36.4554C54.7838 36.8068 55.0255 37.3398 55.1301 37.6399C55.2346 37.9399 55.3571 38.4799 55.4024 38.8397C55.45 39.2174 55.4513 39.706 55.4055 39.9955C55.3482 40.3583 55.2466 40.6309 55.038 40.9813C54.776 41.4214 54.7088 41.492 54.3023 41.7549C53.9159 42.0047 53.788 42.0533 53.3634 42.1119C53.0695 42.1525 52.6529 42.1393 52.3267 42.0791C52.0268 42.0237 51.5863 41.897 51.3478 41.7976C51.1094 41.6981 50.6784 41.4704 50.3902 41.2916C50.1018 41.1128 49.6032 40.7248 49.2821 40.4293C48.8334 40.0166 48.5787 39.7237 48.1828 39.1653C47.8018 38.6278 47.605 38.2915 47.4276 37.8747C47.2956 37.5647 47.1273 37.0506 47.0535 36.7324C46.9797 36.414 46.9119 35.8618 46.9027 35.5051C46.8937 35.1485 46.9441 34.5947 47.0149 34.2744C47.0857 33.9543 47.1992 33.6058 47.2672 33.5002C47.3569 33.3606 47.5763 33.1932 48.0673 32.8892C48.7028 32.4958 48.7733 32.4668 49.2294 32.4119ZM67.1028 37.2897C67.2498 37.2988 67.2635 37.3157 67.2766 37.5037C67.2845 37.6161 67.2246 37.8244 67.1435 37.9668C67.028 38.1694 66.8722 38.3115 66.425 38.6218L65.854 39.0181L66.1204 38.4074C66.2669 38.0715 66.4496 37.7242 66.5263 37.6355C66.603 37.5468 66.7282 37.4305 66.8045 37.377C66.8808 37.3236 67.015 37.2843 67.1028 37.2897ZM70.0821 36.2212C70.3669 36.0997 70.8132 35.9461 71.0741 35.88C71.3348 35.8139 71.7305 35.7397 71.9532 35.7152C72.1759 35.6907 72.5195 35.673 72.7166 35.6758C72.9137 35.6787 73.2752 35.7055 73.5198 35.7353C73.7645 35.7653 74.1839 35.8852 74.4518 36.002C74.7197 36.1187 75.1121 36.3372 75.3237 36.4876C75.5353 36.6379 75.866 36.9186 76.0584 37.1112C76.2509 37.3039 76.6003 37.7261 76.835 38.0494C77.1231 38.4464 77.3729 38.8714 77.6043 39.3583C77.7927 39.7549 78.0278 40.3454 78.1266 40.6704C78.2255 40.9955 78.3516 41.6036 78.407 42.0218C78.4624 42.4399 78.4862 43.0525 78.4601 43.383C78.434 43.7135 78.3291 44.2104 78.2269 44.4873C78.1248 44.7641 77.9198 45.1943 77.7714 45.4433C77.623 45.6922 77.3912 46.0265 77.2563 46.1863C77.1214 46.346 76.7826 46.6442 76.5034 46.849L75.9958 47.2214L76.1195 46.9261C76.1876 46.7637 76.294 46.4168 76.3558 46.1552C76.4176 45.8937 76.4736 45.4816 76.4801 45.2395C76.4866 44.9974 76.4628 44.5337 76.4272 44.2091C76.3916 43.8844 76.2786 43.3208 76.1761 42.9567C76.0735 42.5926 75.8654 42.0214 75.7136 41.6875C75.5618 41.3536 75.2999 40.8681 75.1316 40.6087C74.9633 40.3492 74.6627 39.9429 74.4635 39.7059C74.2642 39.4688 73.919 39.1101 73.6963 38.9088C73.4735 38.7075 73.1122 38.4179 72.8935 38.2652C72.6747 38.1126 72.3215 37.9016 72.1084 37.7962C71.8954 37.6909 71.4309 37.5406 71.0762 37.4622C70.6539 37.3689 70.2882 37.3399 70.0165 37.378C69.7884 37.4102 69.4539 37.4964 69.2732 37.5698C69.0926 37.6432 68.8305 37.8007 68.691 37.9199C68.5514 38.0391 68.3327 38.2762 68.2048 38.4467C68.0769 38.6173 67.8969 38.9285 67.8047 39.1383C67.7124 39.3482 67.603 39.7392 67.5616 40.0073C67.5201 40.2754 67.5177 40.7597 67.5561 41.0836C67.5945 41.4076 67.7 41.8943 67.7906 42.1652C67.8812 42.4362 68.0851 42.923 68.2438 43.247C68.4206 43.6079 68.6999 44.0623 68.9649 44.4201C69.2029 44.7413 69.5991 45.2131 69.8455 45.4685C70.0919 45.724 70.522 46.1141 70.8013 46.3355C71.0806 46.5569 71.5433 46.8703 71.8297 47.0319C72.1161 47.1934 72.5552 47.3927 72.8056 47.4748C73.056 47.5569 73.4742 47.6525 73.7351 47.6873C73.9959 47.7221 74.3919 47.731 74.6151 47.7072C74.8382 47.6833 75.1484 47.6262 75.3044 47.5803C75.4604 47.5344 75.5811 47.5289 75.5727 47.5682C75.5643 47.6074 75.4336 47.7748 75.2824 47.9401C75.1312 48.1055 74.9201 48.2975 74.8134 48.3668C74.6772 48.4553 74.412 48.5005 73.9227 48.5185C73.5394 48.5326 72.9172 48.5132 72.5399 48.4753C72.1627 48.4374 71.6364 48.3433 71.3705 48.2662C71.1045 48.189 70.7178 48.0588 70.5112 47.9767C70.3045 47.8948 69.9287 47.7067 69.6761 47.5589C69.4235 47.4111 69.0076 47.115 68.7519 46.901C68.3216 46.5409 68.2389 46.4381 67.6393 45.5172C67.0499 44.612 66.9733 44.4652 66.7875 43.8862C66.6751 43.5363 66.5417 42.9382 66.4909 42.557C66.4401 42.1759 66.4089 41.6365 66.4215 41.3582C66.4341 41.08 66.5178 40.5604 66.6074 40.2035C66.697 39.8467 66.89 39.3237 67.0362 39.0414C67.1824 38.7592 67.4433 38.3462 67.6159 38.1239C67.7884 37.9015 68.0837 37.5741 68.272 37.3964C68.4604 37.2187 68.8282 36.9313 69.0894 36.7577C69.3506 36.5842 69.7973 36.3427 70.0821 36.2212ZM70.0246 37.5229C70.4173 37.4736 70.7 37.4955 71.1597 37.611C71.5432 37.7073 71.9818 37.8846 72.334 38.0855C72.6431 38.262 73.1001 38.5746 73.3494 38.7802C73.5987 38.9859 74.0027 39.3782 74.2472 39.6519C74.5668 40.0099 74.824 40.3724 75.1633 40.944C75.4435 41.4159 75.7151 41.958 75.8321 42.2789C75.9405 42.5762 76.0828 43.05 76.1483 43.3318C76.2138 43.6136 76.2892 44.0423 76.3159 44.2846C76.3425 44.5267 76.3601 44.9227 76.3549 45.1644C76.3497 45.4061 76.277 45.878 76.1933 46.2131C76.1096 46.5481 75.979 46.9312 75.9032 47.0645C75.7809 47.2791 75.7308 47.3182 75.4614 47.4083C75.2943 47.4642 74.9536 47.5356 74.7044 47.5669C74.4552 47.5984 74.0418 47.6017 73.7858 47.5745C73.5297 47.5474 73.1112 47.4518 72.8558 47.3622C72.6004 47.2727 72.1733 47.0807 71.9067 46.9355C71.6401 46.7903 71.1674 46.4666 70.8563 46.2161C70.5453 45.9657 70.0978 45.5499 69.8621 45.2921C69.6264 45.0344 69.2801 44.6224 69.0926 44.3765C68.9051 44.1307 68.5984 43.6318 68.4111 43.268C68.2239 42.9041 67.9942 42.3531 67.9008 42.0434C67.8073 41.7338 67.705 41.2426 67.6734 40.952C67.6357 40.6056 67.6606 40.2148 67.7455 39.8182C67.8168 39.4853 67.9635 39.0611 68.0715 38.8755C68.1794 38.69 68.3875 38.4094 68.5339 38.2521C68.693 38.0811 68.9409 37.8902 69.1507 37.7774C69.3871 37.6502 69.672 37.5672 70.0246 37.5229Z" fill="black" stroke="black" stroke-width="0.5"/>
</svg>
