<svg width="184" height="139" viewBox="0 0 184 139" fill="none" xmlns="http://www.w3.org/2000/svg">
<path fill-rule="evenodd" clip-rule="evenodd" d="M65.4583 0.960462C64.9888 1.06269 64.3702 1.24472 64.0834 1.3647C63.7965 1.48467 63.1596 1.85611 62.6682 2.19006C62.1766 2.52401 60.8174 3.7607 59.6476 4.93833C58.3954 6.19902 57.0933 7.36245 56.4811 7.76796C55.9092 8.14663 55.0001 8.64202 54.4609 8.86892C53.9216 9.09581 52.9698 9.35593 52.3458 9.44708C51.4641 9.57572 50.9821 9.57345 50.1832 9.43686C49.6179 9.34002 48.4215 8.99869 47.5247 8.67809C46.6279 8.35748 45.3417 7.94828 44.6665 7.76867C43.9913 7.5892 42.6514 7.36841 41.6889 7.27825C40.5841 7.17475 38.7628 7.14649 36.7487 7.20172C34.9941 7.25 31.8995 7.35762 29.8719 7.44097C27.328 7.54561 26.1289 7.64685 26.0029 7.76768C25.9027 7.8638 25.8605 8.04668 25.9092 8.1739C25.9635 8.3156 26.2267 8.43543 26.588 8.48314C26.9124 8.52588 28.3903 8.6247 29.8719 8.70265C31.3536 8.7806 34.4187 8.84449 36.6831 8.84464L40.8002 8.84492L40.0487 9.64061C39.6161 10.0989 39.0935 10.8667 38.8167 11.4509C38.5523 12.0089 38.2267 12.9448 38.0934 13.5304C37.9264 14.2635 37.851 15.2148 37.8514 16.5831C37.8518 17.6764 37.9559 19.3891 38.0827 20.3889C38.2096 21.3889 38.4394 22.8582 38.5934 23.654C38.7475 24.4498 39.0973 25.9073 39.371 26.893C39.6445 27.8785 39.932 29.0219 40.01 29.4338C40.1036 29.9276 40.1043 30.3594 40.0123 30.7019C39.9354 30.9876 39.6961 31.3885 39.4804 31.593C39.2648 31.7976 38.7219 32.0705 38.2742 32.1994C37.8109 32.3329 36.8641 32.4446 36.0765 32.4587C35.3154 32.4723 33.3848 32.4269 31.7861 32.3577C29.0633 32.24 28.8051 32.251 27.7057 32.5304C27.0601 32.6945 26.363 32.9113 26.1564 33.0121C25.9499 33.113 25.7613 33.2593 25.7374 33.3374C25.7134 33.4155 25.754 33.5747 25.8274 33.6913C25.9414 33.8722 27.2513 33.9289 34.7932 34.0807C42.547 34.2368 43.7262 34.2326 44.4497 34.0471C44.9031 33.9308 45.5596 33.6389 45.9087 33.3983C46.2578 33.1578 46.7765 32.5984 47.0612 32.1553C47.346 31.7123 48.0134 30.6857 48.5443 29.8744C49.0753 29.063 49.5097 28.3385 49.5097 28.2644C49.5097 28.1903 49.7061 28.2951 49.946 28.4973C50.1859 28.6995 50.5546 28.8649 50.7651 28.8649C50.9758 28.8649 51.2903 28.7652 51.464 28.6432C51.6378 28.5214 51.8751 28.2375 51.9913 28.0124C52.1076 27.7872 52.4947 26.8175 52.8513 25.8575C53.208 24.8974 53.5147 24.097 53.5328 24.0788C53.551 24.0607 54.6472 24.2692 55.9688 24.5424C57.2903 24.8155 58.9777 25.0774 59.7185 25.1244C60.5524 25.1774 61.3734 25.1457 61.8733 25.0411C62.3306 24.9455 63.5613 24.4202 64.7091 23.8306C65.8245 23.2579 67.2794 22.6222 67.9423 22.418C68.6052 22.214 69.751 21.9225 70.4885 21.7702C71.226 21.6178 71.8428 21.5066 71.8589 21.523C71.8752 21.5393 71.1215 22.1277 70.1838 22.8305C69.2463 23.5333 68.1289 24.4861 67.7008 24.9476C67.2728 25.4092 66.2054 26.8788 65.3288 28.2133C64.4522 29.5478 63.3115 31.3566 62.7937 32.2329C62.276 33.1093 61.5563 34.4164 61.1944 35.1378C60.8327 35.8592 60.2571 37.1655 59.9153 38.0406C59.5738 38.9155 59.1327 40.2278 58.9353 40.9569C58.7378 41.686 58.4518 43.0812 58.2995 44.0573C58.1472 45.0335 57.9497 47.11 57.8605 48.6719C57.7714 50.2337 57.7326 52.8533 57.7743 54.4933C57.8208 56.3151 57.9411 57.9721 58.0834 58.7528C58.2116 59.4557 58.5744 60.8001 58.8898 61.7404C59.2051 62.6807 59.7279 63.9526 60.0516 64.5667C60.5901 65.5882 60.7126 65.7221 61.4909 66.1401L62.3416 66.5968L62.3238 67.3603C62.311 67.9074 62.063 68.7919 61.4491 70.4804C60.9778 71.7766 60.5151 73.2287 60.4211 73.7075C60.327 74.1861 60.2789 74.9266 60.3142 75.3528C60.3716 76.0467 60.3477 76.1353 60.0839 76.2006C59.922 76.2408 58.8324 76.3788 57.6626 76.5074C56.133 76.6757 55.3296 76.8336 54.8017 77.07C54.3013 77.294 53.9557 77.5723 53.7158 77.9438C53.5224 78.2436 53.321 78.6974 53.2684 78.9523C53.1995 79.2861 53.2574 79.5905 53.4753 80.0413C53.6416 80.3853 53.9819 80.8227 54.2313 81.0131C54.4809 81.2035 55.0316 81.535 55.4552 81.7498C55.8787 81.9646 56.8358 82.3641 57.5821 82.6372C58.3282 82.9104 59.6406 83.343 60.4984 83.5983C61.3562 83.8538 63.7076 84.4569 65.7237 84.9388C67.7398 85.4206 70.1483 85.9723 71.0757 86.1647C72.0033 86.3571 73.2356 86.5546 73.8144 86.6036C74.393 86.6526 74.9265 86.7317 75 86.7794C75.0733 86.8269 75.3312 87.5065 75.573 88.2893C75.8149 89.072 76.1101 90.1263 76.229 90.632C76.3481 91.1378 76.4464 91.8267 76.4475 92.163C76.4487 92.4994 76.3788 93.0745 76.292 93.4409C76.2052 93.8074 75.791 94.8328 75.3716 95.7195C74.9521 96.6062 74.3753 97.7243 74.0897 98.2042C73.8043 98.6842 73.0603 99.7956 72.4367 100.674C71.813 101.553 71.2325 102.276 71.1467 102.282C71.061 102.288 70.3527 102.308 69.5729 102.327C68.3922 102.356 67.8762 102.45 66.4894 102.888C64.9663 103.369 64.7299 103.407 63.7245 103.327C62.9958 103.269 62.1233 103.318 61.1364 103.472C60.3176 103.6 58.6906 103.826 57.5208 103.974C56.3511 104.122 54.086 104.358 52.4873 104.499C50.2674 104.695 48.3244 104.751 44.2635 104.739C40.6788 104.729 38.0457 104.648 36.1816 104.49C34.6609 104.362 32.0657 104.089 30.4144 103.884C28.7633 103.679 27.3036 103.552 27.1706 103.603C26.9809 103.676 26.9468 103.807 27.0123 104.211C27.0583 104.494 27.2419 104.883 27.4204 105.074C27.5991 105.266 28.0003 105.554 28.3121 105.714C28.6241 105.874 29.8045 106.354 30.9352 106.78C32.0661 107.206 33.8846 107.869 34.9764 108.253C36.0681 108.638 37.9504 109.231 39.1591 109.572C40.3679 109.913 41.6759 110.268 42.0658 110.36C42.4557 110.453 44.1785 110.809 45.8941 111.152C47.6098 111.495 49.5558 111.959 50.2187 112.185C50.8815 112.41 51.9155 112.822 52.5164 113.1C53.1171 113.378 54.1942 114.007 54.9096 114.498C55.6251 114.989 56.7315 115.905 57.3681 116.534C58.0047 117.162 58.88 118.188 59.313 118.813C59.746 119.437 60.6613 120.907 61.3467 122.078C62.0323 123.25 62.8841 124.623 63.2397 125.131C63.5953 125.639 64.2644 126.451 64.7265 126.936C65.1886 127.421 65.9008 128.049 66.3093 128.33C66.7177 128.612 67.298 128.927 67.599 129.031L68.1462 129.219L67.3708 129.455C66.9443 129.585 65.381 130.006 63.8969 130.391C62.4128 130.776 60.2753 131.278 59.147 131.507C58.0186 131.735 56.2178 132.056 55.145 132.22C54.0722 132.384 52.3176 132.612 51.2458 132.728C50.174 132.843 47.6926 133.014 45.7316 133.107C43.0002 133.236 41.3915 133.237 38.8549 133.111C37.0336 133.02 33.3422 132.748 30.6518 132.506C27.9613 132.265 24.3883 132.024 22.7116 131.971C21.0349 131.919 18.6423 131.917 17.3945 131.967C16.1468 132.018 14.5835 132.133 13.9207 132.223C13.2578 132.314 11.9335 132.544 10.9777 132.736C10.0219 132.928 8.55439 133.312 7.71656 133.59C6.87873 133.868 5.48423 134.435 4.61762 134.849C3.75115 135.263 2.50524 135.957 1.8489 136.389C1.1927 136.822 0.375006 137.425 0.0320187 137.73C-0.407669 138.121 -0.564771 138.355 -0.500257 138.523C-0.450064 138.654 -0.299201 138.762 -0.16521 138.762C-0.0310775 138.762 0.433565 138.485 0.867298 138.146C1.30103 137.807 2.03876 137.286 2.50666 136.988C2.97457 136.69 3.96355 136.142 4.70439 135.77C5.44524 135.398 6.68944 134.873 7.46928 134.604C8.24912 134.335 9.58903 133.949 10.4468 133.746C11.3047 133.544 12.7722 133.264 13.708 133.124C15.1067 132.915 16.3051 132.87 20.443 132.876C24.9461 132.882 25.9994 132.93 30.4391 133.337C33.1685 133.587 36.4864 133.855 37.8121 133.933C39.1379 134.01 41.1477 134.073 42.2785 134.073C43.4093 134.072 45.451 134.009 46.8157 133.932C48.1805 133.855 50.2222 133.693 51.353 133.573C52.4838 133.452 54.2703 133.224 55.3231 133.065C56.3759 132.907 58.3219 132.554 59.6476 132.282C60.9734 132.009 62.8875 131.571 63.9013 131.307C64.9151 131.043 66.3174 130.66 67.0176 130.455C67.7177 130.251 68.6023 129.913 68.9833 129.705C69.3644 129.498 69.8284 129.104 70.0144 128.829C70.2004 128.555 70.3519 128.234 70.3509 128.115C70.35 127.997 70.7428 127.089 71.224 126.098L72.0988 124.297L73.0337 124.2C73.5477 124.146 74.2555 124.007 74.6064 123.889C74.9573 123.772 75.5177 123.488 75.8514 123.258C76.1854 123.028 76.6188 122.585 76.8146 122.275C77.0106 121.964 77.2357 121.358 77.315 120.928C77.3944 120.498 77.4714 119.028 77.4861 117.66L77.5131 115.174L79.5986 114.338C80.7457 113.878 82.5274 113.115 83.5581 112.644C84.5886 112.172 86.2342 111.341 87.215 110.799C88.1956 110.256 89.6041 109.404 90.345 108.906C91.1659 108.353 91.6735 107.921 91.6447 107.798C91.6187 107.687 91.643 107.642 91.6988 107.697C91.7545 107.753 91.9353 107.727 92.1005 107.64C92.2658 107.552 92.8475 107.114 93.3934 106.666C93.9393 106.217 95.0559 105.226 95.8747 104.463C96.8786 103.528 97.645 102.944 98.2277 102.671C98.7031 102.448 99.6921 102.15 100.425 102.01C101.159 101.87 102.002 101.639 102.299 101.496C102.596 101.354 102.989 101.039 103.172 100.796C103.356 100.553 103.615 99.9713 103.747 99.5027C103.88 99.0342 104.112 98.4475 104.262 98.1989C104.412 97.9504 105.227 97.1646 106.072 96.453C106.918 95.7414 108.065 94.6394 108.621 94.0042C109.177 93.3691 110.015 92.2893 110.483 91.6049C110.951 90.9204 111.517 89.9576 111.739 89.465C111.962 88.9726 112.312 88.2065 112.517 87.7625C112.722 87.3185 112.889 86.8871 112.889 86.8041C112.889 86.721 112.937 86.6492 112.996 86.6445C113.054 86.6398 113.421 86.6067 113.811 86.5712C114.201 86.5356 115.509 86.3422 116.718 86.1414C117.926 85.9407 119.617 85.6192 120.475 85.4271C121.333 85.235 123.119 84.8186 124.445 84.5015C125.771 84.1846 127.419 83.77 128.107 83.5802C128.795 83.3905 129.768 83.0413 130.269 82.8042C130.769 82.5672 131.522 82.0596 131.941 81.6763C132.423 81.2355 132.818 80.7106 133.017 80.2482C133.203 79.8151 133.333 79.213 133.337 78.771C133.341 78.3605 133.3 77.9526 133.245 77.8643C133.191 77.7761 132.906 77.581 132.612 77.4309C132.318 77.2807 131.572 77.0319 130.955 76.878C130.338 76.7241 129.227 76.4999 128.486 76.3796C127.745 76.2595 126.246 76.0624 125.154 75.9416C124.062 75.8209 121.989 75.6283 120.546 75.5137C119.103 75.399 116.711 75.2378 115.229 75.1557C113.747 75.0737 110.908 74.9436 108.919 74.8668C106.931 74.7901 101.731 74.6869 97.3635 74.6376C92.6547 74.5845 86.6826 74.6138 82.6884 74.7095C78.9841 74.7984 74.7411 74.9341 73.2594 75.0112C71.7777 75.0882 69.7359 75.2162 68.7221 75.2957C67.7084 75.3752 65.6456 75.5726 64.1381 75.7345C62.6307 75.8963 61.3546 75.9855 61.3023 75.9325C61.2501 75.8796 61.214 75.3468 61.2221 74.7488C61.2338 73.8791 61.3427 73.3626 61.7655 72.1705C62.0565 71.3505 62.4848 70.1365 62.7175 69.4728C62.9503 68.809 63.1772 67.9623 63.2217 67.5914L63.3028 66.917L64.4527 66.9164C65.0853 66.9162 66.2081 66.8176 66.9478 66.6975C67.6875 66.5772 68.9317 66.318 69.7127 66.121C70.4937 65.9241 72.0777 65.4764 73.2329 65.1262C74.3882 64.776 76.3023 64.1474 77.4865 63.7294C78.6709 63.3114 80.6289 62.5873 81.8376 62.1202C83.0464 61.653 85.1839 60.7901 86.5876 60.2025C87.9913 59.615 90.0649 58.7213 91.1957 58.2164C92.3265 57.7115 94.1768 56.8688 95.3076 56.3438C96.4384 55.8187 99.182 54.4772 101.405 53.3626C103.627 52.2482 106.371 50.8406 107.501 50.2347C108.632 49.6289 110.355 48.6839 111.33 48.1349C112.305 47.5858 113.959 46.6286 115.006 46.0077C116.053 45.3867 117.649 44.415 118.551 43.8482C119.453 43.2814 120.702 42.4786 121.326 42.064C121.95 41.6494 123.258 40.7315 124.233 40.024C125.207 39.3164 126.661 38.1708 127.463 37.4777C128.265 36.7848 129.211 35.8608 129.566 35.4245C129.921 34.988 130.39 34.2761 130.607 33.8422C130.825 33.4084 131.047 32.8511 131.1 32.6039C131.154 32.3566 131.127 31.8917 131.041 31.5708C130.912 31.0938 130.519 30.6316 128.887 29.0387C127.79 27.967 125.953 26.0358 124.806 24.7473C123.659 23.4588 122.163 21.9253 121.481 21.3397C120.799 20.754 119.687 19.8771 119.011 19.391C118.335 18.9052 117.026 18.0782 116.104 17.5536L114.427 16.5996L115.076 16.2692C115.433 16.0875 116.283 15.7529 116.966 15.5258C117.648 15.2984 118.685 15.0156 119.27 14.8971C119.855 14.7785 120.971 14.6381 121.751 14.5853C122.577 14.5292 123.909 14.56 124.941 14.6589C125.916 14.7524 127.607 15.0148 128.699 15.2422C129.791 15.4695 131.832 16.0075 133.236 16.4376C134.64 16.8677 136.905 17.5712 138.27 18.0011C139.634 18.4309 141.899 19.0687 143.303 19.4184C144.707 19.768 147.1 20.2739 148.62 20.5427C150.141 20.8115 152.566 21.1629 154.008 21.3237C155.451 21.4845 157.78 21.6905 159.184 21.7815C160.587 21.8725 164.192 21.9481 167.195 21.9492C170.197 21.9505 174.663 21.87 177.12 21.7702C179.576 21.6705 182 21.5488 182.506 21.4998C183.249 21.4278 183.436 21.3598 183.477 21.1471C183.504 21.0022 183.468 20.8245 183.396 20.7525C183.316 20.6725 181.366 20.7116 178.385 20.8532C175.63 20.984 170.91 21.0864 167.549 21.0883C164.274 21.0902 160.509 21.0182 159.184 20.928C157.858 20.838 155.816 20.6675 154.646 20.5491C153.477 20.4307 151.69 20.2085 150.676 20.0554C149.662 19.9022 148.003 19.6118 146.99 19.4101C145.976 19.2083 144.413 18.8538 143.516 18.6223C142.619 18.3908 141.247 18.0071 140.467 17.7697C139.688 17.5323 137.742 16.9226 136.143 16.4149C134.544 15.9071 132.279 15.2475 131.109 14.949C129.94 14.6506 128.153 14.2631 127.139 14.0879C125.747 13.8475 124.723 13.7686 122.956 13.7654C121.339 13.7626 120.215 13.8361 119.315 14.0034C118.6 14.1366 117.519 14.4075 116.913 14.6054C116.308 14.8033 115.252 15.2257 114.568 15.5444L113.323 16.1235L112.149 15.6252C111.504 15.3511 110.369 14.9301 109.628 14.6898C108.887 14.4495 107.707 14.0948 107.005 13.9016C106.303 13.7085 105 13.4137 104.11 13.2465C103.219 13.0794 101.784 12.8508 100.919 12.7386C100.056 12.6263 97.9768 12.4941 96.3001 12.4445C94.3619 12.3873 92.4512 12.4173 91.0539 12.5267C89.8452 12.6216 88.3808 12.7955 87.7999 12.9134C87.2188 13.0312 86.4948 13.2547 86.191 13.41C85.8871 13.5652 85.6153 13.669 85.5871 13.6408C85.5589 13.6125 85.6369 13.2087 85.7605 12.7434C85.8841 12.2783 85.9932 11.3226 86.0028 10.6197C86.0153 9.716 85.9455 9.1269 85.7646 8.60766C85.624 8.204 85.2458 7.57443 84.9244 7.20868C84.6029 6.84307 83.7875 6.13782 83.1123 5.64144C82.4371 5.1452 81.6347 4.46225 81.3295 4.12376C81.024 3.78526 80.519 3.18239 80.2071 2.78398C79.8951 2.38557 79.3528 1.86349 79.0018 1.62382C78.6509 1.38415 77.9835 1.08981 77.5187 0.969833C76.8294 0.791925 75.7186 0.753872 71.4927 0.762959C67.7866 0.771053 66.0688 0.82728 65.4583 0.960462ZM77.28 1.80939C77.6978 1.92085 78.2884 2.17685 78.5926 2.37847C78.8968 2.57995 79.5704 3.28775 80.0894 3.9511C80.7871 4.84306 81.4264 5.4499 82.5425 6.27981C83.3726 6.89702 84.221 7.64685 84.4277 7.94601C84.6344 8.24517 84.9052 8.88766 85.0293 9.37367C85.216 10.1046 85.2287 10.4506 85.1023 11.3752C85.0182 11.9899 84.8254 12.9271 84.6738 13.458C84.5223 13.9888 84.4256 14.4673 84.4589 14.5214C84.4923 14.5755 84.3273 15.0934 84.0924 15.6724C83.8573 16.2515 83.6047 16.7859 83.5312 16.86C83.4466 16.9452 83.3385 16.936 83.2377 16.835C83.1194 16.7166 83.1411 16.4174 83.3217 15.6794C83.4614 15.1086 83.5259 14.5033 83.4727 14.2612C83.4218 14.029 83.065 13.4783 82.6799 13.0375C82.2946 12.5967 81.9794 12.1455 81.9794 12.0349C81.9794 11.9244 82.163 11.7387 82.3876 11.6226C82.6121 11.5063 82.831 11.3192 82.8741 11.2067C82.9172 11.0943 82.8711 10.8909 82.7717 10.7548C82.6525 10.5915 82.4748 10.5321 82.2497 10.5807C82.0621 10.6212 81.7958 10.7017 81.6578 10.7596C81.4718 10.8378 81.2527 10.7055 80.8071 10.2455C80.4772 9.9047 79.4133 8.65139 78.4431 7.46056C77.4456 6.23622 76.5761 5.29528 76.4421 5.29528C76.3117 5.29528 75.7417 5.48668 75.1752 5.72053C74.6088 5.95438 73.7205 6.27257 73.2011 6.42747C72.6816 6.58238 71.6261 6.83895 70.8554 6.99783C69.9208 7.19036 69.2269 7.25624 68.7716 7.1959C68.2544 7.12718 68.0004 7.16324 67.7234 7.34513C67.4788 7.50557 67.3725 7.68774 67.4019 7.89546C67.4409 8.16992 67.5366 8.20755 68.2259 8.21919C68.9249 8.23098 69.0188 8.26917 69.132 8.58878C69.2319 8.87019 69.1237 9.2855 68.6176 10.5634C68.2652 11.4533 67.9 12.4217 67.8063 12.7152C67.7127 13.0085 67.515 13.3135 67.3671 13.3927C67.1579 13.5049 66.9197 13.4414 66.2951 13.1078C65.8533 12.8716 65.3691 12.6785 65.219 12.6785C65.069 12.6785 64.8227 12.7447 64.6718 12.8255C64.5209 12.9064 64.3976 13.0882 64.3976 13.2294C64.3976 13.3709 64.5093 13.5845 64.6457 13.7042C64.7821 13.8241 65.098 14.0257 65.3476 14.1522C65.5973 14.2788 66.0439 14.3838 66.3401 14.3855C66.6364 14.3872 67.166 14.5201 67.5169 14.6808C67.8679 14.8417 68.7611 15.1336 69.502 15.3295C70.2428 15.5256 71.2318 15.7705 71.6997 15.8738C72.1676 15.9771 73.6032 16.1982 74.89 16.3653C76.1767 16.5323 77.4847 16.7416 77.7966 16.8305L78.3638 16.9919L77.7136 17.0755C77.3558 17.1214 76.8902 17.2725 76.6788 17.4112C76.4674 17.5499 76.17 17.8677 76.018 18.1171C75.8469 18.3983 75.7416 18.8276 75.7413 19.2454C75.7407 19.9116 75.735 19.9198 75.2799 19.9198C75.0264 19.9198 74.4362 20.0459 73.9683 20.1999C73.5004 20.354 72.1816 20.6401 71.0377 20.8357C69.8939 21.0313 68.358 21.3838 67.6248 21.6189C66.8918 21.8541 65.493 22.4606 64.5165 22.9668C63.5402 23.473 62.3669 23.9848 61.909 24.1043C61.4513 24.2237 60.7116 24.3213 60.2653 24.3213C59.8191 24.3213 58.5723 24.1612 57.4949 23.9655C56.4173 23.7697 54.3359 23.3083 52.8696 22.9401C50.5887 22.3673 50.1844 22.3008 50.0715 22.4795C49.999 22.5945 49.9596 22.7524 49.984 22.8305C50.0084 22.9086 50.3026 23.1826 50.6378 23.4393C50.973 23.696 51.5264 23.9809 51.8673 24.0722C52.2083 24.1636 52.4866 24.2729 52.4856 24.3152C52.4846 24.3577 52.1999 25.1534 51.8529 26.0837C51.5058 27.014 51.1621 27.8349 51.0891 27.908C51.016 27.9813 50.8264 27.9999 50.6679 27.9495C50.5092 27.8991 50.2519 27.5893 50.0959 27.261C49.9378 26.9279 49.7374 26.0367 49.6429 25.2443C49.5496 24.4633 49.4777 22.7702 49.4832 21.4816C49.4887 20.1813 49.5911 18.4512 49.7133 17.5935C49.8344 16.7434 50.0613 15.4975 50.2175 14.8248C50.3736 14.1519 50.7312 12.8931 51.012 12.0274L51.5226 10.4533L52.7967 10.2271C53.5754 10.089 54.4807 9.80602 55.1254 9.49947C55.7055 9.2236 56.5454 8.7559 56.9921 8.46C57.4387 8.1641 58.9543 6.80388 60.36 5.43727C62.2132 3.63547 63.1588 2.82317 63.8002 2.48184C64.2867 2.22286 65.0827 1.9244 65.5692 1.81862C66.2146 1.6782 67.813 1.62368 71.487 1.61658C75.4194 1.60919 76.6867 1.65136 77.28 1.80939ZM78.339 8.65509C79.4014 9.91734 80.4637 11.0877 80.6996 11.2561C80.9356 11.4244 81.1287 11.6619 81.1287 11.784C81.1287 11.9607 81.0141 11.9906 80.5682 11.9307C80.2599 11.8892 79.8234 11.724 79.5981 11.5634C79.3728 11.4026 79.0312 10.9652 78.8389 10.5912C78.5168 9.96433 78.4388 9.90371 77.8457 9.8188C77.4917 9.76811 77.0168 9.62953 76.7904 9.51083C76.5639 9.39213 76.1753 9.08204 75.9266 8.82149C75.678 8.56109 75.4083 8.17219 75.3275 7.95751C75.2382 7.72025 75.0749 7.56705 74.9112 7.56705C74.7632 7.56705 74.3707 7.66289 74.0392 7.78003C73.695 7.90157 72.9473 7.99301 72.2964 7.99301C71.6692 7.99301 71.1983 7.9507 71.25 7.89901C71.3016 7.84733 71.9202 7.65565 72.6246 7.47292C73.329 7.29018 74.3662 6.95452 74.9294 6.72706C75.4926 6.49975 76.0555 6.32411 76.1804 6.33689C76.3053 6.34967 77.2767 7.39298 78.339 8.65509ZM45.0337 8.72963L46.1777 9.04043L45.327 9.19889C44.859 9.28621 44.3414 9.43146 44.1766 9.52177C44.0119 9.61207 43.684 9.90612 43.4482 10.175C43.2123 10.4441 42.8868 11.0695 42.7246 11.5649C42.5623 12.0602 42.2985 13.2323 42.138 14.1694C41.9776 15.1065 41.772 16.8149 41.6813 17.9659C41.5537 19.5846 41.5556 20.5607 41.6899 22.2755C41.7853 23.4947 41.9529 24.9606 42.0623 25.5329C42.1716 26.1053 42.3583 26.7618 42.4773 26.9921C42.5961 27.2223 42.7966 27.4503 42.9229 27.4988C43.0491 27.5473 43.2687 27.587 43.411 27.587C43.6458 27.587 43.6625 27.6897 43.593 28.7044C43.535 29.5521 43.578 30.0175 43.7711 30.632C43.911 31.0776 44.2336 31.7881 44.4878 32.2109C44.7421 32.6336 44.9016 33.0096 44.8423 33.0464C44.7829 33.083 44.4211 33.1837 44.0382 33.27C43.5673 33.3761 42.4466 33.3932 40.577 33.3229C38.0858 33.2292 37.8754 33.2025 38.451 33.0533C38.8024 32.9622 39.249 32.8051 39.4436 32.7043C39.6381 32.6035 39.9468 32.3853 40.1297 32.2193C40.3126 32.0533 40.5635 31.7259 40.6873 31.4916C40.8273 31.2271 40.9119 30.716 40.9106 30.1428C40.9094 29.5018 40.7289 28.5691 40.3201 27.0901C39.9963 25.9187 39.6073 24.3532 39.4556 23.611C39.304 22.869 39.0796 21.541 38.9569 20.66C38.8341 19.7789 38.7338 18.1061 38.7338 16.9425C38.7338 15.6173 38.8123 14.4529 38.944 13.8259C39.0597 13.2754 39.3415 12.4116 39.5702 11.9066C39.7989 11.4014 40.277 10.6765 40.6326 10.2959C40.9882 9.91521 41.5837 9.43984 41.9561 9.2395C42.3284 9.0393 42.8396 8.83172 43.0922 8.77819C43.3447 8.7248 43.5878 8.62215 43.6323 8.55002C43.6767 8.47789 43.7528 8.41896 43.8014 8.41896C43.8501 8.41896 44.4045 8.55882 45.0337 8.72963ZM74.8155 8.83385C74.8632 8.98392 75.1618 9.34173 75.4792 9.62897C75.7966 9.91606 76.3203 10.271 76.6429 10.4178C76.9655 10.5645 77.3716 10.6859 77.5452 10.6876C77.7344 10.6895 77.958 10.8473 78.1028 11.0812C78.2358 11.2959 78.4989 11.6416 78.6876 11.8495L79.0306 12.2272L78.7235 12.3917C78.502 12.5104 78.3649 12.5134 78.2312 12.4022C78.1293 12.3175 77.7026 12.1475 77.2832 12.0247C76.8637 11.9017 76.1405 11.6095 75.676 11.3752C75.2115 11.141 74.6766 10.8272 74.4871 10.678C74.2977 10.5289 73.9347 10.4068 73.6805 10.4068C73.4264 10.4068 72.7879 10.2737 72.262 10.111C71.736 9.94829 71.0273 9.81511 70.6873 9.81511C70.2586 9.81511 70.0691 9.75562 70.0691 9.62073C70.0691 9.51367 70.1392 9.27215 70.2248 9.08388C70.3787 8.74581 70.4001 8.74241 71.9617 8.80701C72.8868 8.8452 73.6901 8.81141 73.8974 8.72565C74.0924 8.64501 74.3592 8.57486 74.4905 8.5699C74.6217 8.56507 74.768 8.68377 74.8155 8.83385ZM47.6665 10.1232C48.4853 10.1963 49.4842 10.2966 49.8862 10.3461L50.6172 10.4362L50.271 11.4508C50.0807 12.0089 49.7718 13.0725 49.5844 13.8144C49.3971 14.5563 49.1453 15.7064 49.0247 16.3702C48.904 17.0339 48.7387 18.4264 48.6573 19.4646C48.5548 20.7707 48.5544 21.9891 48.6559 23.4206C48.7365 24.5583 48.8442 25.7501 48.8952 26.0692L48.9878 26.6493L48.6091 26.351C48.4008 26.1869 47.9038 25.9743 47.5048 25.8784C46.9429 25.7435 46.6121 25.7416 46.0375 25.8704C45.6294 25.9618 45.0829 26.1939 44.8229 26.386C44.5176 26.6114 44.1609 26.7351 43.8156 26.7351C43.4368 26.7351 43.2393 26.657 43.1377 26.4672C43.059 26.3197 42.8849 25.4092 42.7509 24.4439C42.5955 23.323 42.5069 21.7646 42.5061 20.1328C42.5052 18.7271 42.5842 16.97 42.6816 16.2282C42.7789 15.4863 42.9894 14.2404 43.1494 13.4595C43.3094 12.6785 43.5676 11.7407 43.7232 11.3752C43.8789 11.0099 44.121 10.607 44.2614 10.4797C44.4018 10.3525 44.699 10.1936 44.9219 10.1268C45.1446 10.0599 45.5184 10.0018 45.7523 9.99784C45.9863 9.99372 46.8476 10.0501 47.6665 10.1232ZM71.8828 10.8932C72.198 11.0047 72.7643 11.1381 73.1413 11.19C73.5182 11.2418 73.9892 11.3985 74.188 11.5385C74.3868 11.6784 74.8653 11.9526 75.2514 12.1476C75.6375 12.3427 76.3178 12.6168 76.7631 12.7566L77.5729 13.0109L76.978 13.6256C76.6507 13.9638 76.3366 14.2404 76.2799 14.2404C76.2234 14.2404 75.5524 13.8549 74.7892 13.3839C73.9631 12.8742 73.4009 12.4347 73.4005 12.2986C73.4 12.1726 73.2971 12.0048 73.1716 11.9256C73.0461 11.8462 72.8391 11.8215 72.7115 11.8705C72.571 11.9246 72.4796 12.1211 72.4796 12.369C72.4796 12.7781 72.4784 12.7785 71.3715 12.864C70.7619 12.9111 69.9665 13.0291 69.6036 13.1262C69.2408 13.2235 68.9026 13.2617 68.8523 13.2111C68.802 13.1607 68.8872 12.9084 69.0419 12.6506C69.1966 12.3926 69.4346 11.8813 69.5709 11.5144C69.7072 11.1474 69.9228 10.8194 70.0501 10.7854C70.1776 10.7515 70.5131 10.7163 70.7957 10.7072C71.0784 10.6981 71.5676 10.7819 71.8828 10.8932ZM81.9983 13.5147C82.3034 13.8617 82.5893 14.2903 82.6336 14.4673C82.6779 14.644 82.6126 15.1384 82.4886 15.5658C82.3645 15.9932 82.263 16.5117 82.263 16.7179C82.263 16.9269 82.4171 17.2473 82.6111 17.4414C82.8025 17.6331 83.1166 17.79 83.3091 17.79C83.5017 17.79 83.8461 17.6324 84.0746 17.4399C84.3266 17.2276 84.617 16.7389 84.8128 16.1975C85.0243 15.6124 85.3244 15.124 85.6842 14.7785C86.0496 14.4278 86.5303 14.1599 87.1224 13.9767C87.6114 13.8255 88.5207 13.6171 89.1429 13.5137C89.897 13.3883 91.6683 13.3243 94.4568 13.3216C97.0356 13.319 99.2106 13.3877 100.128 13.5008C100.947 13.6014 102.351 13.8124 103.248 13.9693C104.145 14.1264 105.612 14.4401 106.509 14.6668C107.406 14.8932 108.873 15.3344 109.77 15.6469C110.667 15.9595 111.608 16.296 111.861 16.3949C112.115 16.4935 112.322 16.6083 112.322 16.6497C112.322 16.6912 112.039 16.9037 111.694 17.1221L111.067 17.5192L109.39 17.0098C108.468 16.7297 106.948 16.3464 106.013 16.1582C105.077 15.9699 103.737 15.7329 103.035 15.6315C102.219 15.5137 100.327 15.4495 97.7889 15.4535C94.0088 15.4593 93.7306 15.4783 91.9755 15.8509C90.9617 16.0662 89.485 16.4588 88.694 16.7231C87.9028 16.9876 86.6596 17.5039 85.9312 17.8702C85.2028 18.2366 84.1593 18.8417 83.6121 19.215C83.0651 19.5884 82.2382 20.2184 81.7747 20.6152C81.311 21.0119 80.5205 21.8005 80.0179 22.3675C79.5151 22.9346 78.7517 23.935 78.3213 24.591C77.8908 25.2468 77.2974 26.333 77.0025 27.0047C76.7076 27.6763 76.3218 28.769 76.1449 29.4328C75.8883 30.3968 75.8224 31.0276 75.8176 32.567C75.8117 34.4665 75.8177 34.5043 76.2382 35.1859C76.535 35.6671 76.8692 35.9829 77.3365 36.2239C77.7861 36.4554 78.3384 36.5936 79.0065 36.6414C79.5555 36.6808 80.5926 36.6356 81.3112 36.5409C82.0296 36.4464 83.2236 36.2182 83.9645 36.034C84.7053 35.8499 85.8857 35.4975 86.5876 35.2507C87.2894 35.0041 88.5824 34.4567 89.4608 34.0344C90.3393 33.612 91.105 33.265 91.1622 33.2633C91.2197 33.2616 91.4261 33.1352 91.6211 32.9825C91.816 32.8297 92.0505 32.7033 92.1421 32.7016C92.2337 32.6999 92.9981 32.3066 93.8405 31.8277C94.683 31.3488 96.1393 30.4425 97.0768 29.8138C98.0143 29.1851 99.1962 28.3486 99.703 27.9549C100.21 27.5613 101.167 26.7919 101.83 26.2451C102.493 25.6983 104.028 24.3815 105.242 23.3188C106.456 22.2559 108.051 20.9116 108.787 20.3313C109.523 19.751 110.354 19.1058 110.634 18.8975L111.144 18.5188L112.714 19.2769C113.577 19.6938 114.663 20.2934 115.128 20.6091C115.592 20.9251 116.36 21.4948 116.834 21.8756C117.307 22.2563 118.625 23.4721 119.762 24.5775C120.899 25.6827 122.259 26.933 122.783 27.356C123.307 27.779 124.17 28.3631 124.701 28.6542C125.232 28.9452 125.921 29.2588 126.233 29.351L126.8 29.5187L124.985 29.9691C123.986 30.2167 122.212 30.6822 121.042 31.0033C119.873 31.3244 117.416 32.085 115.583 32.6934C113.751 33.3017 111.007 34.2818 109.486 34.8713C107.966 35.4608 105.541 36.4523 104.099 37.0745C102.656 37.6967 100.295 38.7594 98.8523 39.4361C97.4096 40.1128 94.5065 41.547 92.4009 42.6234C90.2953 43.6997 86.818 45.5591 84.6734 46.7555C82.5288 47.9517 79.1153 49.9023 77.0877 51.09C75.0601 52.2777 71.1999 54.5741 68.5095 56.1928C65.819 57.8116 63.2349 59.4112 62.767 59.7476C62.2991 60.0838 61.6813 60.6046 61.3941 60.9048C61.1068 61.2049 60.7108 61.7364 60.5138 62.0858L60.156 62.7211L59.9195 62.1568C59.7894 61.8464 59.5061 60.8897 59.2899 60.0307C59.0735 59.1717 58.8165 57.7358 58.7185 56.8397C58.5939 55.6992 58.5683 54.1238 58.6334 51.5863C58.6846 49.5929 58.7915 47.2591 58.8709 46.4001C58.9503 45.5411 59.1175 44.2632 59.2426 43.5604C59.3675 42.8576 59.6851 41.5645 59.9485 40.687C60.2118 39.8096 60.6576 38.5317 60.9391 37.8473C61.2205 37.1629 61.8245 35.8665 62.2814 34.9663C62.7382 34.066 63.5327 32.6346 64.0469 31.7854C64.5612 30.9362 65.5618 29.382 66.2706 28.3314C66.9794 27.2809 67.9016 26.0512 68.32 25.5986C68.7383 25.1461 69.6968 24.3063 70.45 23.7323C71.203 23.1582 72.2548 22.3605 72.7872 21.9598C73.7023 21.2708 73.8152 21.2258 74.8542 21.1329C75.4588 21.0788 76.5595 20.9414 77.3004 20.8272C78.0412 20.7131 78.9779 20.5256 79.382 20.4106C79.8075 20.2895 80.2974 20.0205 80.5464 19.7711C80.7827 19.5344 81.0181 19.1171 81.0693 18.8437C81.1216 18.5641 81.0817 18.0584 80.9781 17.6878C80.864 17.2796 80.5907 16.8254 80.2602 16.4944C79.9162 16.1499 79.4624 15.8813 78.984 15.739C78.5755 15.6176 77.9021 15.5182 77.4873 15.5182C77.0725 15.5182 76.7332 15.485 76.7332 15.4444C76.7332 15.4038 76.8851 15.1323 77.0707 14.841C77.2564 14.5498 77.5594 14.1779 77.7442 14.0149C77.9291 13.8518 78.3092 13.5814 78.5891 13.414C78.869 13.2465 79.3475 13.052 79.6525 12.9817C79.9575 12.9114 80.4853 12.8606 80.8254 12.8686C81.3711 12.8819 81.5087 12.9577 81.9983 13.5147ZM74.2519 14.4039C74.7978 14.7671 75.3848 15.1059 75.5562 15.1566C75.7336 15.209 75.8375 15.3284 75.7973 15.4335C75.7583 15.535 75.5862 15.5976 75.4146 15.5725C75.243 15.5475 74.1775 15.3923 73.0467 15.2276C71.9159 15.0629 70.6398 14.8307 70.2109 14.7116C69.782 14.5926 69.2441 14.4254 69.0155 14.3399L68.5998 14.1846L69.0155 14.065C69.2441 13.9993 69.6863 13.8882 69.9982 13.8182C70.3102 13.7484 71.1715 13.703 71.9124 13.7173L73.2594 13.7434L74.2519 14.4039ZM69.3602 14.7373C69.3602 14.7764 69.3283 14.8083 69.2893 14.8083C69.2503 14.8083 69.2184 14.7764 69.2184 14.7373C69.2184 14.6983 69.2503 14.6663 69.2893 14.6663C69.3283 14.6663 69.3602 14.6983 69.3602 14.7373ZM69.3602 15.0213C69.3602 15.0603 69.3283 15.0923 69.2893 15.0923C69.2503 15.0923 69.2184 15.0603 69.2184 15.0213C69.2184 14.9822 69.2503 14.9503 69.2893 14.9503C69.3283 14.9503 69.3602 14.9822 69.3602 15.0213ZM103.674 16.6323C104.65 16.7913 105.766 16.9908 106.155 17.0757C106.545 17.1604 107.581 17.4301 108.459 17.675C109.336 17.9198 110.054 18.1737 110.054 18.239C110.054 18.3044 110.006 18.3582 109.947 18.3585C109.889 18.3589 109.068 18.9818 108.123 19.7429C107.178 20.5039 105.036 22.3096 103.363 23.7553C101.69 25.2009 99.7194 26.8346 98.984 27.3858C98.2487 27.937 97.3281 28.614 96.9382 28.8903C96.5482 29.1665 95.2721 29.9654 94.1024 30.6655C92.9326 31.3657 91.6565 32.1023 91.2666 32.3025C90.8767 32.5028 89.792 33.0005 88.8562 33.4087C87.9204 33.8168 86.421 34.3952 85.5241 34.694C84.6273 34.9928 83.3512 35.3499 82.6884 35.4878C81.9615 35.6389 80.8359 35.741 79.8526 35.7448C78.4696 35.7502 78.1488 35.708 77.7406 35.4672C77.4758 35.311 77.1285 35.0079 76.969 34.7935C76.7431 34.4901 76.6657 34.128 76.6196 33.1607C76.5816 32.362 76.6443 31.4703 76.7949 30.6664C76.9238 29.9782 77.194 28.9559 77.3952 28.3946C77.5966 27.8334 77.9709 26.9587 78.2268 26.4511C78.4829 25.9435 79.0173 25.0672 79.4145 24.5038C79.8116 23.9404 80.5353 23.0509 81.0225 22.5272C81.5098 22.0034 82.5196 21.1183 83.2666 20.5602C84.0135 20.002 85.2577 19.2207 86.0315 18.824C86.8052 18.4274 88.0125 17.9005 88.7144 17.6534C89.4163 17.4062 90.5328 17.0754 91.1957 16.9184C91.8586 16.7613 93.0071 16.5447 93.7479 16.4367C94.6969 16.2985 96.1005 16.2556 98.4978 16.2916C101.046 16.3301 102.346 16.4156 103.674 16.6323ZM80.2202 18.1657C80.277 18.468 80.2509 18.7258 80.1539 18.823C80.0358 18.9412 79.9928 18.8742 79.9881 18.5638C79.9847 18.3334 79.8926 17.8894 79.7832 17.577L79.5845 17.0091L79.8558 17.3386C80.005 17.52 80.1691 17.8921 80.2202 18.1657ZM114.573 17.6686C115.168 17.9923 116.037 18.4846 116.505 18.7626C116.973 19.0406 117.994 19.7285 118.774 20.2912C119.554 20.8541 120.687 21.7734 121.292 22.3341C121.897 22.895 123.072 24.1307 123.903 25.08C124.734 26.0293 125.834 27.2441 126.347 27.7793C127.085 28.5484 127.207 28.732 126.927 28.6543C126.732 28.6002 126.164 28.3689 125.666 28.1405C125.167 27.9119 124.353 27.4345 123.856 27.0796C123.359 26.7246 121.811 25.3287 120.416 23.9775C119.02 22.6263 117.314 21.0984 116.625 20.5823C115.935 20.066 114.654 19.2746 113.777 18.8234C112.901 18.3722 112.184 17.971 112.183 17.932C112.183 17.893 112.453 17.6864 112.784 17.4728C113.115 17.2593 113.41 17.0836 113.439 17.0824C113.468 17.0811 113.979 17.3449 114.573 17.6686ZM78.618 18.2182C78.8178 18.3756 79.0562 18.7312 79.1475 19.0087C79.2389 19.286 79.2885 19.5381 79.2578 19.5689C79.227 19.5998 78.6642 19.7183 78.0073 19.8325C77.3503 19.9466 76.763 20.0092 76.7022 19.9715C76.6412 19.9339 76.5914 19.6561 76.5914 19.3544C76.5914 18.9712 76.7022 18.6739 76.9585 18.3689C77.2309 18.0447 77.4454 17.932 77.7901 17.932C78.0456 17.932 78.4181 18.0608 78.618 18.2182ZM47.5079 27.7022C47.9276 27.8341 48.2705 27.9944 48.2698 28.0583C48.2689 28.1223 47.9257 28.7845 47.5067 29.5298C47.0511 30.3401 46.4946 31.1068 46.1222 31.4368C45.7798 31.7402 45.4496 31.9886 45.3883 31.9886C45.3271 31.9886 45.1041 31.6347 44.8927 31.2021C44.635 30.6748 44.486 30.1017 44.4403 29.4624C44.3921 28.7874 44.4371 28.3539 44.5942 27.9771L44.8162 27.445L45.7805 27.4537C46.311 27.4585 47.0883 27.5703 47.5079 27.7022ZM129.124 30.6313C129.28 30.7346 129.527 31.0251 129.673 31.2768C129.931 31.7236 129.931 31.7326 129.673 31.6569C129.527 31.6143 129.057 31.5392 128.628 31.4899C128.199 31.4406 127.274 31.4716 126.572 31.5586C125.87 31.6457 124.562 31.8804 123.665 32.0803C122.769 32.2802 121.269 32.6647 120.333 32.9346C119.398 33.2047 117.579 33.7803 116.292 34.2136C115.006 34.6471 112.9 35.4016 111.613 35.8905C110.327 36.3793 108.241 37.2011 106.978 37.7168C105.715 38.2324 103.323 39.2572 101.661 39.9941C99.9992 40.7312 97.3954 41.9216 95.8747 42.6395C94.354 43.3574 91.8657 44.5735 90.345 45.3419C88.8243 46.1103 86.3997 47.369 84.957 48.1389C83.5143 48.9088 81.3449 50.1048 80.1362 50.7967C78.9274 51.4884 77.3004 52.4373 76.5205 52.9053C75.7407 53.3732 74.4965 54.1399 73.7557 54.609C73.0148 55.078 71.643 55.9723 70.7072 56.5964C69.7714 57.2203 68.4084 58.1762 67.6783 58.7206C66.9482 59.2651 65.787 60.1843 65.0976 60.7635C64.4083 61.3427 63.4869 62.212 63.05 62.6955C62.613 63.179 62.0783 63.9443 61.8618 64.3961C61.4868 65.1786 61.4569 65.2052 61.233 64.9576C61.1038 64.8146 60.9598 64.506 60.913 64.2717C60.8662 64.0374 60.9036 63.564 60.9962 63.2197C61.0888 62.8754 61.3586 62.3231 61.596 61.9921C61.8333 61.6611 62.5209 61.0255 63.1237 60.5794C63.7268 60.1332 65.3288 59.0999 66.6838 58.283C68.0389 57.466 71.1893 55.5837 73.6848 54.0998C76.1802 52.6159 79.8171 50.4927 81.7667 49.3812C83.7163 48.2699 86.5836 46.6737 88.1384 45.834C89.6932 44.9944 92.7961 43.3897 95.0336 42.268C97.2712 41.1464 100.598 39.5629 102.427 38.7494C104.256 37.9359 106.8 36.8561 108.081 36.3498C109.361 35.8436 111.461 35.0445 112.748 34.574C114.034 34.1034 116.427 33.3034 118.065 32.796C119.702 32.2887 122.063 31.6051 123.311 31.2768C124.559 30.9485 125.994 30.594 126.501 30.4889C127.008 30.3838 127.742 30.3307 128.132 30.3708C128.522 30.411 128.968 30.5281 129.124 30.6313ZM129.672 32.5669C129.878 32.7286 130.046 32.9548 130.046 33.0694C130.046 33.1839 129.918 33.5287 129.762 33.8354C129.605 34.1421 129.079 34.8199 128.592 35.3416C128.105 35.8632 127.068 36.8103 126.288 37.4462C125.509 38.0822 124.296 39.0241 123.594 39.5395C122.893 40.0549 121.298 41.1456 120.05 41.9633C118.802 42.7812 116.656 44.1259 115.28 44.9517C113.905 45.7776 111.321 47.2604 109.538 48.2469C107.755 49.2333 103.904 51.2354 100.979 52.6962C98.0547 54.1568 94.4817 55.8869 93.039 56.5409C91.5963 57.1947 89.4588 58.1429 88.289 58.6479C87.1193 59.153 85.0456 60.0132 83.6809 60.5599C82.3162 61.1064 79.9931 61.9951 78.5186 62.5348C77.0442 63.0743 74.9067 63.8058 73.7687 64.1602C72.6307 64.5148 70.8249 65.0256 69.7555 65.2955C68.6863 65.5656 67.1868 65.8807 66.4235 65.996C65.6602 66.1111 64.662 66.2058 64.2053 66.2062C63.5347 66.2069 63.2973 66.1415 62.9699 65.8658C62.7472 65.6779 62.4899 65.4993 62.3983 65.4688C62.2811 65.4296 62.3163 65.222 62.5176 64.7662C62.6748 64.4104 63.2419 63.6533 63.7778 63.084C64.3136 62.5146 65.3901 61.5261 66.1699 60.8873C66.9498 60.2487 68.2578 59.2464 69.0766 58.6603C69.8954 58.074 71.0758 57.256 71.6997 56.8423C72.3236 56.4285 73.7427 55.5244 74.8535 54.8331C75.9642 54.1417 78.1335 52.8475 79.6743 51.9571C81.215 51.0667 83.688 49.6872 85.1697 48.8915C86.6514 48.0957 89.7778 46.4971 92.1173 45.339C94.4568 44.1809 97.8066 42.5813 99.5613 41.7843C101.316 40.9873 104.123 39.7582 105.8 39.0528C107.477 38.3474 110.156 37.2758 111.755 36.6717C113.354 36.0674 115.555 35.274 116.647 34.9084C117.739 34.5427 119.595 33.9659 120.771 33.6265C121.948 33.2872 123.575 32.8785 124.387 32.7185C125.199 32.5585 126.023 32.4013 126.218 32.3694C126.413 32.3374 127.186 32.3025 127.935 32.2918C129.118 32.2751 129.348 32.3116 129.672 32.5669ZM111.33 75.7068C112.928 75.7915 115.736 75.9587 117.568 76.0781C119.401 76.1976 122.182 76.4237 123.747 76.5804C125.313 76.7372 127.291 76.9886 128.143 77.1393L129.691 77.413L118.136 77.3484C111.78 77.3128 96.7538 77.2164 84.7443 77.134C72.7348 77.0517 62.6855 76.9473 62.4125 76.902C61.9357 76.8228 61.9302 76.8151 62.2707 76.7052C62.4657 76.6423 63.8375 76.4914 65.3192 76.3699C66.8009 76.2483 69.0022 76.0864 70.2109 76.0103C71.4197 75.9342 74.0676 75.8036 76.0952 75.7201C78.1227 75.6366 80.3559 75.5482 81.0578 75.5235C81.7596 75.4986 88.204 75.4952 95.3785 75.5157C102.553 75.5361 109.731 75.6222 111.33 75.7068ZM60.8529 76.9864C60.8529 77.0582 61.0922 77.2658 61.3846 77.4478L61.9163 77.7789L71.3452 77.8706C76.5312 77.921 91.4297 78.0328 104.453 78.119C117.476 78.2053 128.77 78.3088 129.55 78.3493C130.329 78.3897 131.159 78.4775 131.393 78.5444L131.818 78.666L131.441 78.8175C131.234 78.9009 130.596 79.0647 130.023 79.1817C129.451 79.2987 128.313 79.4917 127.494 79.6104C126.675 79.7292 125.048 79.9237 123.878 80.0426C122.708 80.1616 120.379 80.3537 118.703 80.4695C117.026 80.5854 114.346 80.7454 112.748 80.8252C111.149 80.9049 107.034 81.0432 103.602 81.1323C99.8718 81.2292 94.1142 81.2594 89.2816 81.2073C84.8365 81.1594 79.6045 81.0554 77.6549 80.976C75.7053 80.8965 72.9616 80.7669 71.5579 80.6878C70.1542 80.6087 68.1443 80.4783 67.0916 80.3983C66.0388 80.318 64.2203 80.1566 63.0506 80.0395C61.8808 79.9222 60.0624 79.6995 59.0096 79.5445C57.9568 79.3895 56.6488 79.1468 56.1029 79.0054C55.557 78.864 54.923 78.6498 54.6937 78.5296L54.2771 78.3108L54.7257 78.0785C54.9724 77.9509 55.7066 77.7197 56.3573 77.5649C57.008 77.4102 58.1102 77.1946 58.8067 77.0859C59.5032 76.9773 60.2485 76.881 60.4629 76.8722C60.6773 76.8633 60.8529 76.9146 60.8529 76.9864ZM132.089 80.1195C131.85 80.5598 131.422 81.0469 131.003 81.3547C130.623 81.6341 129.841 82.0456 129.267 82.2691C128.692 82.4924 126.798 83.0241 125.058 83.4504C123.317 83.8768 121.287 84.3604 120.546 84.5251C119.805 84.6899 118.72 84.9179 118.136 85.0321C117.551 85.1461 116.243 85.3628 115.229 85.5133C114.215 85.6639 112.269 85.8577 110.904 85.9441C109.393 86.0396 104.985 86.0841 99.6321 86.0575L90.8412 86.0141L91.4335 85.697C91.7592 85.5227 92.4929 85.254 93.0641 85.1003C93.6352 84.9463 94.7085 84.7461 95.4494 84.6554C96.2583 84.5563 100.79 84.446 106.792 84.3794C112.29 84.3183 117.395 84.1988 118.136 84.1139C118.876 84.0288 120.153 83.8583 120.971 83.7349C121.79 83.6115 122.7 83.4485 122.992 83.3726C123.436 83.2573 123.524 83.173 123.524 82.8627V82.491L121.078 82.5868C119.733 82.6395 117.037 82.7566 115.087 82.8469C113.138 82.9372 106.885 83.0132 101.192 83.0159C95.1549 83.0187 89.1867 82.9478 86.8711 82.8458C84.6876 82.7497 81.2102 82.5748 79.1436 82.4571C77.0771 82.3395 74.0782 82.1484 72.4796 82.0324C70.8809 81.9165 67.7225 81.6608 65.461 81.464C63.1995 81.2674 60.6792 81.0082 59.8603 80.8883C59.0415 80.7681 57.8936 80.51 57.3095 80.3143C56.7254 80.1188 56.2149 79.9226 56.1752 79.8783C56.1354 79.834 56.2624 79.8357 56.4574 79.8821C56.6524 79.9286 57.3682 80.0636 58.0481 80.1822C58.7281 80.3006 60.419 80.5249 61.8055 80.6804C63.1922 80.836 65.6347 81.0596 67.2334 81.1773C68.832 81.2952 71.3523 81.4552 72.834 81.533C74.3157 81.6108 77.8569 81.7486 80.7033 81.8391C84.0335 81.9451 89.8216 81.975 96.9382 81.923C103.021 81.8786 109.338 81.7762 110.975 81.6954C112.613 81.6147 115.101 81.4802 116.505 81.3969C117.909 81.3134 120.493 81.1173 122.248 80.9611C124.002 80.8049 126.314 80.5543 127.385 80.4042C128.456 80.2542 129.923 79.9937 130.646 79.8256C131.369 79.6575 132.055 79.4684 132.172 79.4055C132.288 79.3426 132.406 79.3139 132.434 79.3418C132.462 79.3697 132.307 79.7197 132.089 80.1195ZM54.6867 79.9824C54.7358 80.0619 55.105 80.294 55.5071 80.4981C55.9094 80.7021 56.581 80.9872 57 81.1315C57.4189 81.2759 58.2631 81.4891 58.8759 81.6056C59.4887 81.722 62.0824 82.0084 64.6398 82.2419C67.1969 82.4755 71.0758 82.7944 73.2594 82.9507C75.4429 83.1069 78.5375 83.3014 80.1362 83.3831C81.7348 83.4646 84.6061 83.5944 86.5167 83.6715C88.4273 83.7484 90.9795 83.8161 92.1882 83.822C93.4289 83.8279 94.2625 83.8816 94.1024 83.9453C93.9464 84.0072 93.3814 84.1627 92.8468 84.2907C92.3123 84.4186 91.5564 84.6834 91.1671 84.8793C90.7776 85.0751 90.2274 85.4265 89.9443 85.6602L89.4296 86.0851L86.378 86.079C84.6996 86.0755 80.9656 85.9826 78.0802 85.8724C74.0425 85.7182 72.5238 85.608 71.487 85.3942C70.7462 85.2414 68.8958 84.8174 67.3751 84.4518C65.8545 84.0863 63.7489 83.5668 62.6961 83.2973C61.6433 83.0278 59.9844 82.5458 59.0096 82.226C58.0348 81.9062 56.7906 81.4333 56.2447 81.1751C55.6988 80.9168 55.0289 80.5128 54.7559 80.2773C54.483 80.0419 54.3357 79.8466 54.4285 79.8435C54.5214 79.8403 54.6375 79.9029 54.6867 79.9824ZM78.2139 86.9544C78.295 87.0288 78.1849 87.2474 77.9343 87.5092C77.7069 87.7469 77.3748 87.978 77.1962 88.0229C77.0175 88.0679 76.7803 88.0288 76.6689 87.9364C76.5575 87.8438 76.4995 87.682 76.5398 87.5766C76.5802 87.4713 76.5448 87.257 76.4611 87.1004C76.3378 86.8695 76.3558 86.8041 76.5566 86.7548C76.6927 86.7213 77.0912 86.725 77.4422 86.7629C77.7931 86.8008 78.1405 86.887 78.2139 86.9544ZM112.142 86.7682C112.117 86.822 111.73 87.6008 111.282 88.4988C110.834 89.3969 110.039 90.7378 109.516 91.4787C108.993 92.2196 107.958 93.4335 107.216 94.1764C106.474 94.9193 105.371 95.965 104.765 96.5003C104.083 97.1026 103.537 97.7249 103.333 98.1331C103.151 98.4959 102.961 99.0259 102.909 99.3109C102.857 99.5957 102.684 99.9955 102.524 100.199C102.364 100.403 102.096 100.643 101.927 100.733C101.759 100.824 100.909 101.042 100.038 101.219C99.1678 101.396 98.1778 101.682 97.8387 101.854C97.4994 102.026 96.9665 102.364 96.6546 102.604C96.3426 102.844 95.577 103.527 94.9531 104.121C94.3292 104.715 93.3298 105.612 92.732 106.115C92.1342 106.617 91.4789 107.144 91.2757 107.285C91.0725 107.427 90.9494 107.612 91.002 107.698C91.0593 107.791 91.0321 107.812 90.9342 107.752C90.8428 107.695 90.0987 108.074 89.2462 108.611C88.4078 109.139 86.701 110.098 85.4532 110.74C84.2055 111.383 82.4828 112.209 81.6249 112.577C80.7671 112.944 79.0125 113.651 77.7257 114.149C76.439 114.646 75.1192 115.24 74.793 115.468L74.1996 115.883L73.5662 114.366C73.2177 113.532 72.7601 112.275 72.5493 111.573C72.3385 110.87 71.9495 109.369 71.6852 108.236C71.4208 107.103 71.2043 106.071 71.204 105.943C71.2037 105.81 71.3621 105.67 71.5727 105.617C71.7757 105.566 72.0984 105.422 72.2898 105.296C72.4811 105.17 72.7658 104.816 72.9224 104.509C73.079 104.202 73.3608 103.205 73.5485 102.294C73.8611 100.779 74.0216 100.374 75.4468 97.5149C76.56 95.2812 77.066 94.1 77.2228 93.3694C77.3435 92.8072 77.4422 92.0622 77.4422 91.7137C77.4422 91.3651 77.3225 90.7068 77.1763 90.2508C77.0301 89.7949 76.8671 89.3186 76.814 89.1927C76.7376 89.0107 76.8349 88.9448 77.2876 88.8722C77.6761 88.8101 78.0392 88.6079 78.4286 88.237C78.7598 87.9214 79.0374 87.5043 79.0895 87.2439L79.1791 86.795H80.1362C80.6625 86.795 81.2926 86.8349 81.5363 86.8837C81.8196 86.9405 81.9794 87.0577 81.9794 87.2089C81.9794 87.3388 82.1778 88.0808 82.4202 88.8576C82.6627 89.6344 83.1361 90.8778 83.472 91.6207C83.8081 92.3635 84.3742 93.4825 84.7301 94.1073C85.0862 94.732 85.7069 95.5735 86.1096 95.9773C86.5123 96.3812 87.1422 96.8753 87.5095 97.0753C87.8766 97.2755 88.5851 97.5484 89.0838 97.6819C89.7139 97.8506 90.5311 97.9235 91.7629 97.9216C92.925 97.9196 93.8652 97.8375 94.4936 97.683C95.0206 97.5534 95.7863 97.2792 96.195 97.0738C96.6038 96.8682 97.321 96.429 97.7889 96.0977C98.2568 95.7665 98.7833 95.4504 98.9587 95.3952C99.1482 95.3357 99.2777 95.3545 99.2777 95.4416C99.2777 95.5223 99.4758 95.8141 99.7178 96.0901C99.9598 96.3661 100.272 96.592 100.412 96.592C100.551 96.592 100.704 96.4909 100.751 96.3674C100.799 96.2439 100.837 95.9676 100.837 95.7533C100.837 95.5213 100.694 95.2287 100.483 95.0302C100.288 94.8467 100.128 94.6016 100.128 94.4855C100.128 94.3692 100.285 94.013 100.477 93.6938C100.668 93.3746 101.482 92.4693 102.284 91.6821C103.087 90.8951 103.928 90.1124 104.153 89.9428C104.486 89.6924 104.755 89.6347 105.595 89.6347C106.163 89.6347 106.728 89.5959 106.852 89.5485C106.975 89.5011 107.076 89.3429 107.076 89.1968C107.076 89.0509 106.929 88.8349 106.75 88.7172C106.57 88.5993 106.228 88.4639 105.989 88.416L105.556 88.3291L105.82 87.7819C105.965 87.4809 106.084 87.1677 106.084 87.0858C106.084 86.9899 106.778 86.9314 108.033 86.9215C109.105 86.9131 110.366 86.8649 110.833 86.8143C111.301 86.7638 111.797 86.7107 111.935 86.6963C112.074 86.682 112.166 86.7142 112.142 86.7682ZM88.6964 87.1855C88.6307 87.322 88.5732 88.009 88.5685 88.7118C88.5603 89.9198 88.5272 90.0558 87.9615 91.1997C87.6324 91.8652 87.3057 92.7628 87.2355 93.1944C87.1654 93.6259 86.9656 94.2207 86.7915 94.5162L86.475 95.0534L86.1493 94.6513C85.9701 94.4301 85.2501 92.8436 84.5492 91.1256C83.8482 89.4075 83.1739 87.7623 83.0505 87.4694L82.8263 86.937H85.821C88.6239 86.937 88.808 86.9529 88.6964 87.1855ZM92.4442 88.0729C92.4678 88.6586 92.4168 89.6711 92.3307 90.3228C92.2445 90.9746 92.0391 91.8688 91.8743 92.3103C91.6354 92.9495 91.27 93.4301 90.0763 94.6748C89.2523 95.5341 88.4568 96.286 88.3083 96.3459C88.1187 96.4225 87.8959 96.3459 87.5585 96.0882C87.2945 95.8866 87.1119 95.6675 87.1527 95.6014C87.1934 95.5353 87.417 95.5531 87.6496 95.641C87.9711 95.7627 88.1136 95.7595 88.2447 95.6283C88.3798 95.493 88.3752 95.3413 88.2238 94.9235C88.1177 94.6308 88.0372 94.1006 88.0449 93.7453C88.0527 93.3901 88.194 92.7378 88.3592 92.2958C88.5244 91.8538 88.7676 91.3607 88.8997 91.2001C89.0954 90.962 89.2185 90.93 89.5651 91.0276C89.7991 91.0935 90.15 91.1078 90.345 91.0595C90.562 91.0059 90.7165 90.8545 90.7434 90.6689C90.7763 90.442 90.6634 90.3072 90.2935 90.1314C90.0035 89.9935 89.7075 89.702 89.576 89.4249C89.4531 89.1652 89.3524 88.7252 89.3524 88.4467C89.3524 88.1683 89.4611 87.7125 89.5938 87.4338L89.8351 86.927L91.118 86.9675L92.4009 87.008L92.4442 88.0729ZM95.4494 87.0543C95.4494 87.1187 95.2899 87.6286 95.0949 88.1874C94.8999 88.7462 94.7404 89.2711 94.7404 89.3537C94.7404 89.4365 94.4977 89.7412 94.2011 90.0308C93.9044 90.3206 93.5164 90.7493 93.3387 90.9836C93.1283 91.2612 93.0488 91.3107 93.1104 91.1256C93.1625 90.9694 93.241 89.9631 93.2848 88.8893L93.3646 86.937H94.4069C94.9803 86.937 95.4494 86.9898 95.4494 87.0543ZM100.873 87.3984C100.628 87.6523 100.376 87.9958 100.313 88.1619C100.251 88.328 99.4017 89.1244 98.4269 89.9316C97.4521 90.7388 96.176 91.8833 95.5912 92.4751C95.0063 93.0671 93.9749 93.9477 93.2991 94.4323C92.6234 94.9169 91.6155 95.5449 91.0594 95.8277C90.5032 96.1107 90.0166 96.3106 89.978 96.2718C89.9393 96.2332 90.2454 95.9782 90.658 95.7052C91.0708 95.4321 91.7389 95.0421 92.1427 94.8382C92.5467 94.6344 92.9197 94.3985 92.9719 94.314C93.0241 94.2295 92.9539 94.0356 92.8161 93.8831C92.5736 93.6147 92.593 93.5652 93.4048 92.3782C93.8664 91.7032 94.4245 90.9694 94.645 90.7477C94.9938 90.3969 95.1177 90.3563 95.6021 90.4338C96.1497 90.5215 96.1583 90.516 96.1583 90.0788C96.1583 89.8346 96.1105 89.6337 96.052 89.6326C95.9934 89.6313 95.8655 89.5795 95.7678 89.5173C95.6299 89.4295 95.6662 89.1832 95.93 88.419C96.1172 87.8772 96.3157 87.322 96.3713 87.1855C96.4619 86.9624 96.7206 86.937 98.8953 86.937H101.318L100.873 87.3984ZM105.232 87.0435C105.232 87.1021 105.114 87.3416 104.97 87.5759C104.827 87.8102 103.59 89.1565 102.223 90.5678C100.855 91.979 99.6333 93.3337 99.5071 93.5779C99.3809 93.8223 99.2777 94.1161 99.2777 94.2309C99.2777 94.3472 99.0902 94.4808 98.8546 94.5326C98.6219 94.5839 97.8205 95.0348 97.0736 95.5349C96.3266 96.035 95.4007 96.5378 95.0161 96.6522C94.6314 96.7666 93.8218 96.9319 93.2169 97.0197C92.6122 97.1074 91.7392 97.159 91.2769 97.1341L90.4366 97.089L91.4896 96.5525C92.0688 96.2573 93.1169 95.6043 93.8188 95.1013C94.5207 94.5981 95.3935 93.9293 95.7586 93.615L96.4222 93.0435L96.7007 93.3979C96.8537 93.5928 97.0687 93.7523 97.1783 93.7523C97.2879 93.7523 97.4506 93.6793 97.5396 93.5901C97.661 93.4686 97.6375 93.259 97.4456 92.7536L97.1897 92.0791L99.0025 90.5722C100.634 89.2157 100.85 89.0788 101.167 89.1994C101.361 89.2729 101.561 89.401 101.612 89.4839C101.663 89.5668 101.825 89.6347 101.972 89.6347C102.118 89.6347 102.28 89.5671 102.331 89.4846C102.382 89.4021 102.388 89.1938 102.345 89.0218C102.302 88.8497 102.072 88.5937 101.834 88.4527L101.401 88.1965L101.934 87.5714L102.468 86.9464L103.85 86.9417C104.611 86.9391 105.233 86.9848 105.232 87.0435ZM111.897 88.1439C111.897 88.1829 111.865 88.2149 111.826 88.2149C111.787 88.2149 111.755 88.1829 111.755 88.1439C111.755 88.1048 111.787 88.0729 111.826 88.0729C111.865 88.0729 111.897 88.1048 111.897 88.1439ZM72.6025 102.748C72.53 103.206 72.361 103.781 72.227 104.026L71.9833 104.472L71.9408 103.656C71.904 102.951 71.9505 102.77 72.2796 102.338C72.4893 102.063 72.6773 101.855 72.6975 101.877C72.7176 101.899 72.6748 102.291 72.6025 102.748ZM70.1325 103.94C70.0781 104.389 70.0256 104.765 70.016 104.775C70.0062 104.786 69.2645 104.559 68.3677 104.27L66.7371 103.745L67.6587 103.449C68.1656 103.286 68.9518 103.147 69.4058 103.138L70.2313 103.123L70.1325 103.94ZM71.0167 104.286C70.9715 104.399 70.9379 104.365 70.9311 104.2C70.925 104.05 70.9584 103.967 71.0055 104.014C71.0526 104.061 71.0577 104.183 71.0167 104.286ZM64.8227 104.543C65.1408 104.706 65.5303 105.044 65.6881 105.294C65.9184 105.66 65.9605 105.905 65.9008 106.531C65.86 106.96 65.7614 107.727 65.682 108.235C65.6026 108.742 65.5363 109.958 65.5347 110.936C65.5332 111.915 65.5985 113.256 65.6801 113.918C65.7616 114.58 65.9903 115.856 66.1884 116.754C66.3865 117.652 66.8565 119.315 67.2329 120.448C67.6092 121.582 68.2667 123.308 68.6938 124.282C69.1208 125.257 69.5128 126.354 69.5648 126.722C69.6354 127.221 69.6014 127.478 69.4294 127.741C69.3031 127.934 69.0165 128.156 68.7926 128.234C68.5146 128.331 68.2266 128.327 67.8832 128.221C67.6067 128.136 66.9292 127.707 66.3777 127.266C65.8261 126.826 65.029 126.031 64.6063 125.5C64.1836 124.969 63.4944 123.982 63.0748 123.306C62.6551 122.631 61.8581 121.303 61.3036 120.354C60.7491 119.406 59.9206 118.16 59.4628 117.586C59.0048 117.011 58.1569 116.094 57.5787 115.547C57.0004 115 56.1128 114.26 55.6062 113.901C55.0995 113.543 54.2703 113.021 53.7634 112.74C53.2565 112.46 52.3505 112.037 51.7499 111.799C51.1494 111.561 50.0009 111.2 49.1977 110.996C48.3946 110.792 46.4932 110.374 44.9725 110.067C43.4518 109.76 41.3781 109.289 40.3643 109.021C39.3505 108.753 37.4045 108.153 36.0398 107.689C34.675 107.225 32.4419 106.419 31.0772 105.899C29.7124 105.378 28.4729 104.861 28.3226 104.749C28.1723 104.638 28.0766 104.519 28.1099 104.486C28.1433 104.453 28.4895 104.483 28.8794 104.552C29.2693 104.621 30.7369 104.804 32.1406 104.959C33.5443 105.115 35.7456 105.316 37.0323 105.407C38.319 105.499 41.2222 105.581 43.4837 105.591C45.7452 105.6 48.6533 105.56 49.946 105.502C51.2387 105.444 53.2805 105.299 54.4833 105.181C55.6861 105.062 57.7867 104.809 59.1514 104.618C60.5161 104.426 61.8241 104.241 62.0581 104.206C62.292 104.171 62.8796 104.166 63.3637 104.195C63.8827 104.226 64.4814 104.369 64.8227 104.543ZM68.367 105.169L70.2805 105.789L70.3978 106.408C70.4625 106.749 70.7348 107.954 71.0034 109.087C71.2718 110.219 71.7211 111.848 72.0017 112.707C72.2823 113.566 72.8198 114.94 73.1964 115.76C73.573 116.58 74.0528 117.666 74.2627 118.174C74.4725 118.681 74.6743 119.371 74.711 119.706C74.7476 120.041 74.699 120.506 74.6027 120.738C74.5066 120.971 74.2454 121.315 74.0225 121.503C73.7996 121.691 73.2716 121.945 72.8493 122.068C72.4269 122.191 71.8483 122.291 71.5635 122.291C71.2786 122.291 70.7639 122.362 70.4198 122.449C70.0757 122.536 69.7148 122.703 69.618 122.819C69.4746 122.992 69.4882 123.066 69.691 123.214C69.828 123.315 70.2228 123.439 70.5685 123.491C70.9141 123.543 71.2297 123.639 71.2697 123.704C71.3098 123.769 71.2032 124.164 71.0329 124.583C70.8624 125.002 70.6325 125.488 70.5216 125.664C70.4109 125.839 70.2598 125.983 70.1863 125.983C70.1127 125.983 70.0906 125.921 70.1372 125.846C70.184 125.77 70.0881 125.403 69.9244 125.029C69.7606 124.656 69.5377 124.159 69.4291 123.924C69.3205 123.69 68.9815 122.827 68.6758 122.007C68.3699 121.187 67.9565 119.973 67.7567 119.31C67.5569 118.646 67.2657 117.592 67.1094 116.967C66.953 116.342 66.7256 115.152 66.604 114.322C66.4822 113.492 66.3873 111.99 66.393 110.985C66.3986 109.98 66.4609 108.806 66.5312 108.377C66.6015 107.947 66.6977 107.149 66.7448 106.602C66.8158 105.777 66.7828 105.518 66.5508 105.076C66.3971 104.783 66.3124 104.544 66.3625 104.546C66.4125 104.547 67.3146 104.827 68.367 105.169ZM76.4803 117.357C76.5135 118.314 76.498 119.148 76.446 119.21C76.3938 119.272 75.9857 118.773 75.5389 118.101C74.7546 116.92 74.7346 116.867 74.9518 116.535C75.0754 116.346 75.4153 116.065 75.7068 115.911C75.9985 115.757 76.2781 115.628 76.3284 115.624C76.3786 115.621 76.447 116.401 76.4803 117.357ZM75.5975 120.832C75.4444 121.071 75.4401 121.071 75.5172 120.824C75.5622 120.681 75.6076 120.426 75.6182 120.256C75.6375 119.949 75.6376 119.949 75.6984 120.264C75.7319 120.437 75.6865 120.693 75.5975 120.832ZM75.8027 122.162C75.5737 122.403 75.214 122.691 75.0034 122.801C74.7927 122.911 74.5783 123.001 74.5268 123.001C74.4754 123.001 74.8073 122.718 75.2643 122.373C75.7213 122.027 76.1231 121.74 76.1571 121.734C76.1912 121.728 76.0317 121.921 75.8027 122.162ZM74.3228 123.072C74.3228 123.111 74.2909 123.143 74.2519 123.143C74.2129 123.143 74.181 123.111 74.181 123.072C74.181 123.033 74.2129 123.001 74.2519 123.001C74.2909 123.001 74.3228 123.033 74.3228 123.072ZM69.502 124.918C69.502 124.957 69.4701 124.989 69.4311 124.989C69.3921 124.989 69.3602 124.957 69.3602 124.918C69.3602 124.879 69.3921 124.847 69.4311 124.847C69.4701 124.847 69.502 124.879 69.502 124.918ZM69.9273 126.196C69.9273 126.235 69.8954 126.267 69.8565 126.267C69.8175 126.267 69.7856 126.235 69.7856 126.196C69.7856 126.157 69.8175 126.125 69.8565 126.125C69.8954 126.125 69.9273 126.157 69.9273 126.196Z" fill="black"/>
</svg>
