<svg width="184" height="86" viewBox="0 0 184 86" fill="none" xmlns="http://www.w3.org/2000/svg">
<path fill-rule="evenodd" clip-rule="evenodd" d="M96.331 13.7584C89.9671 21.6495 84.6807 28.1056 84.584 28.1056C84.4873 28.1056 83.0626 27.4755 81.4183 26.706C79.7739 25.9359 77.674 25.3092 76.7518 25.3131C75.8295 25.3176 73.4401 26.2198 71.4419 27.3186C69.4438 28.4181 65.9807 29.9289 63.7455 30.6765C61.5109 31.4241 56.8578 33.3251 53.4053 34.9006C49.9534 36.4761 46.8055 38.0752 46.4109 38.4546C46.0169 38.8335 45.5462 40.0588 45.3657 41.1768C45.1779 42.3403 45.5608 45.9927 46.2605 49.7137C47.3387 55.4503 47.4075 56.7195 46.843 60.4663C46.4908 62.8029 45.8453 65.5751 45.4082 66.6267C44.9711 67.6789 44.6134 69.4146 44.6134 70.4843C44.6134 71.5545 45.0085 72.827 45.4915 73.3132C45.9749 73.7989 46.8552 74.1963 47.4477 74.1963C48.0407 74.1963 48.5259 74.3509 48.5259 74.5392C48.5259 74.728 47.7177 76.4351 46.73 78.3332C45.7424 80.2314 44.3311 82.6039 43.5939 83.6055L42.253 85.4272L-15 85L-28 85.5784L15.8286 85.8634L42.6571 85.9966L43.775 84.3138C44.3898 83.388 45.2545 82.6298 45.696 82.6292C46.2153 82.6281 45.9313 83.2239 44.8929 84.3138L43.2865 86H50.1479H57.0093L55.5421 84.2463C54.735 83.2818 53.6999 81.7642 53.2421 80.8738C52.4334 79.3006 52.4484 79.255 53.7938 79.255C54.555 79.255 56.4806 78.974 58.0729 78.6305C60.0901 78.1955 60.734 77.8577 60.1963 77.5154C59.6128 77.1438 59.5994 77.0219 60.141 77.0151C60.535 77.0106 61.0028 77.3878 61.1806 77.8543C61.3583 78.3203 61.3438 79.5619 61.1476 80.613C60.9503 81.6686 59.999 83.3037 59.0237 84.2626C58.0517 85.2181 57.4425 86 57.67 86C57.8974 86 58.8208 85.6161 59.7229 85.1473C60.6245 84.6786 61.744 83.5527 62.2101 82.6461C62.6763 81.7389 63.058 80.3522 63.058 79.5642C63.058 78.7756 63.2117 78.1309 63.399 78.1309C63.5868 78.1309 65.2261 78.9273 67.0421 79.9009C68.858 80.8744 70.4912 81.523 70.6706 81.342C70.85 81.1616 70.5941 80.4354 70.1016 79.7283C69.6092 79.0212 69.2062 77.9695 69.2062 77.3912C69.2062 76.7847 68.6926 76.204 67.9928 76.0202C66.9795 75.7538 67.2701 75.4835 69.7562 74.3801C71.3933 73.6533 72.7856 73.125 72.8499 73.2059C72.9147 73.2868 73.2529 73.9057 73.6022 74.5807C73.951 75.2564 74.2366 76.5964 74.2366 77.5587C74.2366 78.7289 73.747 79.7654 72.7577 80.6872C71.6292 81.7389 71.4967 82.0654 72.1987 82.0654C72.7046 82.0654 73.6218 81.5596 74.2366 80.9413C75.0191 80.1543 75.3544 79.0678 75.3544 77.3209C75.3544 75.9477 75.606 74.6684 75.9134 74.4773C76.2208 74.2862 76.4723 73.6393 76.4723 73.0389C76.4723 72.0969 76.8747 71.948 79.4218 71.948C81.3009 71.948 82.8676 72.297 83.7373 72.9097C84.4879 73.4386 86.0937 73.9225 87.3055 73.9849C88.5178 74.0479 90.1113 73.8686 90.8479 73.5875C91.721 73.2531 92.0664 73.27 91.8417 73.6359C91.6522 73.9439 91.6673 74.1963 91.8747 74.1963C92.0821 74.1963 93.4922 73.2806 95.008 72.1615C96.5239 71.043 97.6283 69.9902 97.4617 69.8233C97.2957 69.6558 96.7089 69.9295 96.1578 70.4309C95.6067 70.9328 94.2295 71.7321 93.0982 72.2076C91.9664 72.6832 90.8759 73.0721 90.6747 73.0721C90.4735 73.0721 90.654 72.6455 91.076 72.1239C91.7579 71.2802 91.7193 71.2245 90.725 71.6191C90.1102 71.8631 88.9213 72.3127 88.0824 72.618C86.8432 73.0693 86.2821 72.9552 85.0837 72.007C84.2727 71.3656 82.7457 70.6012 81.6905 70.3078C80.1713 69.8862 78.8248 70.0599 75.2287 71.1425C72.7303 71.8946 70.5343 72.51 70.3481 72.51C70.1626 72.51 69.7255 71.7512 69.3773 70.8238C69.0291 69.8964 68.4763 69.1375 68.1487 69.1375C67.7318 69.1375 67.7273 69.5214 68.1337 70.418C68.516 71.2622 68.5299 72.1852 68.1745 73.1261C67.7256 74.3121 66.8817 74.7606 63.1776 75.7814C60.7262 76.457 57.4956 77.1309 55.9988 77.2793C53.6596 77.5114 53.5417 77.4794 55.1609 77.0539C56.1966 76.7819 57.5492 76.0517 58.1657 75.4317L59.2864 74.3042L57.5392 70.7878C56.5784 68.8543 55.792 66.6633 55.792 65.9196C55.792 65.1754 56.0731 64.0147 56.4163 63.3391C56.7595 62.6641 58.0696 61.0368 59.3272 59.7227C60.5848 58.4085 61.8133 57.3338 62.0564 57.3338C62.3001 57.3338 62.5181 58.1562 62.5416 59.1606L62.5841 60.9874L63.29 59.0206C63.945 57.1956 64.2139 57.023 67.0203 56.6267C68.6836 56.3918 71.6052 55.4329 73.5122 54.4959C75.4198 53.5589 78.5007 51.6422 80.3591 50.2375C82.2175 48.8329 83.7384 47.4659 83.7384 47.2012C83.7384 46.9359 82.7318 46.6413 81.5015 46.5458L79.2647 46.3732L84.6209 39.4877C87.567 35.701 90.1459 32.6067 90.3511 32.6129C90.5567 32.6185 93.4917 34.2755 96.8732 36.2951C100.255 38.3141 105.034 40.9682 107.493 42.1925C110.351 43.6156 113.678 44.7359 116.715 45.2974C119.328 45.7808 122.015 46.2844 122.687 46.4165C123.861 46.6481 123.899 46.86 123.648 51.8552C123.505 54.714 123.223 59.7086 123.023 62.9546L122.658 68.8565L122.176 64.9219C121.91 62.7579 121.768 59.1527 121.859 56.9111C121.95 54.669 121.855 52.8349 121.646 52.836C121.438 52.8366 121.06 54.2918 120.808 56.0691C120.555 57.8464 120.389 62.75 120.439 66.9657L120.529 74.6308L118.284 74.9916C117.049 75.19 115.363 75.7043 114.536 76.1343C113.709 76.5643 111.158 77.0955 108.866 77.3153L104.698 77.7155L105.884 76.3772C106.537 75.6414 107.768 73.9591 108.621 72.6393C109.474 71.319 110.051 70.1178 109.904 69.9694C109.757 69.821 108.82 70.7209 107.823 71.9688C106.826 73.216 105.086 74.8522 103.957 75.6037L101.904 76.9702L96.4724 76.0618C93.485 75.5621 91.1732 74.9382 91.3353 74.6746C91.4969 74.4116 91.4259 74.2002 91.1772 74.2047C90.9284 74.2098 90.3773 74.4352 89.9525 74.7055C89.3338 75.0995 89.3897 75.2609 90.232 75.5155C90.8105 75.6897 93.6331 76.235 96.5037 76.7268C101.64 77.6064 101.757 77.6014 103.77 76.4137L105.816 75.2069L104.419 76.747L103.021 78.2871L107.772 77.9476C110.428 77.7576 113.82 77.1034 115.464 76.4643C117.081 75.8353 119.065 75.3204 119.874 75.3204H121.345L120.945 68.44C120.725 64.6555 120.689 61.7046 120.865 61.8816C121.041 62.0587 121.469 64.3329 121.816 66.9353C122.164 69.5378 122.635 72.1728 122.865 72.7911C123.097 73.4167 123.438 69.9267 123.634 64.9219C123.828 59.9756 124.119 53.7224 124.282 51.0261C124.57 46.2602 124.542 46.1163 123.302 45.8724C122.6 45.7341 119.761 45.2097 116.995 44.7067C113.974 44.1569 110.499 43.0614 108.298 41.9637C106.282 40.9581 101.435 38.2579 97.5266 35.9635C93.0574 33.3391 90.5221 31.5258 90.6937 31.0756C90.844 30.6821 94.5274 25.9033 98.8786 20.4556L106.79 10.5512L105.186 9.26119C104.302 8.55184 103.731 7.81889 103.914 7.63228C104.098 7.44567 104.96 7.85599 105.831 8.54454C106.961 9.43881 107.481 9.59282 107.65 9.08301C107.78 8.69068 108.319 7.94142 108.848 7.41756C109.377 6.8937 110.349 5.67961 111.008 4.71901L112.206 2.97262L110.967 1.88162C110.286 1.28188 109.318 0.480346 108.816 0.10094C108.022 -0.499363 106.4 1.27457 96.331 13.7584ZM109.748 1.4713C110.506 1.97043 111.125 2.66628 111.123 3.01702C111.121 3.36776 110.551 4.36995 109.856 5.24399L108.591 6.833L107.069 5.62902C106.232 4.96689 105.281 4.59029 104.956 4.79264C104.547 5.0467 104.567 5.40587 105.019 5.95334C105.379 6.38951 105.909 6.74644 106.197 6.74644C106.485 6.74644 106.539 6.43055 106.319 6.04383C106.097 5.65768 106.103 5.50986 106.332 5.71614C106.561 5.92186 106.748 6.30127 106.748 6.55926C106.749 6.8167 107.01 7.34393 107.329 7.73008C107.749 8.23933 107.678 8.43268 107.071 8.43268C106.61 8.43268 105.919 8.05328 105.537 7.58956C105.154 7.12584 104.509 6.74644 104.104 6.74644C103.698 6.74644 103.211 6.99881 103.022 7.3074C102.832 7.61598 103.372 8.46978 104.221 9.20442C105.638 10.4303 105.699 10.6383 104.953 11.7276C104.505 12.3807 96.7195 22.2537 87.6509 33.6679L71.1625 54.4206L68.0884 54.9776C66.3976 55.2845 64.9316 55.4559 64.8304 55.3592C64.7292 55.2631 68.972 49.7474 74.2584 43.103C79.5447 36.4587 83.8597 30.8148 83.8462 30.5613C83.8328 30.3084 83.607 30.029 83.3443 29.9408C83.0816 29.8525 80.2333 33.2362 77.0145 37.4597C72.8303 42.9501 70.6276 45.3643 69.2856 45.9297C68.2533 46.3642 67.2897 46.6003 67.1444 46.4542C66.999 46.308 67.1186 45.724 67.4104 45.1569C67.7027 44.5892 68.1113 43.1767 68.3198 42.0171C68.5322 40.8328 68.4724 39.9093 68.1834 39.9093C67.9006 39.9093 67.516 40.6799 67.3288 41.6219C67.141 42.564 66.2378 44.4318 65.3206 45.7724C64.3408 47.2045 63.0418 48.3636 62.1716 48.5833C61.3572 48.7891 60.625 48.8818 60.5456 48.7896C60.4657 48.6969 59.857 47.5379 59.193 46.213C58.5285 44.8882 57.7711 43.9366 57.5107 44.099C57.2496 44.2609 57.0708 43.9922 57.1127 43.5015C57.1546 43.0109 56.6303 42.2284 55.9473 41.7636C54.7702 40.9615 54.7898 41.0891 56.3174 44.2075C57.2038 46.0169 58.3328 48.7199 58.8258 50.2139C59.5329 52.356 59.5983 53.3959 59.1332 55.1321C58.809 56.3429 58.3647 57.3248 58.1456 57.3141C57.9271 57.3029 57.1194 56.9325 56.3509 56.4907C55.5824 56.0489 54.5808 55.6785 54.1252 55.6673C53.6697 55.6566 54.2353 56.2889 55.3828 57.073C56.5303 57.8571 57.4687 58.7503 57.4687 59.0583C57.4687 59.3657 56.1144 61.4432 54.4595 63.6752C52.8039 65.9067 51.0433 68.5417 50.547 69.531C50.0501 70.5208 49.6437 71.8485 49.6437 72.4819C49.6437 73.3846 49.2844 73.6342 47.9865 73.6342C46.9201 73.6342 46.1231 73.2464 45.7508 72.5471C45.4328 71.9491 45.2098 70.7473 45.2561 69.8772L45.34 68.2944L45.5736 69.8497C45.7022 70.7052 46.0415 71.2594 46.3282 71.0812C46.6149 70.903 46.8491 69.5479 46.8491 68.0696C46.8491 66.5913 47.1286 63.2953 47.4695 60.7451C48.0184 56.6425 47.9452 55.3137 46.8312 49.2078C46.1393 45.4121 45.7318 41.704 45.9263 40.9677C46.1214 40.2308 46.4713 39.3438 46.7043 38.9965C46.938 38.6491 50.2792 36.9651 54.1297 35.2547C57.9807 33.5443 62.6338 31.7091 64.4699 31.1762C66.3065 30.6439 68.4824 29.7311 69.3052 29.1477C70.1285 28.5642 71.8891 27.5912 73.2177 26.9848C74.5468 26.3783 76.3002 25.8763 77.114 25.8696C77.9283 25.8629 79.979 26.5896 81.6709 27.4845L84.7467 29.1117L89.1019 23.6904C91.4969 20.7086 96.6887 14.2851 100.639 9.41633C104.59 4.54701 107.946 0.563535 108.096 0.563535C108.247 0.563535 108.991 0.97217 109.748 1.4713ZM83.1795 31.1284C83.1795 31.2448 82.7396 31.6877 82.2013 32.1121C81.3149 32.8107 81.2953 32.7911 81.99 31.8996C82.412 31.3583 82.8525 30.916 82.9682 30.916C83.0844 30.916 83.1795 31.0115 83.1795 31.1284ZM81.5027 33.3582C81.5027 33.465 80.937 34.0338 80.2451 34.6229L78.9875 35.6937L80.0522 34.429C80.638 33.7337 81.2036 33.1643 81.3098 33.1643C81.416 33.1643 81.5027 33.2514 81.5027 33.3582ZM79.267 36.1872C79.267 36.3035 78.8271 36.7464 78.2888 37.1708C77.4024 37.8695 77.3828 37.8498 78.0775 36.9583C78.4995 36.4171 78.94 35.9747 79.0557 35.9747C79.1719 35.9747 79.267 36.0703 79.267 36.1872ZM59.0757 47.4693L60.1762 49.9711L62.4555 49.0707C63.7092 48.5755 64.7404 48.0184 64.7471 47.8335C64.7538 47.6486 65.2742 46.865 65.9024 46.0922C66.9342 44.8241 66.9856 44.8101 66.4295 45.9517C65.9527 46.9302 65.9767 47.2163 66.5351 47.2163C66.9325 47.2163 68.0945 46.9747 69.1174 46.6801C70.5449 46.2681 70.8579 46.3007 70.4633 46.8206C70.181 47.1927 68.5243 49.3174 66.7833 51.5427C65.0417 53.7674 63.617 55.8808 63.617 56.24C63.617 56.6177 63.2251 56.7408 62.6847 56.5323C62.0687 56.2945 61.1202 56.7886 59.89 57.9875C58.8655 58.9858 58.0277 59.5153 58.0277 59.1634C58.0277 58.8121 58.254 58.3838 58.5307 58.2118C58.8068 58.0398 59.321 56.6931 59.6726 55.2193C60.2472 52.8096 60.1689 52.1565 58.8951 48.7536C58.116 46.6717 57.59 44.968 57.727 44.968C57.8633 44.968 58.4703 46.0939 59.0757 47.4693ZM81.6994 48.4327C81.1556 49.0364 78.8673 50.6861 76.6137 52.0986C74.3601 53.5111 72.4128 54.5633 72.2865 54.4363C72.1602 54.3093 73.3462 52.5696 74.9224 50.5703C77.7534 46.9786 77.816 46.9375 80.2372 47.1348C82.6283 47.3299 82.6636 47.3614 81.6994 48.4327ZM55.5125 65.6481C55.5125 67.4895 55.9988 69.2842 57.0495 71.3207C57.8952 72.9591 58.5866 74.3964 58.5866 74.515C58.5866 74.633 57.8443 75.1153 56.9378 75.5869C56.0306 76.0585 54.5522 76.4446 53.6524 76.4446C52.7525 76.4446 51.7218 76.0877 51.3619 75.6515C51.0019 75.2153 50.571 74.0125 50.4039 72.9788C50.1501 71.4027 50.5352 70.4388 52.7821 67.0264C54.2571 64.787 55.4745 62.9546 55.4879 62.9546C55.5013 62.9546 55.5125 64.1665 55.5125 65.6481ZM84.271 72.3054C85.0764 73.1744 85.0407 73.175 83.7535 72.3122C82.9939 71.8029 81.2333 71.3606 79.841 71.3297C77.8277 71.2853 77.5963 71.1903 78.708 70.8654C79.4765 70.6406 80.8482 70.663 81.7559 70.9148C82.663 71.1667 83.7948 71.7923 84.271 72.3054ZM128.426 72.1481C127.336 72.5404 125.309 73.6466 123.921 74.6066C122.534 75.5666 120.03 76.8156 118.358 77.3822C115.913 78.2101 113.566 78.4119 106.375 78.4119C100.703 78.4119 96.3076 78.132 94.358 77.6458C92.6673 77.2248 90.1767 76.2726 88.8235 75.5301C87.4703 74.7876 86.2625 74.2812 86.139 74.4048C86.016 74.529 86.746 75.1406 87.761 75.7651C88.7766 76.389 90.9905 77.3271 92.6812 77.8493C94.6872 78.4692 98.5707 78.897 103.86 79.0819C110.023 79.2966 112.966 79.1499 116.146 78.4698C118.656 77.9324 121.449 76.8639 123.133 75.796C124.675 74.8168 126.689 73.6286 127.608 73.1553C128.526 72.6815 187.669 73.1682 189.132 73.1682C190.655 73.1682 191.494 72.9782 191.095 72.7231C190.711 72.478 189.769 72.2846 189 72.2936C188.231 72.3026 129.517 71.7563 128.426 72.1481ZM75.9134 73.0035C75.9134 73.5836 75.5758 74.3407 75.1627 74.6853C74.5815 75.1704 74.2746 75.0085 73.8029 73.9669C73.4675 73.2272 73.3445 72.4707 73.529 72.2852C73.7129 72.0997 74.3249 71.948 74.8889 71.948C75.5182 71.948 75.9134 72.3549 75.9134 73.0035ZM70.3241 73.293C70.3241 73.4144 69.9468 73.6595 69.4857 73.8377C69.0246 74.0153 68.6473 73.9158 68.6473 73.6168C68.6473 73.3172 69.0246 73.0721 69.4857 73.0721C69.9468 73.0721 70.3241 73.1716 70.3241 73.293ZM88.2098 73.3532C88.2098 73.5077 88.084 73.6342 87.9303 73.6342C87.7766 73.6342 87.6509 73.5077 87.6509 73.3532C87.6509 73.1986 87.7766 73.0721 87.9303 73.0721C88.084 73.0721 88.2098 73.1986 88.2098 73.3532ZM49.1474 79.9543C47.7154 81.464 46.4081 82.4089 46.1326 82.1318C45.8576 81.8552 46.5311 79.8784 47.6847 77.5744L49.722 73.5055L50.6996 75.3969L51.6766 77.2877L49.1474 79.9543ZM106.654 74.4442C106.654 74.5807 106.364 74.8725 106.009 75.0928C105.609 75.3418 105.515 75.2474 105.763 74.8455C105.982 74.4886 106.272 74.1963 106.408 74.1963C106.544 74.1963 106.654 74.3076 106.654 74.4442ZM64.7661 76.688C64.4006 77.1309 63.6153 77.4564 63.0206 77.4114C62.4264 77.3664 61.9402 77.1478 61.9402 76.9263C61.9402 76.7043 62.5058 76.4131 63.1978 76.2794C63.8897 76.145 64.675 76.0011 64.9427 75.959C65.211 75.9168 65.1317 76.2451 64.7661 76.688ZM68.8457 78.2714C69.2638 79.2758 69.5332 80.1858 69.4449 80.2937C69.356 80.4011 68.2331 79.8593 66.9504 79.0898C64.8432 77.8268 64.7175 77.6323 65.6543 77.0848C66.2244 76.7515 67.0046 76.471 67.388 76.4615C67.7715 76.4525 68.4277 77.2669 68.8457 78.2714ZM58.9941 77.9083C58.8085 78.0949 58.3261 78.1151 57.9231 77.9527C57.4771 77.7734 57.6096 77.6402 58.2607 77.6132C58.8499 77.589 59.1796 77.7217 58.9941 77.9083ZM52.9973 78.4119C52.9973 78.5665 52.8716 78.6929 52.7178 78.6929C52.5641 78.6929 52.4384 78.5665 52.4384 78.4119C52.4384 78.2573 52.5641 78.1309 52.7178 78.1309C52.8716 78.1309 52.9973 78.2573 52.9973 78.4119ZM61.6797 82.5904C61.1923 83.5381 60.687 84.3138 60.5568 84.3138C60.4271 84.3138 60.6848 83.4363 61.1303 82.3645C61.5757 81.2926 61.9776 79.8379 62.024 79.1325C62.0955 78.0364 62.1408 78.0696 62.337 79.3584C62.4628 80.1881 62.1671 81.6422 61.6797 82.5904ZM52.3506 80.2387C52.6698 81.0885 53.4735 82.6067 54.137 83.6112L55.3426 85.4379H49.8561H44.3691L47.6875 82.0654C49.513 80.2106 51.178 78.6929 51.3882 78.6929C51.5983 78.6929 52.0315 79.3888 52.3506 80.2387Z" fill="black"/>
</svg>
