<svg width="184" height="76" viewBox="0 0 184 76" fill="none" xmlns="http://www.w3.org/2000/svg">
<path fill-rule="evenodd" clip-rule="evenodd" d="M45.0843 0.356371C44.4625 0.475829 43.3491 1.21022 42.61 1.98846C41.0817 3.59737 31.0541 26.0047 30.6097 28.8036C30.3338 30.5391 30.6848 32.9438 31.5004 34.9071C31.7987 35.6259 31.5989 35.7897 30.4175 35.7912C28.4803 35.7937 25.7631 37.4999 25.1513 39.0987C24.8794 39.8094 24.6568 42.9849 24.6568 46.1548V51.9186H46.9753C59.3606 51.9186 69.2938 51.7225 69.2938 51.4786C69.2938 51.2361 61.7182 47.8908 52.4596 44.0439L35.6253 37.0493L62.6044 36.9187C77.4427 36.8472 89.5834 36.5951 89.5834 36.3592C89.5834 36.1228 86.5587 34.6208 82.8625 33.021C79.1662 31.4211 75.0003 29.5945 73.6054 28.9619C72.2105 28.3288 65.2486 25.2728 58.1346 22.1699C51.0206 19.0675 44.4604 16.1521 43.5565 15.6919L41.9126 14.8542L43.3902 11.7498L44.8678 8.64538L56.7001 13.9217C63.2085 16.8235 69.9025 19.8286 71.5764 20.6003C73.2503 21.3715 79.2403 24.0273 84.8879 26.5017C90.535 28.976 95.1575 31.157 95.1595 31.348C95.1615 31.5391 92.9033 36.7559 90.1419 42.9411C83.8065 57.1294 83.5102 57.3734 76.4926 54.1807L73.7362 52.9267H49.1965H24.6568V57.4631V61.9995H55.5984H86.54V63.7636C86.54 65.3322 86.6876 65.5278 87.8725 65.5278C89.1725 65.5278 89.1989 65.5918 88.9524 68.1443C88.7465 70.2714 88.4011 71.0249 87.1046 72.1766L85.5093 73.5925H57.6431C38.6875 73.5925 29.3908 73.4176 28.5686 73.0456C26.7537 72.2235 25.6713 69.9982 25.6713 67.0883V64.5197H6.87349C-5.52902 64.5197 -179.207 64.6911 -179 65.0238C-178.8 65.3443 -4.75801 65.5278 6.67972 65.5278H24.6568V67.8625C24.6568 70.6035 26.007 73.0864 28.0679 74.1359C29.2209 74.7231 34.3146 74.8783 56.2416 74.9958C73.2696 75.0865 83.705 74.9519 84.9249 74.6258C87.9557 73.8148 89.7072 71.6282 89.9841 68.3111L90.2164 65.5278H227.108C318.031 65.5278 364 65.3584 364 65.0238C364 64.5308 350.134 64.4965 158.441 64.5172L90.0907 64.5247V59.8034C90.0907 54.5351 89.7432 55.578 96.9181 39.3175C100.557 31.0713 100.797 30.3067 100.615 27.5763C100.358 23.7072 99.5568 22.9864 91.3588 19.2454C45.1741 -1.82917 48.7867 -0.354332 45.0843 0.356371ZM73.6054 12.3672C86.7175 18.3361 97.8702 23.6412 98.3891 24.1558C98.908 24.6705 99.4467 26.0979 99.5867 27.3278C99.8692 29.8218 99.8286 29.9347 93.3426 44.61C89.3389 53.6691 89.3323 53.6908 89.0777 58.9349C88.9047 62.5 88.6187 64.2541 88.1885 64.3957C87.7604 64.5363 87.5545 64.0177 87.5545 62.7974V60.9914H56.6129H25.6713V57.4631V53.9348H49.2447H72.8181L76.6488 55.4469C81.2368 57.2579 82.3274 57.3104 84.4912 55.8249C85.8775 54.8733 87.0026 52.7644 91.4876 42.7087C94.4265 36.1188 96.7416 30.6494 96.6315 30.5547C96.5215 30.4599 89.1269 27.1458 80.1995 23.1901C71.2721 19.2343 59.7141 14.0996 54.5154 11.78C49.3167 9.46042 44.8404 7.56269 44.5685 7.56269C43.9415 7.56269 40.3888 15.2665 40.821 15.6894C40.9975 15.8618 48.218 19.0867 56.8665 22.8559C65.5149 26.6251 75.6724 31.0713 79.4386 32.7362L86.2863 35.763L59.845 35.7761C36.1843 35.7877 33.3331 35.704 32.7285 34.9802C32.3572 34.5356 31.9707 32.7775 31.8697 31.0738C31.6932 28.0909 31.8768 27.539 36.8493 16.1314C39.6893 9.61667 42.5902 3.67449 43.2958 2.92598C44.7146 1.42242 45.9573 1.01767 48.2434 1.31607C49.0804 1.42544 60.4932 6.39835 73.6054 12.3672ZM34.5794 37.7459C35.6781 38.2676 42.7399 41.2404 50.2724 44.3514C57.8049 47.4628 64.3102 50.2043 64.7287 50.4443C65.1664 50.6948 57.0293 50.8863 45.5804 50.8954L25.6713 50.9105V45.9028C25.6713 39.9415 26.1298 38.5004 28.3302 37.5503C30.5879 36.5755 32.2222 36.6264 34.5794 37.7459Z" fill="#2F2F2F"/>
</svg>
