<svg width="91" height="107" viewBox="0 0 91 107" fill="none" xmlns="http://www.w3.org/2000/svg">
<path d="M84.0269 68.3736C82.4434 68.6682 80.8921 68.8758 79.347 69.346C78.7412 69.5304 77.6435 69.7655 77.232 70.2455C76.6196 70.96 75.6444 71.3981 75.3236 72.3605C74.8538 73.7698 74.5712 75.1326 74.3512 76.5906C73.8951 79.6122 75.1389 82.5257 78.1193 83.7866C80.5895 84.8317 84.4064 84.4932 86.7254 83.2518C89.3532 81.845 90.1968 77.8865 90.3234 75.1806C90.4263 72.9804 90.1153 71.0306 89.2294 69.0056C88.2401 66.7445 87.1865 64.3078 85.4977 62.4782C82.8737 59.6356 79.6842 59.3612 76.0529 59.646C72.0613 59.9591 68.0256 63.9422 67.0093 67.6686C65.8008 72.0996 66.2965 77.8504 67.9574 82.1213C68.7966 84.2792 70.6085 85.4656 72.5279 86.5824C76.4513 88.8651 81.1859 91.0335 83.881 94.848C85.2948 96.8491 85.6537 99.3329 85.3032 101.728C84.849 104.832 82.2534 106.226 79.4078 106.226C77.6935 106.226 76.4515 106.262 74.9954 105.277C72.7488 103.758 71.27 101.769 70.3399 99.224C68.4178 93.965 67.9904 87.6368 69.7078 82.3037C73.3875 70.8771 85.7036 63.6092 87.163 51.2709C87.9111 44.9456 86.5465 37.7365 82.8113 32.5151C79.6965 28.1608 70.2395 20.0021 65.7451 27.3369C63.8832 30.3755 63.9309 34.1868 63.3627 37.5961C63.0053 39.7405 62.5923 43.9374 60.3238 45.0717C57.6837 46.3917 53.6617 44.5234 51.5476 43.066C47.3116 40.1457 46.3063 35.4054 46.7341 30.5095C47.2109 25.0524 49.6803 19.4122 52.982 15.0721C56.3453 10.651 60.8261 8.58482 66.3772 9.37122C70.9118 10.0136 73.6013 13.0531 74.2904 17.5032C74.7219 20.29 74.8803 23.9974 72.6494 26.0971C70.3933 28.2205 67.6158 24.9288 65.8181 23.5201C63.2686 21.5224 60.7452 19.4525 58.6342 16.9805C56.2486 14.1868 54.6231 10.8607 52.1311 8.14352C48.6396 4.33656 42.1853 -0.323523 36.5965 0.7895C32.2572 1.65369 30.5586 6.68828 29.2546 10.295C28.2672 13.0262 27.1748 15.4417 25.0731 17.5153C24.4402 18.1398 23.6489 18.8534 22.7393 19.0469C21.782 19.2506 21.0234 18.1531 20.4055 17.6369C15.4053 13.46 6.36008 10.6069 0.446289 14.5494" stroke="#2F2F2F" stroke-width="0.7" stroke-linecap="round"/>
</svg>
