<svg width="184" height="160" viewBox="0 0 184 160" fill="none" xmlns="http://www.w3.org/2000/svg">
<path fill-rule="evenodd" clip-rule="evenodd" d="M50.5359 0.506501C49.993 0.768647 49.5492 1.1432 49.5492 1.33861C49.5492 1.53401 48.3073 1.57792 46.7891 1.43609C44.5311 1.22488 43.7098 1.34124 42.2745 2.07411C41.3093 2.56723 39.7157 3.84415 38.7325 4.9125C37.7494 5.9804 36.1338 8.51624 35.1423 10.548C34.1508 12.5797 32.8497 15.9679 32.2516 18.0774C31.653 20.1873 30.8242 24.1392 30.4098 26.8595C29.9226 30.0588 29.6459 34.5974 29.6266 39.71C29.6077 44.6508 29.8042 48.4969 30.1506 49.9692C30.4554 51.265 31.2219 53.6191 31.8538 55.2008C32.4857 56.7824 34.3543 60.5684 36.0062 63.614C37.6581 66.6597 39.5122 70.6288 40.1266 72.4339C40.741 74.2395 41.4711 77.5144 41.7491 79.7121C42.1697 83.0331 42.1193 85.2778 41.451 93.0149C40.9059 99.3231 40.7348 103.978 40.9203 107.462C41.0707 110.289 41.4014 113.327 41.6549 114.213C41.9088 115.099 42.4938 116.285 42.9555 116.848C43.7475 117.813 43.8646 117.833 45.0175 117.201C45.6897 116.833 47.1842 115.358 48.3389 113.923C49.4931 112.488 51.3151 109.529 52.3873 107.347C53.4599 105.165 54.7479 101.898 55.25 100.087C55.7977 98.1107 56.3354 94.2475 56.5945 90.4268C56.8322 86.9249 56.9041 83.1214 56.755 81.974C56.6055 80.8266 56.6173 79.8882 56.7809 79.8882C56.9449 79.8882 58.3938 81.0409 60.0014 82.4495C61.609 83.8582 65.8842 87.3017 69.5021 90.1014C73.1199 92.9011 77.2876 96.2867 78.7637 97.6246C80.2398 98.963 81.779 100.757 82.1837 101.611C82.5885 102.465 83.188 104.822 83.5151 106.847C83.8427 108.873 84.3435 110.966 84.6281 111.498C85.064 112.313 85.0122 112.56 84.3001 113.059C83.8352 113.385 82.4473 114.449 81.2155 115.424C79.0913 117.105 78.9698 117.313 78.8439 119.487C78.7269 121.506 78.5545 121.87 77.3955 122.544C76.6719 122.966 74.2052 123.702 71.9139 124.181C69.6227 124.66 66.4653 125.17 64.8975 125.313C63.3298 125.457 56.9164 125.87 50.6455 126.23C44.3746 126.591 38.8957 126.996 38.4699 127.13C38.0445 127.265 37.827 127.587 37.987 127.846C38.1905 128.175 41.9851 128.224 50.6012 128.006C57.3795 127.835 63.2667 127.826 63.6842 127.986C64.3218 128.231 64.3586 128.428 63.9157 129.222C63.5925 129.8 63.3833 132.121 63.3754 135.216C63.3684 137.993 63.4614 141.54 63.582 143.099L63.8012 145.932L61.8279 146.697C60.2623 147.305 58.4267 147.468 52.9477 147.487L46.041 147.511V146.075C46.041 145.162 46.5593 143.907 47.4662 142.626C48.2498 141.517 49.8285 139.375 50.9744 137.865C52.1308 136.34 53.0574 134.646 53.0574 134.056C53.0574 133.471 52.7601 132.878 52.3961 132.739C52.0325 132.599 51.0792 132.608 50.2776 132.758C49.4759 132.909 47.7504 133.687 46.4436 134.488C45.1367 135.288 42.0943 137.154 39.6824 138.635C37.2705 140.115 34.7542 141.454 34.0912 141.612C33.0808 141.851 32.8852 141.754 32.8852 141.015C32.8852 140.53 33.7662 138.959 34.8424 137.526C35.919 136.092 36.9762 134.442 37.1916 133.86C37.4069 133.277 37.4963 132.554 37.3902 132.252C37.2841 131.95 36.8684 131.705 36.4667 131.708C36.0646 131.71 34.0583 132.498 32.0082 133.457C29.1521 134.794 28.2487 135.056 28.1439 134.576C28.0689 134.232 28.3263 133.463 28.7166 132.866C29.1069 132.27 31.339 130.432 33.6772 128.783C36.0154 127.133 38.9505 124.771 40.1994 123.534C41.7491 121.999 42.5626 120.793 42.7599 119.741C42.9516 118.718 42.8262 117.772 42.3876 116.936C42.0237 116.243 40.8717 114.856 39.8271 113.856C38.783 112.855 35.5199 110.241 32.5765 108.046C29.6327 105.852 27.0182 103.67 26.7661 103.198C26.5135 102.727 26.3074 102.003 26.3074 101.592C26.3074 100.944 26.6578 100.875 28.9144 101.08C30.6286 101.236 31.7736 101.132 32.2573 100.778C32.7585 100.411 32.8967 99.9361 32.691 99.2871C32.5248 98.7632 30.8856 96.9998 29.0486 95.3685C27.2112 93.7376 25.126 91.8482 24.4143 91.1702C23.2022 90.0158 23.1355 89.7795 23.3596 87.4378C23.4912 86.0629 24.4108 82.2704 25.4027 79.01C26.3951 75.7496 27.6159 71.7977 28.1167 70.2279C28.6171 68.6581 29.9169 66.0291 31.0053 64.386C32.0937 62.7429 32.9072 61.321 32.8129 61.2271C32.7191 61.1326 31.1671 61.7856 29.3652 62.6779L26.0881 64.2999L23.8955 68.6603C21.8357 72.7562 21.709 73.2015 21.8055 76.014L21.9081 79.0078L19.284 81.9072C16.9225 84.5164 16.6598 84.9985 16.6598 86.7185C16.6598 87.7702 17.1155 89.8867 17.672 91.4222C18.2284 92.9578 19.2397 94.9114 19.9185 95.7633L21.153 97.3124L21.3503 111.091C21.5147 122.566 21.663 125.065 22.2357 126.036C22.7957 126.985 22.8303 127.469 22.4229 128.64C22.1475 129.43 21.9221 130.829 21.9221 131.748C21.9221 132.668 22.4282 134.762 23.0465 136.403C23.6653 138.044 24.4454 140.375 24.7804 141.583C25.1992 143.091 25.8794 144.208 26.9542 145.15C27.8435 145.93 29.6143 146.83 31.0597 147.236C32.8024 147.725 35.366 147.95 39.2206 147.95H44.8407L44.5474 149.816C44.386 150.843 44.1356 152.917 43.9913 154.427L43.7282 157.171H11.3844C-16.961 157.171 -20.9906 157.09 -21.212 156.512C-21.3506 156.15 -21.7725 155.854 -22.1496 155.854C-22.5267 155.854 -22.9486 156.15 -23.0872 156.512C-23.2262 156.875 -23.7134 157.171 -24.1699 157.171C-24.6264 157.171 -25 157.387 -25 157.651C-25 157.915 -24.6053 158.235 -24.123 158.361C-23.6406 158.487 -23.2459 158.843 -23.2459 159.151C-23.2459 159.46 -22.999 159.803 -22.6977 159.914C-22.396 160.025 -21.9027 160.029 -21.6014 159.924C-21.2997 159.819 -21.0533 159.354 -21.0533 158.891C-21.0533 158.069 -20.285 158.049 11.7738 158.049H44.6013L44.6609 155.524C44.6938 154.135 44.9732 151.913 45.2819 150.584L45.8428 148.169L52.6294 148.321C58.5902 148.455 59.6962 148.366 61.72 147.595C62.9869 147.111 64.4274 146.821 64.9203 146.95C65.6058 147.13 66.5964 146.404 69.1302 143.867C70.9527 142.042 72.313 140.337 72.1529 140.078C71.9929 139.819 71.7118 139.607 71.5276 139.607C71.3434 139.607 69.8305 140.787 68.165 142.228C65.6273 144.425 65.0738 144.736 64.7449 144.148C64.5287 143.762 64.2498 140.918 64.1249 137.828C63.9407 133.278 64.0389 131.777 64.6414 129.932C65.0506 128.679 65.2593 127.528 65.1045 127.373C64.9502 127.219 61.5349 127.122 57.5154 127.159L50.207 127.227L58.7582 126.622C63.4614 126.29 68.6728 125.715 70.3392 125.344C72.0051 124.974 73.4689 124.77 73.5913 124.893C73.7141 125.016 73.501 125.116 73.1186 125.116C72.6726 125.116 72.1889 125.864 71.771 127.202C71.4127 128.349 70.9159 130.177 70.6677 131.264C70.419 132.35 70.0818 134.449 69.9182 135.927C69.7318 137.611 69.7884 138.718 70.0699 138.892C70.3168 139.045 72.6581 138.5 75.2726 137.68C77.8875 136.861 81.5067 135.966 83.3156 135.692C85.1245 135.418 87.0979 134.833 87.7008 134.392C88.3038 133.951 88.8629 133.146 88.9432 132.603C89.0515 131.867 89.8123 131.287 91.9229 130.328C93.4819 129.62 94.9233 129.144 95.1259 129.269C95.329 129.395 95.6329 130.241 95.8012 131.149C95.9696 132.058 96.8059 134.678 97.6597 136.972C98.5135 139.266 99.9944 142.626 100.95 144.437C102.339 147.068 102.64 148.039 102.448 149.267C102.273 150.385 101.652 151.292 100.164 152.596C98.4206 154.124 98.111 154.642 98.0627 156.109L98.0061 157.83L143.503 157.942C173.756 158.016 189 157.906 189 157.612C189 157.319 173.791 157.171 143.832 157.171H98.6639V156.157C98.6639 155.599 98.9104 154.84 99.2121 154.469C99.5138 154.098 100.395 153.36 101.17 152.829C102.017 152.249 102.744 151.267 102.993 150.367C103.219 149.545 103.257 148.219 103.076 147.422C102.896 146.626 102.144 144.887 101.405 143.559C100.666 142.23 99.3458 139.207 98.4705 136.84C97.5953 134.474 96.7726 132.004 96.6423 131.352L96.4055 130.166L100.495 130.202C103.495 130.228 104.993 130.447 106.119 131.02C106.963 131.451 108.147 132.256 108.75 132.809C109.816 133.787 109.924 133.799 112.697 133.212C114.853 132.755 116.228 132.716 118.343 133.051C119.881 133.295 121.732 133.832 122.457 134.245C123.181 134.658 124.193 135.24 124.704 135.538C125.215 135.837 126.817 136.084 128.264 136.087C130.254 136.092 131.538 135.789 133.531 134.845C134.98 134.158 136.819 132.852 137.616 131.942C138.414 131.032 139.251 129.803 139.476 129.21C139.701 128.618 139.885 127.393 139.885 126.489C139.885 125.585 139.595 124.462 139.242 123.993C138.643 123.2 138.596 123.272 138.584 125.024C138.576 126.06 138.166 127.7 137.672 128.669C137.129 129.736 135.986 130.932 134.775 131.701C133.674 132.4 132.196 133.098 131.488 133.254C130.645 133.439 129.84 133.299 129.149 132.846C128.57 132.466 127.513 130.917 126.801 129.404C126.088 127.891 125.37 126.011 125.205 125.226C125.041 124.441 124.764 123.799 124.591 123.799C124.418 123.799 122.707 125.013 120.789 126.496C118.871 127.98 116.136 129.956 114.712 130.887C113.287 131.819 111.827 132.581 111.465 132.581C111.104 132.581 110.098 131.822 109.231 130.895C108.112 129.699 106.465 128.72 103.561 127.524C99.9813 126.051 99.4976 125.725 99.701 124.929C99.8287 124.428 100.328 122.833 100.81 121.384C101.292 119.935 101.799 118.037 101.937 117.167C102.168 115.71 103.225 114.748 115.226 105.062C122.397 99.2748 130.245 93.0215 132.665 91.1662C135.086 89.3106 137.278 87.7921 137.537 87.7921C137.796 87.7921 139.521 88.4921 141.37 89.3479C143.219 90.2033 144.937 90.7768 145.186 90.6226C145.436 90.4681 147.477 91.7432 149.724 93.4562C151.97 95.1687 154.058 96.8733 154.365 97.2435C154.833 97.8077 154.615 98.3724 153.022 100.725C151.501 102.97 150.215 104.156 146.599 106.649L142.078 109.765L142.067 106.573C142.062 104.817 141.879 102.611 141.66 101.67C141.442 100.729 141.021 99.8083 140.724 99.6243C140.427 99.4408 139.937 99.385 139.636 99.5005C139.335 99.6164 138.878 100.24 138.62 100.887C138.363 101.534 137.94 103.823 137.682 105.973C137.424 108.123 137.018 110.248 136.78 110.693C136.541 111.139 136.158 111.504 135.928 111.504C135.699 111.504 135.04 110.763 134.463 109.857C133.887 108.952 132.691 107.47 131.806 106.564C130.92 105.659 129.85 104.917 129.427 104.917C129.005 104.917 128.422 105.154 128.133 105.444C127.843 105.734 127.616 106.376 127.627 106.871C127.638 107.366 128.613 109.348 129.793 111.275C130.973 113.201 131.873 114.843 131.793 114.923C131.714 115.002 129.542 114.042 126.967 112.79C122.918 110.819 122.142 110.577 121.219 110.998C120.632 111.266 120.152 111.778 120.152 112.136C120.152 112.494 121.612 113.868 123.396 115.189C125.181 116.511 126.784 117.824 126.96 118.108C127.193 118.485 126.881 118.539 125.798 118.307C124.984 118.132 123.189 117.518 121.809 116.942C120.43 116.366 118.894 115.895 118.397 115.895C117.9 115.895 117.375 116.201 117.232 116.576C117.081 116.97 117.41 117.732 118.013 118.384C118.587 119.004 120.437 120.153 122.125 120.936C123.813 121.719 125.616 122.832 126.131 123.409C126.646 123.986 127.205 124.912 127.373 125.467C127.556 126.069 127.455 126.746 127.123 127.147C126.67 127.693 126.683 127.897 127.196 128.242C127.543 128.476 129.014 128.602 130.466 128.524C131.995 128.441 133.84 128.006 134.851 127.49C136.158 126.822 136.895 125.998 137.784 124.211C138.438 122.897 139.758 120.131 140.718 118.062C142.31 114.63 142.743 114.086 145.669 111.842C147.432 110.49 149.31 108.793 149.842 108.072C150.374 107.352 150.941 106.236 151.102 105.594C151.304 104.788 152.33 103.809 154.41 102.436C156.163 101.28 157.421 100.142 157.413 99.7183C157.405 99.3174 157.113 96.6182 156.764 93.7201C156.415 90.822 156.125 88.3028 156.12 88.1215C156.115 87.9401 155.913 87.7921 155.672 87.7921C155.431 87.7921 155.234 88.3331 155.234 88.9944C155.234 90.1967 155.233 90.1963 154.074 88.565C153.436 87.6674 152.561 86.8208 152.13 86.6834C151.682 86.5411 150.041 87.0918 148.308 87.966C145.645 89.3088 145.166 89.4247 144.427 88.9062C143.963 88.5803 142.343 87.6832 140.827 86.9122C139.312 86.1407 137.74 85.6001 137.334 85.7108C136.928 85.821 128.308 91.7011 118.178 98.7768C108.048 105.853 99.3195 111.733 98.781 111.842C98.2421 111.953 97.4672 111.914 97.0589 111.757C96.5108 111.546 96.9971 111.147 98.9152 110.232C100.345 109.551 101.909 108.549 102.391 108.007C103.133 107.173 103.263 106.432 103.231 103.225C103.211 101.137 102.952 98.2429 102.655 96.7938C102.359 95.3448 101.513 92.3088 100.776 90.0474C100.039 87.786 98.314 83.7352 96.944 81.0457C95.5737 78.3562 93.2872 74.2817 91.8633 71.9909C90.4394 69.7001 87.2921 65.3788 84.8697 62.3881C82.4473 59.3969 79.6096 55.8375 78.5637 54.4776C77.5178 53.1176 76.2141 51.1157 75.6664 50.029C75.1187 48.9422 74.5332 47.483 74.3653 46.7866C74.1951 46.0792 74.3969 43.5952 74.8222 41.1603C75.4967 37.3023 75.5252 36.0083 75.0691 29.9122C74.7858 26.1235 74.2631 21.9459 73.9079 20.6286C73.5523 19.3112 72.6656 17.0389 71.9372 15.5788C71.2088 14.1188 69.6389 11.6115 68.4487 10.0066C67.2586 8.40164 65.0379 6.0489 63.5136 4.77857C61.9888 3.50823 59.5554 1.90725 58.1057 1.22049C56.3599 0.393211 54.8027 -0.0186712 53.4959 0.000649448C52.4106 0.0168964 51.0788 0.244793 50.5359 0.506501ZM58.3227 2.23746C59.9128 3.03268 62.4655 4.92699 64.3029 6.67419C66.0658 8.35114 68.3176 11.0064 69.3069 12.5749C70.2958 14.143 71.5013 16.3455 71.9854 17.4688C72.4691 18.592 73.1418 20.9469 73.4799 22.7025C73.818 24.4576 74.2188 28.6071 74.3701 31.9237C74.5793 36.5062 74.4819 38.8014 73.9636 41.4857C73.4619 44.087 73.3935 45.5149 73.7053 46.9038C73.9382 47.941 74.5438 49.6118 75.0511 50.6169C75.5585 51.6216 76.9745 53.7284 78.1976 55.2982C79.4206 56.868 81.8969 59.9308 83.701 62.1044C85.5051 64.278 88.3266 68.1 89.9711 70.5976C91.6155 73.0957 93.8375 76.7512 94.908 78.7211C95.9789 80.6913 97.5773 83.9829 98.4596 86.0357C99.3419 88.0885 100.526 91.5733 101.091 93.7798C101.656 95.9863 102.239 99.4443 102.387 101.464C102.534 103.484 102.484 105.725 102.275 106.444C101.982 107.454 101.236 108.104 99.0007 109.298C97.4089 110.149 95.9736 110.713 95.8113 110.55C95.6491 110.388 95.3237 109.4 95.0878 108.355C94.7962 107.06 94.8277 104.732 95.1878 101.052C95.4785 98.0808 95.6074 94.0599 95.4745 92.116C95.286 89.3593 94.922 87.9392 93.8204 85.662C92.6259 83.1929 91.2073 81.5573 84.6219 75.058C80.3398 70.8316 76.2483 66.4845 75.5296 65.3977C74.8113 64.3109 73.6294 62.2361 72.9041 60.7871C72.1784 59.338 71.061 56.6911 70.4203 54.9048C69.7796 53.1185 69.1289 51.4521 68.9741 51.2018C68.8114 50.9379 68.5531 51.1039 68.361 51.5948C68.1781 52.062 68.015 53.3789 67.9979 54.5215C67.9813 55.6645 68.1817 58.0356 68.4435 59.7907C68.7057 61.5463 69.1078 63.7225 69.3376 64.6266C69.6279 65.7701 70.1484 66.4744 71.0461 66.9394C71.7565 67.3074 72.6112 68.1483 72.9458 68.8082C73.2804 69.4682 73.6873 70.9269 73.8505 72.0493C74.0136 73.1716 74.7389 74.9852 75.4625 76.0794C76.1865 77.1732 77.756 78.815 78.9505 79.7271C80.1455 80.6395 81.123 81.4444 81.123 81.5151C81.123 81.5862 80.456 81.6446 79.6407 81.6446C78.5528 81.6446 77.4819 81.1182 75.6103 79.663C74.2083 78.5731 72.3244 77.4824 71.4232 77.2395C70.5093 76.9932 69.2762 76.1918 68.6329 75.4265C67.9988 74.6721 66.5946 72.5169 65.5119 70.6376C64.4292 68.7586 62.9325 66.6228 62.1857 65.8917C61.4389 65.1606 60.268 64.4391 59.5835 64.2885C58.8994 64.1379 57.9404 64.1418 57.4523 64.2969C56.9646 64.4519 56.5656 64.7267 56.5656 64.9081C56.5656 65.0894 60.2667 69.0774 64.7901 73.7706C71.8521 81.0966 73.4233 82.9866 75.9032 87.1335C77.492 89.7901 79.9854 94.236 81.4444 97.0134C82.9034 99.7907 84.3132 102.755 84.5781 103.6C84.8859 104.585 84.9166 105.61 84.6636 106.454L84.2681 107.771L84.2303 106.424C84.2097 105.683 83.8905 104.058 83.5208 102.812C83.0279 101.15 82.2412 99.9444 80.5608 98.2785C79.3022 97.0305 76.4965 94.5926 74.3258 92.8607C72.1551 91.1289 68.6399 88.3704 66.5144 86.7308C64.3889 85.0912 61.281 82.5668 59.6076 81.1212C56.7581 78.6592 56.5651 78.3773 56.5568 76.6656C56.5524 75.6609 56.2713 72.7549 55.9328 70.209C55.5942 67.6626 54.9251 64.007 54.4453 62.0855C53.9656 60.1635 53.1468 57.4556 52.6259 56.0667C52.1049 54.6782 50.4784 51.7143 49.0116 49.4801C47.5443 47.2463 45.8831 44.4304 45.3196 43.2228C44.7565 42.0153 44.2957 40.6321 44.2957 40.1491C44.2957 39.6559 44.7579 40.2654 45.3499 41.5384C45.93 42.7859 47.2048 44.6077 48.1832 45.5874C49.1615 46.567 51.1568 47.9726 52.6171 48.7108C54.0774 49.4489 56.4967 50.3671 57.993 50.7509C59.7734 51.2075 61.7994 51.3792 63.853 51.247C65.8733 51.1171 67.5177 50.7381 68.4663 50.1835C69.2766 49.7093 70.3695 48.5553 70.8939 47.6187C71.4184 46.6825 72.1639 44.6556 72.5502 43.1148C72.937 41.574 73.376 38.1678 73.5255 35.5459C73.7601 31.4407 73.6623 30.2705 72.8212 27.1208C72.2845 25.1088 71.5679 22.475 71.2294 21.2675C70.8909 20.0599 69.813 17.8477 68.8333 16.3512C67.8536 14.8548 66.0706 12.7466 64.8704 11.666C63.6701 10.5853 61.7542 9.25746 60.6136 8.71516C59.4726 8.1733 57.9566 7.03997 57.2449 6.19689C56.491 5.30418 54.6804 4.07512 52.907 3.25267C50.2337 2.01308 49.964 1.78211 50.6929 1.35837C51.1489 1.09271 52.4285 0.869641 53.5354 0.862176C54.9373 0.852955 56.3906 1.27055 58.3227 2.23746ZM51.758 4.52345C53.2964 5.68181 55.1062 6.91439 55.7797 7.26348C56.6765 7.72761 57.0041 8.22556 57.0041 9.12353C57.0041 9.798 56.6857 11.4227 56.2972 12.7343C55.9082 14.0455 54.8983 16.5018 54.0533 18.1928C53.2078 19.8838 51.676 22.4531 50.649 23.9021C49.622 25.3512 47.8196 27.4295 46.644 28.5202C45.4683 29.6114 42.7271 31.5439 40.5524 32.8155C38.3778 34.0868 35.6817 35.9117 34.5613 36.8707C33.4404 37.8297 32.1117 39.4667 31.6083 40.5082C31.0978 41.5639 30.6944 43.2641 30.697 44.3496C30.6992 45.4719 31.1386 47.2261 31.7341 48.4921C32.302 49.6996 33.629 51.6756 34.6823 52.8832C35.7361 54.0907 38.287 56.9559 40.3511 59.2502C42.4153 61.5445 46.1414 66.1881 48.6318 69.5692C51.1217 72.9503 53.7779 76.3714 54.5335 77.1719L55.9078 78.6275L55.8341 86.3931C55.7854 91.4749 55.5267 95.2389 55.0851 97.2834C54.7137 99.0021 53.8998 101.768 53.2766 103.431C52.6531 105.094 51.3243 107.837 50.3232 109.527C49.3225 111.217 47.6267 113.539 46.5545 114.687C45.4823 115.834 44.3601 116.773 44.0606 116.773C43.7611 116.773 43.2954 116.23 43.0257 115.566C42.756 114.902 42.3376 113.294 42.0956 111.993C41.8535 110.692 41.6557 107.286 41.6557 104.425C41.6557 101.563 41.9667 96.0078 42.3464 92.08C42.7854 87.5436 42.9279 83.5763 42.7376 81.2055C42.5731 79.1527 41.9561 75.805 41.3668 73.7658C40.7305 71.5645 38.7154 67.0162 36.4062 62.5685C34.2675 58.4493 32.0578 53.5967 31.4956 51.7854C30.5576 48.763 30.4769 47.7509 30.515 39.4904C30.5431 33.3864 30.7852 29.1442 31.2662 26.3119C31.6565 24.015 32.4857 20.3594 33.1089 18.1885C33.732 16.0179 34.8257 12.9824 35.5392 11.4433C36.2527 9.90426 37.5411 7.6837 38.4028 6.50821C39.2645 5.33272 40.7932 3.86567 41.7991 3.2474C43.3414 2.30069 44.0483 2.147 46.2949 2.27083C48.6919 2.403 49.2422 2.63002 51.758 4.52345ZM56.595 6.39624C57.0795 6.99913 56.8225 6.94073 55.4693 6.14112C54.5045 5.57116 53.4192 4.81809 53.0574 4.46768C52.6645 4.08741 53.1179 4.19017 54.1831 4.7228C55.1641 5.21372 56.2494 5.96679 56.595 6.39624ZM61.8362 10.3254C62.6847 10.8453 64.5002 12.4831 65.8706 13.9651C67.2415 15.4475 68.9644 17.9228 69.6998 19.4658C70.4352 21.0088 71.0369 22.7736 71.0369 23.3875C71.0369 24.0013 71.2518 25.06 71.514 25.7398C71.7767 26.4195 72.2577 28.2357 72.5836 29.7756C73.0822 32.1336 73.0804 33.3794 72.5713 37.6795C72.2393 40.4867 71.6758 43.6009 71.3197 44.5998C70.9637 45.5988 70.3673 47.007 69.9945 47.7289C69.5705 48.55 68.65 49.3088 67.5366 49.755C66.5052 50.1682 64.5037 50.4681 62.7755 50.4681C61.1359 50.4681 58.7227 50.1497 57.4128 49.7602C56.1025 49.3712 54.0862 48.5738 52.932 47.9884C51.7778 47.4035 50.0881 46.2504 49.1773 45.4267C48.2665 44.6025 47.0062 42.9795 46.376 41.8194C45.7459 40.6593 44.9912 38.722 44.6991 37.5144C44.4066 36.3069 44.0172 35.1511 43.833 34.9461C43.6493 34.741 43.3673 35.1718 43.2068 35.9029C43.0467 36.634 43.1169 38.325 43.3633 39.6603C43.6102 40.9957 44.243 42.9365 44.7701 43.9728C45.2968 45.0095 46.7119 47.3188 47.9144 49.1051C49.1168 50.8909 50.6442 53.5585 51.309 55.033C51.9734 56.5071 52.9333 59.3929 53.4424 61.4457C53.9515 63.4986 54.6641 67.1541 55.0255 69.5692C55.3873 71.9843 55.6846 74.7081 55.6859 75.6223L55.6885 77.2843L54.4392 75.8419C53.7524 75.0484 51.2099 71.7318 48.7892 68.4714C46.3686 65.2111 42.0776 59.9747 39.2539 56.8351C36.4303 53.6955 33.5479 50.1387 32.8489 48.9312C31.9258 47.3368 31.5767 46.1525 31.5736 44.6064C31.5714 43.4353 31.8898 41.8019 32.281 40.9763C32.6721 40.1508 33.9561 38.6074 35.1344 37.5469C36.3128 36.486 38.9031 34.6774 40.8914 33.5269C42.8797 32.3769 45.3538 30.7574 46.3896 29.9284C47.4258 29.0998 49.269 27.108 50.4863 25.5031C51.7037 23.8982 53.6827 20.5741 54.8843 18.1169C56.0863 15.6592 57.2927 12.4713 57.5659 11.0319C58.0557 8.45126 58.0776 8.42184 59.1779 8.89783C59.7914 9.16349 60.9872 9.8059 61.8362 10.3254ZM73.6922 63.8665C74.8542 65.9088 76.9692 68.6387 78.9303 70.6279C80.7392 72.4629 84.0273 75.6592 86.2375 77.7304C88.4476 79.8022 91.0511 82.7288 92.0229 84.2349C93.0771 85.8675 94.0002 87.9796 94.3107 89.4682C94.676 91.2202 94.7286 93.9256 94.4865 98.5503C94.2971 102.173 94.1309 105.532 94.1182 106.015C94.105 106.498 94.2326 107.846 94.4015 109.01L94.7089 111.127L91.534 110.994C89.7873 110.921 87.9267 111.015 87.3982 111.204C86.5567 111.504 86.3809 111.34 85.9757 109.878C85.7213 108.961 85.5122 107.067 85.5108 105.67C85.5086 103.386 85.2008 102.536 82.4714 97.2659C80.8011 94.0411 78.1296 89.2263 76.5338 86.5657C74.9384 83.9056 72.8348 80.8209 71.8591 79.7108C70.8834 78.6008 70.2072 77.6927 70.3559 77.6927C70.505 77.6927 71.3254 77.9851 72.1797 78.3426C73.0335 78.6996 74.6337 79.7863 75.7352 80.7576C77.3473 82.1782 78.0743 82.5229 79.4596 82.5229C80.406 82.5229 81.5825 82.3073 82.0737 82.0442C82.9073 81.5977 82.824 81.469 80.8331 80.1262C79.6592 79.3345 77.9722 77.8819 77.0841 76.8975C76.1589 75.8717 75.27 74.3006 75.002 73.2169C74.7451 72.1766 74.328 70.573 74.0759 69.6531C73.8237 68.7327 73.2834 67.7061 72.8752 67.371C72.4669 67.036 71.6811 66.4059 71.129 65.9703C70.3151 65.3283 70.0046 64.386 69.4924 61.0066C69.1447 58.7123 68.8596 56.0447 68.8596 55.0787C68.8592 53.3956 68.9193 53.4707 70.301 56.8817C71.0939 58.8392 72.62 61.9823 73.6922 63.8665ZM29.4126 65.2879C28.7131 66.4353 27.7335 68.6581 27.2353 70.2279C26.7371 71.7977 25.518 75.7496 24.5257 79.01C23.5337 82.2704 22.6132 86.0748 22.4804 87.4646L22.2387 89.9907L24.3954 92.0752C25.5816 93.2213 27.6988 95.1472 29.1008 96.3547C30.5023 97.5623 31.6806 98.9454 31.7188 99.4285C31.7828 100.23 31.5201 100.307 28.7193 100.307C25.6649 100.307 25.6487 100.313 25.5058 101.568C25.3979 102.514 25.7259 103.21 26.8213 104.358C27.6238 105.2 30.893 107.85 34.0859 110.248C37.2788 112.646 40.3867 115.339 40.9927 116.232C41.5987 117.125 42.0943 118.214 42.0943 118.653C42.0943 119.092 41.814 119.985 41.4716 120.637C41.1291 121.289 39.9946 122.632 38.95 123.621C37.9059 124.609 35.3405 126.636 33.2492 128.126C31.1583 129.615 28.9385 131.439 28.3158 132.18C27.6936 132.92 27.1844 134.005 27.1844 134.591C27.1844 135.383 27.4225 135.655 28.1159 135.655C28.6281 135.655 30.5773 134.963 32.4467 134.118C34.3162 133.273 36.0681 132.581 36.3391 132.581C36.6101 132.581 36.8311 132.729 36.8302 132.91C36.8293 133.092 36.4373 133.832 35.9593 134.557C35.4809 135.282 34.3964 136.835 33.5492 138.008C32.7015 139.182 32.0082 140.62 32.0082 141.206C32.0082 141.79 32.3117 142.385 32.6826 142.528C33.0532 142.67 34.1881 142.468 35.2042 142.077C36.2198 141.686 39.2123 139.981 41.8535 138.288C44.4943 136.594 47.4544 134.829 48.4314 134.364C49.408 133.9 50.6016 133.457 51.084 133.38C51.6887 133.283 51.9975 133.512 52.0777 134.118C52.1457 134.631 51.2739 136.183 49.9803 137.85C48.7625 139.42 47.2636 141.467 46.6492 142.398C46.0348 143.33 45.42 144.783 45.2832 145.626L45.0346 147.161L38.1927 146.999C31.5736 146.843 31.2719 146.794 28.9442 145.527L26.538 144.217L24.7041 138.948C23.6951 136.05 22.854 132.941 22.8347 132.038C22.815 131.136 23.0351 129.515 23.3232 128.435C23.7692 126.766 23.7446 126.355 23.1592 125.685C22.5961 125.041 22.4133 123.01 22.1576 114.578C21.9853 108.902 21.8217 103.765 21.7941 103.161C21.766 102.557 21.8976 101.05 22.0857 99.8114C22.4071 97.6988 22.3457 97.4661 21.0916 96.0359C20.3566 95.1977 19.3357 93.5431 18.8231 92.3593C18.3104 91.1759 17.7838 89.0686 17.6527 87.6767L17.4141 85.1461L19.8874 82.5496C21.2477 81.1217 22.3953 79.6919 22.4383 79.3718C22.4808 79.0522 22.5299 77.5061 22.5479 75.9363C22.5751 73.5071 22.8667 72.48 24.5077 69.0388C26.2056 65.4772 26.6494 64.8918 28.2351 64.1208C29.2249 63.6395 30.1809 63.236 30.3598 63.2241C30.5383 63.2118 30.112 64.1405 29.4126 65.2879ZM60.4996 65.6107C61.192 65.9694 62.169 66.8397 62.6707 67.5454C63.1724 68.251 64.2735 70.0513 65.1172 71.5461C65.9614 73.0412 66.6516 74.3392 66.6516 74.4314C66.6516 74.5232 65.0804 72.9596 63.1601 70.9568C61.2398 68.9536 59.252 66.7848 58.7429 66.1367C57.9583 65.1382 57.9259 64.9586 58.5289 64.9586C58.92 64.9586 59.8067 65.2519 60.4996 65.6107ZM140.762 87.7921C142.089 88.4938 143.02 89.0774 142.831 89.0888C142.642 89.1002 141.481 88.5992 140.252 87.9752C139.023 87.3517 137.648 86.9381 137.197 87.0562C136.745 87.1743 136.486 87.0918 136.622 86.8731C136.757 86.654 137.201 86.484 137.609 86.4955C138.017 86.5069 139.436 87.0904 140.762 87.7921ZM134.629 88.5812C133.788 89.2342 126.684 94.9013 118.842 101.176C111.001 107.45 103.85 113.247 102.952 114.059C101.834 115.07 101.239 116.042 101.063 117.142C100.921 118.026 100.697 119.243 100.565 119.847L100.324 120.945L99.9466 119.957C99.7388 119.413 99.238 118.969 98.8332 118.969C98.2596 118.969 98.3535 118.731 99.2577 117.892C99.8958 117.3 100.418 116.62 100.418 116.381C100.418 116.142 100.225 115.827 99.9883 115.681C99.7177 115.513 99.7541 115.102 100.087 114.568C100.49 113.923 100.494 113.6 100.103 113.209C99.7125 112.817 102.212 110.869 110.639 104.998C116.715 100.765 124.844 95.0721 128.703 92.3479C132.562 89.6241 135.818 87.3952 135.939 87.3947C136.059 87.3943 135.47 87.9283 134.629 88.5812ZM152.935 88.341C153.444 88.8846 154.07 89.8854 154.327 90.5651C154.585 91.2448 154.795 92.8919 154.795 94.2251V96.6489L152.822 94.9101C151.737 93.9537 149.868 92.5046 148.668 91.6892C147.468 90.8742 146.481 90.1001 146.475 89.9688C146.468 89.8375 147.499 89.2074 148.765 88.5685C150.031 87.9291 151.28 87.3943 151.539 87.3798C151.799 87.3649 152.427 87.7974 152.935 88.341ZM143.832 89.329C143.832 89.4498 143.733 89.5486 143.613 89.5486C143.492 89.5486 143.393 89.4498 143.393 89.329C143.393 89.2083 143.492 89.1095 143.613 89.1095C143.733 89.1095 143.832 89.2083 143.832 89.329ZM155.965 96.428C155.804 96.5888 155.672 96.457 155.672 96.1352C155.672 95.8133 155.804 95.6816 155.965 95.8423C156.125 96.0034 156.125 96.2669 155.965 96.428ZM156.111 97.2329C156.111 97.3537 156.012 97.4525 155.891 97.4525C155.771 97.4525 155.672 97.3537 155.672 97.2329C155.672 97.1122 155.771 97.0134 155.891 97.0134C156.012 97.0134 156.111 97.1122 156.111 97.2329ZM156.549 99.4456C156.549 99.7657 156.006 100.404 155.343 100.863C154.68 101.323 153.887 101.844 153.581 102.022C153.276 102.199 153.558 101.461 154.209 100.382C154.92 99.2041 155.624 98.5081 155.971 98.6416C156.289 98.7637 156.549 99.1255 156.549 99.4456ZM141.133 105.811C141.235 108.773 141.475 110.626 141.758 110.626C142.011 110.626 143.975 109.42 146.124 107.947C148.272 106.473 150.143 105.381 150.281 105.52C150.419 105.659 150.002 106.467 149.354 107.318C148.706 108.169 147.466 109.409 146.597 110.075C145.729 110.74 144.225 111.976 143.254 112.821C142.031 113.887 140.973 115.502 139.801 118.091C138.872 120.143 137.672 122.709 137.135 123.792C136.485 125.101 135.57 126.092 134.404 126.749C133.224 127.413 131.91 127.739 130.391 127.744L128.132 127.751L128.175 126.216C128.201 125.308 127.857 124.186 127.332 123.471C126.844 122.806 124.857 121.472 122.915 120.506C120.973 119.54 119.063 118.478 118.671 118.147C118.28 117.815 117.959 117.37 117.959 117.159C117.959 116.947 118.33 116.773 118.783 116.773C119.236 116.773 120.683 117.266 121.998 117.869C123.313 118.472 125.31 119.092 126.436 119.246C128.123 119.478 128.484 119.406 128.484 118.838C128.484 118.459 127.645 117.471 126.62 116.643C125.595 115.814 123.917 114.589 122.892 113.92C121.868 113.252 121.029 112.527 121.029 112.31C121.029 112.093 121.322 111.802 121.682 111.665C122.041 111.526 124.407 112.422 126.94 113.654C129.472 114.887 131.842 115.895 132.207 115.895C132.571 115.895 132.869 115.648 132.868 115.346C132.868 115.044 131.882 113.137 130.676 111.107C129.47 109.077 128.484 107.052 128.484 106.606C128.484 106.103 128.799 105.796 129.315 105.796C129.772 105.796 130.766 106.502 131.523 107.364C132.279 108.227 133.395 109.722 134.003 110.685C134.827 111.993 135.351 112.402 136.067 112.3C136.595 112.224 137.258 111.669 137.541 111.065C137.824 110.461 138.277 108.113 138.548 105.846C138.819 103.58 139.249 101.336 139.503 100.859C139.851 100.21 140.092 100.118 140.468 100.495C140.76 100.787 141.037 103.006 141.133 105.811ZM85.2407 109.967C85.4556 110.929 85.4148 111.107 85.0898 110.626C84.8447 110.263 84.6417 109.588 84.6377 109.125C84.6342 108.662 84.7022 108.366 84.7886 108.467C84.8754 108.568 85.0789 109.243 85.2407 109.967ZM95.9433 112.146C96.0731 112.276 95.1022 112.382 93.7862 112.382C92.4702 112.382 90.2605 112.678 88.8761 113.039C87.4912 113.4 85.5257 114.1 84.5084 114.594L82.6578 115.493L83.9734 114.379C84.6969 113.766 85.6345 113.264 86.0564 113.263C86.4782 113.261 86.8238 113.056 86.8238 112.807C86.8238 112.558 87.2456 112.198 87.7613 112.007C88.2766 111.816 90.2758 111.716 92.2032 111.785C94.1309 111.854 95.814 112.016 95.9433 112.146ZM98.5258 113.293C99.7164 113.748 99.73 113.787 98.9091 114.391C98.4407 114.735 97.454 115.025 96.7164 115.035C95.9784 115.045 93.9555 115.397 92.2207 115.815C90.4855 116.234 88.9234 116.72 88.7489 116.895C88.5744 117.069 88.787 117.212 89.2216 117.212C89.6562 117.212 91.259 116.982 92.7838 116.701C95.4667 116.206 95.5829 116.223 96.3985 117.232L97.2414 118.274L92.6816 119.656C90.1732 120.417 87.336 121.393 86.3765 121.827C85.4165 122.26 84.6311 122.782 84.6311 122.987C84.6311 123.192 84.7789 123.361 84.96 123.362C85.1412 123.363 86.1769 123.076 87.2623 122.724C88.3476 122.371 90.2596 121.778 91.5107 121.404C92.7618 121.031 94.1449 120.725 94.5843 120.725C95.0237 120.725 95.6416 121.14 95.9578 121.646C96.2735 122.153 96.4691 122.608 96.3919 122.657C96.3152 122.706 95.068 123.105 93.6209 123.544C92.1738 123.982 89.7386 124.906 88.2091 125.597C86.4936 126.373 85.5034 127.068 85.6235 127.412C85.7498 127.773 86.5764 127.949 87.9657 127.91C89.4036 127.869 91.2533 127.325 93.5661 126.263C95.4653 125.391 97.0936 124.677 97.1839 124.677C97.2743 124.677 97.3484 124.953 97.3484 125.29C97.3484 125.627 96.7064 126.467 95.9214 127.156C95.1364 127.846 93.1754 128.97 91.5625 129.655C89.0975 130.703 88.5862 131.105 88.3494 132.184C88.1946 132.889 87.7245 133.651 87.3048 133.876C86.8852 134.1 85.1745 134.512 83.5037 134.79C81.8325 135.068 78.3475 135.969 75.7589 136.792C73.1708 137.616 70.9277 138.289 70.7747 138.289C70.6216 138.289 70.6374 136.968 70.8102 135.354C70.9829 133.739 71.5487 130.938 72.0674 129.13L73.0102 125.843L76.0799 125.23C77.7682 124.894 79.5846 124.336 80.1161 123.992C80.9282 123.466 81.1037 122.894 81.2124 120.418C81.3396 117.533 81.3791 117.445 83.0608 116.303C84.0058 115.662 85.7669 114.781 86.9733 114.347C88.1801 113.912 90.8604 113.421 92.9289 113.254C94.9979 113.087 96.8256 112.921 96.991 112.886C97.1563 112.85 97.847 113.034 98.5258 113.293ZM99.541 116.266C99.541 116.47 99.1889 116.956 98.7587 117.346C98.0355 118.001 97.9373 117.993 97.4685 117.242C97.1896 116.795 97.0813 116.309 97.2282 116.162C97.3747 116.015 97.9548 115.895 98.5179 115.895C99.0805 115.895 99.541 116.062 99.541 116.266ZM80.5121 117.907C80.3656 118.289 80.2459 119.664 80.2459 120.964V123.326L77.9735 124.001C76.7241 124.373 75.3919 124.668 75.0134 124.658C74.6354 124.647 75.0639 124.375 75.9663 124.052C76.8684 123.73 78.102 123.141 78.7071 122.744C79.66 122.119 79.8074 121.7 79.8074 119.617C79.8074 118.152 79.9968 117.212 80.2928 117.212C80.5599 117.212 80.6586 117.525 80.5121 117.907ZM99.2998 120.25C99.4371 120.473 99.2371 120.967 98.856 121.348C98.4745 121.73 97.9912 122.042 97.7816 122.042C97.5716 122.042 97.2725 121.835 97.1159 121.582C96.9598 121.329 96.9423 120.835 97.0765 120.485C97.2107 120.134 97.7102 119.847 98.186 119.847C98.6613 119.847 99.163 120.029 99.2998 120.25ZM99.3542 123.297C98.9744 124.032 98.6639 125.017 98.6639 125.485C98.6639 126.147 99.6313 126.746 103.01 128.173C105.4 129.183 107.675 130.363 108.065 130.794C108.572 131.355 108.065 131.221 106.294 130.327C104.159 129.248 103.491 129.112 101.498 129.346C100.224 129.496 98.2513 129.479 97.1138 129.308L95.0461 128.998L96.6774 127.325C97.6852 126.292 98.2438 125.341 98.1395 124.836C98.0206 124.261 97.6501 124.055 96.8919 124.141C96.299 124.208 94.5541 124.852 93.0149 125.572C91.4756 126.292 89.4036 126.988 88.4104 127.119C86.6703 127.349 86.6444 127.335 87.7008 126.733C88.3038 126.389 90.9678 125.359 93.6209 124.445C96.274 123.531 98.7288 122.522 99.0761 122.204C99.4239 121.885 99.7835 121.7 99.876 121.793C99.9686 121.885 99.7335 122.562 99.3542 123.297ZM124.537 125.539C124.537 125.771 124.952 127.072 125.459 128.429C125.966 129.786 126.955 131.551 127.656 132.351C128.358 133.151 129.425 133.93 130.029 134.081C130.717 134.254 131.941 134.006 133.309 133.417C134.51 132.899 136.185 131.709 137.031 130.771C137.877 129.833 138.57 129.196 138.57 129.355C138.57 129.514 138.079 130.288 137.48 131.075C136.88 131.862 135.171 133.116 133.682 133.861C131.587 134.909 130.397 135.216 128.42 135.216C126.419 135.216 125.309 134.924 123.3 133.869C121.539 132.945 119.796 132.428 117.744 132.222L114.754 131.922L119.316 128.538C121.826 126.677 124.027 125.145 124.208 125.135C124.389 125.125 124.537 125.306 124.537 125.539ZM109.846 132.581C109.995 132.823 110.019 133.02 109.898 133.02C109.777 133.02 109.557 132.823 109.408 132.581C109.259 132.34 109.235 132.142 109.356 132.142C109.477 132.142 109.697 132.34 109.846 132.581ZM68.2251 143.798C66.7994 145.115 65.4225 146.193 65.165 146.193C64.9081 146.193 65.4777 145.551 66.4311 144.766C67.3844 143.981 68.6632 142.901 69.2718 142.365C69.8809 141.829 70.4778 141.393 70.5984 141.397C70.719 141.4 69.6511 142.481 68.2251 143.798ZM-21.4918 156.732C-21.4918 156.973 -21.7996 157.171 -22.1755 157.171C-22.5513 157.171 -22.7372 156.973 -22.5881 156.732C-22.439 156.49 -22.1316 156.293 -21.9045 156.293C-21.6773 156.293 -21.4918 156.49 -21.4918 156.732ZM-21.4918 158.927C-21.4918 159.169 -21.7878 159.367 -22.1496 159.367C-22.5114 159.367 -22.8074 159.169 -22.8074 158.927C-22.8074 158.686 -22.5114 158.488 -22.1496 158.488C-21.7878 158.488 -21.4918 158.686 -21.4918 158.927Z" fill="black"/>
</svg>
