<svg width="184" height="73" viewBox="0 0 184 73" fill="none" xmlns="http://www.w3.org/2000/svg">
<path fill-rule="evenodd" clip-rule="evenodd" d="M59.7174 1.42635C56.2189 2.05289 53.8181 3.17399 52.1581 4.95548C51.0914 6.10068 50.9939 6.95557 50.9939 15.1625V24.1204L46.8286 24.72C41.4584 25.4939 37.2226 27.3213 37.2226 28.8647C37.2226 29.4907 37.8842 30.5234 38.6927 31.1591C41.3804 33.2728 44.0687 33.8156 51.8546 33.8156C58.5112 33.8156 59.5762 33.6756 61.7526 32.5132L64.1913 31.2102V45.885V60.5591L61.4921 61.7531C58.6587 63.0067 50.132 63.8479 47.3468 63.1485C45.9806 62.8059 45.8704 62.5208 45.7126 58.9125C45.5473 55.155 45.5014 55.05 44.1083 55.2353C41.968 55.5205 39.3526 57.201 38.3949 58.9067C37.6243 60.2791 37.6467 60.5259 38.6382 61.6217C39.2378 62.2844 40.8433 63.1072 42.2055 63.4503C45.2472 64.2162 45.405 65.3264 42.8172 67.7643C38.5992 71.738 31.5351 71.897 26.4639 68.132L24.599 66.7476V55.6507V44.5533L30.4805 44.8516C37.4309 45.2033 42.3237 44.3553 44.5587 42.4115C46.4803 40.7407 45.9708 39.5295 42.6342 37.8318C40.7068 36.8513 39.2441 36.6843 32.5771 36.6843C23.6344 36.6843 22.7697 37.0079 23.2815 40.1624C23.6316 42.3185 23.1915 42.5779 21.3593 41.2944C20.6994 40.8325 19.9965 40.6174 19.7969 40.8165C19.5977 41.0156 19.4348 44.3628 19.4348 48.2551V55.3311H-22.5675C-50.7509 55.3311 -64.3798 55.5211 -63.992 55.9089C-63.6127 56.2882 -48.9819 56.4356 -21.2724 56.3392L20.8693 56.1918L21.0311 49.4399C21.1872 42.925 21.2325 42.7093 22.3222 43.2922C23.3888 43.8631 23.4514 44.547 23.4514 55.5962V67.2961L25.4918 68.9783C30.8787 73.418 41.1801 72.8706 44.678 67.9594C45.3115 67.07 45.8297 65.9575 45.8297 65.4871C45.8297 64.79 47.0737 64.5937 52.5718 64.4245C58.3569 64.2472 59.7214 64.0143 62.183 62.7864L65.052 61.3555L65.2041 44.8602C65.3429 29.8453 65.0704 26.3942 63.9727 29.2549C62.9393 31.948 53.3224 33.6452 46.0489 32.4179C42.1091 31.7535 38.3702 30.0839 38.3702 28.9886C38.3702 28.0913 44.3728 26.1337 48.3825 25.7229L52.1415 25.3379V16.0501C52.1415 7.01007 52.1776 6.72836 53.5071 5.47931C55.6526 3.4643 59.7042 2.54574 66.4343 2.54976C72.8861 2.55262 76.209 3.16998 77.6762 4.63705C78.7578 5.71857 78.1341 6.6968 75.4223 8.16961C74.0085 8.93729 72.0105 9.12891 65.3389 9.1358C60.7628 9.14039 56.2947 8.94245 55.4104 8.69573L53.8015 8.24649L53.9759 11.2386C54.1366 14.0006 54.2823 14.272 55.8712 14.7683C56.818 15.0638 60.8202 15.326 64.7651 15.3506C71.6995 15.3942 72.6939 15.225 77.5448 13.1716C78.5008 12.7671 78.5524 13.4039 78.4055 23.8094L78.2495 34.877L75.3804 35.5345C69.0468 36.9855 66.7482 39.6466 69.3951 42.4637C70.9564 44.1258 74.5995 45.3101 79.8934 45.8769C83.1881 46.2298 83.7006 46.4398 83.7006 47.4375C83.7006 48.5196 83.4114 48.5741 78.9667 48.3303C75.6272 48.1472 73.5213 47.7032 71.8171 46.8242C70.4882 46.1385 69.1329 45.5774 68.8047 45.5774C68.4162 45.5774 68.2085 48.8283 68.2102 54.9008C68.2125 65.2868 68.5419 66.436 72.3192 69.2422C75.0631 71.2808 77.5695 71.9704 82.2081 71.9641C87.3344 71.9572 91.545 70.1838 93.3439 67.2737C94.3836 65.5909 94.573 64.3109 94.6716 58.2917L94.7864 51.273L96.6536 49.6332C99.2076 47.391 102.186 46.4719 106.94 46.4599C113.885 46.4415 119.258 48.7973 117.765 51.2053C117.434 51.7389 116.025 52.821 114.634 53.6099C112.377 54.8894 111.45 55.0443 106.054 55.0443C101.258 55.0443 99.6855 54.836 98.4708 54.0402C96.447 52.7143 96.3242 52.7521 96.3242 54.6977C96.3242 56.8367 99.4026 59.6233 102.772 60.5345C107.272 61.7519 115.179 60.3302 117.892 57.816L119.335 56.4786H293.168C408.674 56.4786 467 56.2859 467 55.9049C467 55.5239 408.496 55.3311 292.634 55.3311C130.766 55.3311 118.213 55.3994 117.481 56.2853C116.344 57.6629 112.566 59.1735 109.122 59.6274C105.281 60.1334 100.522 58.8069 98.593 56.6915C97.3582 55.3369 97.3261 55.2032 98.3325 55.6025C100.458 56.4448 109.009 56.6473 112.21 55.9313C115.86 55.1149 119.276 52.4624 119.276 50.4457C119.276 48.4754 116.34 46.3376 112.553 45.5516C105.998 44.1912 98.3549 45.7897 94.9006 49.2437C93.5143 50.6299 93.4552 50.9741 93.4552 57.676C93.4552 63.6792 93.2922 64.9259 92.2984 66.5342C89.2986 71.3875 78.3785 72.3089 72.9412 68.1676C69.752 65.7389 69.3555 64.3218 69.3555 55.3598C69.3555 50.9259 69.4972 47.2987 69.6711 47.2987C69.8444 47.2987 70.6948 47.6647 71.5601 48.1123C73.9035 49.324 79.8257 50.25 82.499 49.8226C84.606 49.4858 84.8482 49.2798 84.8482 47.8254C84.8482 46.4025 85.1127 46.1552 86.9999 45.8138C93.1861 44.6939 96.6576 40.6392 93.3089 38.4452C92.2359 37.7417 85.6314 35.8616 84.1309 35.8323C83.8939 35.8277 83.7006 37.8915 83.7006 40.4189V45.0134L80.4012 44.6721C72.9315 43.8975 68.2383 41.5904 69.9465 39.5324C71.0999 38.1434 72.7949 37.3711 76.2411 36.666L79.397 36.0205L79.5514 23.2999C79.6363 16.3031 79.6042 10.5788 79.4802 10.5788C79.3563 10.5788 78.11 11.2185 76.7117 12C73.0548 14.0436 66.6437 14.883 60.7514 14.0901C55.2785 13.354 55.0105 13.2318 55.0105 11.4761C55.0105 10.25 55.2125 10.1628 57.5926 10.3625C59.0127 10.4812 61.3332 10.6757 62.7488 10.7945C67.0649 11.1554 74.2105 10.1863 76.7392 8.89597C79.0843 7.69971 80.248 5.64397 79.377 4.23542C77.8707 1.79814 66.6173 0.190498 59.7174 1.42635ZM42.2991 39.1021C43.4518 39.6655 44.3951 40.385 44.3951 40.7006C44.3951 42.7741 33.4304 44.5544 27.468 43.4482C24.9381 42.9795 24.8825 42.921 24.7115 40.5806C24.5376 38.2053 24.5491 38.1904 26.7198 37.9259C31.2436 37.3751 40.141 38.047 42.2991 39.1021ZM91.5473 38.9845C92.929 39.5617 93.4856 40.1308 93.3559 40.8331C93.1247 42.085 88.6209 44.4299 86.4479 44.4299C84.8717 44.4299 84.8482 44.3789 84.8482 40.914V37.3981L87.1996 37.7744C88.493 37.981 90.449 38.5255 91.5473 38.9845ZM44.6821 59.6727C44.6821 63.1651 44.8393 63.0876 40.8089 61.5798C38.9027 60.8667 39.1787 58.9636 41.3827 57.6198C44.2965 55.8435 44.6821 56.0833 44.6821 59.6727Z" fill="#2F2F2F" stroke="#2F2F2F" stroke-width="0.1"/>
</svg>
