<svg width="219" height="87" viewBox="0 0 219 87" fill="none" xmlns="http://www.w3.org/2000/svg">
<path fill-rule="evenodd" clip-rule="evenodd" d="M112.142 1.32675C110.733 1.50952 108.039 2.10607 106.156 2.65281C92.03 6.75336 82.4186 17.634 78.2944 34.1947C76.341 42.0377 76.0563 50.7267 77.6864 52.743C78.3575 53.5737 78.426 53.582 79.3967 52.9446C81.6547 51.4629 83.428 46.9572 83.9672 41.3344C84.3881 36.9437 85.2597 34.1908 87.6599 29.6717C92.0966 21.3177 98.677 14.9243 105.786 12.0607C115.502 8.14766 129.182 9.81651 137.784 15.9648C147.711 23.0606 153.67 36.6413 152.179 48.7711C151.757 52.201 151.658 52.4622 150.385 53.5137C149.644 54.1256 147.712 56.6122 146.093 59.0396C140.715 67.0983 137.686 70.0567 131.902 72.8975C127.61 75.0056 124.167 75.792 119.182 75.801C111.119 75.8155 104.436 73.5839 97.9734 68.7193C93.2669 65.1765 88.1431 58.3846 85.1716 51.7507C84.0729 49.2975 83.1853 48.3927 83.1853 49.7258C83.1853 50.0493 83.3505 50.3141 83.5522 50.3141C83.7538 50.3141 84.9034 52.2116 86.1063 54.5303C88.8683 59.8542 91.3194 63.1331 95.4537 67.0359C102.663 73.8419 111.951 77.0369 121.996 76.1658C131.892 75.3076 138.977 70.536 146.111 59.9232C147.851 57.3346 149.758 54.7755 150.35 54.2362L151.425 53.2557L151.147 54.4323C150.633 56.6063 147.535 62.6467 145.668 65.1145C142.386 69.4519 137.152 73.2968 131.598 75.45C121.807 79.2462 112.295 78.9728 103.35 74.6385C99.3352 72.6928 96.9957 71.0027 93.4318 67.4728C88.9752 63.0585 86.3228 58.6266 84.4543 52.4712C84.127 51.3927 83.7765 50.7436 83.6759 51.0291C83.4433 51.6872 84.8611 55.6262 86.5342 58.9713C90.7798 67.4583 99.6809 74.6875 109.308 77.4671C113.354 78.6355 122.688 78.7418 126.647 77.6644C133.638 75.7626 138.465 72.9846 143.504 67.9635C146.566 64.9113 147.568 63.599 149.041 60.7076C150.03 58.7662 151.162 56.138 151.557 54.8676C152.196 52.8152 152.508 52.4026 154.355 51.1742C155.499 50.4137 157.353 49.4787 158.475 49.0959L160.516 48.4005L160.639 49.3418C160.798 50.5686 159.002 57.3115 157.982 59.3137C156.977 61.2869 156.967 61.9564 157.971 60.1193C158.941 58.3426 160.539 53.4898 161.114 50.5745C161.549 48.3664 161.601 48.2946 162.607 48.5401C163.18 48.6801 164.001 49.1426 164.432 49.5677C165.189 50.3149 165.215 50.86 165.215 65.7377C165.215 79.9122 165.271 81.2202 165.921 82.2148C166.309 82.809 167.057 83.4919 167.584 83.7319C168.964 84.3622 170.127 83.2354 170.058 81.3359L170.007 79.9259L169.764 81.2578C169.341 83.5883 167.669 83.8982 166.356 81.8897C165.757 80.9754 165.684 79.2674 165.648 65.3628L165.607 49.8552L164.508 48.908C163.904 48.3872 163.023 47.9608 162.55 47.9604C161.71 47.96 161.69 47.8455 161.651 42.5676C161.606 36.5773 161.026 33.2942 159.15 28.421C155.868 19.8979 149.137 12.009 140.937 7.07614C135.947 4.07496 126.692 1.1981 122.475 1.33773C121.331 1.37538 121.559 1.46402 123.428 1.70719C141.237 4.02476 155.784 16.3264 159.97 32.6074C160.939 36.3754 161.482 41.9051 161.213 45.2609L161.006 47.8377L159.123 48.3209C158.087 48.5868 156.238 49.4089 155.013 50.1478C153.788 50.8863 152.747 51.4907 152.698 51.4907C152.649 51.4907 152.688 49.3289 152.784 46.6861C153.08 38.5353 150.988 31.0378 146.571 24.424C140.129 14.776 129.784 9.41214 117.642 9.42313C108.336 9.43175 101.688 12.2839 94.8147 19.2158C91.3421 22.7186 88.8354 26.1348 86.8173 30.1153C84.7151 34.2617 83.9668 36.7491 83.3944 41.4894C82.7879 46.5093 81.7369 49.5932 79.9115 51.7084L78.6085 53.2184L77.9103 52.1508C77.287 51.1981 77.2349 50.38 77.4252 44.5215C77.6441 37.7822 78.0807 35.3152 80.0803 29.527C85.0906 15.0215 95.2615 5.36768 108.607 2.45004C110.495 2.03743 113.961 1.54325 116.309 1.35263C120.197 1.03651 120.316 1.00474 117.642 1.00004C116.027 0.997292 113.552 1.14437 112.142 1.32675ZM166.745 12.533C164.977 14.4669 163.229 18.8244 162.666 22.701C162.077 26.7674 162.599 31.3735 164.441 38.3517C165.406 42.0067 165.779 44.2419 165.76 46.2453C165.731 49.1555 166.29 50.8334 167.862 52.5556C168.625 53.3925 168.644 53.7314 168.373 61.7807C168.098 69.9897 168.496 77.0824 169.345 79.0705C169.587 79.6364 169.613 79.1297 169.421 77.5726C169.055 74.604 169.037 54.7868 169.4 54.4237C169.742 54.0816 173.897 57.2652 175.507 59.1023C177.378 61.2375 177.549 62.4428 176.91 69.0205C176.313 75.1602 176.442 78.348 177.411 81.3967C178.371 84.4151 179.561 83.7087 179.448 80.1879C179.409 78.9646 179.341 78.7477 179.243 79.5337C178.785 83.2067 178.241 83.3871 177.543 80.0969C177.17 78.3347 177.123 76.2262 177.361 71.9585C177.924 61.876 177.905 61.5901 176.558 59.6718C175.906 58.7423 173.993 56.9134 172.308 55.6073L169.243 53.2329L169.229 44.6157C169.221 39.8762 169.315 33.0863 169.437 29.527C169.628 23.9533 169.607 23.5725 169.284 26.7815C169.077 28.8308 168.782 35.4493 168.628 41.4894L168.348 52.4712L167.38 51.1126C166.565 49.9678 166.373 49.1347 166.161 45.8178C166.001 43.3061 165.45 40.1782 164.64 37.1751C163.169 31.7277 162.637 24.6318 163.417 20.8729C164.578 15.2761 168.866 9.48117 169.883 12.1349C170.02 12.4922 170.051 15.0953 169.953 17.9199C169.822 21.6612 169.86 22.3633 170.091 20.5062C170.592 16.4911 170.562 12.096 170.031 11.5638C169.2 10.7315 168.094 11.0575 166.745 12.533ZM69.3534 20.7023C69.2136 22.6437 68.9254 26.3599 68.7132 28.9606C68.3326 33.6268 68.5949 36.2342 69.501 36.7954C69.7116 36.9256 70.2332 37.7183 70.6604 38.5572C71.4094 40.028 71.4282 40.6249 71.18 55.3191C70.8953 72.1664 71.0488 73.6815 72.6804 70.1207L73.5786 68.1596L73.8856 74.2389C74.0547 77.5824 74.0982 80.715 73.9831 81.2006C73.6984 82.3972 72.4071 82.3384 71.5915 81.0919C71.0351 80.2412 71.0061 79.7878 71.3867 77.8888C71.9916 74.8723 71.9525 74.3612 71.0472 73.4544C70.0926 72.4982 66.3165 72.3798 64.7824 73.2583C64.244 73.5666 63.6172 73.8251 63.3897 73.8329C63.1074 73.8423 62.9417 69.0691 62.8693 58.8446L62.7628 43.8426L64.1642 42.6013L65.5655 41.3603V37.2708C65.5655 33.4118 64.9942 27.2906 64.513 25.9971C64.0745 24.8177 63.6019 27.7797 63.5545 32.0061C63.5244 34.67 63.6692 36.413 63.9437 36.6879C64.2656 37.0103 64.3239 35.9424 64.1649 32.64C64.0142 29.5101 64.0702 28.3425 64.3498 28.7771C64.5698 29.1195 64.8721 31.9834 65.0209 35.1415L65.2918 40.883L63.7648 42.2848L62.2373 43.6861L62.3787 59.1584L62.5204 74.6311H61.6539H60.7878L60.9213 59.4322L61.0549 44.2333L59.6884 42.322L58.3218 40.4108L58.3817 33.4981C58.4162 29.538 58.3105 27.0878 58.1347 27.762C57.9655 28.4092 57.8062 31.3712 57.7807 34.3441C57.7314 40.1194 57.9154 40.9167 59.9268 43.6465C60.865 44.9188 60.9225 45.2342 60.717 47.9608C60.5952 49.5787 60.4503 56.2502 60.3955 62.7859C60.3101 72.9269 60.3802 74.7228 60.8747 75.0335C61.1935 75.2339 61.7369 75.3096 62.0819 75.2021C62.6164 75.0362 62.7217 75.4571 62.7898 78.0237C62.8333 79.6831 62.8803 81.1429 62.8932 81.2676C63.0044 82.3156 62.7186 82.8675 62.0647 82.8675C61.0008 82.8675 60.7612 82.3086 60.6935 79.6702C60.6242 76.9765 60.1202 76.3011 57.7897 75.7763C55.5074 75.2629 53.0774 75.9018 49.1204 78.0562C41.2502 82.3411 40.3974 82.5972 37.5889 81.523C35.1323 80.5832 33.1444 78.4767 30.2954 73.7953C24.8787 64.8929 19.0803 61.2916 10.1768 61.2991C6.16223 61.3022 1.7381 61.9172 1.15547 62.553C0.880998 62.8522 0.966356 62.9091 1.44013 62.7424C3.17118 62.1329 9.29424 61.6117 12.1463 61.8309C19.8559 62.4239 24.5929 65.6401 29.555 73.6505C34.4423 81.5402 37.8406 83.6593 42.7969 81.9077C43.6802 81.5955 45.8611 80.4817 47.6427 79.4325C51.9595 76.8906 53.8151 76.1999 56.3285 76.1999C59.2733 76.1999 60.2847 77.0635 60.1794 79.4874C60.0721 81.9567 60.6175 83.2597 61.7577 83.2597C63.3834 83.2597 63.5854 82.6494 63.3333 78.5018L63.0988 74.6452L64.8216 73.8623C68.3561 72.2562 71.8409 73.2736 71.2794 75.7481C71.1498 76.3203 70.9388 77.6707 70.8111 78.7493C70.5946 80.5758 70.6627 80.7903 71.8061 81.876C72.7971 82.8169 73.1628 82.9588 73.7043 82.6121C74.3088 82.2254 74.3625 81.4073 74.2446 74.3867L74.1139 66.5908L75.5023 63.3045C77.0145 59.7248 77.8516 58.5505 78.8912 58.5505C79.899 58.5505 80.3368 59.2792 81.5921 63.0452C82.2201 64.9302 83.3623 67.4195 84.1297 68.5773C89.3569 76.4639 101.579 83.3056 113.225 84.8642C116.986 85.3674 123.526 85.1493 127.146 84.3998C130.712 83.6617 129.524 83.5923 125.049 84.2771C113.727 86.0094 101.312 82.7192 91.319 75.3386C86.4215 71.7217 83.7033 67.9866 81.8125 62.2765C80.5365 58.423 79.7181 57.4354 78.3261 58.0708C77.3246 58.5281 76.5783 59.6781 75.1319 62.9923L74.3061 64.8847L74.0481 56.3247C73.9059 51.6166 73.7896 45.759 73.7889 43.3069L73.7881 38.8494L75.4099 37.3645L77.0317 35.8792L76.8073 29.2713C76.5892 22.8543 76.0097 18.5451 75.3652 18.5451C74.9576 18.5451 74.6722 26.7898 74.9991 29.1179C75.1624 30.2792 75.2721 29.1238 75.3139 25.801C75.404 18.6475 75.9808 20.425 76.2795 28.7775L76.5266 35.6757L74.8985 37.1398L73.2708 38.6035L73.5304 52.5222C73.7857 66.2064 73.7759 66.4747 72.9419 68.4769C72.4756 69.5967 71.9267 70.6894 71.7223 70.9051C71.4877 71.1526 71.4482 65.4377 71.615 55.4128L71.8793 39.5283L70.4497 37.3712L69.0198 35.214L69.2954 29.9192C69.447 27.007 69.6917 23.6537 69.8397 22.4672C70.0723 20.5976 70.151 21.0282 70.4294 25.7029C70.6056 28.6692 70.8839 31.0958 71.0472 31.0958C71.2109 31.0958 71.4838 28.8457 71.6545 26.0952L71.9642 21.0945L72.6361 25.6684C73.4177 30.9864 73.7102 31.9854 73.7665 29.527C73.7889 28.5563 73.9901 26.9678 74.2133 25.9971C74.6565 24.0698 74.3073 18.5451 73.7423 18.5451C73.552 18.5451 73.3758 20.1775 73.3507 22.1731L73.3049 25.801L72.7047 21.977C72.3742 19.8739 71.9545 18.1529 71.7716 18.1529C71.5883 18.1529 71.4388 19.7414 71.4388 21.6828C71.4388 23.7745 71.2794 25.2127 71.0472 25.2127C70.8311 25.2127 70.6424 24.1141 70.6255 22.7614C70.6091 21.4134 70.3734 19.6041 70.102 18.7412L69.6083 17.1724L69.3534 20.7023ZM175.677 25.8649C172.56 27.404 170.57 32.8706 171.656 36.9092C171.956 38.0238 172.842 39.3989 174.243 40.9258C175.718 42.5323 176.38 43.581 176.393 44.3294C176.404 44.9247 176.396 47.9267 176.375 51.0012C176.335 57.0981 176.73 58.707 178.561 59.9091L179.507 60.5296L179.597 69.4433L179.687 78.3571L179.8 69.6304C179.862 64.8305 180.003 60.9037 180.113 60.9037C180.774 60.9037 184.948 63.3456 185.739 64.1952C187.111 65.6695 187.251 68.5161 186.165 72.8595C184.884 77.9786 185.466 80.1341 188.554 81.7124C190.801 82.8608 193.841 83.2655 197.818 82.9459L201.238 82.6714L195.952 82.4596C190.268 82.2317 188.124 81.5743 186.776 79.6478C186.001 78.5383 185.989 75.5108 186.75 72.67C187.068 71.4836 187.331 69.4359 187.333 68.1196C187.34 64.7984 186.392 63.4609 182.775 61.6882L179.975 60.3154L179.695 54.7508C179.269 46.3045 179.691 44.6043 183.372 39.9343C185.416 37.341 185.782 35.4258 184.846 32.2019C183.738 28.3837 180.557 25.1958 177.881 25.2217C177.375 25.2264 176.383 25.5159 175.677 25.8649ZM58.5176 25.9646C58.5176 26.1622 58.684 26.3826 58.8876 26.4548C59.0912 26.5266 59.4703 28.9242 59.7299 31.7822C60.222 37.2041 60.8653 38.7537 60.8693 34.5277C60.8704 33.1796 60.9848 30.6201 61.123 28.8406C61.3035 26.5203 61.2475 25.6049 60.9249 25.6049C60.6269 25.6049 60.4581 26.6964 60.4241 28.8406L60.3724 32.0763L60.0615 29.3956C59.8904 27.9213 59.6547 26.465 59.538 26.1599C59.3027 25.5465 58.5176 25.3958 58.5176 25.9646ZM61.93 30.4973C61.8008 33.2294 61.8364 35.847 62.0091 36.3138C62.2052 36.8456 62.3979 35.1858 62.524 31.874C62.6348 28.9653 62.5991 26.3477 62.4449 26.0575C62.2906 25.7673 62.0588 27.7652 61.93 30.4973ZM180.85 26.9306C182.315 28.0495 184.224 31.4261 184.637 33.6252C185.095 36.0694 184.369 38.1925 182.194 40.7661C179.394 44.0795 178.987 45.8052 179.182 53.5169C179.283 57.4637 179.201 59.6902 178.958 59.6094C178.747 59.5388 178.212 58.9945 177.769 58.3991C177.027 57.4044 176.959 56.7444 176.929 50.3094C176.896 43.3135 176.894 43.3006 175.832 41.9059C175.247 41.1376 174.604 40.5089 174.402 40.5089C174.201 40.5089 173.559 39.7864 172.975 38.9031C170.881 35.7325 171.942 29.3513 174.96 26.9678C176.618 25.6586 179.164 25.6425 180.85 26.9306ZM62.8556 29.7556C62.8744 30.2126 62.9672 30.3055 63.0921 29.9929C63.2053 29.7098 63.1912 29.3713 63.0612 29.2411C62.9312 29.1109 62.8388 29.3423 62.8556 29.7556ZM61.3493 31.0958C61.3493 31.8508 61.43 32.1599 61.5282 31.7822C61.6269 31.4045 61.6269 30.7872 61.5282 30.4095C61.43 30.0318 61.3493 30.3408 61.3493 31.0958ZM155.12 64.7278C151.504 70.5674 145.715 75.9559 139.072 79.6662C135.248 81.8014 134.675 82.3952 138.113 80.6597C145.258 77.0526 152.406 70.3885 155.999 63.9834C157.292 61.678 156.695 62.1839 155.12 64.7278ZM213.344 71.1581C211.724 71.9452 211.027 73.7894 211.027 77.2832C211.027 79.8216 210.899 80.5628 210.439 80.7048C208.929 81.1712 204.004 82.083 202.997 82.083C202.378 82.083 201.769 82.2489 201.644 82.4521C201.509 82.6702 202.02 82.7396 202.893 82.6219C205.089 82.3262 210.349 81.3088 211.025 81.0492C211.357 80.9209 211.614 81.0378 211.614 81.3178C211.614 82.2933 213.706 84.5351 215.288 85.2548C217.325 86.1812 222.832 86.2459 230.847 85.4372C239.204 84.594 246.999 84.0194 254.684 83.6797C261.324 83.3867 261.391 83.3758 256.838 83.3216C251.971 83.2644 240.55 83.986 230.017 85.0168C222.83 85.72 218.652 85.769 216.517 85.1756C214.904 84.7269 212.005 82.1987 212.005 81.2406C212.005 80.9386 212.915 80.3824 214.061 79.9851C217.019 78.9587 220.011 76.8874 220.603 75.4559C221.032 74.4173 221.01 74.0996 220.449 73.2419C219.03 71.0729 215.594 70.065 213.344 71.1581ZM217.364 71.5197C220.324 72.643 221.085 75.0154 219.039 76.7404C217.711 77.8593 213.193 80.122 212.287 80.122C211.126 80.122 211.011 76.1764 212.089 73.3407C212.81 71.4444 215.091 70.6568 217.364 71.5197ZM133.5 82.2929C132.52 82.7655 132.488 82.8196 133.304 82.62C134.413 82.3486 135.66 81.7116 135.066 81.7206C134.85 81.7238 134.146 81.9811 133.5 82.2929ZM130.367 83.2597C129.873 83.4722 129.801 83.5966 130.171 83.5966C130.494 83.5966 131.111 83.4452 131.542 83.2597C132.036 83.0471 132.108 82.9228 131.738 82.9228C131.415 82.9228 130.798 83.0742 130.367 83.2597Z" fill="#2F2F2F" stroke="#2F2F2F" stroke-width="0.2"/>
</svg>
