<svg width="16" height="16" viewBox="0 0 16 16" fill="none" xmlns="http://www.w3.org/2000/svg">
<path fill-rule="evenodd" clip-rule="evenodd" d="M2.56533 12.6667H2C1.46933 12.6667 0.960667 12.456 0.586 12.0807C0.210667 11.706 0 11.1973 0 10.6667V8.66667C0 3.88333 3.58467 0 8 0C12.4153 0 16 3.88333 16 8.66667V10.6667C16 11.1973 15.7893 11.706 15.414 12.0807C15.0393 12.456 14.5307 12.6667 14 12.6667H13.4347C11.6413 15.7553 8.832 16 8 16C7.168 16 4.35867 15.7553 2.56533 12.6667ZM13.3333 8.74933C12.9327 8.90667 12.4873 8.62933 12.4873 8.218C12.4873 8.01533 12.4727 7.81133 12.452 7.608C11.278 7.43867 10.04 6.324 9.986 5.126C9.10933 6.46267 6.96933 7.906 5.29 7.906C6.014 7.44 6.516 6.05733 6.55867 5.56733C6.17133 6.29533 4.62667 7.658 3.52467 7.892L3.51267 8.218C3.51267 8.63067 3.06667 8.906 2.66667 8.74933V11.2633C2.858 11.434 3.088 11.5727 3.36067 11.6593C3.51067 11.7073 3.63533 11.8087 3.708 11.942C5.17867 14.6393 7.32533 14.6667 8 14.6667C8.61933 14.6667 10.4793 14.6433 11.918 12.554C11.204 12.8427 10.408 12.9567 9.412 12.9893C9.16533 13.3893 8.62533 13.6667 8 13.6667C7.14133 13.6667 6.44467 13.144 6.44467 12.5C6.44467 11.856 7.14133 11.3333 8 11.3333C8.622 11.3333 9.15867 11.6073 9.408 12.0033C10.6747 11.986 12.2987 11.7807 13.3333 10.24V8.74933ZM6 8.33333C6.45733 8.33333 6.82867 8.78133 6.82867 9.33333C6.82867 9.88533 6.45733 10.3333 6 10.3333C5.54267 10.3333 5.17133 9.88533 5.17133 9.33333C5.17133 8.78133 5.54267 8.33333 6 8.33333ZM10 8.33333C10.4573 8.33333 10.8287 8.78133 10.8287 9.33333C10.8287 9.88533 10.4573 10.3333 10 10.3333C9.54267 10.3333 9.17133 9.88533 9.17133 9.33333C9.17133 8.78133 9.54267 8.33333 10 8.33333ZM13.652 7.33333H14.5567C13.986 3.92133 11.2653 1.33333 8 1.33333C4.73467 1.33333 2.014 3.92133 1.44333 7.33333H2.348C2.69467 4.65133 4.622 2.18533 8 2.18533C11.378 2.18533 13.3053 4.65133 13.652 7.33333Z" fill="#3C4046"/>
</svg>
