<svg width="16" height="16" viewBox="0 0 16 16" fill="none" xmlns="http://www.w3.org/2000/svg">
<path d="M16 8C16 12.418 12.418 16 8 16C3.582 16 0 12.418 0 8H1.33333C1.33333 11.676 4.324 14.6667 8 14.6667C11.676 14.6667 14.6667 11.676 14.6667 8C14.6667 4.324 11.676 1.33333 8 1.33333C6.14867 1.33333 4.47533 2.094 3.26733 3.318L4.64133 4.692L0 5.59467L0.87 0.919333L2.32267 2.37267C3.77067 0.908667 5.77733 0 8 0C12.418 0 16 3.582 16 8ZM7.33333 4V9.33333H12V8H8.66667V4H7.33333Z" fill="#3C4046"/>
</svg>
