<svg width="18" height="17" viewBox="0 0 18 17" fill="none" xmlns="http://www.w3.org/2000/svg">
<path fill-rule="evenodd" clip-rule="evenodd" d="M9.2839 1.42855C9.136 0.969511 9.4709 0.5 9.935 0.5C10.2206 0.5 10.4892 0.686757 10.5844 0.983473L14.6151 11.3738C14.7358 11.7438 14.5403 12.1418 14.1799 12.2639C13.8212 12.3879 13.4336 12.1871 13.3146 11.8189C13.3146 11.8189 10.7714 10.9427 7.7522 11.9725L9.7361 15.1369C9.9418 15.4493 9.7973 15.8752 9.4556 15.9903L8.1058 16.4529L7.8219 16.5C7.5686 16.5 7.3221 16.39 7.1487 16.1893L4.4219 13.1C2.9378 13.58 1.2565 13.0249 0.6955 11.5902C0.5663 11.2603 0.5 10.9078 0.5 10.5552C0.5 9.5324 1.0576 8.48866 2.2663 7.87951C8.3166 4.83032 9.2839 1.42855 9.2839 1.42855ZM13.5815 2.0918C14.6559 2.55782 15.5569 3.44797 16.0312 4.6488C16.5055 5.84963 16.4613 7.13772 16.0074 8.24256L17.0512 8.6981C17.3453 7.98075 17.5 7.20405 17.5 6.41339C17.5 4.10947 16.174 1.95217 14.0218 1.01838L13.5815 2.0918ZM12.8267 3.92795C13.4472 4.19499 13.9657 4.70639 14.2377 5.39931C14.5131 6.09049 14.4859 6.83053 14.2275 7.46586L15.2424 7.91093C15.6147 7.00333 15.6521 5.9526 15.2628 4.96995C14.8752 3.98729 14.1374 3.25946 13.2568 2.87897L12.8267 3.92795Z" fill="#A4A9B0"/>
</svg>
