<svg width="16" height="16" viewBox="0 0 16 16" fill="none" xmlns="http://www.w3.org/2000/svg">
<path d="M7.33333 5.33333H6.66667V4H7.33333V4.66667H8.66667V5.33333H8V6H7.33333V5.33333ZM8.66667 13.3333V12.6667H8V13.3333H8.66667ZM8 3.33333V2.66667H6.66667V3.33333H7.33333V4H8V3.33333ZM13.3333 2.66667V6.66667H12.6667V6H10V2.66667H13.3333ZM12.6667 5.33333V3.33333H10.6667V5.33333H12.6667ZM3.33333 6.66667H2.66667V7.33333H4V6.66667H3.33333ZM3.33333 8.66667H4V9.33333H4.66667V7.33333H4V8H2.66667V9.33333H3.33333V8.66667ZM6.66667 9.33333V10.6667H7.33333V9.33333H6.66667ZM9.33333 2.66667H8.66667V4.66667H9.33333V2.66667ZM9.33333 6V5.33333H8.66667V6H9.33333ZM11.3333 4.66667H12V4H11.3333V4.66667ZM4.66667 4H4V4.66667H4.66667V4ZM6 2.66667V6H2.66667V2.66667H6ZM5.33333 3.33333H3.33333V5.33333H5.33333V3.33333ZM11.3333 6.66667V7.33333H10.6667V6.66667H9.33333V7.33333H8.66667V6.66667H6.66667V6H6V6.66667H5.33333V7.33333H6V8.66667H6.66667V8H7.33333V9.33333H8V8H10V8.66667H8.66667V9.33333H10V10H10.6667V8H11.3333V8.66667H12V10H12.6667V9.33333H13.3333V8.66667H12.6667V8H12V7.33333H12.6667V6.66667H11.3333ZM4 12H4.66667V11.3333H4V12ZM2.66667 10H6V13.3333H2.66667V10ZM3.33333 12.6667H5.33333V10.6667H3.33333V12.6667ZM11.3333 10.6667V10H10.6667V10.6667H11.3333ZM11.3333 11.3333H10.6667V12H10V11.3333H9.33333V10.6667H10V10H8.66667V9.33333H8V10.6667H7.33333V11.3333H6.66667V13.3333H7.33333V12.6667H8V12H9.33333V13.3333H10V12.6667H10.6667V13.3333H12V12.6667H12.6667V12H11.3333V11.3333ZM5.33333 9.33333H6V8.66667H5.33333V9.33333ZM12 10.6667V11.3333H12.6667V12H13.3333V10H12.6667V10.6667H12ZM13.3333 13.3333V12.6667H12.6667V13.3333H13.3333ZM13.3333 8V7.33333H12.6667V8H13.3333ZM12 1.33333H14.6667V4H16V0H12V1.33333ZM1.33333 4V1.33333H4V0H0V4H1.33333ZM4 14.6667H1.33333V12H0V16H4V14.6667ZM14.6667 12V14.6667H12V16H16V12H14.6667Z" fill="#A4A9B0"/>
</svg>
