<svg width="16" height="16" viewBox="0 0 16 16" fill="none" xmlns="http://www.w3.org/2000/svg">
<path d="M16 9.07733V6.92267L14.0873 6.24267C13.9553 5.78467 13.7727 5.348 13.5467 4.93933L14.4187 3.10533L12.8953 1.582L11.0613 2.45333C10.6527 2.22733 10.2153 2.04467 9.758 1.91267L9.07733 0H6.92267L6.242 1.91267C5.78467 2.04467 5.34733 2.22667 4.93867 2.45333L3.10467 1.58133L1.58133 3.10467L2.45333 4.93933C2.22733 5.348 2.044 5.78467 1.91267 6.24267L0 6.92267V9.07733L1.91267 9.75733C2.044 10.2153 2.22733 10.652 2.45333 11.0607L1.58133 12.8947L3.10467 14.4187L4.93867 13.5467C5.34733 13.7727 5.78467 13.9553 6.242 14.0873L6.92267 16H9.07733L9.758 14.0873C10.216 13.9553 10.6527 13.7727 11.0613 13.5467L12.8953 14.4187L14.4187 12.8947L13.5467 11.0607C13.7727 10.652 13.9553 10.2153 14.0873 9.75733L16 9.07733ZM8 10.6667C6.52733 10.6667 5.33333 9.47267 5.33333 8C5.33333 6.52733 6.52733 5.33333 8 5.33333C9.47267 5.33333 10.6667 6.52733 10.6667 8C10.6667 9.47267 9.47267 10.6667 8 10.6667Z" fill="#A4A9B0"/>
</svg>
