<svg width="18" height="16" viewBox="0 0 18 16" fill="none" xmlns="http://www.w3.org/2000/svg">
<path d="M12.1875 8C12.1875 8.576 11.7908 9.04348 11.3021 9.04348C10.8133 9.04348 10.4167 8.576 10.4167 8C10.4167 7.424 10.8133 6.95652 11.3021 6.95652C11.7908 6.95652 12.1875 7.424 12.1875 8ZM6.69792 6.95652C6.20917 6.95652 5.8125 7.424 5.8125 8C5.8125 8.576 6.20917 9.04348 6.69792 9.04348C7.18667 9.04348 7.58333 8.576 7.58333 8C7.58333 7.424 7.18667 6.95652 6.69792 6.95652ZM9 12.768C10.5831 12.768 11.125 11.1304 11.125 11.1304H6.875C6.875 11.1304 7.47496 12.768 9 12.768ZM17.5 8.73113C17.5 10.0703 16.8653 12.0271 15.1505 12.3402C13.7628 14.7694 11.6959 16 9 16C6.30479 16 4.23717 14.7694 2.84954 12.3409C1.13537 12.0271 0.5 10.071 0.5 8.73113C0.5 7.24313 1.0695 5.88383 2.51379 5.79339C2.83467 2.24626 5.30888 0 9 0C12.6911 0 15.1653 2.24626 15.4862 5.79409C16.9284 5.88383 17.5 7.23617 17.5 8.73113ZM16.0833 8.73113C16.0833 7.97704 15.9211 7.44 15.6364 7.25843C15.4437 7.1353 15.2008 7.18609 15.1009 7.22991C14.6348 7.43374 14.105 7.09774 14.105 6.59409C14.105 6.06887 14.0341 5.03165 13.5787 4.02017C12.7577 2.52035 11.6754 4.93009 9 4.93009C6.32463 4.93009 5.24229 2.52035 4.42133 4.02087C3.96587 5.03165 3.89504 6.06887 3.89504 6.59478C3.89504 7.09496 3.36804 7.43583 2.89913 7.23061C2.79783 7.18678 2.557 7.136 2.36362 7.25913C1.58304 7.75791 1.79837 10.9642 3.30996 10.9927C3.57062 10.9976 3.80792 11.143 3.92692 11.3704C5.61983 14.6087 8.16417 14.6087 9 14.6087C9.83654 14.6087 12.3795 14.6087 14.0731 11.3704C14.1921 11.1423 14.4294 10.9976 14.6893 10.9927C16.0019 10.9677 16.0833 8.75339 16.0833 8.73113Z" fill="#A4A9B0"/>
</svg>
