<svg width="80" height="80" viewBox="0 0 80 80" fill="none" xmlns="http://www.w3.org/2000/svg">
<g clip-path="url(#clip0_10909_12687)">
<rect width="80" height="80" rx="40" fill="white"/>
<path d="M80.0123 42.5924C79.9428 41.8981 79.8035 41.1111 79.595 40.2549C79.5509 40.0667 79.4391 39.9014 79.2809 39.7904C79.1226 39.6794 78.9291 39.6305 78.7372 39.653C77.6742 37.2545 76.6308 34.8475 75.607 32.4321C75.6533 32.386 75.7228 32.3165 75.7462 32.2701C75.8621 32.085 75.9084 31.8304 75.8389 31.6221C75.5838 30.7427 75.3519 29.9094 75.1434 29.0763C75.0505 28.729 74.7491 28.4976 74.4014 28.4744C73.3347 28.4281 71.8045 28.4052 69.741 28.4052C69.6252 28.4052 69.5091 28.4281 69.3932 28.4976C69.3006 28.5439 69.1845 28.6134 69.115 28.6595C69.0223 28.7059 68.7441 28.9142 68.6978 28.9373C68.5817 28.6134 68.2803 28.382 67.9325 28.382C67.1441 28.4052 66.0778 28.4281 64.8953 28.4976C64.5028 28.1992 64.1007 27.9136 63.6896 27.6414C60.8841 25.7667 57.7773 24.378 54.5545 23.4986C52.6068 22.9662 50.6128 22.6421 48.5958 22.5034C47.9464 22.457 47.3204 22.4339 46.6713 22.4339C44.1673 22.4339 41.7327 22.758 39.3909 23.3596C39.3677 23.3596 39.3446 23.3828 39.2982 23.3828C38.7186 22.2024 37.9302 20.7675 37.1189 19.402C38.8113 18.0134 40.2025 16.1155 40.7589 14.0326C41.2459 12.1579 40.8284 10.2832 39.5765 9.35745C39.3677 8.70947 39.0432 8.10759 38.5796 7.62155C37.3274 6.30241 35.6118 6.14048 33.9887 6.62652C33.9655 6.46435 33.9424 6.30241 33.8729 6.14048C33.2469 4.63601 31.7164 4.28897 30.2094 4.77501C29.6298 4.91378 29.0501 4.84428 28.4705 4.54357C28.3315 4.47407 28.169 4.42774 28.03 4.3814C27.636 4.1963 27.2417 4.14996 26.8707 4.24263C25.8273 4.35823 24.9928 5.19155 24.5058 6.76529C23.7872 9.10285 20.031 9.58889 18.0138 10.4683C15.3938 11.4404 15.0229 13.4538 15.3475 14.7964C15.417 15.1203 15.533 15.4212 15.6952 15.699C14.0492 15.5139 12.658 16.185 11.4755 17.6893C9.87555 19.7029 9.96845 22.1329 11.3594 24.4936C14.7215 29.7243 18.9412 30.5113 24.042 28.4052C24.1349 28.4744 24.2044 28.5439 24.2971 28.6134C24.5521 28.9142 24.8072 29.1919 24.9928 29.4465C25.3174 29.8631 25.8507 30.5342 26.2216 31.0434C25.5027 31.8073 24.8304 32.6174 24.2276 33.4737C24.2044 33.52 24.1812 33.5432 24.1581 33.5893C21.0579 34.0979 17.9795 34.731 14.9302 35.4871H14.9068C10.4552 34.1216 7.16287 40.093 3.70837 40.0234C2.01576 40.0234 -1.29974 36.8526 0.508712 40.8104C1.71435 43.4719 3.68497 46.2723 6.88463 46.2723C9.73655 46.2723 12.5419 43.2636 13.5854 44.3745C13.5854 44.5135 13.5854 44.6522 13.6085 44.7912C13.6317 45.1383 13.7941 45.4392 14.0492 45.6243C14.1187 47.1981 12.0551 48.2165 9.62071 47.846C7.04703 47.4527 6.16598 49.281 5.42392 50.6696C5.09934 51.2947 5.70216 51.9658 6.35131 51.7112C7.88176 51.0864 9.52781 50.6928 11.1741 51.1325C12.8667 51.5954 13.7012 53.123 15.4633 53.3545C15.4865 53.7478 15.5096 54.1183 15.533 54.4885C14.2577 54.5812 14.8142 55.7847 13.2839 55.7615C12.8201 55.7615 11.5218 55.2755 11.1046 55.2291C10.3857 55.1828 10.3625 55.7152 10.919 56.3632C12.1246 57.775 13.5622 57.5435 14.9766 58.2842C13.2144 59.3487 10.7334 58.8166 8.80915 59.6728C7.0007 60.4827 5.79507 61.9872 5.40075 63.8619C5.26175 64.5099 6.00357 65.0191 6.56005 64.6489C7.16287 64.2321 7.76569 63.4222 8.60041 63.2832C10.6639 62.9361 12.1246 64.4174 14.0492 64.7181C14.1882 64.7413 14.304 64.7413 14.4201 64.7413C14.4432 65.1578 14.4664 65.5515 14.4896 65.968C14.5128 66.2689 14.652 66.5467 14.9068 66.7318C15.0924 66.8706 15.3243 66.9633 15.5562 66.9633C15.6257 66.9633 15.6952 66.9633 15.7416 66.9401C18.663 66.4077 21.3525 65.7829 23.8335 65.0654C23.8567 65.0654 23.903 65.0422 23.9262 65.0422C23.9725 65.0191 24.042 65.0191 24.0886 64.9959C24.1117 64.9959 24.1117 64.9727 24.1349 64.9727C25.016 64.7413 25.2476 64.2321 25.2476 63.9082C27.2417 66.5696 29.8848 68.8843 32.7367 70.7819C37.5825 73.9991 42.8688 75.6655 48.619 75.8043H49.4071C58.4728 75.8043 66.7037 72.1012 71.6887 65.1578C75.6765 59.6033 77.3459 52.8453 76.1171 46.0177C76.0708 45.717 76.0011 45.3929 75.9316 45.0919C76.5344 44.9763 77.2069 44.8605 77.9256 44.7217L78.1112 44.6986C78.1575 44.6986 78.2038 44.6754 78.2502 44.6522L79.8499 43.1248C79.966 43.0322 80.0355 42.8239 80.0123 42.5924Z" fill="#0D0802"/>
<path fill-rule="evenodd" clip-rule="evenodd" d="M58.2313 30.0283C50.4419 26.2078 41.0669 27.419 35.2131 32.9169C31.4118 36.5509 29.4528 41.7458 30.2691 47.2668C30.9688 52.0192 34.0004 56.2122 37.4521 59.1474C37.8951 59.4736 38.3383 59.7996 38.8047 60.1027C47.8533 65.9032 60.0037 64.156 65.9502 56.189C68.189 53.1838 69.2383 49.7361 69.1683 46.265C69.1917 46.265 69.1917 46.265 69.2152 46.2419C69.0052 39.2999 64.5974 33.1732 58.2308 30.0283H58.2313Z" fill="url(#paint0_radial_10909_12687)"/>
<path d="M40.25 49.5051C40.25 49.7848 40.2966 50.1807 40.3431 50.6932C40.3431 50.7398 40.3665 50.7866 40.3665 50.8331C40.4131 50.8331 40.4597 50.8797 40.5065 50.8797C40.5764 50.8097 40.5996 50.7398 40.693 50.6932C40.693 50.67 40.7164 50.5769 40.7164 50.4604V50.2973C40.6696 49.6451 40.5996 49.0392 40.553 48.4336C40.2966 48.9229 40.2732 49.1092 40.25 49.5051ZM57.0404 43.8209C57.2038 43.7744 57.4137 43.7044 57.6702 43.6344V43.6113C57.3903 42.0038 57.2272 41.1651 56.9939 39.9771C57.0173 41.2351 57.0173 42.5163 57.0404 43.8209Z" fill="#F3CB0E"/>
<path d="M39.6901 31.9868C39.76 31.9634 39.8066 31.9634 39.8766 31.9634C40.3664 31.9403 40.8328 31.9168 41.2757 31.8934C43.5379 30.6356 47.6659 30.2163 48.7852 30.1463C50.2312 30.0766 50.8375 30.4026 51.0474 30.9618C51.164 30.9618 51.2573 30.985 51.3739 31.055C51.4906 30.9384 51.6537 30.8453 51.8171 30.8219C51.9802 30.7987 52.1669 30.7753 52.33 30.7288C52.3069 30.4959 52.2601 30.2628 52.1435 30.0532C51.3039 28.6088 49.0885 28.6788 47.6659 28.8185C46.08 28.9582 40.273 30.03 38.6639 32.2431C38.7339 32.2896 38.8039 32.3594 38.8504 32.4527C38.8738 32.4527 38.9204 32.4293 38.9438 32.4293C38.967 32.4062 38.9904 32.3828 39.0369 32.3828C39.2237 32.1731 39.4334 32.0566 39.6901 31.9868ZM57.7161 57.2836C58.2993 57.6564 59.0221 57.5864 59.302 57.1205C59.6053 56.6546 59.372 55.9792 58.789 55.6064C58.2059 55.2337 57.483 55.3036 57.2031 55.7696C56.9233 56.2355 57.1332 56.9108 57.7161 57.2836ZM33.1588 49.2008C33.0191 48.1061 32.9023 46.9878 32.7624 45.8462V45.7765C32.7158 45.2406 32.6458 44.705 32.5992 44.1691C32.5992 44.1225 32.5992 44.0759 32.5758 44.006C32.5059 43.4235 32.4593 42.8413 32.4125 42.2357C31.713 45.0078 31.3398 48.3855 33.1588 49.2008ZM54.0093 29.9369C53.6826 30.0768 53.473 30.2865 53.2862 30.5427C54.27 30.3621 55.2497 30.1601 56.2247 29.9369C55.4319 29.704 54.6622 29.6575 54.0093 29.9369ZM43.8859 56.7267C43.816 57.1694 43.9093 57.5654 44.1658 57.8448C44.7487 58.4272 45.9148 58.171 46.801 57.2857C47.6641 56.4239 47.9205 55.2592 47.3608 54.6767C47.0809 54.863 46.801 55.0261 46.1947 55.3755C45.5884 55.7483 44.7487 56.2376 43.8859 56.7267Z" fill="#EC6D1D"/>
<path d="M48.7386 53.8596C48.7152 53.8596 48.7152 53.8596 48.692 53.8828C48.2488 56.259 47.456 59.6135 46.3833 60.0329C45.2172 60.4754 43.1415 59.6135 41.2291 58.0761C40.9961 58.3555 40.6928 58.5886 40.3663 58.7051C40.0631 58.868 39.76 59.0311 39.4102 59.1942C41.439 60.592 43.5379 61.7566 45.0538 61.8266C46.8962 61.9197 47.4792 61.4538 47.9458 60.3357C48.3188 59.4504 48.9251 56.1658 49.4849 53.5103C49.2256 53.6028 48.9757 53.7198 48.7386 53.8596ZM52.0733 58.1234C52.7496 58.8455 54.0322 58.7755 54.9418 57.9371C55.6881 57.2615 55.9914 56.3062 55.7115 55.5841C55.6647 55.654 55.5947 55.7472 55.5482 55.8172C55.2451 56.2831 54.8253 56.4462 54.3589 56.3296C53.6592 56.1665 53.0061 55.7938 52.5397 55.2813C51.6069 56.12 51.397 57.4012 52.0733 58.1234Z" fill="#EC6D1D"/>
<path d="M57.8575 51.5311C57.7644 51.7174 57.671 51.9271 57.5776 52.1136C59.2801 53.9772 60.8894 56.4466 60.7494 57.0987C60.6095 57.7278 58.6506 59.2187 57.0413 59.8009C55.4322 60.4068 51.0243 61.8043 50.1849 60.5465C49.7417 59.8709 50.4648 55.5147 50.8846 52.7192C50.6747 52.8123 50.4648 52.9289 50.2081 53.0686C49.6717 55.4681 48.9489 58.7993 48.7389 59.8475C48.5056 60.9192 48.3891 61.7345 48.9255 62.317C49.1822 62.5964 49.6486 62.7361 50.348 62.7361C50.7678 62.7361 51.1877 62.6896 51.5609 62.643C51.724 62.6198 51.8874 62.5964 52.0273 62.5964C53.4265 62.4799 54.6391 62.2702 55.782 61.9442C57.228 61.5249 59.8632 60.5231 61.4257 58.5662C62.172 57.6344 61.6822 56.4697 61.1458 55.5613C60.7029 54.8157 59.0236 52.8357 57.8575 51.5311ZM68.0488 49.2939L67.7689 49.7133C67.6289 49.9464 67.4656 50.1792 67.3257 50.4123L67.3025 50.4355C67.2557 50.5286 67.1857 50.5986 67.1391 50.6917C67.0458 50.8548 66.7893 51.2508 66.4863 51.5538C66.3914 51.6713 66.272 51.7667 66.1364 51.8332C65.9731 51.9264 65.81 51.9729 65.6466 51.9498C65.2268 53.3241 63.6409 55.5837 63.2213 55.6537C62.7781 55.7237 60.5159 52.5788 58.4404 50.2258C58.347 50.4589 58.2305 50.6917 58.1371 50.9248C59.6065 52.6951 61.2621 54.7918 61.5888 55.2578C61.9153 55.7003 62.3117 56.6787 62.9414 56.8184C63.6877 57.0049 64.224 56.5856 64.6205 56.0962C65.2036 55.3509 65.7166 54.5588 66.183 53.7435C66.976 52.3923 67.6523 50.8782 68.0488 49.2939Z" fill="#EC6D1D"/>
<path d="M61.2616 51.8333C62.0779 51.9033 62.8241 50.9481 62.9175 49.6902C62.9641 49.0846 62.8475 48.5253 62.6142 48.1062C62.5211 48.1294 62.4511 48.1528 62.3812 48.1759C61.8214 48.3624 60.9352 48.5953 60.0724 48.8981C60.0256 49.0846 59.979 49.2709 59.979 49.4806C59.8625 50.7152 60.4454 51.7634 61.2616 51.8333ZM33.3696 50.902C32.9266 51.7173 33.1132 52.6957 33.5096 53.5809C33.5564 53.5344 33.6263 53.5112 33.6963 53.4644V53.4412C33.6963 53.3713 33.6963 53.3015 33.6729 53.1616C33.5795 52.4163 33.4864 51.6707 33.3696 50.902Z" fill="#EC6D1D"/>
<path d="M75.5141 45.7077C75.4909 45.5912 75.4675 45.4515 75.4441 45.3349C74.7447 45.4749 74.1383 45.5912 73.6017 45.7077L73.3918 45.7543H73.3219C73.2287 45.7543 73.1588 45.7311 73.0888 45.6845C72.9954 45.6146 72.9488 45.5214 72.9254 45.4049L72.9023 45.1952V45.1252L72.0626 45.9174L72.0161 45.9639L71.9927 45.9873C71.9461 46.0339 71.8993 46.0805 71.8293 46.0805L71.6662 46.1037C71.1299 46.2202 70.4767 46.3599 69.7071 46.5464C69.7071 46.5464 69.7071 46.5696 69.6839 46.5696C69.7539 50.227 68.6812 53.8843 66.349 57.0526C65.7745 57.8353 65.1348 58.5678 64.4366 59.2423C57.8134 65.7652 46.6425 66.7668 38.1312 61.1991C37.7346 60.9429 37.3382 60.6635 36.9651 60.3607C36.4054 60.6169 35.8222 60.8963 35.1927 61.1526C35.0528 61.2225 34.9128 61.2457 34.7495 61.2457C34.563 61.2457 34.3997 61.1991 34.2366 61.1294C34.1432 61.0828 34.0732 60.9895 33.9801 60.9197C33.8401 61.2691 33.6068 61.6419 33.3035 61.8747C33.2104 61.9447 33.117 62.0378 33.0005 62.0844C31.5779 62.69 29.7821 63.3425 27.6133 64.0878C29.3623 66.2309 31.438 68.118 33.8167 69.702C38.4343 72.7769 43.7749 74.5009 49.2787 74.6406H50.0249C50.5613 74.6406 51.0977 74.6174 51.6342 74.594C59.6567 74.1281 66.9796 70.261 71.4338 64.0412C75.2586 58.7298 76.7045 52.2303 75.515 45.7077H75.5141ZM39.8786 67.9548C39.7621 68.0714 39.6453 68.1645 39.5054 68.2345C39.3656 68.3042 39.2489 68.3742 39.0858 68.4208H39.0624L38.596 68.5839C38.5726 68.5839 38.526 68.607 38.5026 68.607C38.456 68.607 38.4326 68.6304 38.4095 68.6304C38.3861 68.6304 38.3395 68.6536 38.2927 68.6536C38.2695 68.6536 38.2227 68.6536 38.1762 68.677H37.9896C37.8497 68.677 37.7098 68.677 37.5464 68.6536C37.4065 68.6304 37.2434 68.607 37.1034 68.5605C36.9635 68.5139 36.8002 68.4673 36.6602 68.3974C36.5903 68.3742 36.5203 68.3276 36.4503 68.2811L36.3104 68.4907L36.1005 68.5605L35.844 68.6536L34.8646 68.0248L35.2143 67.5355C35.0511 67.419 34.9112 67.3027 34.7713 67.1861C34.6313 67.0696 34.5148 66.9299 34.4214 66.8133C34.328 66.6736 34.2349 66.5571 34.1649 66.4174C34.095 66.2777 34.0482 66.1377 34.0016 65.998C33.955 65.8583 33.955 65.6952 33.9316 65.5555C33.9316 65.4156 33.955 65.2527 33.9784 65.1128C34.0016 64.9731 34.0716 64.8333 34.1415 64.6702C34.2115 64.5305 34.3049 64.3906 34.398 64.2509C34.468 64.1578 34.5614 64.0646 34.6313 63.9712C34.7247 63.8781 34.7947 63.8084 34.8878 63.7384C34.9812 63.6684 35.0743 63.5987 35.1677 63.5521C35.2611 63.5053 35.3542 63.4588 35.471 63.4122L35.914 63.2491C35.9374 63.2491 35.9374 63.2491 35.9605 63.2259C36.1005 63.1793 36.2638 63.1328 36.4037 63.1328H36.5903C36.7302 63.1328 36.8701 63.1328 37.0101 63.1559C37.15 63.1793 37.29 63.2025 37.4533 63.2491C37.5932 63.2959 37.7563 63.3425 37.8963 63.4122C37.9662 63.4356 38.0362 63.4822 38.1062 63.5287L38.2227 63.3656L38.6891 63.2025L39.6453 63.8315L39.3188 64.2975C39.4822 64.414 39.6221 64.5305 39.7621 64.6468C39.902 64.7634 39.9951 64.8799 40.1119 65.0196C40.2051 65.1593 40.2984 65.2759 40.3684 65.4156C40.4384 65.5555 40.4849 65.6952 40.5315 65.8349C40.5783 65.9746 40.5783 66.1146 40.6015 66.2777C40.6015 66.4174 40.6015 66.5571 40.5549 66.7202C40.5315 66.8599 40.4849 66.9998 40.415 67.1395C40.345 67.2793 40.275 67.419 40.1585 67.5589C40.0885 67.722 39.9951 67.8383 39.8786 67.9548ZM45.7322 72.0782L45.5223 72.1481L45.2658 72.2179L44.0763 71.8919L44.0532 70.5639C44.0532 70.5639 43.0036 70.261 42.4907 70.1213L41.8609 71.0066L41.651 71.0763L41.3945 71.1463L40.275 70.8201L43.7267 66.2543L44.1931 66.0912L45.4757 66.464L45.7322 72.0782ZM52.402 71.0997C52.3789 71.2163 52.3555 71.3094 52.3089 71.4026C52.2621 71.4957 52.2155 71.5888 52.1456 71.6822C52.0799 71.771 52.0012 71.8495 51.9123 71.9151C51.8425 71.985 51.7491 72.0316 51.6792 72.0782L51.3993 72.2179C51.3527 72.2413 51.2828 72.2644 51.2594 72.2644L50.8164 72.4044C50.7696 72.4275 50.7464 72.4275 50.6996 72.4275C50.653 72.4275 50.6296 72.4509 50.5831 72.4509C50.5365 72.4509 50.4897 72.4741 50.4665 72.4741H50.1632L47.9944 72.4509V72.1247C48.0178 70.9832 48.1109 67.3027 48.1109 67.3027L48.5542 67.1627L52.029 67.2327L52.0056 68.1411L51.7725 68.2111L51.5392 68.2811L49.6269 68.2345L49.6035 69.073L50.6296 69.0964C50.7696 69.0964 50.8863 69.1195 51.026 69.1195C51.1428 69.1429 51.2594 69.1661 51.3759 69.2129C51.4927 69.2595 51.5858 69.306 51.6792 69.3526C51.7725 69.3992 51.8657 69.4691 51.9591 69.5389C52.0522 69.6088 52.1222 69.702 52.169 69.772C52.2389 69.8651 52.2855 69.9582 52.3321 70.0514C52.3789 70.1445 52.402 70.261 52.4254 70.3542C52.4488 70.4707 52.4488 70.5639 52.4488 70.7038C52.4254 70.8667 52.4254 70.9832 52.402 71.0997ZM58.2091 68.5373C58.1857 68.6536 58.1625 68.747 58.1391 68.8633C58.0925 68.9798 58.046 69.073 57.9992 69.1661L57.7893 69.4457C57.721 69.5344 57.6332 69.6062 57.5328 69.6554C57.4394 69.7254 57.3229 69.772 57.2297 69.8185C57.113 69.8651 56.9964 69.9117 56.8565 69.9351L55.8769 70.1913L56.2736 71.7288H56.2268H56.2501L56.0168 71.7985L55.7838 71.8685L55.2706 72.0082L54.7808 72.1247H54.7342L53.475 67.1861L53.9414 67.0464L56.0168 66.5339C56.0636 66.5339 56.0868 66.5105 56.1336 66.5105C56.1802 66.5105 56.2036 66.4874 56.2501 66.4874C56.2967 66.4874 56.3201 66.4874 56.3433 66.464C56.3667 66.4405 56.4133 66.464 56.4367 66.464H56.6931C56.7631 66.464 56.8565 66.4874 56.9265 66.5105C56.9964 66.5339 57.0898 66.5571 57.1598 66.5805C57.2297 66.6037 57.2995 66.6502 57.3694 66.6968C57.4628 66.7668 57.5562 66.8133 57.6493 66.9065C57.7427 66.9764 57.8127 67.0696 57.8826 67.1627C57.9526 67.2561 57.9992 67.3492 58.046 67.4658C58.0925 67.5821 58.1391 67.6986 58.1625 67.8151C58.1857 67.9314 58.2091 68.0714 58.2325 68.1877C58.2091 68.3276 58.2091 68.4442 58.2091 68.5373ZM64.3891 68.3276L64.2494 68.3742L63.9227 68.4673C63.9227 68.4673 63.1065 67.093 62.6167 66.2543L62.4302 69.4923L61.5674 70.0048L61.4274 70.0514L61.0776 70.1445L58.5124 65.8118L59.4217 65.2993L59.8883 65.1593L61.2175 67.3958L61.4041 64.1578L62.2671 63.6684L62.7335 63.5287L65.2987 67.8151L64.3891 68.3276ZM69.4733 63.8084L69.24 63.8781L69.0069 63.9481L66.7913 63.8315L68.2138 65.1827L67.5375 65.9281L67.3744 65.9746L67.0477 66.068L63.4332 62.6669L64.1326 61.9213L64.599 61.7582L65.6951 62.8066C65.5786 62.0378 65.3921 60.5701 65.3921 60.5701L66.1618 59.7548L66.6282 59.5917L67.0477 62.6669L70.2895 62.8765L69.4733 63.8084ZM72.9947 58.1708L72.7616 58.2407L72.5283 58.3105L71.7121 58.1476L71.0824 59.4054L71.9454 60.2673L71.5022 61.1526L71.3157 61.2225L71.0358 61.3157L67.4676 57.5417L67.9808 56.5168L68.4471 56.3537L73.4379 57.1924L72.9947 58.1708Z" fill="#E42320"/>
<path d="M70.2193 58.59L70.5457 57.9144L69.3097 57.6581L70.2193 58.59ZM56.5763 68.0488C56.5529 67.979 56.5298 67.9323 56.483 67.8857C56.4598 67.8391 56.413 67.7925 56.3664 67.746C56.3199 67.6994 56.2733 67.676 56.2265 67.6528C56.2033 67.6294 56.1565 67.6294 56.1334 67.6063C56.0866 67.5829 56.0634 67.5829 56.0166 67.5829C55.97 67.5829 55.9466 67.5597 55.9 67.5597H55.6436C55.6202 67.5597 55.5968 67.5597 55.5736 67.5829C55.5502 67.5829 55.5268 67.5829 55.5036 67.6063C55.5036 67.6063 55.3637 67.6294 55.2237 67.676L55.6667 69.3534L56.2033 69.2137C56.2265 69.2137 56.2265 69.1903 56.2499 69.1903C56.2733 69.1903 56.2733 69.1669 56.2965 69.1669C56.3199 69.1437 56.3664 69.1203 56.3898 69.1203C56.413 69.1203 56.413 69.0972 56.413 69.0972C56.4364 69.0738 56.483 69.0506 56.5064 69.0272C56.5298 69.004 56.5763 68.9575 56.5997 68.9107L56.6697 68.771C56.6929 68.7244 56.6929 68.6544 56.7163 68.6078V68.4216C56.7163 68.3516 56.6929 68.2819 56.6929 68.2353C56.6229 68.1653 56.5997 68.1188 56.5763 68.0488ZM50.8383 70.7025C50.8383 70.6559 50.8152 70.6091 50.7918 70.5626L50.7218 70.4229C50.6984 70.3763 50.6518 70.3529 50.6053 70.3063C50.5585 70.2831 50.5119 70.2366 50.4653 70.2132C50.4185 70.19 50.3486 70.1666 50.302 70.1432C50.232 70.12 50.1854 70.12 50.1155 70.0966C50.0455 70.0966 49.9755 70.0735 49.9056 70.0735H49.5791L49.5557 71.4247H50.4185C50.4885 71.4247 50.5353 71.4013 50.5119 71.4247C50.5353 71.4247 50.5353 71.4013 50.5585 71.4013C50.6053 71.3779 50.6284 71.3313 50.6752 71.2847C50.6984 71.2382 50.7452 71.215 50.7452 71.1684C50.7684 71.1216 50.7918 71.075 50.7918 71.0285C50.7918 70.9819 50.8152 70.9122 50.8152 70.8654V70.8422C50.8617 70.7956 50.8617 70.7491 50.8383 70.7025ZM43.1651 69.1182L44.0744 69.3745C44.0744 68.9785 44.0744 68.2798 44.0513 67.8604L43.1651 69.1182ZM37.1954 64.4824C37.1254 64.4593 37.0323 64.4127 36.9623 64.3893C36.8923 64.3661 36.799 64.3427 36.729 64.3427C36.659 64.3427 36.5659 64.3196 36.4959 64.3427H36.3326C36.3326 64.3427 36.3092 64.3427 36.3092 64.3661C36.2392 64.4127 36.1692 64.4593 36.0993 64.5292C36.0293 64.599 35.9827 64.6689 35.9128 64.7387C35.8428 64.832 35.7962 64.9018 35.7728 64.9949C35.7315 65.0763 35.7003 65.1625 35.6797 65.2514C35.6563 65.3445 35.6563 65.4143 35.6563 65.5076C35.6563 65.6008 35.6563 65.6705 35.6797 65.7639C35.7029 65.857 35.7263 65.9268 35.7497 65.9967C35.7962 66.0667 35.8194 66.1598 35.8894 66.2296C35.9362 66.2995 36.0061 66.3695 36.0761 66.4392L36.0993 66.4627L37.4287 64.6224C37.3479 64.581 37.2699 64.5343 37.1954 64.4824ZM38.9224 65.8584C38.8935 65.7714 38.8457 65.6918 38.7825 65.6254C38.7359 65.5556 38.6659 65.4856 38.596 65.4157C38.596 65.4157 38.5726 65.4157 38.5726 65.3925L37.2434 67.2328C37.3133 67.2794 37.4065 67.3259 37.4764 67.3493C37.5464 67.3725 37.6398 67.4191 37.7097 67.4425C37.7797 67.4659 37.8729 67.489 37.9428 67.489C38.0128 67.489 38.1062 67.5124 38.1761 67.489H38.3161C38.3626 67.4659 38.4094 67.4191 38.456 67.3959C38.5026 67.3493 38.5726 67.3028 38.6191 67.2562C38.6659 67.2094 38.7125 67.1396 38.7591 67.0697C38.8059 66.9999 38.8758 66.9066 38.899 66.8134C38.9458 66.7203 38.969 66.6503 38.9924 66.5572C39.0158 66.4875 39.0158 66.3941 39.0158 66.3009C39.0158 66.2078 39.0158 66.1378 38.9924 66.0447C38.969 66.0215 38.9458 65.9282 38.9224 65.8584ZM31.0853 33.2908C31.6916 32.6621 32.298 32.5455 32.5778 32.5221C33.2076 32.4524 33.8373 32.4058 34.4202 32.359C40.5071 26.5819 50.2554 25.3239 58.3246 29.3772C59.5824 29.1021 60.8506 28.8767 62.1262 28.7016C62.3127 28.6785 62.4992 28.7016 62.6626 28.8182C62.7881 28.6913 62.9521 28.6094 63.1289 28.5853C63.5022 28.5387 63.8986 28.4922 64.2716 28.4688C64.0851 28.3291 63.8752 28.1891 63.6887 28.0494C59.3976 25.1842 54.4302 23.4836 49.2995 23.1574C48.6931 23.1108 48.0868 23.1108 47.4803 23.0876C47.2006 23.0876 46.9439 23.1108 46.664 23.1108C46.4075 23.1108 46.1511 23.1108 45.8946 23.1342C45.4048 23.1574 44.9384 23.204 44.4486 23.2505H44.3321C37.1025 24.0661 30.5958 27.6535 26.398 33.1977C27.7041 33.0114 28.9867 32.8483 30.2693 32.7318C30.6423 32.7318 30.9456 32.9649 31.0855 33.2908H31.0853ZM23.9737 42.9579V42.7714C23.5329 42.911 23.0897 43.043 22.6445 43.1674C22.6211 43.3073 22.6211 43.4236 22.5977 43.5867V43.6101C22.8076 46.4754 23.1108 50.6452 23.4839 56.1197C23.5073 56.446 23.6006 56.5857 23.6472 56.6088C23.6706 56.6322 23.6938 56.6554 23.8805 56.6788H23.9971C24.207 56.6554 24.4169 56.7254 24.58 56.8651C24.705 56.7183 24.8657 56.606 25.0466 56.5391C25.1163 56.5157 25.0932 56.5157 25.1163 56.5157C25.1163 56.5157 25.1631 56.3992 25.1631 56.1663C25.1631 56.0963 25.1631 56.0032 25.1397 55.9101C24.7433 51.5305 24.3469 47.2209 23.9737 42.9579Z" fill="#E42320"/>
<path d="M72.9935 58.1705L71.8042 57.9377L71.7108 58.1705L72.5037 58.3336L72.737 58.2405L72.9935 58.1705ZM70.5433 57.9131L70.2169 58.5887L70.4734 58.8681L71.0331 57.75L69.0974 57.3772L69.0742 57.424L69.3073 57.6568L70.5433 57.9131Z" fill="#0D0802"/>
<path d="M67.9315 57.4007L68.2111 56.8417L68.4678 56.3757H68.4444L67.978 56.5388L67.4648 57.5638L71.0097 61.3377L71.313 61.2444L71.4995 61.1746L67.9315 57.4007Z" fill="#0D0802"/>
<path d="M63.9232 62.5256L64.2964 62.1297L64.5994 61.7803L64.1331 61.92L63.4336 62.6656H63.4568H63.4336L67.0482 66.0667L67.3748 65.9733L67.5379 65.9268L63.9232 62.5256ZM69.4739 63.808L66.8619 63.6681L66.7453 63.7846L66.7919 63.8546L69.0075 63.9709L69.2406 63.9011L69.4739 63.808ZM65.3928 60.5927C65.3928 60.5927 65.6027 62.0602 65.6958 62.8291L66.1156 63.2251L66.2322 63.1085L65.9057 60.7558V60.6858L65.8591 60.4296L66.6288 59.6143L66.1624 59.7774L65.3928 60.5927Z" fill="#0D0802"/>
<path d="M58.9781 65.6711L59.4211 65.4149L59.8643 65.1586L59.3979 65.2986L58.4883 65.8111L61.0535 70.1438L61.4034 70.0507L61.5433 70.0041L58.9781 65.6711ZM62.7106 63.5042L62.2442 63.6441L61.4046 64.1566V64.1332V64.1566L61.218 67.3712L61.5913 68.0002L61.6379 67.9771L61.8709 63.9935L62.7106 63.5042ZM64.3884 68.3272L62.686 65.4851L62.6394 65.5085L62.5929 66.2538C63.0827 67.0925 63.8989 68.4669 63.8989 68.4669L64.2253 68.3737L64.3884 68.3272Z" fill="#0D0802"/>
<path d="M56.2244 71.7505L55.1751 72.0067L53.9156 67.0681L53.4492 67.2078L54.7084 72.1467H54.7552L55.245 72.0301L55.758 71.8904L55.9913 71.8205L56.2244 71.7505H56.2012H56.2244ZM57.0411 67.908C57.0179 67.838 56.9945 67.7914 56.9479 67.7449C56.9245 67.6983 56.878 67.6517 56.8312 67.6052C56.7846 67.5586 56.738 67.5352 56.6912 67.512C56.6681 67.4886 56.6213 67.4886 56.5981 67.4655C56.5513 67.4421 56.5281 67.4421 56.4813 67.4421C56.4348 67.4421 56.4114 67.4187 56.3648 67.4187H56.1083C56.0849 67.4187 56.0617 67.4187 56.0383 67.4421C56.0149 67.4421 55.9918 67.4421 55.9684 67.4655L55.2221 67.6517V67.6749C55.3854 67.6283 55.502 67.6052 55.502 67.6052C55.5251 67.6052 55.5486 67.6052 55.572 67.5818C55.5951 67.5818 55.6185 67.5818 55.6419 67.5586H55.8984C55.945 67.5586 55.9684 67.5586 56.0149 67.5818C56.0617 67.5818 56.0849 67.6052 56.1317 67.6052C56.1783 67.6283 56.2017 67.6283 56.2248 67.6517C56.2717 67.6749 56.3182 67.7217 56.3648 67.7449C56.4114 67.7914 56.4348 67.8149 56.4813 67.8846C56.5047 67.9312 56.5513 67.978 56.5747 68.0477C56.5981 68.1177 56.6213 68.1642 56.6447 68.2342C56.6681 68.3039 56.6681 68.3739 56.6681 68.4205V68.6068C56.6681 68.6533 56.6447 68.7233 56.6213 68.7699C56.598 68.8165 56.5747 68.863 56.5513 68.9096C56.5281 68.9564 56.5047 68.9795 56.4582 69.0261C56.4348 69.0495 56.4114 69.0727 56.3648 69.0961L56.3414 69.1192C56.3182 69.1426 56.2717 69.1658 56.2483 69.1658C56.2248 69.1658 56.2248 69.1892 56.2017 69.1892C56.1783 69.1892 56.1783 69.2126 56.1549 69.2126L56.3882 69.1658L56.5981 69.0961H56.6213L56.7612 69.0261C56.7612 69.0261 56.7846 69.0261 56.7846 69.0029C56.8312 68.9795 56.878 68.933 56.9011 68.9096L57.0179 68.7933L57.0879 68.6533C57.1111 68.6068 57.1111 68.537 57.1345 68.4904V68.3039C57.1345 68.2342 57.1111 68.1642 57.1111 68.1177C57.0879 68.0245 57.0645 67.978 57.0411 67.908Z" fill="#0D0802"/>
<path d="M51.2571 72.2628C51.2105 72.2862 51.1871 72.2862 51.1406 72.2862C51.0938 72.2862 51.0472 72.3094 51.0238 72.3094C50.9772 72.3094 50.9307 72.3328 50.9073 72.3328H50.5808L48.412 72.3094L48.5051 67.9298L48.5285 67.1379L48.0855 67.2776C48.0855 67.2776 47.9922 70.935 47.9688 72.0997V72.4259L50.1376 72.4493H50.4409C50.4874 72.4493 50.5342 72.4493 50.5574 72.4259C50.6042 72.4259 50.6508 72.4028 50.6742 72.4028C50.7207 72.4028 50.7441 72.3794 50.7907 72.3794L51.2571 72.2628Z" fill="#0D0802"/>
<path d="M51.2574 70.3999L51.1875 70.2602C51.1641 70.2136 51.1175 70.1905 51.0709 70.1437C51.0241 70.1205 50.9776 70.0739 50.931 70.0505C50.8844 70.0274 50.8145 70.004 50.7676 69.9808C50.6977 69.9574 50.6511 69.9574 50.5811 69.9342C50.5112 69.9342 50.4412 69.9108 50.3712 69.9108L49.6016 69.8874V70.0274H49.9282C49.9982 70.0274 50.0682 70.0274 50.1379 70.0505C50.2079 70.0505 50.2779 70.0739 50.3247 70.0971C50.3946 70.1205 50.4412 70.1437 50.4878 70.1671C50.5346 70.1905 50.5811 70.2136 50.6277 70.2602C50.6745 70.2836 50.6977 70.3302 50.7445 70.3767L50.8145 70.5164C50.8376 70.563 50.8376 70.6096 50.861 70.6564V70.8427C50.861 70.9126 50.861 70.9592 50.8376 71.0058C50.8376 71.0523 50.8145 71.0989 50.7911 71.1455C50.7677 71.192 50.7445 71.2386 50.7211 71.262C50.6977 71.3086 50.6511 71.3317 50.6045 71.3783C50.5811 71.3783 50.5811 71.4017 50.5577 71.4017H50.6511C50.6977 71.4017 50.7676 71.3783 50.8145 71.3552C50.861 71.3317 50.9076 71.3317 50.9544 71.3086C51.001 71.2852 51.0475 71.262 51.0709 71.2386C51.1175 71.2154 51.1409 71.1689 51.1875 71.1221C51.2109 71.0755 51.2574 71.0523 51.2574 71.0058C51.2808 70.9592 51.304 70.9126 51.304 70.8658C51.304 70.8193 51.3274 70.7495 51.3274 70.703V70.5398L51.2574 70.3999ZM52.0039 68.1393L49.6252 68.0928V68.2559L51.5376 68.3024L51.7709 68.2327L52.0039 68.1393Z" fill="#0D0802"/>
<path d="M40.7633 70.6552L42.6522 68.1391L44.2147 66.0891L43.7483 66.2288L40.2969 70.818V70.7949V70.818L41.4162 71.1209L41.6495 71.0511L41.8594 70.9812L40.7633 70.6552ZM45.7314 72.078L44.5421 71.7518L44.5187 70.4474V70.424L42.6529 69.8881L42.4898 70.1212C43.0028 70.2609 44.0289 70.5637 44.0523 70.5637L44.0755 71.8917L45.265 72.2177L45.5214 72.1479L45.7314 72.078ZM44.0745 69.3751L44.5412 69.5151L44.5178 67.3951V67.3252L44.4478 67.302L44.0514 67.8611C44.0745 68.2804 44.0745 69.0026 44.0745 69.3751Z" fill="#0D0802"/>
<path d="M35.3526 67.9082L35.5393 67.6519L35.7024 67.4188C35.5393 67.3025 35.3994 67.186 35.2595 67.0694C35.1195 66.9529 35.0027 66.8132 34.9096 66.6967C34.8162 66.557 34.7231 66.4404 34.6531 66.3007C34.5832 66.161 34.5364 66.0213 34.4898 65.8814C34.4432 65.7417 34.4432 65.5786 34.4198 65.4388C34.4198 65.2991 34.4432 65.136 34.4664 64.9961C34.4898 64.8564 34.5598 64.7167 34.6297 64.5536C34.6297 64.5536 34.6297 64.5304 34.6531 64.5304C34.7231 64.4139 34.7931 64.2742 34.8862 64.1576C34.8862 64.1576 34.8862 64.1342 34.9096 64.1342C34.9796 64.0411 35.0727 63.9245 35.1427 63.8548C35.2361 63.7614 35.306 63.6917 35.3994 63.6217C35.4925 63.552 35.5859 63.482 35.6793 63.4355C35.7724 63.3889 35.8658 63.3423 35.9823 63.2958L35.5393 63.4586C35.446 63.5052 35.3294 63.552 35.2361 63.5986C35.1427 63.6451 35.0495 63.7149 34.9562 63.7848C34.863 63.8548 34.7697 63.9246 34.6997 64.0177C34.6063 64.1111 34.5364 64.2042 34.4664 64.2973C34.3732 64.437 34.2799 64.577 34.2099 64.7167C34.1399 64.8564 34.0934 64.9961 34.0466 65.1592C34.0234 65.2991 34 65.4388 34 65.602C34 65.7417 34.0234 65.9048 34.07 66.0445C34.1165 66.1842 34.1633 66.3241 34.2333 66.4638C34.3033 66.6035 34.3964 66.7435 34.4898 66.8598C34.5832 66.9997 34.6997 67.116 34.8396 67.2326C34.9562 67.3491 35.1195 67.4656 35.2826 67.5819L34.9328 68.0713L35.9124 68.7003L36.1688 68.6069L36.3787 68.5372L35.3526 67.9082ZM38.7575 63.2021L38.2911 63.3653L38.1746 63.5284C38.2445 63.5749 38.3379 63.5983 38.4079 63.6681L38.7575 63.2021ZM39.3636 65.6944C39.3168 65.6244 39.2936 65.5313 39.2236 65.4613C39.1768 65.3916 39.1069 65.3216 39.0369 65.2519C38.9669 65.1819 38.897 65.1119 38.8038 65.0654L38.5471 65.4147C38.5471 65.4147 38.5705 65.4147 38.5705 65.4381C38.6405 65.5081 38.7104 65.5779 38.757 65.6478C38.8038 65.7176 38.8504 65.7875 38.897 65.8807C38.9438 65.9506 38.9669 66.0438 38.9669 66.1137C38.9903 66.2069 38.9903 66.2768 38.9903 66.37C38.9903 66.4631 38.9669 66.5331 38.9669 66.6262C38.9438 66.696 38.9204 66.7893 38.8738 66.8825C38.827 66.9756 38.7804 67.0456 38.7338 67.1387C38.687 67.2084 38.6405 67.2553 38.5939 67.325C38.5471 67.3716 38.4771 67.4181 38.4306 67.4649C38.384 67.5115 38.3374 67.5347 38.2906 67.5581H38.3374C38.4306 67.5347 38.5005 67.5115 38.5705 67.4881C38.5705 67.4881 38.5939 67.4881 38.5939 67.4649C38.6639 67.4415 38.7104 67.395 38.7804 67.3716C38.8038 67.3716 38.8038 67.3484 38.827 67.3484C38.897 67.3018 38.9438 67.2553 38.9903 67.2084L39.0137 67.1853C39.0837 67.1153 39.1303 67.0456 39.2002 66.9756C39.2702 66.8825 39.3168 66.8125 39.3402 66.7194C39.3814 66.638 39.4127 66.552 39.4333 66.4631C39.4567 66.37 39.4567 66.3 39.4567 66.2069C39.4567 66.1137 39.4567 66.0438 39.4333 65.9506C39.4333 65.8575 39.4101 65.7875 39.3636 65.6944ZM39.0594 68.444C39.036 68.444 38.9894 68.4672 38.966 68.4672C38.9428 68.4672 38.896 68.4906 38.8729 68.4906C38.826 68.4906 38.8029 68.5138 38.7561 68.5138C38.7329 68.5138 38.6861 68.5138 38.6629 68.5372H38.4762C38.3365 68.5372 38.1966 68.5372 38.0332 68.5138C37.8933 68.4906 37.7299 68.4672 37.5902 68.4206C37.4503 68.3741 37.2869 68.3275 37.147 68.2575C37.0071 68.1876 36.8437 68.1178 36.704 68.0247L36.4941 68.3041C36.5641 68.3275 36.634 68.3741 36.704 68.4206C36.8437 68.4906 37.0071 68.5372 37.147 68.5837C37.2869 68.6303 37.4503 68.6535 37.5902 68.6769C37.7299 68.7003 37.8699 68.7003 38.0332 68.7003H38.2197C38.2665 68.7003 38.2897 68.7003 38.3365 68.6769C38.3831 68.6769 38.4065 68.6535 38.453 68.6535C38.4762 68.6535 38.523 68.6303 38.5462 68.6303C38.593 68.6303 38.6161 68.6069 38.6395 68.6069L39.0594 68.444Z" fill="#0D0802"/>
<path d="M36.288 66.6259L37.8737 64.436C37.801 64.388 37.7227 64.3489 37.6406 64.3197C37.5707 64.2963 37.4773 64.2497 37.4073 64.2263C37.3373 64.2031 37.2442 64.1797 37.1742 64.1797C37.1043 64.1797 37.0109 64.1566 36.9409 64.1797H36.7544C36.6611 64.2031 36.5911 64.2031 36.4979 64.2497C36.428 64.2731 36.358 64.3197 36.3112 64.3428H36.7079C36.7776 64.3428 36.871 64.3662 36.9409 64.3894C37.0109 64.4128 37.1043 64.436 37.1742 64.4825C37.2442 64.5059 37.3373 64.5525 37.4073 64.5991L36.0781 66.4394C36.1481 66.5093 36.2181 66.5793 36.288 66.6259Z" fill="#0D0802"/>
<path d="M72.9932 58.1707L73.4596 57.2157L68.469 56.377L67.9558 57.4254L71.524 61.1991L71.967 60.3138L71.1042 59.4519L71.8271 57.961L72.9932 58.1707ZM70.4745 58.8695L69.0519 57.4254L69.0753 57.3786L71.0108 57.7514L70.4745 58.8695ZM66.6257 59.638L65.8794 60.4299L66.2524 63.1088L66.1359 63.2254L64.5966 61.7811L63.9203 62.5032L67.535 65.9275L68.2113 65.1822L66.7422 63.7844L66.8588 63.6679L69.4708 63.8078L70.3104 62.9226L67.0687 62.7129L66.6257 59.638ZM61.8682 63.9929L61.6351 67.9765L61.5886 67.9997L59.8861 65.1345L58.9765 65.6469L61.5651 70.0031L62.428 69.4906L62.6379 65.5072L62.6844 65.4604L64.3869 68.3259L65.2731 67.79L62.7078 63.5036L61.8682 63.9929ZM58.021 67.4891C57.9745 67.3726 57.9045 67.2794 57.8577 67.1863C57.7877 67.0931 57.7177 67 57.6246 66.93C57.5312 66.8601 57.4613 66.7903 57.3447 66.7204C57.2748 66.6738 57.2048 66.6504 57.1348 66.6038C57.0648 66.5807 56.9949 66.5573 56.9015 66.5341C56.8315 66.5107 56.7384 66.5107 56.6684 66.4875H56.3186C56.2952 66.4875 56.2486 66.4875 56.2252 66.5107C56.1786 66.5107 56.1552 66.5107 56.1087 66.5341C56.0621 66.5341 56.0387 66.5573 55.9921 66.5573L53.9164 67.0697L55.1759 72.0084L56.2252 71.7521L55.8288 70.2146L56.8084 69.9584C56.9483 69.9352 57.0648 69.8884 57.1814 69.8419C57.2979 69.7953 57.3913 69.7256 57.4847 69.679C57.5778 69.609 57.6712 69.5391 57.7411 69.4693C57.8111 69.3759 57.8811 69.3062 57.9511 69.1897C58.021 69.0965 58.0676 68.98 58.091 68.8869C58.1144 68.7937 58.161 68.6772 58.161 68.5606C58.1841 68.4453 58.1841 68.3266 58.161 68.2113C58.161 68.0947 58.1376 67.9784 58.091 67.8385C58.1144 67.6988 58.0676 67.5822 58.021 67.4891ZM57.1348 68.4675C57.1348 68.5141 57.1114 68.584 57.0882 68.6306L57.0183 68.7703C56.9949 68.8169 56.9483 68.8635 56.9015 68.91C56.8549 68.9568 56.8084 68.98 56.7616 69.0266C56.715 69.05 56.645 69.0965 56.5751 69.1197L56.3651 69.1897L55.6189 69.3759L55.1759 67.6522L55.9222 67.4659C55.9453 67.4659 55.9687 67.4425 55.9921 67.4425C56.0153 67.4425 56.0387 67.4425 56.0621 67.4191H56.3186C56.3651 67.4191 56.3885 67.4191 56.4351 67.4425C56.4817 67.4425 56.5051 67.4659 56.5517 67.4659C56.5985 67.4891 56.6216 67.4891 56.645 67.5125C56.6916 67.5357 56.7384 67.5822 56.785 67.6056C56.8315 67.6522 56.8549 67.6754 56.9015 67.7453C56.9249 67.7919 56.9715 67.8385 56.9949 67.9084C57.0183 67.9784 57.0414 68.025 57.0648 68.0947C57.0882 68.1647 57.0882 68.2347 57.0882 68.2812C57.1348 68.351 57.1348 68.4209 57.1348 68.4675ZM52.3064 70.0983C52.2596 70.0052 52.2131 69.9121 52.1431 69.8189C52.0731 69.7258 52.0031 69.6558 51.9332 69.5859C51.84 69.5161 51.7701 69.4461 51.6533 69.3996C51.5602 69.353 51.4434 69.3064 51.3502 69.2599C51.2335 69.2133 51.1169 69.1899 51.0004 69.1665C50.8839 69.1433 50.7439 69.1433 50.604 69.1433L49.5778 69.1199L49.601 68.1184L51.9797 68.1649L52.0031 67.2565L48.5283 67.1865L48.4117 72.3348L50.5806 72.3582H50.7671C50.8839 72.3582 51.0004 72.3348 51.0935 72.3114C51.1869 72.2882 51.3034 72.2648 51.3968 72.2183C51.4902 72.1717 51.5833 72.1485 51.6767 72.0786C51.7701 72.032 51.84 71.962 51.9098 71.9155C52.0031 71.8455 52.0731 71.7523 52.1431 71.6826C52.2131 71.5892 52.2596 71.4961 52.3064 71.403C52.353 71.3098 52.3764 71.1933 52.3996 71.1002C52.423 70.9836 52.4464 70.8671 52.4464 70.7508C52.4464 70.6342 52.4464 70.5177 52.423 70.4012C52.3996 70.2849 52.353 70.1917 52.3064 70.0983ZM51.3034 70.8905C51.3034 70.937 51.2803 70.9836 51.2569 71.0302C51.2335 71.0767 51.2103 71.1233 51.1869 71.1467C51.1635 71.1933 51.1169 71.2167 51.0704 71.2633C51.0236 71.2864 51.0004 71.3098 50.9538 71.333C50.907 71.3564 50.8605 71.3796 50.8139 71.3796C50.7671 71.403 50.7205 71.403 50.6506 71.4264C50.604 71.4264 50.534 71.4495 50.464 71.4495H49.601L49.6244 69.9586L50.3941 69.982C50.464 69.982 50.534 69.982 50.604 70.0052C50.674 70.0052 50.7439 70.0286 50.7905 70.0518C50.8605 70.0752 50.907 70.0983 50.9538 70.1217C51.0004 70.1449 51.047 70.1683 51.0935 70.2149C51.1403 70.2383 51.1635 70.2849 51.2103 70.3314L51.2803 70.4711C51.3034 70.5177 51.3268 70.5643 51.3268 70.6108C51.3268 70.6576 51.3502 70.7274 51.3268 70.7739C51.3268 70.7973 51.3034 70.8439 51.3034 70.8905ZM44.2143 66.0897L40.7628 70.6789L41.8823 71.0051L42.6752 69.8868L44.5409 70.4227L44.5641 71.7505L45.7536 72.0767L45.5203 66.4625L44.2143 66.0897ZM43.1649 69.1181L44.4476 67.3012L44.5175 67.3243L44.5409 69.5142L43.1649 69.1181ZM40.4115 65.4157C40.3398 65.2753 40.2539 65.1427 40.1551 65.0198C40.0617 64.8801 39.9452 64.7635 39.8052 64.647C39.6653 64.5307 39.5253 64.4142 39.3622 64.2976L39.6887 63.8317L38.7325 63.2027L38.4061 63.6686C38.2661 63.5755 38.1028 63.5055 37.9628 63.4358C37.8229 63.3658 37.6596 63.3192 37.5198 63.2727C37.3799 63.2261 37.24 63.2027 37.0766 63.1795C36.9367 63.1561 36.7967 63.1561 36.6568 63.1561H36.4703C36.307 63.1795 36.167 63.2027 36.0271 63.2493C35.8871 63.2961 35.7474 63.3658 35.6075 63.4358C35.4676 63.5055 35.3508 63.622 35.2342 63.7152C35.1177 63.8317 35.0009 63.9482 34.9078 64.088C34.8144 64.2277 34.7213 64.3676 34.6513 64.5073C34.5813 64.647 34.5345 64.7869 34.488 64.9498C34.4646 65.0898 34.4414 65.2295 34.4414 65.3926C34.4414 65.5323 34.4646 65.6954 34.5114 65.8351C34.5579 65.9748 34.6045 66.1147 34.6745 66.2544C34.7445 66.3941 34.8378 66.5341 34.931 66.6504C35.0243 66.7903 35.1409 66.9066 35.2808 67.0232C35.4208 67.1397 35.5607 67.2563 35.724 67.3726L35.3742 67.8619L36.3538 68.4909L36.7036 68.0016C36.8667 68.0947 37.0067 68.1647 37.1466 68.2347C37.2865 68.3044 37.4499 68.351 37.5898 68.3975C37.7295 68.4443 37.8929 68.4675 38.0328 68.4909C38.1727 68.5141 38.3127 68.5141 38.4758 68.5141H38.6625C38.8256 68.4909 38.9656 68.4675 39.1055 68.4209C39.2455 68.3744 39.3854 68.3044 39.5253 68.2347C39.6653 68.1647 39.7818 68.0482 39.8986 67.955C40.0151 67.8385 40.1317 67.7222 40.225 67.5822C40.3182 67.4425 40.4115 67.3028 40.4815 67.1629C40.5489 67.031 40.596 66.8897 40.6215 66.7438C40.6449 66.6038 40.668 66.4641 40.668 66.301C40.668 66.1613 40.6449 66.0216 40.5981 65.8585C40.5281 65.6954 40.4815 65.5557 40.4115 65.4157ZM36.2838 66.6272C36.1904 66.5573 36.1204 66.4875 36.0505 66.4407C35.9805 66.371 35.9105 66.301 35.864 66.231C35.8121 66.1567 35.7654 66.0789 35.724 65.9982C35.6798 65.9285 35.6556 65.8479 35.6541 65.7654C35.6307 65.672 35.6307 65.6023 35.6307 65.5091C35.6307 65.4157 35.6541 65.346 35.6541 65.2529C35.6775 65.1595 35.7006 65.0898 35.7474 64.9964C35.794 64.9033 35.8406 64.8335 35.8871 64.7401C35.9571 64.6704 36.0039 64.5773 36.0739 64.5307C36.1439 64.4607 36.2138 64.4142 36.2838 64.3676C36.3538 64.321 36.4237 64.2745 36.5169 64.2511C36.5868 64.2277 36.6802 64.2045 36.7733 64.1811H37.1932C37.2631 64.1811 37.3565 64.2045 37.4265 64.2277C37.4964 64.2511 37.5898 64.2745 37.6596 64.321C37.7295 64.3442 37.8229 64.3908 37.8929 64.4373L36.2838 66.6272ZM39.4554 66.4407C39.4347 66.5296 39.4034 66.6156 39.3622 66.697C39.3154 66.7903 39.2689 66.8601 39.2223 66.9532C39.1523 67.0232 39.1055 67.1163 39.0356 67.1629C38.9656 67.2328 38.8956 67.2794 38.8256 67.326C38.7557 67.3726 38.6857 67.4191 38.5926 67.4425C38.5226 67.4659 38.4292 67.4891 38.3361 67.5125H37.9163C37.8463 67.5125 37.7529 67.4891 37.683 67.4659C37.613 67.4425 37.5198 67.4191 37.4499 67.3726C37.3677 67.3433 37.2894 67.3043 37.2166 67.2563L38.8025 65.0664C38.8956 65.1363 38.9656 65.1829 39.0356 65.2529C39.1055 65.3226 39.1755 65.3926 39.2223 65.4623C39.2689 65.5323 39.3154 65.6022 39.3622 65.6954C39.4088 65.7654 39.432 65.8585 39.432 65.9282C39.4554 66.0216 39.4554 66.0913 39.4554 66.1845C39.4788 66.2778 39.4554 66.3476 39.4554 66.4407ZM79.7327 42.6556C79.6628 41.9103 79.4997 41.1182 79.2898 40.3263L79.2432 40.1166L79.0333 40.1632C78.9633 40.1632 78.9165 40.1863 78.8465 40.1863C78.6834 40.1863 78.6369 40.1398 78.6135 40.1166C77.49 37.5704 76.386 35.0156 75.3017 32.4524V32.429C75.1618 32.1962 75.2086 32.1028 75.2086 32.1028C75.2086 32.1028 75.2317 32.0563 75.4651 31.9865L75.675 31.9166L75.605 31.7069C75.5116 31.4041 75.4416 31.1013 75.3485 30.7984C75.1852 30.216 75.0221 29.6569 74.8587 29.0745L74.8122 28.9114H74.6488C74.229 28.8882 73.7626 28.8882 73.2262 28.8648C72.1303 28.8416 71.0339 28.8416 69.9379 28.8648H69.7046V29.0979C69.728 30.216 69.728 31.1244 69.798 31.87V32.0331L69.9613 32.0797C70.0778 32.1262 70.1712 32.1728 70.1944 32.2194C70.2178 32.2893 70.2178 32.3825 70.1478 32.5222L70.1244 32.5687C69.8214 34.8983 69.4015 37.787 68.9352 41.1416L68.9118 41.3513L69.1217 41.3978H69.2382C69.9613 41.6541 70.5676 42.2597 70.8241 43.0053C70.8707 43.1411 70.8707 43.2885 70.8241 43.4244C70.7062 43.7485 70.5739 44.0672 70.4277 44.3796L70.2412 44.799L71.3605 44.5427C72.0136 44.3796 72.5731 44.2631 73.0629 44.1465L73.2496 44.1V43.9137C73.2496 43.075 73.2262 42.2597 73.1563 41.4676L73.1329 41.095H73.1097V41.0716L72.8764 41.095H72.6665C72.6665 40.3029 72.6899 39.441 72.7365 38.6023L73.2262 38.5326C73.5527 38.4858 73.8791 38.4626 74.2756 38.4392C74.5323 39.2545 74.7188 40.0001 74.8353 40.6757C74.8353 40.7222 74.7887 40.7922 74.5323 40.8619L74.3455 40.9085L74.3689 41.1182C74.3923 41.3513 74.4389 41.5841 74.4623 41.8172C74.5323 42.3297 74.6022 42.8653 74.6954 43.3778L74.7422 43.774H74.7654V43.8206L74.9987 43.774C75.6516 43.634 76.4212 43.4943 77.3074 43.3081C77.9837 43.1681 78.73 43.0284 79.5696 42.8653L79.7795 42.8187L79.7327 42.6556ZM73.4827 35.5739L73.1097 35.6205L72.8298 35.6671C72.8764 35.178 72.9464 34.7121 73.0397 34.2927C73.1563 34.6189 73.2962 34.9915 73.4362 35.4342L73.4827 35.5739Z" fill="white"/>
<path d="M73.1301 33.8731C73.0835 33.7565 73.0369 33.6402 72.967 33.5237C72.7571 34.2224 72.6403 35.0377 72.5703 35.923H72.6637L73.1301 35.8299L73.7832 35.7599C73.7598 35.6902 73.7364 35.6436 73.7132 35.5736C73.5339 35.0017 73.3395 34.4347 73.1301 33.8731Z" fill="#0D0802"/>
<path d="M70.4747 43.262L70.4515 43.1686C70.1948 42.4933 69.775 42.0505 69.0987 41.7943L69.0287 41.7711L68.9588 41.7943C68.8656 41.8177 68.7723 41.8642 68.6791 41.8874H68.6557C68.5392 41.934 68.4458 41.9574 68.3525 41.9808L68.1425 42.0274C67.8629 42.0971 67.6996 42.0971 67.6996 42.0739C67.6762 42.0505 67.6296 41.9574 67.6296 41.5149C67.6062 39.9306 67.653 38.2766 67.6996 36.6694V36.5763C67.7461 35.2482 67.7695 33.8973 67.7695 32.5927C67.7695 32.2898 67.9329 32.1733 68.2125 32.0568L68.3525 31.987V31.8239C68.3525 31.2183 68.3759 30.8455 68.3759 30.4961C68.3993 30.0534 68.4224 29.6806 68.3525 28.9353L68.3293 28.7256H68.1194C67.1632 28.749 65.1809 28.7722 63.152 29.075L62.9421 29.0984V30.5193C62.9421 31.2649 62.9421 31.7539 63.0586 32.5927L63.082 32.7789H63.2919C63.5716 32.7789 63.6184 32.8955 63.6184 33.0817C63.7583 35.2948 63.8049 37.3216 63.8514 39.255V39.3715C63.8748 40.1637 63.8983 40.9556 63.9214 41.7245C63.9682 42.3533 63.9214 42.3533 63.3851 42.5164C63.2919 42.5398 63.222 42.563 63.1752 42.563C63.082 42.563 62.9886 42.5164 62.8487 42.0739C62.4989 40.4431 62.4057 38.23 62.2889 35.691V35.5978C62.2658 34.9454 62.219 34.2698 62.1958 33.5711C62.1958 33.2682 62.219 32.9886 62.4523 32.9189L62.6154 32.8721V32.7092C62.6154 32.4761 62.5922 32.2433 62.5922 31.9405C62.5688 31.5677 62.5457 31.1018 62.4989 30.4496C62.4989 30.1465 62.4523 29.4012 62.4523 29.4012L62.4757 29.075L62.1258 29.1449C62.1024 29.1449 59.9102 29.4943 58.3243 29.8205C58.0082 29.8759 57.6965 29.9537 57.3915 30.0534L57.2284 30.0999V30.2631C57.2516 31.8705 57.2981 32.8721 57.4849 34.1535L57.5081 34.3164L57.6714 34.3398C57.7879 34.3632 57.8113 34.3864 57.8813 34.7357L58.1146 36.2035C58.4177 38.1137 58.6042 39.0921 58.7909 40.1171V40.1403C58.9075 40.7927 59.0474 41.538 59.2573 42.6561C59.4204 43.2852 59.2573 43.4483 59.094 43.588L58.9774 43.7045L59.094 44.5664V44.6364C58.9268 44.4434 58.73 44.2783 58.511 44.147C58.3711 44.0773 58.2312 44.0073 58.0912 43.9608L58.0213 43.9376L57.9513 43.9608C57.3915 44.147 56.9951 44.2636 56.7618 44.2636C56.6453 44.2636 56.6218 44.2404 56.5987 44.217C56.5753 44.1704 56.5053 44.0773 56.5053 43.7045C56.4819 42.3533 56.4587 40.9324 56.4587 39.5112C56.4353 38.1369 56.4353 36.7857 56.4353 35.4579C56.4353 34.992 56.6219 34.7126 57.0417 34.5495L57.1816 34.5029V34.3398C57.1816 32.9886 57.1584 31.8705 57.1116 30.8455L57.0885 30.1699V30.1233L56.8086 30.1931C55.6891 30.4961 54.1965 30.7989 51.8412 31.2415L51.6545 31.288V31.4745C51.6779 33.1283 51.7478 34.4795 51.9109 35.5978L51.9343 35.8073H52.1442C52.2608 35.8073 52.4007 35.8073 52.4241 36.1801C52.5175 37.5313 52.6106 38.8125 52.704 40.0705V40.0937C52.8439 41.7245 52.9605 43.2852 53.0305 44.7995C53.077 45.4285 53.0305 45.4285 52.4941 45.5914C52.4007 45.6148 52.3308 45.6379 52.2842 45.6379C52.1908 45.6379 52.0977 45.5914 51.9577 45.1489C51.5379 43.1455 51.2115 40.1637 51.0247 36.4829C51.0016 36.2266 51.0947 36.0635 51.3514 35.9238L51.4679 35.8541V35.7142C51.4445 34.9454 51.3514 33.4779 51.2115 31.8005L51.1881 31.3812V31.3346L50.9316 31.3812C49.952 31.5211 45.8708 32.0102 45.8243 32.0102L45.6143 32.0336L45.6378 32.2664C45.7543 34.0601 45.8942 35.4347 46.0807 36.5994L46.1041 36.7625L46.2906 36.7857C46.5237 36.8091 46.5237 36.8091 46.6171 37.3216L46.8036 38.4631C47.1769 40.7693 47.5267 42.4933 47.8066 44.0307C48.0165 45.1023 48.2264 46.1273 48.4129 47.2688C48.576 47.8978 48.4129 48.0607 48.2496 48.2006L48.133 48.3169L48.2496 49.0859C48.3661 49.9244 48.506 50.833 48.7859 51.9277L48.8093 52.0443C48.8093 52.0908 48.8327 52.1374 48.8327 52.2074L48.9027 52.5102V52.5568L49.3923 52.3005C50.3484 51.8114 51.4214 51.2521 51.9343 51.0193C52.1676 50.9028 52.5875 50.7165 53.0539 50.4834C53.4552 50.2914 53.8518 50.0895 54.2431 49.8778C54.0726 51.1303 53.886 52.3806 53.6833 53.6283L53.6602 53.7215L53.7067 53.7914C54.0566 54.2807 54.593 54.6301 55.2927 54.7932H55.3626C55.4558 54.7932 55.5491 54.7467 55.5957 54.6533C56.8552 52.3705 57.8813 50.2506 58.581 48.3403C58.8609 47.5948 59.094 46.8728 59.3039 46.1972C59.3738 46.5232 59.4438 46.8494 59.5372 47.2454L59.6303 47.6647V47.7113L59.887 47.6182C60.7033 47.2919 61.5895 47.0357 62.219 46.8494L62.8721 46.6632C63.152 46.5698 63.6649 46.4301 64.1781 46.2904C64.5277 46.1972 64.8776 46.1039 65.1575 46.0107C64.9944 47.2688 64.8544 48.0841 64.6677 49.2722L64.6445 49.3653L64.6911 49.4353C65.0409 49.9244 65.5773 50.2737 66.277 50.4368C66.3236 50.4602 66.347 50.4602 66.3701 50.4602H66.4635L66.5101 50.4368L66.5569 50.4137L66.6034 50.3671C67.7695 48.62 68.5858 47.2454 69.2387 45.941C69.4254 45.5682 69.5885 45.242 69.7285 44.8926L69.7984 44.7761C70.0083 44.287 70.2182 43.7977 70.4281 43.262H70.4747ZM47.9018 48.642L47.8787 48.4557H47.6919C46.8057 48.4323 46.6192 48.0595 46.5726 47.9198C46.4093 46.592 46.2462 45.2642 46.0828 43.983C45.803 41.9328 45.5465 39.8131 45.29 37.4835C45.2432 37.1807 45.3366 37.0408 45.6399 36.9245L45.803 36.8779L45.7796 36.6914C45.6864 35.4801 45.5465 34.362 45.4299 33.3602L45.2666 32.1256L45.0567 32.1487C43.914 32.2421 42.7945 32.3352 41.5119 32.4052C41.0221 32.4284 40.5323 32.4749 40.0193 32.5215L39.6461 32.5449L39.6695 32.7778C39.7629 33.7796 39.8794 34.758 39.9728 35.6198L39.9959 35.7364C40.0427 36.1323 40.0893 36.5051 40.1593 36.8079V36.9011C40.1827 37.0876 40.2058 37.2738 40.2058 37.437L40.2526 37.6466H40.3458V37.6698H40.5091C40.6722 37.6698 40.9289 37.6932 40.9989 37.8329C41.0455 37.9029 41.1154 38.1823 40.6257 38.9279C40.0659 39.7198 39.5061 40.6284 38.9932 41.6068C38.9466 41.7 38.8998 41.7931 38.8298 41.8631C38.7133 40.8613 38.5968 39.7897 38.5034 38.6948C38.4103 38.066 38.6199 37.9494 38.8298 37.8795L39.0166 37.8329L38.9932 37.6466C38.8298 35.9926 38.6667 34.2687 38.4334 32.7778L38.4103 32.5681L38.2003 32.5915C36.4511 32.708 34.7487 32.8477 32.9996 33.0574L32.3699 33.1271L32.3933 33.3602C32.5333 34.7811 32.6498 36.0392 32.7663 37.1341V37.1573C32.8363 37.7398 32.8831 38.2988 32.9531 38.8113C32.9762 38.9279 33.0462 38.9976 33.2096 39.021C33.2561 39.0444 33.3261 39.0444 33.3727 39.0444C33.536 39.0444 33.8393 39.0444 33.8625 39.8131C34.2361 44.0093 34.7105 48.1959 35.285 52.3693C35.425 53.1846 35.1451 53.4175 34.842 53.5574L34.7021 53.6271V53.7902C34.7487 55.7005 34.9352 57.6339 35.3084 59.5676C35.3318 59.6607 35.3784 59.7307 35.4484 59.7538C35.4949 59.7772 35.5183 59.7772 35.5649 59.7772H35.6349L35.6817 59.7538C38.037 58.7057 39.7629 57.867 41.092 57.1214L41.232 57.0517V56.9117C41.0689 54.7221 40.8356 53.0215 40.5557 51.7169L40.4857 51.3209L40.2526 51.3909C40.2292 51.3909 40.2058 51.4141 40.1827 51.4141C39.9959 51.4141 39.9028 50.9482 39.9028 50.8085L39.8794 50.5522C39.7161 48.7817 39.7161 48.7817 41.5818 45.8932L41.9083 45.334C42.1282 46.748 42.2916 48.1702 42.3981 49.5972C42.4446 50.1097 42.3047 50.5288 42.0017 50.7385L41.8851 50.8085L41.9083 50.9482C42.0482 52.5324 42.2581 54.163 42.468 55.7239L42.538 56.0033L42.608 56.3993L42.6546 56.3761V56.3993L42.9113 56.2596C44.1705 55.5608 48.3682 53.0449 48.415 53.0215L48.5316 52.9515L48.5082 52.8118C48.345 51.7635 48.1585 50.296 47.9018 48.642ZM33.3486 58.2178L33.3018 57.7753V57.4724L33.2552 56.9831C33.1386 56.0979 33.0453 55.3291 32.9521 54.6535L32.9287 54.3741H32.9053L32.8822 54.281L32.6489 54.3275C32.5323 54.3507 32.4389 54.3507 32.3456 54.3507C32.0659 54.3507 31.7861 54.281 31.7627 53.6751C31.3428 48.923 30.9464 44.59 30.5732 40.8395C30.4566 39.8843 30.8299 39.6049 31.1098 39.4649L31.2497 39.3952L31.2263 39.2321C31.063 37.0656 30.8299 35.1787 30.55 33.4548L30.5032 33.2451L30.2935 33.2685C25.4193 33.7576 20.242 34.6894 14.8781 36.0406L14.6914 36.0872V36.2734C14.7614 37.6712 14.8313 38.9758 14.8781 40.1871C14.9481 41.6314 15.0181 42.9594 15.0647 44.1707V44.3804H15.2746C15.7176 44.4035 16.0208 44.5201 16.2307 44.7297C16.4407 44.9628 16.5106 45.3122 16.4872 45.7781V45.8247C16.6971 49.878 16.9304 53.6985 17.1401 57.1462C17.1635 58.1946 16.7671 58.7303 15.8343 58.9168L15.6476 58.9633V59.1496C15.7176 61.3395 15.7875 63.436 15.9043 65.3928C15.9043 65.4626 15.9509 65.5326 15.9974 65.5791C16.0442 65.6257 16.1142 65.6491 16.1842 65.6491H16.2307C19.3324 65.09 22.1543 64.4144 24.5796 63.6689L24.7664 63.6223V63.436C24.603 60.9667 24.4631 59.1264 24.2997 57.4259V57.4025L24.0667 57.4259L24.2997 57.3559L24.2766 57.1228L24.0433 57.1462H23.8802C23.5069 57.1462 23.0639 57.0297 22.9472 56.1444C22.5741 50.7399 22.2943 46.5234 22.0609 43.6348C22.0378 42.5866 22.3642 41.9342 22.994 41.7248C23.5769 41.5383 24.1832 41.352 24.7895 41.1889C25.0462 41.1423 25.2328 41.1889 25.3493 41.3054C25.4892 41.4451 25.5592 41.7479 25.5592 42.1673C25.9325 46.5003 26.3289 50.8333 26.7253 55.0963C26.8418 56.1678 26.422 56.4706 26.0256 56.6103L25.8625 56.6803L25.9556 57.5422C26.1421 59.4059 26.3055 61.0133 26.4688 62.4576L26.5388 63.1098V63.1564L26.8187 63.0633C29.4073 62.2245 31.4128 61.4792 32.9753 60.8268C33.0453 60.8268 33.0453 60.8268 33.4885 60.5939L33.6284 60.524L33.605 60.3611C33.5585 59.499 33.4651 58.8234 33.3486 58.2178Z" fill="white"/>
<path d="M9.0464 62.3854C10.6089 62.3854 12.6612 63.7132 14.2237 63.7831C14.1771 62.5251 14.1306 61.2439 14.0838 59.8929V59.7764L13.8039 59.8461C11.1687 60.3354 7.95029 60.2423 6.62109 63.061C7.32056 62.5951 8.1602 62.3622 8.99984 62.3622H9.0464V62.3854Z" fill="url(#paint1_linear_10909_12687)"/>
<path d="M15.4123 55.5149C14.9225 55.5846 14.736 56.3068 14.3861 56.4933C13.9429 56.7261 12.8702 56.633 11.8906 56.3302C12.4972 56.9824 14.2228 57.262 14.7592 57.3783C15.0159 57.4483 15.2955 57.4949 15.5522 57.6114C15.5054 56.9358 15.4589 56.2371 15.4123 55.5149Z" fill="url(#paint2_linear_10909_12687)"/>
<path d="M13.4771 48.34C10.935 49.6912 8.67301 47.2684 6.52734 50.5996C8.01988 50.064 9.69915 49.8309 11.2383 50.2502C12.7308 50.6462 13.7335 52.1605 15.2263 52.4167C15.1095 50.553 15.0164 48.5962 14.8996 46.5694V46.29C14.8996 46.1969 14.8996 46.1503 14.8765 46.1035H14.8531C14.7365 47.0588 14.2233 47.944 13.4771 48.34Z" fill="url(#paint3_linear_10909_12687)"/>
<path d="M6.80768 45.473C8.92994 45.6127 11.3787 42.6309 13.4075 43.12C13.3259 41.0928 13.2326 39.066 13.1277 37.0399C13.1277 36.877 13.1511 36.7139 13.221 36.5508C9.72278 36.6439 5.68816 43.0968 1.11719 40.4178C2.07336 42.5378 4.19563 45.4962 6.80768 45.473Z" fill="url(#paint4_linear_10909_12687)"/>
<path d="M23.2509 26.6981C24.1605 26.8612 25.1864 28.2124 25.7929 28.818C26.1194 29.1442 26.6791 29.6799 27.0756 30.0992L27.0987 30.076C30.2471 27.0009 34.1884 24.7647 38.5029 23.4834C37.5935 21.5266 36.1941 19.0805 34.4683 16.4481C34.4451 16.4249 34.4217 16.3783 34.4217 16.3549C32.4628 13.9788 28.7312 14.8409 27.6353 15.2368C24.3701 16.4481 19.5195 19.9426 21.152 24.0191C21.152 24.0191 21.152 24.0425 21.1286 24.0191C19.5427 22.5982 20.4289 19.9658 21.455 18.4517C22.8776 16.3549 25.0233 15.0271 27.3786 14.0487C29.4543 13.1869 32.0664 13.0937 33.9087 14.305C34.1884 14.235 36.4974 12.5812 36.9869 11.9056C37.0338 11.8357 37.1503 11.8822 37.1503 11.9754C37.0338 12.8141 34.9581 14.6778 34.6316 14.934C34.9581 15.2834 36.2175 17.6596 36.6139 18.3117C37.7101 17.4033 38.6428 16.3084 39.3425 15.004C40.0888 13.6062 40.3918 11.7891 39.8555 10.4613C39.8555 11.5329 39.5056 12.6278 38.7128 13.4197C38.5263 13.6062 38.3164 13.3731 38.4563 13.1635C39.5756 11.5794 39.5756 9.3198 38.0131 7.99201C36.5674 6.75736 34.7481 7.03677 33.7688 8.01518C33.652 8.13172 33.4655 8.36456 33.279 8.55107C33.3256 7.8289 33.3956 6.82709 32.7658 6.05836C32.276 5.47614 31.2267 5.21989 30.0606 5.56927C29.4777 5.77895 28.8945 5.38277 28.3116 5.05679C28.0783 4.96365 27.8684 4.89368 27.6819 4.87028C27.2855 4.84711 26.9122 4.94025 26.5392 5.28963C26.1194 5.68581 25.956 6.38458 25.7695 6.89706C25.5131 7.59583 25.1398 8.31799 24.5569 8.78391C22.8776 10.1817 20.3358 10.2982 18.2835 11.1135C16.2078 12.3947 15.788 13.8856 17.024 15.563C17.5604 16.1453 18.2835 16.5646 18.9364 17.0074C18.9829 17.0305 18.9598 17.1237 18.913 17.1237C17.8636 17.1702 16.8841 16.8674 16.1846 16.2152C15.1117 15.6793 13.456 16.4715 12.593 17.5896C11.4037 19.0805 11.1238 20.6413 11.6836 22.3185C14.4819 28.492 22.2947 26.3721 22.4346 26.3487C22.5746 26.3255 22.6677 26.4884 22.5046 26.5584C20.1259 27.3737 17.6537 27.4436 15.205 26.9311C17.6537 28.818 20.4757 29.0742 23.6938 27.723C23.4839 27.3971 23.2974 27.0709 23.2275 26.768C23.1109 26.7446 23.1809 26.6981 23.2509 26.6981Z" fill="white"/>
<path d="M80.246 42.6089C80.176 41.9102 80.0361 41.118 79.8262 40.2562C79.7819 40.0668 79.6695 39.9004 79.5103 39.7887C79.3512 39.677 79.1565 39.6278 78.9634 39.6505C77.8942 37.2364 76.8447 34.8136 75.815 32.3823C75.8616 32.3358 75.9315 32.2658 75.9549 32.2192C76.0715 32.0329 76.118 31.7767 76.0481 31.567C75.7916 30.6817 75.5585 29.843 75.3486 29.0046C75.2552 28.655 74.9522 28.4221 74.6023 28.3987C73.5294 28.3522 71.9903 28.329 69.9146 28.329C69.798 28.329 69.6815 28.3521 69.565 28.4221C69.4716 28.4687 69.3551 28.5387 69.2851 28.5852C69.1917 28.6318 68.9118 28.8415 68.8653 28.8646C68.7487 28.5387 68.4454 28.3056 68.0956 28.3056C67.3028 28.329 66.2298 28.3521 65.0406 28.4221C64.6459 28.1216 64.2415 27.8342 63.8279 27.5603C61.0059 25.6732 57.8809 24.2754 54.6391 23.3904C52.6802 22.8545 50.6747 22.5283 48.6456 22.3886C48.0015 22.342 47.3559 22.3187 46.7101 22.3186C44.1914 22.3186 41.7427 22.6448 39.3871 23.2504C39.364 23.2504 39.3406 23.2738 39.294 23.2738C38.7108 22.0858 37.918 20.6414 37.1017 19.2671C38.8042 17.8693 40.2034 15.9591 40.7631 13.8625C41.2529 11.9755 40.8331 10.0886 39.5736 9.15677C39.364 8.50457 39.0373 7.89895 38.5709 7.40963C37.3117 6.08184 35.5858 5.91873 33.9533 6.40782C33.9299 6.24494 33.9068 6.08184 33.8368 5.91873C33.2071 4.40443 31.6677 4.05505 30.152 4.54437C29.5689 4.68408 28.9859 4.61411 28.4028 4.3113C28.2628 4.24156 28.0997 4.19476 27.9598 4.14819C27.5634 3.96191 27.1667 3.91535 26.7937 4.00848C25.7442 4.12502 24.9048 4.96372 24.415 6.54776C23.6919 8.90052 19.914 9.38985 17.8851 10.2749C15.2496 11.2533 14.8766 13.2801 15.203 14.6313C15.2705 14.9508 15.3886 15.2575 15.5529 15.5397C13.897 15.3534 12.4979 16.029 11.3084 17.5431C9.6993 19.5699 9.79244 22.0158 11.1918 24.3919C14.5733 29.6568 18.8178 30.4489 23.9486 28.329C24.0417 28.3987 24.1117 28.4687 24.2051 28.5387C24.4615 28.8415 24.718 29.1209 24.9048 29.3771C25.2312 29.7965 25.7676 30.4721 26.1406 30.9846C25.4177 31.7533 24.7414 32.5686 24.1351 33.4307C24.1117 33.4773 24.0885 33.5004 24.0651 33.547C20.9468 34.059 17.8503 34.6963 14.7832 35.4573H14.7598C10.2822 34.0829 6.97071 40.093 3.49585 40.0233C1.7934 40.0233 -1.54175 36.8318 0.277468 40.8152C1.49012 43.4942 3.47245 46.3129 6.69083 46.3129C9.55936 46.3129 12.3811 43.2845 13.4306 44.4026C13.4306 44.5426 13.4306 44.6823 13.454 44.822C13.454 45.1716 13.6405 45.4744 13.897 45.6607C13.967 47.2447 11.8913 48.2697 9.44259 47.8971C6.85394 47.501 5.96773 49.3415 5.22146 50.739C4.89501 51.368 5.50134 52.0436 6.15447 51.7874C7.69357 51.1584 9.34945 50.7624 11.0051 51.2049C12.7075 51.6708 13.5472 53.2083 15.3196 53.4414C15.343 53.8373 15.3662 54.2101 15.3896 54.5829C14.1069 54.676 14.6667 55.8873 13.1274 55.8641C12.661 55.8641 11.3549 55.3748 10.9351 55.3282C10.2123 55.2817 10.1889 55.8176 10.7486 56.4697C11.9613 57.8907 13.4072 57.6578 14.8298 58.4034C13.0574 59.4749 10.5621 58.939 8.62635 59.8009C6.80737 60.6165 5.59471 62.1305 5.19829 64.0174C5.05835 64.6698 5.80462 65.1823 6.36438 64.8095C6.97071 64.3902 7.57704 63.5748 8.41644 63.4351C10.4921 63.0858 11.9613 64.5767 13.897 64.8795C14.037 64.9026 14.1535 64.9026 14.2703 64.9026C14.2934 65.322 14.3168 65.7179 14.3402 66.1373C14.3634 66.4401 14.5034 66.7197 14.7598 66.906C14.9466 67.046 15.1796 67.1391 15.413 67.1391C15.4829 67.1391 15.5529 67.1391 15.5995 67.1157C18.538 66.58 21.2432 65.951 23.7387 65.2289C23.7618 65.2289 23.8086 65.2054 23.8318 65.2054C23.8786 65.1823 23.9486 65.1823 23.9952 65.1589C24.0186 65.1589 24.0186 65.1357 24.0417 65.1357C24.9279 64.9026 25.1612 64.3902 25.1612 64.0642C27.1667 66.7432 29.8253 69.0725 32.6939 70.9828C37.5681 74.2208 42.8854 75.8982 48.669 76.0379H49.4618C58.5806 76.0379 66.8595 72.3106 71.8737 65.322C75.885 59.7312 77.564 52.9289 76.3279 46.0566C76.2814 45.7538 76.2114 45.4278 76.1414 45.1248C76.7478 45.0085 77.4241 44.892 78.1472 44.7522L78.3337 44.7288C78.3802 44.7288 78.427 44.7057 78.4736 44.6823L80.0827 43.1448C80.1995 43.0517 80.2694 42.842 80.246 42.6089ZM6.80807 45.4744C4.19602 45.4976 2.07375 42.5392 1.11757 40.4193C5.68855 43.0982 9.72317 36.6453 13.2214 36.5522C13.1515 36.6919 13.1281 36.855 13.1281 37.0413C13.2448 39.3243 13.338 41.3511 13.4079 43.1214C11.3556 42.6555 8.93033 45.6141 6.80807 45.4744ZM9.04687 62.3868H9.0003C8.16066 62.3868 7.32102 62.6198 6.62156 63.0858C7.95075 60.2668 11.1925 60.3602 13.8044 59.8709L14.0842 59.8009V59.9175C14.131 61.2452 14.1776 62.5499 14.2242 63.8079C12.6617 63.7146 10.6094 62.3868 9.04687 62.3868ZM68.1188 29.0516C68.1653 29.7738 68.1653 30.1463 68.1419 30.5657C68.1188 30.9151 68.1188 31.2878 68.1188 31.8935C67.8855 31.9868 67.5356 32.1497 67.5356 32.639C67.5356 33.9668 67.489 35.318 67.4656 36.6692C67.4191 38.2998 67.3725 39.977 67.3957 41.5844C67.3957 42.0038 67.4191 42.2134 67.5356 42.3066C67.5824 42.3531 67.6755 42.3997 67.7923 42.3997C67.9089 42.3997 68.0254 42.3765 68.2119 42.33C68.3518 42.3066 68.5386 42.2368 68.7251 42.1669C68.7485 42.1669 68.7485 42.1669 68.7717 42.1435C68.865 42.1203 68.9582 42.0737 69.0515 42.0503C69.6579 42.26 70.0311 42.656 70.2642 43.285C70.0543 43.7975 69.8678 44.2868 69.6347 44.7759H69.6113C69.442 45.1608 69.2632 45.5414 69.0749 45.9174C68.4452 47.1754 67.629 48.5264 66.4395 50.297H66.4163C65.7632 50.1338 65.2734 49.831 64.947 49.3651C65.1569 48.0139 65.2968 47.1754 65.4833 45.7077C65.4601 45.7077 65.4133 45.7311 65.3668 45.7311C65.1103 45.8474 64.6439 45.9874 64.1541 46.1271C63.6409 46.2668 63.128 46.4067 62.8481 46.4999L62.2418 46.6861C61.5889 46.8726 60.6793 47.1289 59.8396 47.4783V47.4317C59.8165 47.3851 59.8164 47.3383 59.8164 47.2686C59.5366 46.1505 59.4198 45.3349 59.3267 44.6362L59.2099 43.8906C59.3966 43.7043 59.6997 43.5181 59.4898 42.7028C59.3457 41.8698 59.1902 41.0388 59.0234 40.2101C58.8369 39.1851 58.6504 38.2067 58.3237 36.2964L58.0906 34.8287C58.044 34.5259 57.9972 34.2696 57.6942 34.2231C57.5074 32.9187 57.4609 31.8935 57.4375 30.356C57.7331 30.2514 58.0375 30.1734 58.3471 30.1232C59.9562 29.7738 62.1252 29.4476 62.1252 29.4476L62.1952 29.4242V29.471C62.1952 29.471 62.2184 30.2397 62.2418 30.5425C62.3117 31.2181 62.3351 31.684 62.3351 32.0334C62.3583 32.3362 62.3583 32.5459 62.3583 32.7787C61.9385 32.9187 61.9385 33.3846 61.9385 33.664C61.9853 34.4096 62.0084 35.1317 62.0319 35.8071C62.1484 38.3698 62.2418 40.5594 62.5916 42.2134C62.7316 42.656 62.8481 42.889 63.128 42.889C63.2213 42.889 63.3145 42.8656 63.4078 42.8425C64.0142 42.656 64.1541 42.5628 64.1075 41.7941C64.0841 41.0022 64.0607 40.2101 64.0376 39.3714C63.9908 37.4145 63.9208 35.3646 63.8043 33.1281C63.7809 32.7787 63.5944 32.6156 63.2445 32.6156C63.128 31.8003 63.128 31.3112 63.128 30.5891V29.3776C65.1803 29.0982 67.1626 29.0516 68.1188 29.0516ZM35.4927 52.3237C34.9563 48.4567 34.4899 44.2402 34.0701 39.7907C34.0467 39.1151 33.8136 38.8123 33.3472 38.8123H33.2539L33.1605 38.7891C33.0908 38.2764 33.044 37.7407 32.974 37.1351C32.8575 36.0168 32.7409 34.759 32.601 33.3612L33.0208 33.3146C34.7424 33.1156 36.4687 32.9603 38.1981 32.8487C38.408 34.2231 38.5711 35.8305 38.7576 37.7173C38.338 37.8573 38.1981 38.1833 38.2681 38.7891C38.3846 40.1401 38.5245 41.4447 38.6877 42.6328C38.851 42.33 39.0143 42.0503 39.1774 41.7709C39.6586 40.8533 40.196 39.9663 40.7868 39.1151C41.1832 38.5095 41.3231 38.0436 41.1832 37.7639C41.0898 37.5776 40.8567 37.4845 40.4835 37.4845V37.4611H40.4135C40.3901 37.2748 40.3669 37.0418 40.3435 36.8323C40.2736 36.4827 40.227 36.1333 40.1804 35.7605C40.0871 34.8521 39.9705 33.8737 39.8771 32.8021H40.0171C41.9294 32.6624 43.4919 32.5691 45.0779 32.4294L45.241 33.3846C45.3577 34.3862 45.4977 35.5277 45.5908 36.7389C45.171 36.8789 45.0079 37.1351 45.0779 37.5545C45.3109 39.8838 45.5908 42.0038 45.8707 44.0537C46.0569 45.3708 46.2202 46.6911 46.3605 48.0139C46.4304 48.2936 46.7569 48.6895 47.6897 48.7361C47.8961 50.0981 48.0673 51.4653 48.2029 52.8362C48.2029 52.8362 43.9817 55.3753 42.7223 56.0743V55.9811L42.6523 55.7249C42.4424 54.164 42.2325 52.5334 42.0925 50.9491C42.4658 50.6929 42.6523 50.2038 42.5823 49.5982C42.4424 47.8276 42.2559 46.2668 41.9994 44.7061C41.9114 44.8569 41.818 45.0045 41.7195 45.1487L41.3463 45.8009C39.4339 48.7595 39.4339 48.7595 39.5973 50.5998L39.6207 50.856C39.6906 51.3919 39.8771 51.6713 40.1336 51.6713C40.1804 51.6713 40.227 51.6713 40.2736 51.6481V51.6947C40.2736 51.7413 40.297 51.7644 40.297 51.8112C40.6 53.1856 40.8099 54.8862 40.9733 56.9827C39.5507 57.7514 37.8014 58.5901 35.5626 59.5917H35.5161L35.4927 59.5685C35.1428 57.6583 34.9329 55.7249 34.9097 53.8146C35.4461 53.535 35.6326 53.0691 35.4927 52.3237ZM33.6971 53.4418V53.465C33.5814 53.5115 33.4763 53.5808 33.3881 53.6689C33.2999 53.757 33.2304 53.8621 33.1839 53.9777L33.1605 53.9543C33.0529 53.8879 32.9346 53.8406 32.8109 53.8146C32.601 53.4884 32.3911 53.1156 32.2046 52.8128C31.8079 48.3635 31.4349 44.3565 31.085 40.8157C31.085 40.7225 31.0616 40.6294 31.0616 40.5594C31.155 40.4197 31.2016 40.2332 31.225 40.0469C31.2484 40.0469 31.2484 40.0469 31.2716 40.0238C31.3415 40.0004 31.3881 39.9538 31.4581 39.9072C31.528 40.0469 31.6214 40.1867 31.7613 40.3032C31.9013 40.4197 32.0878 40.4895 32.2743 40.5129V40.5594C32.6481 44.7634 33.1225 48.9578 33.6971 53.139V53.4418ZM54.4063 49.5982C54.1264 49.7611 53.5201 50.0641 52.9603 50.3435C52.4939 50.5766 52.0741 50.7629 51.8411 50.8794C51.3279 51.1123 50.2318 51.6713 49.2522 52.1838L49.0425 52.3003V52.2538C49.0191 52.1606 48.9957 52.0675 48.9957 51.9741C48.7158 50.8328 48.5759 49.901 48.4593 49.1323L48.366 48.4798C48.5527 48.3167 48.8558 48.1073 48.6458 47.2918C48.4593 46.1736 48.2494 45.1487 48.0395 44.0771C47.7365 42.5163 47.3866 40.7691 47.0134 38.4395L46.8503 37.3914C46.7569 36.8555 46.7103 36.7158 46.3139 36.6692C46.1272 35.4112 45.9872 33.9668 45.8707 32.3594C45.8707 32.3594 49.9987 31.8703 50.978 31.7306V31.9634C51.1414 33.9437 51.2113 35.248 51.2345 35.8771C50.908 36.0633 50.7681 36.3196 50.7915 36.6692C50.978 40.3498 51.3045 43.355 51.7243 45.3583C51.8642 45.8009 51.9808 46.0339 52.2606 46.0339C52.354 46.0339 52.4474 46.0105 52.5405 45.9874C53.1469 45.8009 53.2868 45.7077 53.2402 44.939C53.1936 43.4015 53.0537 41.8407 52.9138 40.1867C52.8204 38.952 52.7039 37.6708 52.6339 36.3196C52.6105 35.9236 52.4474 35.7374 52.1207 35.7374C51.9576 34.5493 51.8876 33.1981 51.8642 31.6372C54.0099 31.2413 55.619 30.9151 56.8316 30.5891V31.0316C56.8784 32.1731 56.9016 33.3146 56.9016 34.5259C56.3886 34.7356 56.1322 35.0849 56.1322 35.6442C56.1322 36.972 56.1322 38.3232 56.1553 39.6976C56.1787 41.0719 56.1787 42.4697 56.2021 43.8906C56.2021 44.2402 56.2487 44.4499 56.3652 44.5662C56.4352 44.6362 56.5517 44.6827 56.6917 44.6827C56.9716 44.6827 57.3914 44.5662 57.9511 44.3565C58.0911 44.4031 58.231 44.4499 58.3242 44.5196C58.744 44.7527 59.0472 45.1253 59.2338 45.6146C59.0007 46.4999 58.7208 47.4317 58.3475 48.3867C57.6247 50.2735 56.6217 52.3935 55.3625 54.6765C55.3625 54.6997 55.3391 54.6997 55.3159 54.6997C54.6628 54.5368 54.173 54.234 53.8465 53.7681C54.0565 52.4169 54.2664 51.0425 54.4529 49.5748L54.4063 49.5982ZM57.0415 43.844C57.0184 42.5163 56.995 41.2584 56.995 40.0004C57.2049 41.1885 57.3914 42.0272 57.6713 43.6344V43.6578C57.4148 43.7277 57.2049 43.7975 57.0415 43.844ZM56.9484 29.7969C56.855 29.7969 56.7616 29.7969 56.6917 29.8203C55.5024 30.1232 53.8699 30.4725 51.8177 30.7988C51.6311 30.8219 51.4912 30.9151 51.3744 31.0316C51.2113 30.9385 51.048 30.9151 50.8615 30.9385C49.6954 31.1247 48.0163 31.3112 45.8241 31.5209C45.6842 31.5441 45.5442 31.5907 45.4277 31.684C45.3109 31.6141 45.1478 31.5907 45.0079 31.6141C43.3986 31.7538 41.8129 31.8469 39.8771 31.9403C39.8072 31.9403 39.7606 31.9634 39.6906 31.9634C39.4579 32.033 39.2431 32.1522 39.0609 32.3128C39.0375 32.3362 38.9909 32.3594 38.9675 32.3594C38.9444 32.3594 38.8976 32.3828 38.8744 32.3828C38.7111 32.1497 38.4546 31.9868 38.1513 32.01C37.4984 32.0566 36.7753 32.1031 35.9825 32.1731C41.603 27.4907 50.0218 26.4192 57.2748 29.5641C57.1583 29.6572 57.0415 29.7272 56.9484 29.7969ZM40.7168 50.4832C40.7168 50.5998 40.6934 50.6697 40.6934 50.7163C40.6234 50.7629 40.5768 50.856 40.5069 50.9026C40.4601 50.8794 40.4135 50.856 40.3669 50.856C40.3669 50.8094 40.3435 50.7629 40.3435 50.7163C40.297 50.1804 40.2504 49.7845 40.2504 49.5282C40.2504 49.1554 40.297 48.9458 40.53 48.4798C40.6 49.0857 40.6468 49.6913 40.6934 50.3435C40.7168 50.3901 40.7168 50.4367 40.7168 50.4832ZM40.3435 58.7067C40.8333 58.5436 41.2763 58.1242 41.4862 57.6583C41.7895 57.7748 42.1393 57.7748 42.4192 57.6117C43.7019 56.9127 45.2178 56.0509 46.2205 55.4452C47.1533 54.8862 47.2932 54.793 47.923 54.3969C48.0798 54.3101 48.2092 54.181 48.2962 54.0243C48.4593 54.0243 48.5993 53.9777 48.7392 53.9078C49.7654 53.3719 50.978 52.7429 51.4912 52.51C51.7011 52.4169 52.0507 52.2304 52.4474 52.0441C52.3306 52.7897 52.2141 53.535 52.0975 54.234C52.0507 54.5134 52.1207 54.793 52.284 55.0259C52.7738 55.7015 53.5201 56.144 54.3363 56.3537C54.8027 56.4702 55.1991 56.3071 55.5256 55.8412C55.8754 55.3521 56.0154 55.119 56.0854 55.0027C57.2514 52.906 58.161 50.9957 58.8839 49.202C59.0704 49.2254 59.2572 49.2254 59.4203 49.1554C60.4698 48.7361 61.6593 48.4333 62.3588 48.2004C62.5921 48.1305 62.9885 48.0139 63.4317 47.8976C63.338 48.56 63.2291 49.2202 63.105 49.8776C63.0585 50.1572 63.1284 50.4367 63.2918 50.6697C63.7813 51.3453 64.5276 51.7878 65.3438 51.9975C65.4138 52.0209 65.4606 52.0209 65.5306 52.0209C65.7171 52.0675 65.927 52.0209 66.0903 51.9044C66.2259 51.8378 66.3453 51.7424 66.44 51.6247C66.7432 51.3219 66.9765 50.926 67.0931 50.7629C67.9327 49.5048 68.5856 48.4567 69.122 47.5014C68.9355 50.5298 67.9093 53.535 65.927 56.1674C59.98 64.1344 47.8296 65.8815 38.7815 60.081C38.595 59.9645 38.4316 59.848 38.2451 59.7317C38.9579 59.4175 39.658 59.0756 40.344 58.7067H40.3435ZM44.3316 23.2982H44.4481C44.9379 23.2516 45.4043 23.205 45.8941 23.1819C46.1506 23.1585 46.407 23.1585 46.6635 23.1585C46.9434 23.1585 47.2001 23.1353 47.4798 23.1353C48.0863 23.1353 48.6926 23.1585 49.299 23.205C54.4063 23.5312 59.3737 25.2318 63.6882 28.0971C63.8981 28.237 64.0846 28.3767 64.2711 28.5164C63.8981 28.5398 63.5249 28.5864 63.1284 28.633C62.9419 28.6561 62.7786 28.7495 62.662 28.8658C62.4987 28.7727 62.3122 28.7261 62.1257 28.7495C61.1461 28.9124 59.9335 29.0989 58.3242 29.4249C50.2551 25.3715 40.5069 26.6062 34.4197 32.4069C33.8368 32.4535 33.2302 32.5232 32.5773 32.5698C31.6911 32.6631 31.2481 33.1522 31.0848 33.3385C30.9683 33.0125 30.6416 32.7794 30.2686 32.826C29.0091 32.9425 27.7033 33.1057 26.3973 33.2919C30.595 27.7011 37.1017 24.1137 44.3313 23.2982H44.3316ZM23.2491 26.6993C23.1791 26.6761 23.1326 26.7459 23.1326 26.8159C23.2025 27.1421 23.3891 27.4681 23.599 27.7711C20.3806 29.1221 17.5355 28.8658 15.1099 26.979C17.5586 27.4915 20.0307 27.4215 22.4095 26.6062C22.5728 26.5364 22.4795 26.3965 22.3395 26.3965C22.1996 26.4199 14.387 28.5398 11.5885 22.3666C11.0053 20.6892 11.3086 19.1051 12.4981 17.6374C13.3609 16.5193 15.0399 15.704 16.0895 16.263C16.7658 16.9152 17.7454 17.2183 18.8181 17.1715C18.8881 17.1715 18.8881 17.0783 18.8415 17.0552C18.1884 16.6124 17.4655 16.1931 16.9291 15.6108C15.6931 13.9103 16.1129 12.4194 18.1884 11.1613C20.2406 10.346 22.7827 10.2529 24.4618 8.83172C25.0449 8.34264 25.4179 7.62047 25.6744 6.94488C25.8843 6.43239 26.0243 5.71023 26.4441 5.33744C26.8173 4.98806 27.1904 4.91809 27.5868 4.91809C27.7735 4.94149 28.0066 5.01146 28.2165 5.1046C28.8228 5.40741 29.3826 5.80336 29.9655 5.61709C31.155 5.26771 32.1812 5.50055 32.6709 6.10617C33.3238 6.87491 33.2305 7.87672 33.1839 8.59888C33.3704 8.41261 33.5572 8.17953 33.6737 8.06299C34.6533 7.08458 36.4957 6.80517 37.9182 8.03982C39.4807 9.36761 39.4807 11.6272 38.3612 13.2113C38.2213 13.3978 38.4546 13.6306 38.6177 13.4675C39.4108 12.6756 39.7838 11.6041 39.7606 10.5091C40.297 11.8369 39.9937 13.654 39.2474 15.0518C38.5477 16.3562 37.6149 17.4511 36.5188 18.3596C36.1224 17.7308 34.8632 15.3312 34.5365 14.9818C34.8398 14.7256 36.9152 12.8619 37.0552 12.0232C37.0786 11.9301 36.962 11.8835 36.8921 11.9535C36.4023 12.6291 34.1167 14.2597 33.8136 14.3528C31.9712 13.1415 29.3826 13.2347 27.2837 14.0965C24.9282 15.0518 22.7827 16.3796 21.3602 18.4995C20.334 20.0136 19.471 22.6694 21.0335 24.0671H21.0569C19.4244 19.9904 24.2984 16.4727 27.5402 15.2846C28.6363 14.8653 32.3911 14.0268 34.3266 16.4027C34.35 16.4261 34.3734 16.4493 34.3734 16.4961C36.1224 19.1051 37.4984 21.5744 38.408 23.5312C34.0701 24.7891 30.1523 27.0489 27.0039 30.1005L26.9805 30.1239C26.5606 29.7045 26.0011 29.1686 25.6978 28.8426C25.1846 28.2136 24.1587 26.8858 23.2491 26.6993ZM11.2386 50.2504C9.69953 49.831 7.99709 50.0641 6.52772 50.5998C8.67339 47.2686 10.9354 49.6913 13.4774 48.3401C14.2471 47.9442 14.7601 47.0355 14.9 46.0805C14.9 46.1271 14.9234 46.197 14.9234 46.3133V46.593C15.0399 48.6198 15.1333 50.5766 15.2499 52.44C13.7573 52.1606 12.7312 50.6697 11.2386 50.2504ZM14.7601 57.3787C14.2237 57.2623 12.5213 56.9827 11.8915 56.3305C12.8711 56.6333 13.9438 56.7265 14.387 56.4936C14.7601 56.3071 14.9234 55.5849 15.4132 55.5152C15.4598 56.2374 15.5063 56.9361 15.5297 57.6117C15.2964 57.4952 15.0168 57.4255 14.7601 57.3787ZM25.1147 56.4936C25.0915 56.4936 25.1147 56.4936 25.0449 56.5168C24.8641 56.5839 24.7034 56.6962 24.5783 56.843C24.4152 56.7033 24.2053 56.6333 23.9954 56.6565H23.8788C23.6921 56.6565 23.6689 56.6099 23.6455 56.5868C23.599 56.5633 23.529 56.4236 23.4822 56.0974C23.1092 50.6232 22.8293 46.4533 22.596 43.5878V43.5646C22.596 43.4015 22.6194 43.2618 22.6428 43.1453C23.0858 43.0056 23.529 42.8656 23.972 42.7493V42.9356C24.3452 47.1986 24.7417 51.5082 25.1381 55.8646C25.1381 55.9577 25.1615 56.0509 25.1615 56.1208C25.1615 56.3771 25.1147 56.4702 25.1147 56.4936ZM26.7705 62.8066C26.7474 62.69 26.7474 62.5737 26.724 62.4338C26.5375 60.8032 26.3507 58.9629 26.1408 56.843C26.8173 56.5868 27.0738 56.0277 26.9805 55.0959C26.5606 50.7395 26.1876 46.4299 25.8144 42.1669C25.8144 41.701 25.7212 41.3516 25.5345 41.1651C25.3945 41.0254 25.2314 40.9554 24.9981 40.9554C24.9282 40.9554 24.8582 40.9554 24.7651 40.9788L22.9458 41.5378C22.1996 41.7941 21.8266 42.4931 21.8266 43.6578C22.1344 47.8346 22.4298 52.0122 22.7128 56.1908C22.8059 57.0061 23.1791 57.4255 23.8788 57.4255H24.0654V57.5186C24.2753 59.452 24.4152 61.4322 24.5317 63.5053C22.0131 64.2743 19.2379 64.9265 16.206 65.4856H16.1829L16.1595 65.4622C16.0342 63.383 15.9487 61.3016 15.903 59.2192C16.9523 59.0095 17.4187 58.3571 17.3955 57.2158C17.1856 53.7681 16.9523 49.9941 16.7424 45.8708C16.7892 45.3349 16.6724 44.9158 16.4393 44.6362C16.206 44.3799 15.833 44.2168 15.3198 44.2168C15.2033 42.0038 15.0867 39.3948 14.9468 36.3196C20.3806 34.9452 25.5579 34.0368 30.3388 33.5709C30.6554 35.477 30.881 37.3972 31.0151 39.3248C30.4553 39.581 30.2454 40.0935 30.3388 40.9322C30.7118 44.7061 31.1084 48.9923 31.528 53.7681C31.5514 54.3737 31.8079 54.6531 32.3443 54.6531C32.461 54.6531 32.5542 54.6299 32.6941 54.6065V54.7231C32.8109 55.5384 32.9274 56.447 33.0674 57.5186V57.8446C33.0908 58.0077 33.1139 58.1476 33.1373 58.3105C33.2539 58.9861 33.3472 59.6851 33.4638 60.4538L33.044 60.6635H33.0208C31.3881 61.3623 29.3126 62.1078 26.7939 62.9231C26.7705 62.83 26.7705 62.83 26.7705 62.8066ZM71.453 64.0412C66.6955 70.6804 58.6962 74.6406 50.0441 74.6406H49.2978C43.7941 74.5009 38.4534 72.8003 33.8359 69.702C31.4803 68.118 29.3814 66.2077 27.6324 64.0878C29.7778 63.3656 31.5737 62.69 33.0196 62.0844C33.0896 62.061 33.1362 62.0144 33.1827 61.9913C33.556 61.7816 33.859 61.3391 33.999 60.9197C34.0689 60.9895 34.1389 61.0828 34.2554 61.1294C34.4188 61.1991 34.5821 61.2457 34.7686 61.2457C34.9086 61.2457 35.0717 61.2225 35.2116 61.1526C35.8414 60.8732 36.4245 60.6169 36.984 60.3607C37.3573 60.6401 37.7537 60.9197 38.1501 61.1991C47.5486 67.3492 60.1888 65.4856 66.3698 57.0527C68.7019 53.8844 69.7746 50.227 69.7047 46.5696C69.7047 46.5696 69.7047 46.5464 69.7281 46.5464C70.4977 46.3599 71.1506 46.2202 71.687 46.1037L71.8503 46.0805C71.9203 46.0571 71.9669 46.0339 72.0137 45.9874L72.0368 45.964C72.0602 45.9408 72.0836 45.9408 72.0836 45.9174L72.9231 45.1253V45.1952L72.9464 45.4049C72.9464 45.5215 73.0164 45.6146 73.1098 45.6846C73.1798 45.7311 73.2729 45.7543 73.3429 45.7543H73.4128L73.6227 45.7077C74.1591 45.5912 74.7888 45.4749 75.4885 45.3349C75.5117 45.4515 75.5351 45.5912 75.5585 45.7077C76.7012 52.2304 75.2786 58.7298 71.4539 64.0412H71.453ZM74.9044 43.5878V43.5412C74.9044 43.4947 74.8813 43.4481 74.8813 43.4015C74.7645 42.6094 74.6714 41.8641 74.5546 41.1419C74.8813 41.0488 75.0212 40.9322 75.0212 40.7225C74.9044 40.0004 74.6945 39.1617 74.3915 38.2532C73.9251 38.2764 73.5284 38.2998 73.1554 38.3464C72.9221 38.3698 72.689 38.4163 72.4791 38.4629C72.4323 39.3714 72.4092 40.3032 72.4092 41.1419C72.4323 41.305 72.5257 41.3747 72.7356 41.3747H72.8755V41.5147C72.9455 42.4231 72.9689 43.2152 72.9689 43.9606C72.1788 44.1587 71.3858 44.3451 70.5902 44.5196C70.7299 44.1937 70.8466 43.8906 70.9866 43.5412C71.0565 43.3535 71.0565 43.1468 70.9866 42.959C70.8463 42.5544 70.6159 42.1868 70.3129 41.8842C70.0099 41.5815 69.6422 41.3515 69.2374 41.2116C69.1908 41.1885 69.1442 41.1885 69.0974 41.1885C69.5872 37.7639 69.9836 34.8987 70.2869 32.6156C70.3569 32.4062 70.3803 32.2431 70.3103 32.1265C70.2635 32.01 70.1236 31.9169 69.937 31.8469C69.8905 31.1247 69.8671 30.2163 69.8671 29.0982C70.5202 29.0748 71.1031 29.0748 71.6629 29.0748C72.1992 29.0748 72.7122 29.0748 73.1554 29.0982C73.7152 29.0982 74.1816 29.1214 74.578 29.1448C74.8345 30.0066 75.0678 30.8685 75.3243 31.7538C75.1143 31.8237 74.9978 31.8935 74.9512 31.9868C74.8813 32.1031 74.9278 32.2897 75.0678 32.5225C76.1639 35.0849 77.2832 37.6476 78.4027 40.2101C78.4961 40.3498 78.636 40.3963 78.8457 40.3963C78.9157 40.3963 78.9856 40.3963 79.0556 40.3732C79.2889 41.235 79.4288 42.0038 79.4988 42.656C77.5631 43.0753 76.0471 43.355 74.9044 43.5878Z" fill="#0D0802"/>
</g>
<defs>
<radialGradient id="paint0_radial_10909_12687" cx="0" cy="0" r="1" gradientUnits="userSpaceOnUse" gradientTransform="translate(49.6507 45.6686) scale(19.5649 17.8578)">
<stop offset="0.285" stop-color="#FDEA18"/>
<stop offset="0.462" stop-color="#FDE616"/>
<stop offset="0.63" stop-color="#FCDB10"/>
<stop offset="0.793" stop-color="#FBC806"/>
<stop offset="0.864" stop-color="#FABD00"/>
<stop offset="1" stop-color="#F39708"/>
</radialGradient>
<linearGradient id="paint1_linear_10909_12687" x1="6.62109" y1="61.8059" x2="14.2237" y2="61.8059" gradientUnits="userSpaceOnUse">
<stop offset="0.009" stop-color="#F9E925"/>
<stop offset="0.173" stop-color="#F9E522"/>
<stop offset="0.327" stop-color="#FADA1B"/>
<stop offset="0.478" stop-color="#FBC70E"/>
<stop offset="0.521" stop-color="#FBC009"/>
<stop offset="0.972" stop-color="#EC6D1D"/>
</linearGradient>
<linearGradient id="paint2_linear_10909_12687" x1="11.8906" y1="56.5611" x2="15.5447" y2="56.5611" gradientUnits="userSpaceOnUse">
<stop offset="0.009" stop-color="#F9E925"/>
<stop offset="0.173" stop-color="#F9E522"/>
<stop offset="0.327" stop-color="#FADA1B"/>
<stop offset="0.478" stop-color="#FBC70E"/>
<stop offset="0.521" stop-color="#FBC009"/>
<stop offset="0.972" stop-color="#EC6D1D"/>
</linearGradient>
<linearGradient id="paint3_linear_10909_12687" x1="6.51865" y1="49.2782" x2="15.2348" y2="49.2782" gradientUnits="userSpaceOnUse">
<stop offset="0.009" stop-color="#F9E925"/>
<stop offset="0.173" stop-color="#F9E522"/>
<stop offset="0.327" stop-color="#FADA1B"/>
<stop offset="0.478" stop-color="#FBC70E"/>
<stop offset="0.521" stop-color="#FBC009"/>
<stop offset="0.972" stop-color="#EC6D1D"/>
</linearGradient>
<linearGradient id="paint4_linear_10909_12687" x1="1.1049" y1="41.0248" x2="13.3953" y2="41.0248" gradientUnits="userSpaceOnUse">
<stop offset="0.009" stop-color="#F9E925"/>
<stop offset="0.173" stop-color="#F9E522"/>
<stop offset="0.327" stop-color="#FADA1B"/>
<stop offset="0.478" stop-color="#FBC70E"/>
<stop offset="0.521" stop-color="#FBC009"/>
<stop offset="0.972" stop-color="#EC6D1D"/>
</linearGradient>
<clipPath id="clip0_10909_12687">
<rect width="80" height="80" rx="40" fill="white"/>
</clipPath>
</defs>
</svg>
